<svg width="1512" height="777" viewBox="0 0 1512 777" fill="none" xmlns="http://www.w3.org/2000/svg">
<mask id="path-1-outside-1_174_12157" maskUnits="userSpaceOnUse" x="-20" y="0" width="1553" height="777" fill="black">
<rect fill="white" x="-20" width="1553" height="777"/>
<path d="M-19 13C-19 6.37258 -13.6274 1 -7 1H65C71.6274 1 77 6.37258 77 13V85C77 91.6274 71.6274 97 65 97H-7C-13.6274 97 -19 91.6274 -19 85V13Z"/>
<path d="M78 13C78 6.37258 83.3726 1 90 1H162C168.627 1 174 6.37258 174 13V85C174 91.6274 168.627 97 162 97H90C83.3726 97 78 91.6274 78 85V13Z"/>
<path d="M175 13C175 6.37258 180.373 1 187 1H259C265.627 1 271 6.37258 271 13V85C271 91.6274 265.627 97 259 97H187C180.373 97 175 91.6274 175 85V13Z"/>
<path d="M272 13C272 6.37258 277.373 1 284 1H356C362.627 1 368 6.37258 368 13V85C368 91.6274 362.627 97 356 97H284C277.373 97 272 91.6274 272 85V13Z"/>
<path d="M369 13C369 6.37258 374.373 1 381 1H453C459.627 1 465 6.37258 465 13V85C465 91.6274 459.627 97 453 97H381C374.373 97 369 91.6274 369 85V13Z"/>
<path d="M466 13C466 6.37258 471.373 1 478 1H550C556.627 1 562 6.37258 562 13V85C562 91.6274 556.627 97 550 97H478C471.373 97 466 91.6274 466 85V13Z"/>
<path d="M563 13C563 6.37258 568.373 1 575 1H647C653.627 1 659 6.37258 659 13V85C659 91.6274 653.627 97 647 97H575C568.373 97 563 91.6274 563 85V13Z"/>
<path d="M660 13C660 6.37258 665.373 1 672 1H744C750.627 1 756 6.37258 756 13V85C756 91.6274 750.627 97 744 97H672C665.373 97 660 91.6274 660 85V13Z"/>
<path d="M757 13C757 6.37258 762.373 1 769 1H841C847.627 1 853 6.37258 853 13V85C853 91.6274 847.627 97 841 97H769C762.373 97 757 91.6274 757 85V13Z"/>
<path d="M854 13C854 6.37258 859.373 1 866 1H938C944.627 1 950 6.37258 950 13V85C950 91.6274 944.627 97 938 97H866C859.373 97 854 91.6274 854 85V13Z"/>
<path d="M951 13C951 6.37258 956.373 1 963 1H1035C1041.63 1 1047 6.37258 1047 13V85C1047 91.6274 1041.63 97 1035 97H963C956.373 97 951 91.6274 951 85V13Z"/>
<path d="M1048 13C1048 6.37258 1053.37 1 1060 1H1132C1138.63 1 1144 6.37258 1144 13V85C1144 91.6274 1138.63 97 1132 97H1060C1053.37 97 1048 91.6274 1048 85V13Z"/>
<path d="M1145 13C1145 6.37258 1150.37 1 1157 1H1229C1235.63 1 1241 6.37258 1241 13V85C1241 91.6274 1235.63 97 1229 97H1157C1150.37 97 1145 91.6274 1145 85V13Z"/>
<path d="M1242 13C1242 6.37258 1247.37 1 1254 1H1326C1332.63 1 1338 6.37258 1338 13V85C1338 91.6274 1332.63 97 1326 97H1254C1247.37 97 1242 91.6274 1242 85V13Z"/>
<path d="M1339 13C1339 6.37258 1344.37 1 1351 1H1423C1429.63 1 1435 6.37258 1435 13V85C1435 91.6274 1429.63 97 1423 97H1351C1344.37 97 1339 91.6274 1339 85V13Z"/>
<path d="M1436 13C1436 6.37258 1441.37 1 1448 1H1520C1526.63 1 1532 6.37258 1532 13V85C1532 91.6274 1526.63 97 1520 97H1448C1441.37 97 1436 91.6274 1436 85V13Z"/>
<path d="M-19 110C-19 103.373 -13.6274 98 -7 98H65C71.6274 98 77 103.373 77 110V182C77 188.627 71.6274 194 65 194H-7C-13.6274 194 -19 188.627 -19 182V110Z"/>
<path d="M78 110C78 103.373 83.3726 98 90 98H162C168.627 98 174 103.373 174 110V182C174 188.627 168.627 194 162 194H90C83.3726 194 78 188.627 78 182V110Z"/>
<path d="M175 110C175 103.373 180.373 98 187 98H259C265.627 98 271 103.373 271 110V182C271 188.627 265.627 194 259 194H187C180.373 194 175 188.627 175 182V110Z"/>
<path d="M272 110C272 103.373 277.373 98 284 98H356C362.627 98 368 103.373 368 110V182C368 188.627 362.627 194 356 194H284C277.373 194 272 188.627 272 182V110Z"/>
<path d="M369 110C369 103.373 374.373 98 381 98H453C459.627 98 465 103.373 465 110V182C465 188.627 459.627 194 453 194H381C374.373 194 369 188.627 369 182V110Z"/>
<path d="M466 110C466 103.373 471.373 98 478 98H550C556.627 98 562 103.373 562 110V182C562 188.627 556.627 194 550 194H478C471.373 194 466 188.627 466 182V110Z"/>
<path d="M563 110C563 103.373 568.373 98 575 98H647C653.627 98 659 103.373 659 110V182C659 188.627 653.627 194 647 194H575C568.373 194 563 188.627 563 182V110Z"/>
<path d="M660 110C660 103.373 665.373 98 672 98H744C750.627 98 756 103.373 756 110V182C756 188.627 750.627 194 744 194H672C665.373 194 660 188.627 660 182V110Z"/>
<path d="M757 110C757 103.373 762.373 98 769 98H841C847.627 98 853 103.373 853 110V182C853 188.627 847.627 194 841 194H769C762.373 194 757 188.627 757 182V110Z"/>
<path d="M854 110C854 103.373 859.373 98 866 98H938C944.627 98 950 103.373 950 110V182C950 188.627 944.627 194 938 194H866C859.373 194 854 188.627 854 182V110Z"/>
<path d="M951 110C951 103.373 956.373 98 963 98H1035C1041.63 98 1047 103.373 1047 110V182C1047 188.627 1041.63 194 1035 194H963C956.373 194 951 188.627 951 182V110Z"/>
<path d="M1048 110C1048 103.373 1053.37 98 1060 98H1132C1138.63 98 1144 103.373 1144 110V182C1144 188.627 1138.63 194 1132 194H1060C1053.37 194 1048 188.627 1048 182V110Z"/>
<path d="M1145 110C1145 103.373 1150.37 98 1157 98H1229C1235.63 98 1241 103.373 1241 110V182C1241 188.627 1235.63 194 1229 194H1157C1150.37 194 1145 188.627 1145 182V110Z"/>
<path d="M1242 110C1242 103.373 1247.37 98 1254 98H1326C1332.63 98 1338 103.373 1338 110V182C1338 188.627 1332.63 194 1326 194H1254C1247.37 194 1242 188.627 1242 182V110Z"/>
<path d="M1339 110C1339 103.373 1344.37 98 1351 98H1423C1429.63 98 1435 103.373 1435 110V182C1435 188.627 1429.63 194 1423 194H1351C1344.37 194 1339 188.627 1339 182V110Z"/>
<path d="M1436 110C1436 103.373 1441.37 98 1448 98H1520C1526.63 98 1532 103.373 1532 110V182C1532 188.627 1526.63 194 1520 194H1448C1441.37 194 1436 188.627 1436 182V110Z"/>
<path d="M-19 207C-19 200.373 -13.6274 195 -7 195H65C71.6274 195 77 200.373 77 207V279C77 285.627 71.6274 291 65 291H-7C-13.6274 291 -19 285.627 -19 279V207Z"/>
<path d="M78 207C78 200.373 83.3726 195 90 195H162C168.627 195 174 200.373 174 207V279C174 285.627 168.627 291 162 291H90C83.3726 291 78 285.627 78 279V207Z"/>
<path d="M175 207C175 200.373 180.373 195 187 195H259C265.627 195 271 200.373 271 207V279C271 285.627 265.627 291 259 291H187C180.373 291 175 285.627 175 279V207Z"/>
<path d="M272 207C272 200.373 277.373 195 284 195H356C362.627 195 368 200.373 368 207V279C368 285.627 362.627 291 356 291H284C277.373 291 272 285.627 272 279V207Z"/>
<path d="M369 207C369 200.373 374.373 195 381 195H453C459.627 195 465 200.373 465 207V279C465 285.627 459.627 291 453 291H381C374.373 291 369 285.627 369 279V207Z"/>
<path d="M466 207C466 200.373 471.373 195 478 195H550C556.627 195 562 200.373 562 207V279C562 285.627 556.627 291 550 291H478C471.373 291 466 285.627 466 279V207Z"/>
<path d="M563 207C563 200.373 568.373 195 575 195H647C653.627 195 659 200.373 659 207V279C659 285.627 653.627 291 647 291H575C568.373 291 563 285.627 563 279V207Z"/>
<path d="M660 207C660 200.373 665.373 195 672 195H744C750.627 195 756 200.373 756 207V279C756 285.627 750.627 291 744 291H672C665.373 291 660 285.627 660 279V207Z"/>
<path d="M757 207C757 200.373 762.373 195 769 195H841C847.627 195 853 200.373 853 207V279C853 285.627 847.627 291 841 291H769C762.373 291 757 285.627 757 279V207Z"/>
<path d="M854 207C854 200.373 859.373 195 866 195H938C944.627 195 950 200.373 950 207V279C950 285.627 944.627 291 938 291H866C859.373 291 854 285.627 854 279V207Z"/>
<path d="M951 207C951 200.373 956.373 195 963 195H1035C1041.63 195 1047 200.373 1047 207V279C1047 285.627 1041.63 291 1035 291H963C956.373 291 951 285.627 951 279V207Z"/>
<path d="M1048 207C1048 200.373 1053.37 195 1060 195H1132C1138.63 195 1144 200.373 1144 207V279C1144 285.627 1138.63 291 1132 291H1060C1053.37 291 1048 285.627 1048 279V207Z"/>
<path d="M1145 207C1145 200.373 1150.37 195 1157 195H1229C1235.63 195 1241 200.373 1241 207V279C1241 285.627 1235.63 291 1229 291H1157C1150.37 291 1145 285.627 1145 279V207Z"/>
<path d="M1242 207C1242 200.373 1247.37 195 1254 195H1326C1332.63 195 1338 200.373 1338 207V279C1338 285.627 1332.63 291 1326 291H1254C1247.37 291 1242 285.627 1242 279V207Z"/>
<path d="M1339 207C1339 200.373 1344.37 195 1351 195H1423C1429.63 195 1435 200.373 1435 207V279C1435 285.627 1429.63 291 1423 291H1351C1344.37 291 1339 285.627 1339 279V207Z"/>
<path d="M1436 207C1436 200.373 1441.37 195 1448 195H1520C1526.63 195 1532 200.373 1532 207V279C1532 285.627 1526.63 291 1520 291H1448C1441.37 291 1436 285.627 1436 279V207Z"/>
<path d="M-19 304C-19 297.373 -13.6274 292 -7 292H65C71.6274 292 77 297.373 77 304V376C77 382.627 71.6274 388 65 388H-7C-13.6274 388 -19 382.627 -19 376V304Z"/>
<path d="M78 304C78 297.373 83.3726 292 90 292H162C168.627 292 174 297.373 174 304V376C174 382.627 168.627 388 162 388H90C83.3726 388 78 382.627 78 376V304Z"/>
<path d="M175 304C175 297.373 180.373 292 187 292H259C265.627 292 271 297.373 271 304V376C271 382.627 265.627 388 259 388H187C180.373 388 175 382.627 175 376V304Z"/>
<path d="M272 304C272 297.373 277.373 292 284 292H356C362.627 292 368 297.373 368 304V376C368 382.627 362.627 388 356 388H284C277.373 388 272 382.627 272 376V304Z"/>
<path d="M369 304C369 297.373 374.373 292 381 292H453C459.627 292 465 297.373 465 304V376C465 382.627 459.627 388 453 388H381C374.373 388 369 382.627 369 376V304Z"/>
<path d="M466 304C466 297.373 471.373 292 478 292H550C556.627 292 562 297.373 562 304V376C562 382.627 556.627 388 550 388H478C471.373 388 466 382.627 466 376V304Z"/>
<path d="M563 304C563 297.373 568.373 292 575 292H647C653.627 292 659 297.373 659 304V376C659 382.627 653.627 388 647 388H575C568.373 388 563 382.627 563 376V304Z"/>
<path d="M660 304C660 297.373 665.373 292 672 292H744C750.627 292 756 297.373 756 304V376C756 382.627 750.627 388 744 388H672C665.373 388 660 382.627 660 376V304Z"/>
<path d="M757 304C757 297.373 762.373 292 769 292H841C847.627 292 853 297.373 853 304V376C853 382.627 847.627 388 841 388H769C762.373 388 757 382.627 757 376V304Z"/>
<path d="M854 304C854 297.373 859.373 292 866 292H938C944.627 292 950 297.373 950 304V376C950 382.627 944.627 388 938 388H866C859.373 388 854 382.627 854 376V304Z"/>
<path d="M951 304C951 297.373 956.373 292 963 292H1035C1041.63 292 1047 297.373 1047 304V376C1047 382.627 1041.63 388 1035 388H963C956.373 388 951 382.627 951 376V304Z"/>
<path d="M1048 304C1048 297.373 1053.37 292 1060 292H1132C1138.63 292 1144 297.373 1144 304V376C1144 382.627 1138.63 388 1132 388H1060C1053.37 388 1048 382.627 1048 376V304Z"/>
<path d="M1145 304C1145 297.373 1150.37 292 1157 292H1229C1235.63 292 1241 297.373 1241 304V376C1241 382.627 1235.63 388 1229 388H1157C1150.37 388 1145 382.627 1145 376V304Z"/>
<path d="M1242 304C1242 297.373 1247.37 292 1254 292H1326C1332.63 292 1338 297.373 1338 304V376C1338 382.627 1332.63 388 1326 388H1254C1247.37 388 1242 382.627 1242 376V304Z"/>
<path d="M1339 304C1339 297.373 1344.37 292 1351 292H1423C1429.63 292 1435 297.373 1435 304V376C1435 382.627 1429.63 388 1423 388H1351C1344.37 388 1339 382.627 1339 376V304Z"/>
<path d="M1436 304C1436 297.373 1441.37 292 1448 292H1520C1526.63 292 1532 297.373 1532 304V376C1532 382.627 1526.63 388 1520 388H1448C1441.37 388 1436 382.627 1436 376V304Z"/>
<path d="M-19 401C-19 394.373 -13.6274 389 -7 389H65C71.6274 389 77 394.373 77 401V473C77 479.627 71.6274 485 65 485H-7C-13.6274 485 -19 479.627 -19 473V401Z"/>
<path d="M78 401C78 394.373 83.3726 389 90 389H162C168.627 389 174 394.373 174 401V473C174 479.627 168.627 485 162 485H90C83.3726 485 78 479.627 78 473V401Z"/>
<path d="M175 401C175 394.373 180.373 389 187 389H259C265.627 389 271 394.373 271 401V473C271 479.627 265.627 485 259 485H187C180.373 485 175 479.627 175 473V401Z"/>
<path d="M272 401C272 394.373 277.373 389 284 389H356C362.627 389 368 394.373 368 401V473C368 479.627 362.627 485 356 485H284C277.373 485 272 479.627 272 473V401Z"/>
<path d="M369 401C369 394.373 374.373 389 381 389H453C459.627 389 465 394.373 465 401V473C465 479.627 459.627 485 453 485H381C374.373 485 369 479.627 369 473V401Z"/>
<path d="M466 401C466 394.373 471.373 389 478 389H550C556.627 389 562 394.373 562 401V473C562 479.627 556.627 485 550 485H478C471.373 485 466 479.627 466 473V401Z"/>
<path d="M563 401C563 394.373 568.373 389 575 389H647C653.627 389 659 394.373 659 401V473C659 479.627 653.627 485 647 485H575C568.373 485 563 479.627 563 473V401Z"/>
<path d="M660 401C660 394.373 665.373 389 672 389H744C750.627 389 756 394.373 756 401V473C756 479.627 750.627 485 744 485H672C665.373 485 660 479.627 660 473V401Z"/>
<path d="M757 401C757 394.373 762.373 389 769 389H841C847.627 389 853 394.373 853 401V473C853 479.627 847.627 485 841 485H769C762.373 485 757 479.627 757 473V401Z"/>
<path d="M854 401C854 394.373 859.373 389 866 389H938C944.627 389 950 394.373 950 401V473C950 479.627 944.627 485 938 485H866C859.373 485 854 479.627 854 473V401Z"/>
<path d="M951 401C951 394.373 956.373 389 963 389H1035C1041.63 389 1047 394.373 1047 401V473C1047 479.627 1041.63 485 1035 485H963C956.373 485 951 479.627 951 473V401Z"/>
<path d="M1048 401C1048 394.373 1053.37 389 1060 389H1132C1138.63 389 1144 394.373 1144 401V473C1144 479.627 1138.63 485 1132 485H1060C1053.37 485 1048 479.627 1048 473V401Z"/>
<path d="M1145 401C1145 394.373 1150.37 389 1157 389H1229C1235.63 389 1241 394.373 1241 401V473C1241 479.627 1235.63 485 1229 485H1157C1150.37 485 1145 479.627 1145 473V401Z"/>
<path d="M1242 401C1242 394.373 1247.37 389 1254 389H1326C1332.63 389 1338 394.373 1338 401V473C1338 479.627 1332.63 485 1326 485H1254C1247.37 485 1242 479.627 1242 473V401Z"/>
<path d="M1339 401C1339 394.373 1344.37 389 1351 389H1423C1429.63 389 1435 394.373 1435 401V473C1435 479.627 1429.63 485 1423 485H1351C1344.37 485 1339 479.627 1339 473V401Z"/>
<path d="M1436 401C1436 394.373 1441.37 389 1448 389H1520C1526.63 389 1532 394.373 1532 401V473C1532 479.627 1526.63 485 1520 485H1448C1441.37 485 1436 479.627 1436 473V401Z"/>
<path d="M-19 498C-19 491.373 -13.6274 486 -7 486H65C71.6274 486 77 491.373 77 498V570C77 576.627 71.6274 582 65 582H-7C-13.6274 582 -19 576.627 -19 570V498Z"/>
<path d="M78 498C78 491.373 83.3726 486 90 486H162C168.627 486 174 491.373 174 498V570C174 576.627 168.627 582 162 582H90C83.3726 582 78 576.627 78 570V498Z"/>
<path d="M175 498C175 491.373 180.373 486 187 486H259C265.627 486 271 491.373 271 498V570C271 576.627 265.627 582 259 582H187C180.373 582 175 576.627 175 570V498Z"/>
<path d="M272 498C272 491.373 277.373 486 284 486H356C362.627 486 368 491.373 368 498V570C368 576.627 362.627 582 356 582H284C277.373 582 272 576.627 272 570V498Z"/>
<path d="M369 498C369 491.373 374.373 486 381 486H453C459.627 486 465 491.373 465 498V570C465 576.627 459.627 582 453 582H381C374.373 582 369 576.627 369 570V498Z"/>
<path d="M466 498C466 491.373 471.373 486 478 486H550C556.627 486 562 491.373 562 498V570C562 576.627 556.627 582 550 582H478C471.373 582 466 576.627 466 570V498Z"/>
<path d="M563 498C563 491.373 568.373 486 575 486H647C653.627 486 659 491.373 659 498V570C659 576.627 653.627 582 647 582H575C568.373 582 563 576.627 563 570V498Z"/>
<path d="M660 498C660 491.373 665.373 486 672 486H744C750.627 486 756 491.373 756 498V570C756 576.627 750.627 582 744 582H672C665.373 582 660 576.627 660 570V498Z"/>
<path d="M757 498C757 491.373 762.373 486 769 486H841C847.627 486 853 491.373 853 498V570C853 576.627 847.627 582 841 582H769C762.373 582 757 576.627 757 570V498Z"/>
<path d="M854 498C854 491.373 859.373 486 866 486H938C944.627 486 950 491.373 950 498V570C950 576.627 944.627 582 938 582H866C859.373 582 854 576.627 854 570V498Z"/>
<path d="M951 498C951 491.373 956.373 486 963 486H1035C1041.63 486 1047 491.373 1047 498V570C1047 576.627 1041.63 582 1035 582H963C956.373 582 951 576.627 951 570V498Z"/>
<path d="M1048 498C1048 491.373 1053.37 486 1060 486H1132C1138.63 486 1144 491.373 1144 498V570C1144 576.627 1138.63 582 1132 582H1060C1053.37 582 1048 576.627 1048 570V498Z"/>
<path d="M1145 498C1145 491.373 1150.37 486 1157 486H1229C1235.63 486 1241 491.373 1241 498V570C1241 576.627 1235.63 582 1229 582H1157C1150.37 582 1145 576.627 1145 570V498Z"/>
<path d="M1242 498C1242 491.373 1247.37 486 1254 486H1326C1332.63 486 1338 491.373 1338 498V570C1338 576.627 1332.63 582 1326 582H1254C1247.37 582 1242 576.627 1242 570V498Z"/>
<path d="M1339 498C1339 491.373 1344.37 486 1351 486H1423C1429.63 486 1435 491.373 1435 498V570C1435 576.627 1429.63 582 1423 582H1351C1344.37 582 1339 576.627 1339 570V498Z"/>
<path d="M1436 498C1436 491.373 1441.37 486 1448 486H1520C1526.63 486 1532 491.373 1532 498V570C1532 576.627 1526.63 582 1520 582H1448C1441.37 582 1436 576.627 1436 570V498Z"/>
<path d="M-19 595C-19 588.373 -13.6274 583 -7 583H65C71.6274 583 77 588.373 77 595V667C77 673.627 71.6274 679 65 679H-7C-13.6274 679 -19 673.627 -19 667V595Z"/>
<path d="M78 595C78 588.373 83.3726 583 90 583H162C168.627 583 174 588.373 174 595V667C174 673.627 168.627 679 162 679H90C83.3726 679 78 673.627 78 667V595Z"/>
<path d="M175 595C175 588.373 180.373 583 187 583H259C265.627 583 271 588.373 271 595V667C271 673.627 265.627 679 259 679H187C180.373 679 175 673.627 175 667V595Z"/>
<path d="M272 595C272 588.373 277.373 583 284 583H356C362.627 583 368 588.373 368 595V667C368 673.627 362.627 679 356 679H284C277.373 679 272 673.627 272 667V595Z"/>
<path d="M369 595C369 588.373 374.373 583 381 583H453C459.627 583 465 588.373 465 595V667C465 673.627 459.627 679 453 679H381C374.373 679 369 673.627 369 667V595Z"/>
<path d="M466 595C466 588.373 471.373 583 478 583H550C556.627 583 562 588.373 562 595V667C562 673.627 556.627 679 550 679H478C471.373 679 466 673.627 466 667V595Z"/>
<path d="M563 595C563 588.373 568.373 583 575 583H647C653.627 583 659 588.373 659 595V667C659 673.627 653.627 679 647 679H575C568.373 679 563 673.627 563 667V595Z"/>
<path d="M660 595C660 588.373 665.373 583 672 583H744C750.627 583 756 588.373 756 595V667C756 673.627 750.627 679 744 679H672C665.373 679 660 673.627 660 667V595Z"/>
<path d="M757 595C757 588.373 762.373 583 769 583H841C847.627 583 853 588.373 853 595V667C853 673.627 847.627 679 841 679H769C762.373 679 757 673.627 757 667V595Z"/>
<path d="M854 595C854 588.373 859.373 583 866 583H938C944.627 583 950 588.373 950 595V667C950 673.627 944.627 679 938 679H866C859.373 679 854 673.627 854 667V595Z"/>
<path d="M951 595C951 588.373 956.373 583 963 583H1035C1041.63 583 1047 588.373 1047 595V667C1047 673.627 1041.63 679 1035 679H963C956.373 679 951 673.627 951 667V595Z"/>
<path d="M1048 595C1048 588.373 1053.37 583 1060 583H1132C1138.63 583 1144 588.373 1144 595V667C1144 673.627 1138.63 679 1132 679H1060C1053.37 679 1048 673.627 1048 667V595Z"/>
<path d="M1145 595C1145 588.373 1150.37 583 1157 583H1229C1235.63 583 1241 588.373 1241 595V667C1241 673.627 1235.63 679 1229 679H1157C1150.37 679 1145 673.627 1145 667V595Z"/>
<path d="M1242 595C1242 588.373 1247.37 583 1254 583H1326C1332.63 583 1338 588.373 1338 595V667C1338 673.627 1332.63 679 1326 679H1254C1247.37 679 1242 673.627 1242 667V595Z"/>
<path d="M1339 595C1339 588.373 1344.37 583 1351 583H1423C1429.63 583 1435 588.373 1435 595V667C1435 673.627 1429.63 679 1423 679H1351C1344.37 679 1339 673.627 1339 667V595Z"/>
<path d="M1436 595C1436 588.373 1441.37 583 1448 583H1520C1526.63 583 1532 588.373 1532 595V667C1532 673.627 1526.63 679 1520 679H1448C1441.37 679 1436 673.627 1436 667V595Z"/>
<path d="M-19 692C-19 685.373 -13.6274 680 -7 680H65C71.6274 680 77 685.373 77 692V764C77 770.627 71.6274 776 65 776H-7C-13.6274 776 -19 770.627 -19 764V692Z"/>
<path d="M78 692C78 685.373 83.3726 680 90 680H162C168.627 680 174 685.373 174 692V764C174 770.627 168.627 776 162 776H90C83.3726 776 78 770.627 78 764V692Z"/>
<path d="M175 692C175 685.373 180.373 680 187 680H259C265.627 680 271 685.373 271 692V764C271 770.627 265.627 776 259 776H187C180.373 776 175 770.627 175 764V692Z"/>
<path d="M272 692C272 685.373 277.373 680 284 680H356C362.627 680 368 685.373 368 692V764C368 770.627 362.627 776 356 776H284C277.373 776 272 770.627 272 764V692Z"/>
<path d="M369 692C369 685.373 374.373 680 381 680H453C459.627 680 465 685.373 465 692V764C465 770.627 459.627 776 453 776H381C374.373 776 369 770.627 369 764V692Z"/>
<path d="M466 692C466 685.373 471.373 680 478 680H550C556.627 680 562 685.373 562 692V764C562 770.627 556.627 776 550 776H478C471.373 776 466 770.627 466 764V692Z"/>
<path d="M563 692C563 685.373 568.373 680 575 680H647C653.627 680 659 685.373 659 692V764C659 770.627 653.627 776 647 776H575C568.373 776 563 770.627 563 764V692Z"/>
<path d="M660 692C660 685.373 665.373 680 672 680H744C750.627 680 756 685.373 756 692V764C756 770.627 750.627 776 744 776H672C665.373 776 660 770.627 660 764V692Z"/>
<path d="M757 692C757 685.373 762.373 680 769 680H841C847.627 680 853 685.373 853 692V764C853 770.627 847.627 776 841 776H769C762.373 776 757 770.627 757 764V692Z"/>
<path d="M854 692C854 685.373 859.373 680 866 680H938C944.627 680 950 685.373 950 692V764C950 770.627 944.627 776 938 776H866C859.373 776 854 770.627 854 764V692Z"/>
<path d="M951 692C951 685.373 956.373 680 963 680H1035C1041.63 680 1047 685.373 1047 692V764C1047 770.627 1041.63 776 1035 776H963C956.373 776 951 770.627 951 764V692Z"/>
<path d="M1048 692C1048 685.373 1053.37 680 1060 680H1132C1138.63 680 1144 685.373 1144 692V764C1144 770.627 1138.63 776 1132 776H1060C1053.37 776 1048 770.627 1048 764V692Z"/>
<path d="M1145 692C1145 685.373 1150.37 680 1157 680H1229C1235.63 680 1241 685.373 1241 692V764C1241 770.627 1235.63 776 1229 776H1157C1150.37 776 1145 770.627 1145 764V692Z"/>
<path d="M1242 692C1242 685.373 1247.37 680 1254 680H1326C1332.63 680 1338 685.373 1338 692V764C1338 770.627 1332.63 776 1326 776H1254C1247.37 776 1242 770.627 1242 764V692Z"/>
<path d="M1339 692C1339 685.373 1344.37 680 1351 680H1423C1429.63 680 1435 685.373 1435 692V764C1435 770.627 1429.63 776 1423 776H1351C1344.37 776 1339 770.627 1339 764V692Z"/>
<path d="M1436 692C1436 685.373 1441.37 680 1448 680H1520C1526.63 680 1532 685.373 1532 692V764C1532 770.627 1526.63 776 1520 776H1448C1441.37 776 1436 770.627 1436 764V692Z"/>
</mask>
<path d="M-19 13C-19 6.37258 -13.6274 1 -7 1H65C71.6274 1 77 6.37258 77 13V85C77 91.6274 71.6274 97 65 97H-7C-13.6274 97 -19 91.6274 -19 85V13Z" stroke="url(#paint0_radial_174_12157)" stroke-opacity="0.36" stroke-width="2" mask="url(#path-1-outside-1_174_12157)"/>
<path d="M78 13C78 6.37258 83.3726 1 90 1H162C168.627 1 174 6.37258 174 13V85C174 91.6274 168.627 97 162 97H90C83.3726 97 78 91.6274 78 85V13Z" stroke="url(#paint1_radial_174_12157)" stroke-opacity="0.36" stroke-width="2" mask="url(#path-1-outside-1_174_12157)"/>
<path d="M175 13C175 6.37258 180.373 1 187 1H259C265.627 1 271 6.37258 271 13V85C271 91.6274 265.627 97 259 97H187C180.373 97 175 91.6274 175 85V13Z" stroke="url(#paint2_radial_174_12157)" stroke-opacity="0.36" stroke-width="2" mask="url(#path-1-outside-1_174_12157)"/>
<path d="M272 13C272 6.37258 277.373 1 284 1H356C362.627 1 368 6.37258 368 13V85C368 91.6274 362.627 97 356 97H284C277.373 97 272 91.6274 272 85V13Z" stroke="url(#paint3_radial_174_12157)" stroke-opacity="0.36" stroke-width="2" mask="url(#path-1-outside-1_174_12157)"/>
<path d="M369 13C369 6.37258 374.373 1 381 1H453C459.627 1 465 6.37258 465 13V85C465 91.6274 459.627 97 453 97H381C374.373 97 369 91.6274 369 85V13Z" stroke="url(#paint4_radial_174_12157)" stroke-opacity="0.36" stroke-width="2" mask="url(#path-1-outside-1_174_12157)"/>
<path d="M466 13C466 6.37258 471.373 1 478 1H550C556.627 1 562 6.37258 562 13V85C562 91.6274 556.627 97 550 97H478C471.373 97 466 91.6274 466 85V13Z" stroke="url(#paint5_radial_174_12157)" stroke-opacity="0.36" stroke-width="2" mask="url(#path-1-outside-1_174_12157)"/>
<path d="M563 13C563 6.37258 568.373 1 575 1H647C653.627 1 659 6.37258 659 13V85C659 91.6274 653.627 97 647 97H575C568.373 97 563 91.6274 563 85V13Z" stroke="url(#paint6_radial_174_12157)" stroke-opacity="0.36" stroke-width="2" mask="url(#path-1-outside-1_174_12157)"/>
<path d="M660 13C660 6.37258 665.373 1 672 1H744C750.627 1 756 6.37258 756 13V85C756 91.6274 750.627 97 744 97H672C665.373 97 660 91.6274 660 85V13Z" stroke="url(#paint7_radial_174_12157)" stroke-opacity="0.36" stroke-width="2" mask="url(#path-1-outside-1_174_12157)"/>
<path d="M757 13C757 6.37258 762.373 1 769 1H841C847.627 1 853 6.37258 853 13V85C853 91.6274 847.627 97 841 97H769C762.373 97 757 91.6274 757 85V13Z" stroke="url(#paint8_radial_174_12157)" stroke-opacity="0.36" stroke-width="2" mask="url(#path-1-outside-1_174_12157)"/>
<path d="M854 13C854 6.37258 859.373 1 866 1H938C944.627 1 950 6.37258 950 13V85C950 91.6274 944.627 97 938 97H866C859.373 97 854 91.6274 854 85V13Z" stroke="url(#paint9_radial_174_12157)" stroke-opacity="0.36" stroke-width="2" mask="url(#path-1-outside-1_174_12157)"/>
<path d="M951 13C951 6.37258 956.373 1 963 1H1035C1041.63 1 1047 6.37258 1047 13V85C1047 91.6274 1041.63 97 1035 97H963C956.373 97 951 91.6274 951 85V13Z" stroke="url(#paint10_radial_174_12157)" stroke-opacity="0.36" stroke-width="2" mask="url(#path-1-outside-1_174_12157)"/>
<path d="M1048 13C1048 6.37258 1053.37 1 1060 1H1132C1138.63 1 1144 6.37258 1144 13V85C1144 91.6274 1138.63 97 1132 97H1060C1053.37 97 1048 91.6274 1048 85V13Z" stroke="url(#paint11_radial_174_12157)" stroke-opacity="0.36" stroke-width="2" mask="url(#path-1-outside-1_174_12157)"/>
<path d="M1145 13C1145 6.37258 1150.37 1 1157 1H1229C1235.63 1 1241 6.37258 1241 13V85C1241 91.6274 1235.63 97 1229 97H1157C1150.37 97 1145 91.6274 1145 85V13Z" stroke="url(#paint12_radial_174_12157)" stroke-opacity="0.36" stroke-width="2" mask="url(#path-1-outside-1_174_12157)"/>
<path d="M1242 13C1242 6.37258 1247.37 1 1254 1H1326C1332.63 1 1338 6.37258 1338 13V85C1338 91.6274 1332.63 97 1326 97H1254C1247.37 97 1242 91.6274 1242 85V13Z" stroke="url(#paint13_radial_174_12157)" stroke-opacity="0.36" stroke-width="2" mask="url(#path-1-outside-1_174_12157)"/>
<path d="M1339 13C1339 6.37258 1344.37 1 1351 1H1423C1429.63 1 1435 6.37258 1435 13V85C1435 91.6274 1429.63 97 1423 97H1351C1344.37 97 1339 91.6274 1339 85V13Z" stroke="url(#paint14_radial_174_12157)" stroke-opacity="0.36" stroke-width="2" mask="url(#path-1-outside-1_174_12157)"/>
<path d="M1436 13C1436 6.37258 1441.37 1 1448 1H1520C1526.63 1 1532 6.37258 1532 13V85C1532 91.6274 1526.63 97 1520 97H1448C1441.37 97 1436 91.6274 1436 85V13Z" stroke="url(#paint15_radial_174_12157)" stroke-opacity="0.36" stroke-width="2" mask="url(#path-1-outside-1_174_12157)"/>
<path d="M-19 110C-19 103.373 -13.6274 98 -7 98H65C71.6274 98 77 103.373 77 110V182C77 188.627 71.6274 194 65 194H-7C-13.6274 194 -19 188.627 -19 182V110Z" stroke="url(#paint16_radial_174_12157)" stroke-opacity="0.36" stroke-width="2" mask="url(#path-1-outside-1_174_12157)"/>
<path d="M78 110C78 103.373 83.3726 98 90 98H162C168.627 98 174 103.373 174 110V182C174 188.627 168.627 194 162 194H90C83.3726 194 78 188.627 78 182V110Z" stroke="url(#paint17_radial_174_12157)" stroke-opacity="0.36" stroke-width="2" mask="url(#path-1-outside-1_174_12157)"/>
<path d="M175 110C175 103.373 180.373 98 187 98H259C265.627 98 271 103.373 271 110V182C271 188.627 265.627 194 259 194H187C180.373 194 175 188.627 175 182V110Z" stroke="url(#paint18_radial_174_12157)" stroke-opacity="0.36" stroke-width="2" mask="url(#path-1-outside-1_174_12157)"/>
<path d="M272 110C272 103.373 277.373 98 284 98H356C362.627 98 368 103.373 368 110V182C368 188.627 362.627 194 356 194H284C277.373 194 272 188.627 272 182V110Z" stroke="url(#paint19_radial_174_12157)" stroke-opacity="0.36" stroke-width="2" mask="url(#path-1-outside-1_174_12157)"/>
<path d="M369 110C369 103.373 374.373 98 381 98H453C459.627 98 465 103.373 465 110V182C465 188.627 459.627 194 453 194H381C374.373 194 369 188.627 369 182V110Z" stroke="url(#paint20_radial_174_12157)" stroke-opacity="0.36" stroke-width="2" mask="url(#path-1-outside-1_174_12157)"/>
<path d="M466 110C466 103.373 471.373 98 478 98H550C556.627 98 562 103.373 562 110V182C562 188.627 556.627 194 550 194H478C471.373 194 466 188.627 466 182V110Z" stroke="url(#paint21_radial_174_12157)" stroke-opacity="0.36" stroke-width="2" mask="url(#path-1-outside-1_174_12157)"/>
<path d="M563 110C563 103.373 568.373 98 575 98H647C653.627 98 659 103.373 659 110V182C659 188.627 653.627 194 647 194H575C568.373 194 563 188.627 563 182V110Z" stroke="url(#paint22_radial_174_12157)" stroke-opacity="0.36" stroke-width="2" mask="url(#path-1-outside-1_174_12157)"/>
<path d="M660 110C660 103.373 665.373 98 672 98H744C750.627 98 756 103.373 756 110V182C756 188.627 750.627 194 744 194H672C665.373 194 660 188.627 660 182V110Z" stroke="url(#paint23_radial_174_12157)" stroke-opacity="0.36" stroke-width="2" mask="url(#path-1-outside-1_174_12157)"/>
<path d="M757 110C757 103.373 762.373 98 769 98H841C847.627 98 853 103.373 853 110V182C853 188.627 847.627 194 841 194H769C762.373 194 757 188.627 757 182V110Z" stroke="url(#paint24_radial_174_12157)" stroke-opacity="0.36" stroke-width="2" mask="url(#path-1-outside-1_174_12157)"/>
<path d="M854 110C854 103.373 859.373 98 866 98H938C944.627 98 950 103.373 950 110V182C950 188.627 944.627 194 938 194H866C859.373 194 854 188.627 854 182V110Z" stroke="url(#paint25_radial_174_12157)" stroke-opacity="0.36" stroke-width="2" mask="url(#path-1-outside-1_174_12157)"/>
<path d="M951 110C951 103.373 956.373 98 963 98H1035C1041.63 98 1047 103.373 1047 110V182C1047 188.627 1041.63 194 1035 194H963C956.373 194 951 188.627 951 182V110Z" stroke="url(#paint26_radial_174_12157)" stroke-opacity="0.36" stroke-width="2" mask="url(#path-1-outside-1_174_12157)"/>
<path d="M1048 110C1048 103.373 1053.37 98 1060 98H1132C1138.63 98 1144 103.373 1144 110V182C1144 188.627 1138.63 194 1132 194H1060C1053.37 194 1048 188.627 1048 182V110Z" stroke="url(#paint27_radial_174_12157)" stroke-opacity="0.36" stroke-width="2" mask="url(#path-1-outside-1_174_12157)"/>
<path d="M1145 110C1145 103.373 1150.37 98 1157 98H1229C1235.63 98 1241 103.373 1241 110V182C1241 188.627 1235.63 194 1229 194H1157C1150.37 194 1145 188.627 1145 182V110Z" stroke="url(#paint28_radial_174_12157)" stroke-opacity="0.36" stroke-width="2" mask="url(#path-1-outside-1_174_12157)"/>
<path d="M1242 110C1242 103.373 1247.37 98 1254 98H1326C1332.63 98 1338 103.373 1338 110V182C1338 188.627 1332.63 194 1326 194H1254C1247.37 194 1242 188.627 1242 182V110Z" stroke="url(#paint29_radial_174_12157)" stroke-opacity="0.36" stroke-width="2" mask="url(#path-1-outside-1_174_12157)"/>
<path d="M1339 110C1339 103.373 1344.37 98 1351 98H1423C1429.63 98 1435 103.373 1435 110V182C1435 188.627 1429.63 194 1423 194H1351C1344.37 194 1339 188.627 1339 182V110Z" stroke="url(#paint30_radial_174_12157)" stroke-opacity="0.36" stroke-width="2" mask="url(#path-1-outside-1_174_12157)"/>
<path d="M1436 110C1436 103.373 1441.37 98 1448 98H1520C1526.63 98 1532 103.373 1532 110V182C1532 188.627 1526.63 194 1520 194H1448C1441.37 194 1436 188.627 1436 182V110Z" stroke="url(#paint31_radial_174_12157)" stroke-opacity="0.36" stroke-width="2" mask="url(#path-1-outside-1_174_12157)"/>
<path d="M-19 207C-19 200.373 -13.6274 195 -7 195H65C71.6274 195 77 200.373 77 207V279C77 285.627 71.6274 291 65 291H-7C-13.6274 291 -19 285.627 -19 279V207Z" stroke="url(#paint32_radial_174_12157)" stroke-opacity="0.36" stroke-width="2" mask="url(#path-1-outside-1_174_12157)"/>
<path d="M78 207C78 200.373 83.3726 195 90 195H162C168.627 195 174 200.373 174 207V279C174 285.627 168.627 291 162 291H90C83.3726 291 78 285.627 78 279V207Z" stroke="url(#paint33_radial_174_12157)" stroke-opacity="0.36" stroke-width="2" mask="url(#path-1-outside-1_174_12157)"/>
<path d="M175 207C175 200.373 180.373 195 187 195H259C265.627 195 271 200.373 271 207V279C271 285.627 265.627 291 259 291H187C180.373 291 175 285.627 175 279V207Z" stroke="url(#paint34_radial_174_12157)" stroke-opacity="0.36" stroke-width="2" mask="url(#path-1-outside-1_174_12157)"/>
<path d="M272 207C272 200.373 277.373 195 284 195H356C362.627 195 368 200.373 368 207V279C368 285.627 362.627 291 356 291H284C277.373 291 272 285.627 272 279V207Z" stroke="url(#paint35_radial_174_12157)" stroke-opacity="0.36" stroke-width="2" mask="url(#path-1-outside-1_174_12157)"/>
<path d="M369 207C369 200.373 374.373 195 381 195H453C459.627 195 465 200.373 465 207V279C465 285.627 459.627 291 453 291H381C374.373 291 369 285.627 369 279V207Z" stroke="url(#paint36_radial_174_12157)" stroke-opacity="0.36" stroke-width="2" mask="url(#path-1-outside-1_174_12157)"/>
<path d="M466 207C466 200.373 471.373 195 478 195H550C556.627 195 562 200.373 562 207V279C562 285.627 556.627 291 550 291H478C471.373 291 466 285.627 466 279V207Z" stroke="url(#paint37_radial_174_12157)" stroke-opacity="0.36" stroke-width="2" mask="url(#path-1-outside-1_174_12157)"/>
<path d="M563 207C563 200.373 568.373 195 575 195H647C653.627 195 659 200.373 659 207V279C659 285.627 653.627 291 647 291H575C568.373 291 563 285.627 563 279V207Z" stroke="url(#paint38_radial_174_12157)" stroke-opacity="0.36" stroke-width="2" mask="url(#path-1-outside-1_174_12157)"/>
<path d="M660 207C660 200.373 665.373 195 672 195H744C750.627 195 756 200.373 756 207V279C756 285.627 750.627 291 744 291H672C665.373 291 660 285.627 660 279V207Z" stroke="url(#paint39_radial_174_12157)" stroke-opacity="0.36" stroke-width="2" mask="url(#path-1-outside-1_174_12157)"/>
<path d="M757 207C757 200.373 762.373 195 769 195H841C847.627 195 853 200.373 853 207V279C853 285.627 847.627 291 841 291H769C762.373 291 757 285.627 757 279V207Z" stroke="url(#paint40_radial_174_12157)" stroke-opacity="0.36" stroke-width="2" mask="url(#path-1-outside-1_174_12157)"/>
<path d="M854 207C854 200.373 859.373 195 866 195H938C944.627 195 950 200.373 950 207V279C950 285.627 944.627 291 938 291H866C859.373 291 854 285.627 854 279V207Z" stroke="url(#paint41_radial_174_12157)" stroke-opacity="0.36" stroke-width="2" mask="url(#path-1-outside-1_174_12157)"/>
<path d="M951 207C951 200.373 956.373 195 963 195H1035C1041.63 195 1047 200.373 1047 207V279C1047 285.627 1041.63 291 1035 291H963C956.373 291 951 285.627 951 279V207Z" stroke="url(#paint42_radial_174_12157)" stroke-opacity="0.36" stroke-width="2" mask="url(#path-1-outside-1_174_12157)"/>
<path d="M1048 207C1048 200.373 1053.37 195 1060 195H1132C1138.63 195 1144 200.373 1144 207V279C1144 285.627 1138.63 291 1132 291H1060C1053.37 291 1048 285.627 1048 279V207Z" stroke="url(#paint43_radial_174_12157)" stroke-opacity="0.36" stroke-width="2" mask="url(#path-1-outside-1_174_12157)"/>
<path d="M1145 207C1145 200.373 1150.37 195 1157 195H1229C1235.63 195 1241 200.373 1241 207V279C1241 285.627 1235.63 291 1229 291H1157C1150.37 291 1145 285.627 1145 279V207Z" stroke="url(#paint44_radial_174_12157)" stroke-opacity="0.36" stroke-width="2" mask="url(#path-1-outside-1_174_12157)"/>
<path d="M1242 207C1242 200.373 1247.37 195 1254 195H1326C1332.63 195 1338 200.373 1338 207V279C1338 285.627 1332.63 291 1326 291H1254C1247.37 291 1242 285.627 1242 279V207Z" stroke="url(#paint45_radial_174_12157)" stroke-opacity="0.36" stroke-width="2" mask="url(#path-1-outside-1_174_12157)"/>
<path d="M1339 207C1339 200.373 1344.37 195 1351 195H1423C1429.63 195 1435 200.373 1435 207V279C1435 285.627 1429.63 291 1423 291H1351C1344.37 291 1339 285.627 1339 279V207Z" stroke="url(#paint46_radial_174_12157)" stroke-opacity="0.36" stroke-width="2" mask="url(#path-1-outside-1_174_12157)"/>
<path d="M1436 207C1436 200.373 1441.37 195 1448 195H1520C1526.63 195 1532 200.373 1532 207V279C1532 285.627 1526.63 291 1520 291H1448C1441.37 291 1436 285.627 1436 279V207Z" stroke="url(#paint47_radial_174_12157)" stroke-opacity="0.36" stroke-width="2" mask="url(#path-1-outside-1_174_12157)"/>
<path d="M-19 304C-19 297.373 -13.6274 292 -7 292H65C71.6274 292 77 297.373 77 304V376C77 382.627 71.6274 388 65 388H-7C-13.6274 388 -19 382.627 -19 376V304Z" stroke="url(#paint48_radial_174_12157)" stroke-opacity="0.36" stroke-width="2" mask="url(#path-1-outside-1_174_12157)"/>
<path d="M78 304C78 297.373 83.3726 292 90 292H162C168.627 292 174 297.373 174 304V376C174 382.627 168.627 388 162 388H90C83.3726 388 78 382.627 78 376V304Z" stroke="url(#paint49_radial_174_12157)" stroke-opacity="0.36" stroke-width="2" mask="url(#path-1-outside-1_174_12157)"/>
<path d="M175 304C175 297.373 180.373 292 187 292H259C265.627 292 271 297.373 271 304V376C271 382.627 265.627 388 259 388H187C180.373 388 175 382.627 175 376V304Z" stroke="url(#paint50_radial_174_12157)" stroke-opacity="0.36" stroke-width="2" mask="url(#path-1-outside-1_174_12157)"/>
<path d="M272 304C272 297.373 277.373 292 284 292H356C362.627 292 368 297.373 368 304V376C368 382.627 362.627 388 356 388H284C277.373 388 272 382.627 272 376V304Z" stroke="url(#paint51_radial_174_12157)" stroke-opacity="0.36" stroke-width="2" mask="url(#path-1-outside-1_174_12157)"/>
<path d="M369 304C369 297.373 374.373 292 381 292H453C459.627 292 465 297.373 465 304V376C465 382.627 459.627 388 453 388H381C374.373 388 369 382.627 369 376V304Z" stroke="url(#paint52_radial_174_12157)" stroke-opacity="0.36" stroke-width="2" mask="url(#path-1-outside-1_174_12157)"/>
<path d="M466 304C466 297.373 471.373 292 478 292H550C556.627 292 562 297.373 562 304V376C562 382.627 556.627 388 550 388H478C471.373 388 466 382.627 466 376V304Z" stroke="url(#paint53_radial_174_12157)" stroke-opacity="0.36" stroke-width="2" mask="url(#path-1-outside-1_174_12157)"/>
<path d="M563 304C563 297.373 568.373 292 575 292H647C653.627 292 659 297.373 659 304V376C659 382.627 653.627 388 647 388H575C568.373 388 563 382.627 563 376V304Z" stroke="url(#paint54_radial_174_12157)" stroke-opacity="0.36" stroke-width="2" mask="url(#path-1-outside-1_174_12157)"/>
<path d="M660 304C660 297.373 665.373 292 672 292H744C750.627 292 756 297.373 756 304V376C756 382.627 750.627 388 744 388H672C665.373 388 660 382.627 660 376V304Z" stroke="url(#paint55_radial_174_12157)" stroke-opacity="0.36" stroke-width="2" mask="url(#path-1-outside-1_174_12157)"/>
<path d="M757 304C757 297.373 762.373 292 769 292H841C847.627 292 853 297.373 853 304V376C853 382.627 847.627 388 841 388H769C762.373 388 757 382.627 757 376V304Z" stroke="url(#paint56_radial_174_12157)" stroke-opacity="0.36" stroke-width="2" mask="url(#path-1-outside-1_174_12157)"/>
<path d="M854 304C854 297.373 859.373 292 866 292H938C944.627 292 950 297.373 950 304V376C950 382.627 944.627 388 938 388H866C859.373 388 854 382.627 854 376V304Z" stroke="url(#paint57_radial_174_12157)" stroke-opacity="0.36" stroke-width="2" mask="url(#path-1-outside-1_174_12157)"/>
<path d="M951 304C951 297.373 956.373 292 963 292H1035C1041.63 292 1047 297.373 1047 304V376C1047 382.627 1041.63 388 1035 388H963C956.373 388 951 382.627 951 376V304Z" stroke="url(#paint58_radial_174_12157)" stroke-opacity="0.36" stroke-width="2" mask="url(#path-1-outside-1_174_12157)"/>
<path d="M1048 304C1048 297.373 1053.37 292 1060 292H1132C1138.63 292 1144 297.373 1144 304V376C1144 382.627 1138.63 388 1132 388H1060C1053.37 388 1048 382.627 1048 376V304Z" stroke="url(#paint59_radial_174_12157)" stroke-opacity="0.36" stroke-width="2" mask="url(#path-1-outside-1_174_12157)"/>
<path d="M1145 304C1145 297.373 1150.37 292 1157 292H1229C1235.63 292 1241 297.373 1241 304V376C1241 382.627 1235.63 388 1229 388H1157C1150.37 388 1145 382.627 1145 376V304Z" stroke="url(#paint60_radial_174_12157)" stroke-opacity="0.36" stroke-width="2" mask="url(#path-1-outside-1_174_12157)"/>
<path d="M1242 304C1242 297.373 1247.37 292 1254 292H1326C1332.63 292 1338 297.373 1338 304V376C1338 382.627 1332.63 388 1326 388H1254C1247.37 388 1242 382.627 1242 376V304Z" stroke="url(#paint61_radial_174_12157)" stroke-opacity="0.36" stroke-width="2" mask="url(#path-1-outside-1_174_12157)"/>
<path d="M1339 304C1339 297.373 1344.37 292 1351 292H1423C1429.63 292 1435 297.373 1435 304V376C1435 382.627 1429.63 388 1423 388H1351C1344.37 388 1339 382.627 1339 376V304Z" stroke="url(#paint62_radial_174_12157)" stroke-opacity="0.36" stroke-width="2" mask="url(#path-1-outside-1_174_12157)"/>
<path d="M1436 304C1436 297.373 1441.37 292 1448 292H1520C1526.63 292 1532 297.373 1532 304V376C1532 382.627 1526.63 388 1520 388H1448C1441.37 388 1436 382.627 1436 376V304Z" stroke="url(#paint63_radial_174_12157)" stroke-opacity="0.36" stroke-width="2" mask="url(#path-1-outside-1_174_12157)"/>
<path d="M-19 401C-19 394.373 -13.6274 389 -7 389H65C71.6274 389 77 394.373 77 401V473C77 479.627 71.6274 485 65 485H-7C-13.6274 485 -19 479.627 -19 473V401Z" stroke="url(#paint64_radial_174_12157)" stroke-opacity="0.36" stroke-width="2" mask="url(#path-1-outside-1_174_12157)"/>
<path d="M78 401C78 394.373 83.3726 389 90 389H162C168.627 389 174 394.373 174 401V473C174 479.627 168.627 485 162 485H90C83.3726 485 78 479.627 78 473V401Z" stroke="url(#paint65_radial_174_12157)" stroke-opacity="0.36" stroke-width="2" mask="url(#path-1-outside-1_174_12157)"/>
<path d="M175 401C175 394.373 180.373 389 187 389H259C265.627 389 271 394.373 271 401V473C271 479.627 265.627 485 259 485H187C180.373 485 175 479.627 175 473V401Z" stroke="url(#paint66_radial_174_12157)" stroke-opacity="0.36" stroke-width="2" mask="url(#path-1-outside-1_174_12157)"/>
<path d="M272 401C272 394.373 277.373 389 284 389H356C362.627 389 368 394.373 368 401V473C368 479.627 362.627 485 356 485H284C277.373 485 272 479.627 272 473V401Z" stroke="url(#paint67_radial_174_12157)" stroke-opacity="0.36" stroke-width="2" mask="url(#path-1-outside-1_174_12157)"/>
<path d="M369 401C369 394.373 374.373 389 381 389H453C459.627 389 465 394.373 465 401V473C465 479.627 459.627 485 453 485H381C374.373 485 369 479.627 369 473V401Z" stroke="url(#paint68_radial_174_12157)" stroke-opacity="0.36" stroke-width="2" mask="url(#path-1-outside-1_174_12157)"/>
<path d="M466 401C466 394.373 471.373 389 478 389H550C556.627 389 562 394.373 562 401V473C562 479.627 556.627 485 550 485H478C471.373 485 466 479.627 466 473V401Z" stroke="url(#paint69_radial_174_12157)" stroke-opacity="0.36" stroke-width="2" mask="url(#path-1-outside-1_174_12157)"/>
<path d="M563 401C563 394.373 568.373 389 575 389H647C653.627 389 659 394.373 659 401V473C659 479.627 653.627 485 647 485H575C568.373 485 563 479.627 563 473V401Z" stroke="url(#paint70_radial_174_12157)" stroke-opacity="0.36" stroke-width="2" mask="url(#path-1-outside-1_174_12157)"/>
<path d="M660 401C660 394.373 665.373 389 672 389H744C750.627 389 756 394.373 756 401V473C756 479.627 750.627 485 744 485H672C665.373 485 660 479.627 660 473V401Z" stroke="url(#paint71_radial_174_12157)" stroke-opacity="0.36" stroke-width="2" mask="url(#path-1-outside-1_174_12157)"/>
<path d="M757 401C757 394.373 762.373 389 769 389H841C847.627 389 853 394.373 853 401V473C853 479.627 847.627 485 841 485H769C762.373 485 757 479.627 757 473V401Z" stroke="url(#paint72_radial_174_12157)" stroke-opacity="0.36" stroke-width="2" mask="url(#path-1-outside-1_174_12157)"/>
<path d="M854 401C854 394.373 859.373 389 866 389H938C944.627 389 950 394.373 950 401V473C950 479.627 944.627 485 938 485H866C859.373 485 854 479.627 854 473V401Z" stroke="url(#paint73_radial_174_12157)" stroke-opacity="0.36" stroke-width="2" mask="url(#path-1-outside-1_174_12157)"/>
<path d="M951 401C951 394.373 956.373 389 963 389H1035C1041.63 389 1047 394.373 1047 401V473C1047 479.627 1041.63 485 1035 485H963C956.373 485 951 479.627 951 473V401Z" stroke="url(#paint74_radial_174_12157)" stroke-opacity="0.36" stroke-width="2" mask="url(#path-1-outside-1_174_12157)"/>
<path d="M1048 401C1048 394.373 1053.37 389 1060 389H1132C1138.63 389 1144 394.373 1144 401V473C1144 479.627 1138.63 485 1132 485H1060C1053.37 485 1048 479.627 1048 473V401Z" stroke="url(#paint75_radial_174_12157)" stroke-opacity="0.36" stroke-width="2" mask="url(#path-1-outside-1_174_12157)"/>
<path d="M1145 401C1145 394.373 1150.37 389 1157 389H1229C1235.63 389 1241 394.373 1241 401V473C1241 479.627 1235.63 485 1229 485H1157C1150.37 485 1145 479.627 1145 473V401Z" stroke="url(#paint76_radial_174_12157)" stroke-opacity="0.36" stroke-width="2" mask="url(#path-1-outside-1_174_12157)"/>
<path d="M1242 401C1242 394.373 1247.37 389 1254 389H1326C1332.63 389 1338 394.373 1338 401V473C1338 479.627 1332.63 485 1326 485H1254C1247.37 485 1242 479.627 1242 473V401Z" stroke="url(#paint77_radial_174_12157)" stroke-opacity="0.36" stroke-width="2" mask="url(#path-1-outside-1_174_12157)"/>
<path d="M1339 401C1339 394.373 1344.37 389 1351 389H1423C1429.63 389 1435 394.373 1435 401V473C1435 479.627 1429.63 485 1423 485H1351C1344.37 485 1339 479.627 1339 473V401Z" stroke="url(#paint78_radial_174_12157)" stroke-opacity="0.36" stroke-width="2" mask="url(#path-1-outside-1_174_12157)"/>
<path d="M1436 401C1436 394.373 1441.37 389 1448 389H1520C1526.63 389 1532 394.373 1532 401V473C1532 479.627 1526.63 485 1520 485H1448C1441.37 485 1436 479.627 1436 473V401Z" stroke="url(#paint79_radial_174_12157)" stroke-opacity="0.36" stroke-width="2" mask="url(#path-1-outside-1_174_12157)"/>
<path d="M-19 498C-19 491.373 -13.6274 486 -7 486H65C71.6274 486 77 491.373 77 498V570C77 576.627 71.6274 582 65 582H-7C-13.6274 582 -19 576.627 -19 570V498Z" stroke="url(#paint80_radial_174_12157)" stroke-opacity="0.36" stroke-width="2" mask="url(#path-1-outside-1_174_12157)"/>
<path d="M78 498C78 491.373 83.3726 486 90 486H162C168.627 486 174 491.373 174 498V570C174 576.627 168.627 582 162 582H90C83.3726 582 78 576.627 78 570V498Z" stroke="url(#paint81_radial_174_12157)" stroke-opacity="0.36" stroke-width="2" mask="url(#path-1-outside-1_174_12157)"/>
<path d="M175 498C175 491.373 180.373 486 187 486H259C265.627 486 271 491.373 271 498V570C271 576.627 265.627 582 259 582H187C180.373 582 175 576.627 175 570V498Z" stroke="url(#paint82_radial_174_12157)" stroke-opacity="0.36" stroke-width="2" mask="url(#path-1-outside-1_174_12157)"/>
<path d="M272 498C272 491.373 277.373 486 284 486H356C362.627 486 368 491.373 368 498V570C368 576.627 362.627 582 356 582H284C277.373 582 272 576.627 272 570V498Z" stroke="url(#paint83_radial_174_12157)" stroke-opacity="0.36" stroke-width="2" mask="url(#path-1-outside-1_174_12157)"/>
<path d="M369 498C369 491.373 374.373 486 381 486H453C459.627 486 465 491.373 465 498V570C465 576.627 459.627 582 453 582H381C374.373 582 369 576.627 369 570V498Z" stroke="url(#paint84_radial_174_12157)" stroke-opacity="0.36" stroke-width="2" mask="url(#path-1-outside-1_174_12157)"/>
<path d="M466 498C466 491.373 471.373 486 478 486H550C556.627 486 562 491.373 562 498V570C562 576.627 556.627 582 550 582H478C471.373 582 466 576.627 466 570V498Z" stroke="url(#paint85_radial_174_12157)" stroke-opacity="0.36" stroke-width="2" mask="url(#path-1-outside-1_174_12157)"/>
<path d="M563 498C563 491.373 568.373 486 575 486H647C653.627 486 659 491.373 659 498V570C659 576.627 653.627 582 647 582H575C568.373 582 563 576.627 563 570V498Z" stroke="url(#paint86_radial_174_12157)" stroke-opacity="0.36" stroke-width="2" mask="url(#path-1-outside-1_174_12157)"/>
<path d="M660 498C660 491.373 665.373 486 672 486H744C750.627 486 756 491.373 756 498V570C756 576.627 750.627 582 744 582H672C665.373 582 660 576.627 660 570V498Z" stroke="url(#paint87_radial_174_12157)" stroke-opacity="0.36" stroke-width="2" mask="url(#path-1-outside-1_174_12157)"/>
<path d="M757 498C757 491.373 762.373 486 769 486H841C847.627 486 853 491.373 853 498V570C853 576.627 847.627 582 841 582H769C762.373 582 757 576.627 757 570V498Z" stroke="url(#paint88_radial_174_12157)" stroke-opacity="0.36" stroke-width="2" mask="url(#path-1-outside-1_174_12157)"/>
<path d="M854 498C854 491.373 859.373 486 866 486H938C944.627 486 950 491.373 950 498V570C950 576.627 944.627 582 938 582H866C859.373 582 854 576.627 854 570V498Z" stroke="url(#paint89_radial_174_12157)" stroke-opacity="0.36" stroke-width="2" mask="url(#path-1-outside-1_174_12157)"/>
<path d="M951 498C951 491.373 956.373 486 963 486H1035C1041.63 486 1047 491.373 1047 498V570C1047 576.627 1041.63 582 1035 582H963C956.373 582 951 576.627 951 570V498Z" stroke="url(#paint90_radial_174_12157)" stroke-opacity="0.36" stroke-width="2" mask="url(#path-1-outside-1_174_12157)"/>
<path d="M1048 498C1048 491.373 1053.37 486 1060 486H1132C1138.63 486 1144 491.373 1144 498V570C1144 576.627 1138.63 582 1132 582H1060C1053.37 582 1048 576.627 1048 570V498Z" stroke="url(#paint91_radial_174_12157)" stroke-opacity="0.36" stroke-width="2" mask="url(#path-1-outside-1_174_12157)"/>
<path d="M1145 498C1145 491.373 1150.37 486 1157 486H1229C1235.63 486 1241 491.373 1241 498V570C1241 576.627 1235.63 582 1229 582H1157C1150.37 582 1145 576.627 1145 570V498Z" stroke="url(#paint92_radial_174_12157)" stroke-opacity="0.36" stroke-width="2" mask="url(#path-1-outside-1_174_12157)"/>
<path d="M1242 498C1242 491.373 1247.37 486 1254 486H1326C1332.63 486 1338 491.373 1338 498V570C1338 576.627 1332.63 582 1326 582H1254C1247.37 582 1242 576.627 1242 570V498Z" stroke="url(#paint93_radial_174_12157)" stroke-opacity="0.36" stroke-width="2" mask="url(#path-1-outside-1_174_12157)"/>
<path d="M1339 498C1339 491.373 1344.37 486 1351 486H1423C1429.63 486 1435 491.373 1435 498V570C1435 576.627 1429.63 582 1423 582H1351C1344.37 582 1339 576.627 1339 570V498Z" stroke="url(#paint94_radial_174_12157)" stroke-opacity="0.36" stroke-width="2" mask="url(#path-1-outside-1_174_12157)"/>
<path d="M1436 498C1436 491.373 1441.37 486 1448 486H1520C1526.63 486 1532 491.373 1532 498V570C1532 576.627 1526.63 582 1520 582H1448C1441.37 582 1436 576.627 1436 570V498Z" stroke="url(#paint95_radial_174_12157)" stroke-opacity="0.36" stroke-width="2" mask="url(#path-1-outside-1_174_12157)"/>
<path d="M-19 595C-19 588.373 -13.6274 583 -7 583H65C71.6274 583 77 588.373 77 595V667C77 673.627 71.6274 679 65 679H-7C-13.6274 679 -19 673.627 -19 667V595Z" stroke="url(#paint96_radial_174_12157)" stroke-opacity="0.36" stroke-width="2" mask="url(#path-1-outside-1_174_12157)"/>
<path d="M78 595C78 588.373 83.3726 583 90 583H162C168.627 583 174 588.373 174 595V667C174 673.627 168.627 679 162 679H90C83.3726 679 78 673.627 78 667V595Z" stroke="url(#paint97_radial_174_12157)" stroke-opacity="0.36" stroke-width="2" mask="url(#path-1-outside-1_174_12157)"/>
<path d="M175 595C175 588.373 180.373 583 187 583H259C265.627 583 271 588.373 271 595V667C271 673.627 265.627 679 259 679H187C180.373 679 175 673.627 175 667V595Z" stroke="url(#paint98_radial_174_12157)" stroke-opacity="0.36" stroke-width="2" mask="url(#path-1-outside-1_174_12157)"/>
<path d="M272 595C272 588.373 277.373 583 284 583H356C362.627 583 368 588.373 368 595V667C368 673.627 362.627 679 356 679H284C277.373 679 272 673.627 272 667V595Z" stroke="url(#paint99_radial_174_12157)" stroke-opacity="0.36" stroke-width="2" mask="url(#path-1-outside-1_174_12157)"/>
<path d="M369 595C369 588.373 374.373 583 381 583H453C459.627 583 465 588.373 465 595V667C465 673.627 459.627 679 453 679H381C374.373 679 369 673.627 369 667V595Z" stroke="url(#paint100_radial_174_12157)" stroke-opacity="0.36" stroke-width="2" mask="url(#path-1-outside-1_174_12157)"/>
<path d="M466 595C466 588.373 471.373 583 478 583H550C556.627 583 562 588.373 562 595V667C562 673.627 556.627 679 550 679H478C471.373 679 466 673.627 466 667V595Z" stroke="url(#paint101_radial_174_12157)" stroke-opacity="0.36" stroke-width="2" mask="url(#path-1-outside-1_174_12157)"/>
<path d="M563 595C563 588.373 568.373 583 575 583H647C653.627 583 659 588.373 659 595V667C659 673.627 653.627 679 647 679H575C568.373 679 563 673.627 563 667V595Z" stroke="url(#paint102_radial_174_12157)" stroke-opacity="0.36" stroke-width="2" mask="url(#path-1-outside-1_174_12157)"/>
<path d="M660 595C660 588.373 665.373 583 672 583H744C750.627 583 756 588.373 756 595V667C756 673.627 750.627 679 744 679H672C665.373 679 660 673.627 660 667V595Z" stroke="url(#paint103_radial_174_12157)" stroke-opacity="0.36" stroke-width="2" mask="url(#path-1-outside-1_174_12157)"/>
<path d="M757 595C757 588.373 762.373 583 769 583H841C847.627 583 853 588.373 853 595V667C853 673.627 847.627 679 841 679H769C762.373 679 757 673.627 757 667V595Z" stroke="url(#paint104_radial_174_12157)" stroke-opacity="0.36" stroke-width="2" mask="url(#path-1-outside-1_174_12157)"/>
<path d="M854 595C854 588.373 859.373 583 866 583H938C944.627 583 950 588.373 950 595V667C950 673.627 944.627 679 938 679H866C859.373 679 854 673.627 854 667V595Z" stroke="url(#paint105_radial_174_12157)" stroke-opacity="0.36" stroke-width="2" mask="url(#path-1-outside-1_174_12157)"/>
<path d="M951 595C951 588.373 956.373 583 963 583H1035C1041.63 583 1047 588.373 1047 595V667C1047 673.627 1041.63 679 1035 679H963C956.373 679 951 673.627 951 667V595Z" stroke="url(#paint106_radial_174_12157)" stroke-opacity="0.36" stroke-width="2" mask="url(#path-1-outside-1_174_12157)"/>
<path d="M1048 595C1048 588.373 1053.37 583 1060 583H1132C1138.63 583 1144 588.373 1144 595V667C1144 673.627 1138.63 679 1132 679H1060C1053.37 679 1048 673.627 1048 667V595Z" stroke="url(#paint107_radial_174_12157)" stroke-opacity="0.36" stroke-width="2" mask="url(#path-1-outside-1_174_12157)"/>
<path d="M1145 595C1145 588.373 1150.37 583 1157 583H1229C1235.63 583 1241 588.373 1241 595V667C1241 673.627 1235.63 679 1229 679H1157C1150.37 679 1145 673.627 1145 667V595Z" stroke="url(#paint108_radial_174_12157)" stroke-opacity="0.36" stroke-width="2" mask="url(#path-1-outside-1_174_12157)"/>
<path d="M1242 595C1242 588.373 1247.37 583 1254 583H1326C1332.63 583 1338 588.373 1338 595V667C1338 673.627 1332.63 679 1326 679H1254C1247.37 679 1242 673.627 1242 667V595Z" stroke="url(#paint109_radial_174_12157)" stroke-opacity="0.36" stroke-width="2" mask="url(#path-1-outside-1_174_12157)"/>
<path d="M1339 595C1339 588.373 1344.37 583 1351 583H1423C1429.63 583 1435 588.373 1435 595V667C1435 673.627 1429.63 679 1423 679H1351C1344.37 679 1339 673.627 1339 667V595Z" stroke="url(#paint110_radial_174_12157)" stroke-opacity="0.36" stroke-width="2" mask="url(#path-1-outside-1_174_12157)"/>
<path d="M1436 595C1436 588.373 1441.37 583 1448 583H1520C1526.63 583 1532 588.373 1532 595V667C1532 673.627 1526.63 679 1520 679H1448C1441.37 679 1436 673.627 1436 667V595Z" stroke="url(#paint111_radial_174_12157)" stroke-opacity="0.36" stroke-width="2" mask="url(#path-1-outside-1_174_12157)"/>
<path d="M-19 692C-19 685.373 -13.6274 680 -7 680H65C71.6274 680 77 685.373 77 692V764C77 770.627 71.6274 776 65 776H-7C-13.6274 776 -19 770.627 -19 764V692Z" stroke="url(#paint112_radial_174_12157)" stroke-opacity="0.36" stroke-width="2" mask="url(#path-1-outside-1_174_12157)"/>
<path d="M78 692C78 685.373 83.3726 680 90 680H162C168.627 680 174 685.373 174 692V764C174 770.627 168.627 776 162 776H90C83.3726 776 78 770.627 78 764V692Z" stroke="url(#paint113_radial_174_12157)" stroke-opacity="0.36" stroke-width="2" mask="url(#path-1-outside-1_174_12157)"/>
<path d="M175 692C175 685.373 180.373 680 187 680H259C265.627 680 271 685.373 271 692V764C271 770.627 265.627 776 259 776H187C180.373 776 175 770.627 175 764V692Z" stroke="url(#paint114_radial_174_12157)" stroke-opacity="0.36" stroke-width="2" mask="url(#path-1-outside-1_174_12157)"/>
<path d="M272 692C272 685.373 277.373 680 284 680H356C362.627 680 368 685.373 368 692V764C368 770.627 362.627 776 356 776H284C277.373 776 272 770.627 272 764V692Z" stroke="url(#paint115_radial_174_12157)" stroke-opacity="0.36" stroke-width="2" mask="url(#path-1-outside-1_174_12157)"/>
<path d="M369 692C369 685.373 374.373 680 381 680H453C459.627 680 465 685.373 465 692V764C465 770.627 459.627 776 453 776H381C374.373 776 369 770.627 369 764V692Z" stroke="url(#paint116_radial_174_12157)" stroke-opacity="0.36" stroke-width="2" mask="url(#path-1-outside-1_174_12157)"/>
<path d="M466 692C466 685.373 471.373 680 478 680H550C556.627 680 562 685.373 562 692V764C562 770.627 556.627 776 550 776H478C471.373 776 466 770.627 466 764V692Z" stroke="url(#paint117_radial_174_12157)" stroke-opacity="0.36" stroke-width="2" mask="url(#path-1-outside-1_174_12157)"/>
<path d="M563 692C563 685.373 568.373 680 575 680H647C653.627 680 659 685.373 659 692V764C659 770.627 653.627 776 647 776H575C568.373 776 563 770.627 563 764V692Z" stroke="url(#paint118_radial_174_12157)" stroke-opacity="0.36" stroke-width="2" mask="url(#path-1-outside-1_174_12157)"/>
<path d="M660 692C660 685.373 665.373 680 672 680H744C750.627 680 756 685.373 756 692V764C756 770.627 750.627 776 744 776H672C665.373 776 660 770.627 660 764V692Z" stroke="url(#paint119_radial_174_12157)" stroke-opacity="0.36" stroke-width="2" mask="url(#path-1-outside-1_174_12157)"/>
<path d="M757 692C757 685.373 762.373 680 769 680H841C847.627 680 853 685.373 853 692V764C853 770.627 847.627 776 841 776H769C762.373 776 757 770.627 757 764V692Z" stroke="url(#paint120_radial_174_12157)" stroke-opacity="0.36" stroke-width="2" mask="url(#path-1-outside-1_174_12157)"/>
<path d="M854 692C854 685.373 859.373 680 866 680H938C944.627 680 950 685.373 950 692V764C950 770.627 944.627 776 938 776H866C859.373 776 854 770.627 854 764V692Z" stroke="url(#paint121_radial_174_12157)" stroke-opacity="0.36" stroke-width="2" mask="url(#path-1-outside-1_174_12157)"/>
<path d="M951 692C951 685.373 956.373 680 963 680H1035C1041.63 680 1047 685.373 1047 692V764C1047 770.627 1041.63 776 1035 776H963C956.373 776 951 770.627 951 764V692Z" stroke="url(#paint122_radial_174_12157)" stroke-opacity="0.36" stroke-width="2" mask="url(#path-1-outside-1_174_12157)"/>
<path d="M1048 692C1048 685.373 1053.37 680 1060 680H1132C1138.63 680 1144 685.373 1144 692V764C1144 770.627 1138.63 776 1132 776H1060C1053.37 776 1048 770.627 1048 764V692Z" stroke="url(#paint123_radial_174_12157)" stroke-opacity="0.36" stroke-width="2" mask="url(#path-1-outside-1_174_12157)"/>
<path d="M1145 692C1145 685.373 1150.37 680 1157 680H1229C1235.63 680 1241 685.373 1241 692V764C1241 770.627 1235.63 776 1229 776H1157C1150.37 776 1145 770.627 1145 764V692Z" stroke="url(#paint124_radial_174_12157)" stroke-opacity="0.36" stroke-width="2" mask="url(#path-1-outside-1_174_12157)"/>
<path d="M1242 692C1242 685.373 1247.37 680 1254 680H1326C1332.63 680 1338 685.373 1338 692V764C1338 770.627 1332.63 776 1326 776H1254C1247.37 776 1242 770.627 1242 764V692Z" stroke="url(#paint125_radial_174_12157)" stroke-opacity="0.36" stroke-width="2" mask="url(#path-1-outside-1_174_12157)"/>
<path d="M1339 692C1339 685.373 1344.37 680 1351 680H1423C1429.63 680 1435 685.373 1435 692V764C1435 770.627 1429.63 776 1423 776H1351C1344.37 776 1339 770.627 1339 764V692Z" stroke="url(#paint126_radial_174_12157)" stroke-opacity="0.36" stroke-width="2" mask="url(#path-1-outside-1_174_12157)"/>
<path d="M1436 692C1436 685.373 1441.37 680 1448 680H1520C1526.63 680 1532 685.373 1532 692V764C1532 770.627 1526.63 776 1520 776H1448C1441.37 776 1436 770.627 1436 764V692Z" stroke="url(#paint127_radial_174_12157)" stroke-opacity="0.36" stroke-width="2" mask="url(#path-1-outside-1_174_12157)"/>
<g opacity="0.5">
<rect x="271" y="57" width="221" height="221" rx="12" fill="url(#paint128_linear_174_12157)"/>
<path d="M271 57V266C271 272.627 276.373 278 283 278H492" stroke="url(#paint129_linear_174_12157)"/>
<rect width="221" height="221" rx="12" transform="matrix(-1 0 0 1 271 57)" fill="url(#paint130_linear_174_12157)"/>
<rect width="221" height="221" rx="12" transform="matrix(1 0 0 -1 271 499)" fill="url(#paint131_linear_174_12157)"/>
<rect x="271" y="499" width="221" height="221" rx="12" transform="rotate(180 271 499)" fill="url(#paint132_linear_174_12157)"/>
<path d="M271 499V290C271 283.373 265.627 278 259 278H50" stroke="url(#paint133_linear_174_12157)"/>
</g>
<g opacity="0.5">
<rect x="1145" y="250" width="221" height="221" rx="12" fill="url(#paint134_linear_174_12157)"/>
<path d="M1145 250V459C1145 465.627 1150.37 471 1157 471H1366" stroke="url(#paint135_linear_174_12157)"/>
<rect width="221" height="221" rx="12" transform="matrix(-1 0 0 1 1145 250)" fill="url(#paint136_linear_174_12157)"/>
<rect width="221" height="221" rx="12" transform="matrix(1 0 0 -1 1145 692)" fill="url(#paint137_linear_174_12157)"/>
<rect x="1145" y="692" width="221" height="221" rx="12" transform="rotate(180 1145 692)" fill="url(#paint138_linear_174_12157)"/>
<path d="M1145 692V483C1145 476.373 1139.63 471 1133 471H924" stroke="url(#paint139_linear_174_12157)"/>
</g>
<defs>
<radialGradient id="paint0_radial_174_12157" cx="0" cy="0" r="1" gradientUnits="userSpaceOnUse" gradientTransform="translate(771 -413) rotate(90) scale(1107.5 825.182)">
<stop stop-color="#43AA8B"/>
<stop offset="0.969249" stop-color="#43AA8B" stop-opacity="0"/>
</radialGradient>
<radialGradient id="paint1_radial_174_12157" cx="0" cy="0" r="1" gradientUnits="userSpaceOnUse" gradientTransform="translate(771 -413) rotate(90) scale(1107.5 825.182)">
<stop stop-color="#43AA8B"/>
<stop offset="0.969249" stop-color="#43AA8B" stop-opacity="0"/>
</radialGradient>
<radialGradient id="paint2_radial_174_12157" cx="0" cy="0" r="1" gradientUnits="userSpaceOnUse" gradientTransform="translate(771 -413) rotate(90) scale(1107.5 825.182)">
<stop stop-color="#43AA8B"/>
<stop offset="0.969249" stop-color="#43AA8B" stop-opacity="0"/>
</radialGradient>
<radialGradient id="paint3_radial_174_12157" cx="0" cy="0" r="1" gradientUnits="userSpaceOnUse" gradientTransform="translate(771 -413) rotate(90) scale(1107.5 825.182)">
<stop stop-color="#43AA8B"/>
<stop offset="0.969249" stop-color="#43AA8B" stop-opacity="0"/>
</radialGradient>
<radialGradient id="paint4_radial_174_12157" cx="0" cy="0" r="1" gradientUnits="userSpaceOnUse" gradientTransform="translate(771 -413) rotate(90) scale(1107.5 825.182)">
<stop stop-color="#43AA8B"/>
<stop offset="0.969249" stop-color="#43AA8B" stop-opacity="0"/>
</radialGradient>
<radialGradient id="paint5_radial_174_12157" cx="0" cy="0" r="1" gradientUnits="userSpaceOnUse" gradientTransform="translate(771 -413) rotate(90) scale(1107.5 825.182)">
<stop stop-color="#43AA8B"/>
<stop offset="0.969249" stop-color="#43AA8B" stop-opacity="0"/>
</radialGradient>
<radialGradient id="paint6_radial_174_12157" cx="0" cy="0" r="1" gradientUnits="userSpaceOnUse" gradientTransform="translate(771 -413) rotate(90) scale(1107.5 825.182)">
<stop stop-color="#43AA8B"/>
<stop offset="0.969249" stop-color="#43AA8B" stop-opacity="0"/>
</radialGradient>
<radialGradient id="paint7_radial_174_12157" cx="0" cy="0" r="1" gradientUnits="userSpaceOnUse" gradientTransform="translate(771 -413) rotate(90) scale(1107.5 825.182)">
<stop stop-color="#43AA8B"/>
<stop offset="0.969249" stop-color="#43AA8B" stop-opacity="0"/>
</radialGradient>
<radialGradient id="paint8_radial_174_12157" cx="0" cy="0" r="1" gradientUnits="userSpaceOnUse" gradientTransform="translate(771 -413) rotate(90) scale(1107.5 825.182)">
<stop stop-color="#43AA8B"/>
<stop offset="0.969249" stop-color="#43AA8B" stop-opacity="0"/>
</radialGradient>
<radialGradient id="paint9_radial_174_12157" cx="0" cy="0" r="1" gradientUnits="userSpaceOnUse" gradientTransform="translate(771 -413) rotate(90) scale(1107.5 825.182)">
<stop stop-color="#43AA8B"/>
<stop offset="0.969249" stop-color="#43AA8B" stop-opacity="0"/>
</radialGradient>
<radialGradient id="paint10_radial_174_12157" cx="0" cy="0" r="1" gradientUnits="userSpaceOnUse" gradientTransform="translate(771 -413) rotate(90) scale(1107.5 825.182)">
<stop stop-color="#43AA8B"/>
<stop offset="0.969249" stop-color="#43AA8B" stop-opacity="0"/>
</radialGradient>
<radialGradient id="paint11_radial_174_12157" cx="0" cy="0" r="1" gradientUnits="userSpaceOnUse" gradientTransform="translate(771 -413) rotate(90) scale(1107.5 825.182)">
<stop stop-color="#43AA8B"/>
<stop offset="0.969249" stop-color="#43AA8B" stop-opacity="0"/>
</radialGradient>
<radialGradient id="paint12_radial_174_12157" cx="0" cy="0" r="1" gradientUnits="userSpaceOnUse" gradientTransform="translate(771 -413) rotate(90) scale(1107.5 825.182)">
<stop stop-color="#43AA8B"/>
<stop offset="0.969249" stop-color="#43AA8B" stop-opacity="0"/>
</radialGradient>
<radialGradient id="paint13_radial_174_12157" cx="0" cy="0" r="1" gradientUnits="userSpaceOnUse" gradientTransform="translate(771 -413) rotate(90) scale(1107.5 825.182)">
<stop stop-color="#43AA8B"/>
<stop offset="0.969249" stop-color="#43AA8B" stop-opacity="0"/>
</radialGradient>
<radialGradient id="paint14_radial_174_12157" cx="0" cy="0" r="1" gradientUnits="userSpaceOnUse" gradientTransform="translate(771 -413) rotate(90) scale(1107.5 825.182)">
<stop stop-color="#43AA8B"/>
<stop offset="0.969249" stop-color="#43AA8B" stop-opacity="0"/>
</radialGradient>
<radialGradient id="paint15_radial_174_12157" cx="0" cy="0" r="1" gradientUnits="userSpaceOnUse" gradientTransform="translate(771 -413) rotate(90) scale(1107.5 825.182)">
<stop stop-color="#43AA8B"/>
<stop offset="0.969249" stop-color="#43AA8B" stop-opacity="0"/>
</radialGradient>
<radialGradient id="paint16_radial_174_12157" cx="0" cy="0" r="1" gradientUnits="userSpaceOnUse" gradientTransform="translate(771 -413) rotate(90) scale(1107.5 825.182)">
<stop stop-color="#43AA8B"/>
<stop offset="0.969249" stop-color="#43AA8B" stop-opacity="0"/>
</radialGradient>
<radialGradient id="paint17_radial_174_12157" cx="0" cy="0" r="1" gradientUnits="userSpaceOnUse" gradientTransform="translate(771 -413) rotate(90) scale(1107.5 825.182)">
<stop stop-color="#43AA8B"/>
<stop offset="0.969249" stop-color="#43AA8B" stop-opacity="0"/>
</radialGradient>
<radialGradient id="paint18_radial_174_12157" cx="0" cy="0" r="1" gradientUnits="userSpaceOnUse" gradientTransform="translate(771 -413) rotate(90) scale(1107.5 825.182)">
<stop stop-color="#43AA8B"/>
<stop offset="0.969249" stop-color="#43AA8B" stop-opacity="0"/>
</radialGradient>
<radialGradient id="paint19_radial_174_12157" cx="0" cy="0" r="1" gradientUnits="userSpaceOnUse" gradientTransform="translate(771 -413) rotate(90) scale(1107.5 825.182)">
<stop stop-color="#43AA8B"/>
<stop offset="0.969249" stop-color="#43AA8B" stop-opacity="0"/>
</radialGradient>
<radialGradient id="paint20_radial_174_12157" cx="0" cy="0" r="1" gradientUnits="userSpaceOnUse" gradientTransform="translate(771 -413) rotate(90) scale(1107.5 825.182)">
<stop stop-color="#43AA8B"/>
<stop offset="0.969249" stop-color="#43AA8B" stop-opacity="0"/>
</radialGradient>
<radialGradient id="paint21_radial_174_12157" cx="0" cy="0" r="1" gradientUnits="userSpaceOnUse" gradientTransform="translate(771 -413) rotate(90) scale(1107.5 825.182)">
<stop stop-color="#43AA8B"/>
<stop offset="0.969249" stop-color="#43AA8B" stop-opacity="0"/>
</radialGradient>
<radialGradient id="paint22_radial_174_12157" cx="0" cy="0" r="1" gradientUnits="userSpaceOnUse" gradientTransform="translate(771 -413) rotate(90) scale(1107.5 825.182)">
<stop stop-color="#43AA8B"/>
<stop offset="0.969249" stop-color="#43AA8B" stop-opacity="0"/>
</radialGradient>
<radialGradient id="paint23_radial_174_12157" cx="0" cy="0" r="1" gradientUnits="userSpaceOnUse" gradientTransform="translate(771 -413) rotate(90) scale(1107.5 825.182)">
<stop stop-color="#43AA8B"/>
<stop offset="0.969249" stop-color="#43AA8B" stop-opacity="0"/>
</radialGradient>
<radialGradient id="paint24_radial_174_12157" cx="0" cy="0" r="1" gradientUnits="userSpaceOnUse" gradientTransform="translate(771 -413) rotate(90) scale(1107.5 825.182)">
<stop stop-color="#43AA8B"/>
<stop offset="0.969249" stop-color="#43AA8B" stop-opacity="0"/>
</radialGradient>
<radialGradient id="paint25_radial_174_12157" cx="0" cy="0" r="1" gradientUnits="userSpaceOnUse" gradientTransform="translate(771 -413) rotate(90) scale(1107.5 825.182)">
<stop stop-color="#43AA8B"/>
<stop offset="0.969249" stop-color="#43AA8B" stop-opacity="0"/>
</radialGradient>
<radialGradient id="paint26_radial_174_12157" cx="0" cy="0" r="1" gradientUnits="userSpaceOnUse" gradientTransform="translate(771 -413) rotate(90) scale(1107.5 825.182)">
<stop stop-color="#43AA8B"/>
<stop offset="0.969249" stop-color="#43AA8B" stop-opacity="0"/>
</radialGradient>
<radialGradient id="paint27_radial_174_12157" cx="0" cy="0" r="1" gradientUnits="userSpaceOnUse" gradientTransform="translate(771 -413) rotate(90) scale(1107.5 825.182)">
<stop stop-color="#43AA8B"/>
<stop offset="0.969249" stop-color="#43AA8B" stop-opacity="0"/>
</radialGradient>
<radialGradient id="paint28_radial_174_12157" cx="0" cy="0" r="1" gradientUnits="userSpaceOnUse" gradientTransform="translate(771 -413) rotate(90) scale(1107.5 825.182)">
<stop stop-color="#43AA8B"/>
<stop offset="0.969249" stop-color="#43AA8B" stop-opacity="0"/>
</radialGradient>
<radialGradient id="paint29_radial_174_12157" cx="0" cy="0" r="1" gradientUnits="userSpaceOnUse" gradientTransform="translate(771 -413) rotate(90) scale(1107.5 825.182)">
<stop stop-color="#43AA8B"/>
<stop offset="0.969249" stop-color="#43AA8B" stop-opacity="0"/>
</radialGradient>
<radialGradient id="paint30_radial_174_12157" cx="0" cy="0" r="1" gradientUnits="userSpaceOnUse" gradientTransform="translate(771 -413) rotate(90) scale(1107.5 825.182)">
<stop stop-color="#43AA8B"/>
<stop offset="0.969249" stop-color="#43AA8B" stop-opacity="0"/>
</radialGradient>
<radialGradient id="paint31_radial_174_12157" cx="0" cy="0" r="1" gradientUnits="userSpaceOnUse" gradientTransform="translate(771 -413) rotate(90) scale(1107.5 825.182)">
<stop stop-color="#43AA8B"/>
<stop offset="0.969249" stop-color="#43AA8B" stop-opacity="0"/>
</radialGradient>
<radialGradient id="paint32_radial_174_12157" cx="0" cy="0" r="1" gradientUnits="userSpaceOnUse" gradientTransform="translate(771 -413) rotate(90) scale(1107.5 825.182)">
<stop stop-color="#43AA8B"/>
<stop offset="0.969249" stop-color="#43AA8B" stop-opacity="0"/>
</radialGradient>
<radialGradient id="paint33_radial_174_12157" cx="0" cy="0" r="1" gradientUnits="userSpaceOnUse" gradientTransform="translate(771 -413) rotate(90) scale(1107.5 825.182)">
<stop stop-color="#43AA8B"/>
<stop offset="0.969249" stop-color="#43AA8B" stop-opacity="0"/>
</radialGradient>
<radialGradient id="paint34_radial_174_12157" cx="0" cy="0" r="1" gradientUnits="userSpaceOnUse" gradientTransform="translate(771 -413) rotate(90) scale(1107.5 825.182)">
<stop stop-color="#43AA8B"/>
<stop offset="0.969249" stop-color="#43AA8B" stop-opacity="0"/>
</radialGradient>
<radialGradient id="paint35_radial_174_12157" cx="0" cy="0" r="1" gradientUnits="userSpaceOnUse" gradientTransform="translate(771 -413) rotate(90) scale(1107.5 825.182)">
<stop stop-color="#43AA8B"/>
<stop offset="0.969249" stop-color="#43AA8B" stop-opacity="0"/>
</radialGradient>
<radialGradient id="paint36_radial_174_12157" cx="0" cy="0" r="1" gradientUnits="userSpaceOnUse" gradientTransform="translate(771 -413) rotate(90) scale(1107.5 825.182)">
<stop stop-color="#43AA8B"/>
<stop offset="0.969249" stop-color="#43AA8B" stop-opacity="0"/>
</radialGradient>
<radialGradient id="paint37_radial_174_12157" cx="0" cy="0" r="1" gradientUnits="userSpaceOnUse" gradientTransform="translate(771 -413) rotate(90) scale(1107.5 825.182)">
<stop stop-color="#43AA8B"/>
<stop offset="0.969249" stop-color="#43AA8B" stop-opacity="0"/>
</radialGradient>
<radialGradient id="paint38_radial_174_12157" cx="0" cy="0" r="1" gradientUnits="userSpaceOnUse" gradientTransform="translate(771 -413) rotate(90) scale(1107.5 825.182)">
<stop stop-color="#43AA8B"/>
<stop offset="0.969249" stop-color="#43AA8B" stop-opacity="0"/>
</radialGradient>
<radialGradient id="paint39_radial_174_12157" cx="0" cy="0" r="1" gradientUnits="userSpaceOnUse" gradientTransform="translate(771 -413) rotate(90) scale(1107.5 825.182)">
<stop stop-color="#43AA8B"/>
<stop offset="0.969249" stop-color="#43AA8B" stop-opacity="0"/>
</radialGradient>
<radialGradient id="paint40_radial_174_12157" cx="0" cy="0" r="1" gradientUnits="userSpaceOnUse" gradientTransform="translate(771 -413) rotate(90) scale(1107.5 825.182)">
<stop stop-color="#43AA8B"/>
<stop offset="0.969249" stop-color="#43AA8B" stop-opacity="0"/>
</radialGradient>
<radialGradient id="paint41_radial_174_12157" cx="0" cy="0" r="1" gradientUnits="userSpaceOnUse" gradientTransform="translate(771 -413) rotate(90) scale(1107.5 825.182)">
<stop stop-color="#43AA8B"/>
<stop offset="0.969249" stop-color="#43AA8B" stop-opacity="0"/>
</radialGradient>
<radialGradient id="paint42_radial_174_12157" cx="0" cy="0" r="1" gradientUnits="userSpaceOnUse" gradientTransform="translate(771 -413) rotate(90) scale(1107.5 825.182)">
<stop stop-color="#43AA8B"/>
<stop offset="0.969249" stop-color="#43AA8B" stop-opacity="0"/>
</radialGradient>
<radialGradient id="paint43_radial_174_12157" cx="0" cy="0" r="1" gradientUnits="userSpaceOnUse" gradientTransform="translate(771 -413) rotate(90) scale(1107.5 825.182)">
<stop stop-color="#43AA8B"/>
<stop offset="0.969249" stop-color="#43AA8B" stop-opacity="0"/>
</radialGradient>
<radialGradient id="paint44_radial_174_12157" cx="0" cy="0" r="1" gradientUnits="userSpaceOnUse" gradientTransform="translate(771 -413) rotate(90) scale(1107.5 825.182)">
<stop stop-color="#43AA8B"/>
<stop offset="0.969249" stop-color="#43AA8B" stop-opacity="0"/>
</radialGradient>
<radialGradient id="paint45_radial_174_12157" cx="0" cy="0" r="1" gradientUnits="userSpaceOnUse" gradientTransform="translate(771 -413) rotate(90) scale(1107.5 825.182)">
<stop stop-color="#43AA8B"/>
<stop offset="0.969249" stop-color="#43AA8B" stop-opacity="0"/>
</radialGradient>
<radialGradient id="paint46_radial_174_12157" cx="0" cy="0" r="1" gradientUnits="userSpaceOnUse" gradientTransform="translate(771 -413) rotate(90) scale(1107.5 825.182)">
<stop stop-color="#43AA8B"/>
<stop offset="0.969249" stop-color="#43AA8B" stop-opacity="0"/>
</radialGradient>
<radialGradient id="paint47_radial_174_12157" cx="0" cy="0" r="1" gradientUnits="userSpaceOnUse" gradientTransform="translate(771 -413) rotate(90) scale(1107.5 825.182)">
<stop stop-color="#43AA8B"/>
<stop offset="0.969249" stop-color="#43AA8B" stop-opacity="0"/>
</radialGradient>
<radialGradient id="paint48_radial_174_12157" cx="0" cy="0" r="1" gradientUnits="userSpaceOnUse" gradientTransform="translate(771 -413) rotate(90) scale(1107.5 825.182)">
<stop stop-color="#43AA8B"/>
<stop offset="0.969249" stop-color="#43AA8B" stop-opacity="0"/>
</radialGradient>
<radialGradient id="paint49_radial_174_12157" cx="0" cy="0" r="1" gradientUnits="userSpaceOnUse" gradientTransform="translate(771 -413) rotate(90) scale(1107.5 825.182)">
<stop stop-color="#43AA8B"/>
<stop offset="0.969249" stop-color="#43AA8B" stop-opacity="0"/>
</radialGradient>
<radialGradient id="paint50_radial_174_12157" cx="0" cy="0" r="1" gradientUnits="userSpaceOnUse" gradientTransform="translate(771 -413) rotate(90) scale(1107.5 825.182)">
<stop stop-color="#43AA8B"/>
<stop offset="0.969249" stop-color="#43AA8B" stop-opacity="0"/>
</radialGradient>
<radialGradient id="paint51_radial_174_12157" cx="0" cy="0" r="1" gradientUnits="userSpaceOnUse" gradientTransform="translate(771 -413) rotate(90) scale(1107.5 825.182)">
<stop stop-color="#43AA8B"/>
<stop offset="0.969249" stop-color="#43AA8B" stop-opacity="0"/>
</radialGradient>
<radialGradient id="paint52_radial_174_12157" cx="0" cy="0" r="1" gradientUnits="userSpaceOnUse" gradientTransform="translate(771 -413) rotate(90) scale(1107.5 825.182)">
<stop stop-color="#43AA8B"/>
<stop offset="0.969249" stop-color="#43AA8B" stop-opacity="0"/>
</radialGradient>
<radialGradient id="paint53_radial_174_12157" cx="0" cy="0" r="1" gradientUnits="userSpaceOnUse" gradientTransform="translate(771 -413) rotate(90) scale(1107.5 825.182)">
<stop stop-color="#43AA8B"/>
<stop offset="0.969249" stop-color="#43AA8B" stop-opacity="0"/>
</radialGradient>
<radialGradient id="paint54_radial_174_12157" cx="0" cy="0" r="1" gradientUnits="userSpaceOnUse" gradientTransform="translate(771 -413) rotate(90) scale(1107.5 825.182)">
<stop stop-color="#43AA8B"/>
<stop offset="0.969249" stop-color="#43AA8B" stop-opacity="0"/>
</radialGradient>
<radialGradient id="paint55_radial_174_12157" cx="0" cy="0" r="1" gradientUnits="userSpaceOnUse" gradientTransform="translate(771 -413) rotate(90) scale(1107.5 825.182)">
<stop stop-color="#43AA8B"/>
<stop offset="0.969249" stop-color="#43AA8B" stop-opacity="0"/>
</radialGradient>
<radialGradient id="paint56_radial_174_12157" cx="0" cy="0" r="1" gradientUnits="userSpaceOnUse" gradientTransform="translate(771 -413) rotate(90) scale(1107.5 825.182)">
<stop stop-color="#43AA8B"/>
<stop offset="0.969249" stop-color="#43AA8B" stop-opacity="0"/>
</radialGradient>
<radialGradient id="paint57_radial_174_12157" cx="0" cy="0" r="1" gradientUnits="userSpaceOnUse" gradientTransform="translate(771 -413) rotate(90) scale(1107.5 825.182)">
<stop stop-color="#43AA8B"/>
<stop offset="0.969249" stop-color="#43AA8B" stop-opacity="0"/>
</radialGradient>
<radialGradient id="paint58_radial_174_12157" cx="0" cy="0" r="1" gradientUnits="userSpaceOnUse" gradientTransform="translate(771 -413) rotate(90) scale(1107.5 825.182)">
<stop stop-color="#43AA8B"/>
<stop offset="0.969249" stop-color="#43AA8B" stop-opacity="0"/>
</radialGradient>
<radialGradient id="paint59_radial_174_12157" cx="0" cy="0" r="1" gradientUnits="userSpaceOnUse" gradientTransform="translate(771 -413) rotate(90) scale(1107.5 825.182)">
<stop stop-color="#43AA8B"/>
<stop offset="0.969249" stop-color="#43AA8B" stop-opacity="0"/>
</radialGradient>
<radialGradient id="paint60_radial_174_12157" cx="0" cy="0" r="1" gradientUnits="userSpaceOnUse" gradientTransform="translate(771 -413) rotate(90) scale(1107.5 825.182)">
<stop stop-color="#43AA8B"/>
<stop offset="0.969249" stop-color="#43AA8B" stop-opacity="0"/>
</radialGradient>
<radialGradient id="paint61_radial_174_12157" cx="0" cy="0" r="1" gradientUnits="userSpaceOnUse" gradientTransform="translate(771 -413) rotate(90) scale(1107.5 825.182)">
<stop stop-color="#43AA8B"/>
<stop offset="0.969249" stop-color="#43AA8B" stop-opacity="0"/>
</radialGradient>
<radialGradient id="paint62_radial_174_12157" cx="0" cy="0" r="1" gradientUnits="userSpaceOnUse" gradientTransform="translate(771 -413) rotate(90) scale(1107.5 825.182)">
<stop stop-color="#43AA8B"/>
<stop offset="0.969249" stop-color="#43AA8B" stop-opacity="0"/>
</radialGradient>
<radialGradient id="paint63_radial_174_12157" cx="0" cy="0" r="1" gradientUnits="userSpaceOnUse" gradientTransform="translate(771 -413) rotate(90) scale(1107.5 825.182)">
<stop stop-color="#43AA8B"/>
<stop offset="0.969249" stop-color="#43AA8B" stop-opacity="0"/>
</radialGradient>
<radialGradient id="paint64_radial_174_12157" cx="0" cy="0" r="1" gradientUnits="userSpaceOnUse" gradientTransform="translate(771 -413) rotate(90) scale(1107.5 825.182)">
<stop stop-color="#43AA8B"/>
<stop offset="0.969249" stop-color="#43AA8B" stop-opacity="0"/>
</radialGradient>
<radialGradient id="paint65_radial_174_12157" cx="0" cy="0" r="1" gradientUnits="userSpaceOnUse" gradientTransform="translate(771 -413) rotate(90) scale(1107.5 825.182)">
<stop stop-color="#43AA8B"/>
<stop offset="0.969249" stop-color="#43AA8B" stop-opacity="0"/>
</radialGradient>
<radialGradient id="paint66_radial_174_12157" cx="0" cy="0" r="1" gradientUnits="userSpaceOnUse" gradientTransform="translate(771 -413) rotate(90) scale(1107.5 825.182)">
<stop stop-color="#43AA8B"/>
<stop offset="0.969249" stop-color="#43AA8B" stop-opacity="0"/>
</radialGradient>
<radialGradient id="paint67_radial_174_12157" cx="0" cy="0" r="1" gradientUnits="userSpaceOnUse" gradientTransform="translate(771 -413) rotate(90) scale(1107.5 825.182)">
<stop stop-color="#43AA8B"/>
<stop offset="0.969249" stop-color="#43AA8B" stop-opacity="0"/>
</radialGradient>
<radialGradient id="paint68_radial_174_12157" cx="0" cy="0" r="1" gradientUnits="userSpaceOnUse" gradientTransform="translate(771 -413) rotate(90) scale(1107.5 825.182)">
<stop stop-color="#43AA8B"/>
<stop offset="0.969249" stop-color="#43AA8B" stop-opacity="0"/>
</radialGradient>
<radialGradient id="paint69_radial_174_12157" cx="0" cy="0" r="1" gradientUnits="userSpaceOnUse" gradientTransform="translate(771 -413) rotate(90) scale(1107.5 825.182)">
<stop stop-color="#43AA8B"/>
<stop offset="0.969249" stop-color="#43AA8B" stop-opacity="0"/>
</radialGradient>
<radialGradient id="paint70_radial_174_12157" cx="0" cy="0" r="1" gradientUnits="userSpaceOnUse" gradientTransform="translate(771 -413) rotate(90) scale(1107.5 825.182)">
<stop stop-color="#43AA8B"/>
<stop offset="0.969249" stop-color="#43AA8B" stop-opacity="0"/>
</radialGradient>
<radialGradient id="paint71_radial_174_12157" cx="0" cy="0" r="1" gradientUnits="userSpaceOnUse" gradientTransform="translate(771 -413) rotate(90) scale(1107.5 825.182)">
<stop stop-color="#43AA8B"/>
<stop offset="0.969249" stop-color="#43AA8B" stop-opacity="0"/>
</radialGradient>
<radialGradient id="paint72_radial_174_12157" cx="0" cy="0" r="1" gradientUnits="userSpaceOnUse" gradientTransform="translate(771 -413) rotate(90) scale(1107.5 825.182)">
<stop stop-color="#43AA8B"/>
<stop offset="0.969249" stop-color="#43AA8B" stop-opacity="0"/>
</radialGradient>
<radialGradient id="paint73_radial_174_12157" cx="0" cy="0" r="1" gradientUnits="userSpaceOnUse" gradientTransform="translate(771 -413) rotate(90) scale(1107.5 825.182)">
<stop stop-color="#43AA8B"/>
<stop offset="0.969249" stop-color="#43AA8B" stop-opacity="0"/>
</radialGradient>
<radialGradient id="paint74_radial_174_12157" cx="0" cy="0" r="1" gradientUnits="userSpaceOnUse" gradientTransform="translate(771 -413) rotate(90) scale(1107.5 825.182)">
<stop stop-color="#43AA8B"/>
<stop offset="0.969249" stop-color="#43AA8B" stop-opacity="0"/>
</radialGradient>
<radialGradient id="paint75_radial_174_12157" cx="0" cy="0" r="1" gradientUnits="userSpaceOnUse" gradientTransform="translate(771 -413) rotate(90) scale(1107.5 825.182)">
<stop stop-color="#43AA8B"/>
<stop offset="0.969249" stop-color="#43AA8B" stop-opacity="0"/>
</radialGradient>
<radialGradient id="paint76_radial_174_12157" cx="0" cy="0" r="1" gradientUnits="userSpaceOnUse" gradientTransform="translate(771 -413) rotate(90) scale(1107.5 825.182)">
<stop stop-color="#43AA8B"/>
<stop offset="0.969249" stop-color="#43AA8B" stop-opacity="0"/>
</radialGradient>
<radialGradient id="paint77_radial_174_12157" cx="0" cy="0" r="1" gradientUnits="userSpaceOnUse" gradientTransform="translate(771 -413) rotate(90) scale(1107.5 825.182)">
<stop stop-color="#43AA8B"/>
<stop offset="0.969249" stop-color="#43AA8B" stop-opacity="0"/>
</radialGradient>
<radialGradient id="paint78_radial_174_12157" cx="0" cy="0" r="1" gradientUnits="userSpaceOnUse" gradientTransform="translate(771 -413) rotate(90) scale(1107.5 825.182)">
<stop stop-color="#43AA8B"/>
<stop offset="0.969249" stop-color="#43AA8B" stop-opacity="0"/>
</radialGradient>
<radialGradient id="paint79_radial_174_12157" cx="0" cy="0" r="1" gradientUnits="userSpaceOnUse" gradientTransform="translate(771 -413) rotate(90) scale(1107.5 825.182)">
<stop stop-color="#43AA8B"/>
<stop offset="0.969249" stop-color="#43AA8B" stop-opacity="0"/>
</radialGradient>
<radialGradient id="paint80_radial_174_12157" cx="0" cy="0" r="1" gradientUnits="userSpaceOnUse" gradientTransform="translate(771 -413) rotate(90) scale(1107.5 825.182)">
<stop stop-color="#43AA8B"/>
<stop offset="0.969249" stop-color="#43AA8B" stop-opacity="0"/>
</radialGradient>
<radialGradient id="paint81_radial_174_12157" cx="0" cy="0" r="1" gradientUnits="userSpaceOnUse" gradientTransform="translate(771 -413) rotate(90) scale(1107.5 825.182)">
<stop stop-color="#43AA8B"/>
<stop offset="0.969249" stop-color="#43AA8B" stop-opacity="0"/>
</radialGradient>
<radialGradient id="paint82_radial_174_12157" cx="0" cy="0" r="1" gradientUnits="userSpaceOnUse" gradientTransform="translate(771 -413) rotate(90) scale(1107.5 825.182)">
<stop stop-color="#43AA8B"/>
<stop offset="0.969249" stop-color="#43AA8B" stop-opacity="0"/>
</radialGradient>
<radialGradient id="paint83_radial_174_12157" cx="0" cy="0" r="1" gradientUnits="userSpaceOnUse" gradientTransform="translate(771 -413) rotate(90) scale(1107.5 825.182)">
<stop stop-color="#43AA8B"/>
<stop offset="0.969249" stop-color="#43AA8B" stop-opacity="0"/>
</radialGradient>
<radialGradient id="paint84_radial_174_12157" cx="0" cy="0" r="1" gradientUnits="userSpaceOnUse" gradientTransform="translate(771 -413) rotate(90) scale(1107.5 825.182)">
<stop stop-color="#43AA8B"/>
<stop offset="0.969249" stop-color="#43AA8B" stop-opacity="0"/>
</radialGradient>
<radialGradient id="paint85_radial_174_12157" cx="0" cy="0" r="1" gradientUnits="userSpaceOnUse" gradientTransform="translate(771 -413) rotate(90) scale(1107.5 825.182)">
<stop stop-color="#43AA8B"/>
<stop offset="0.969249" stop-color="#43AA8B" stop-opacity="0"/>
</radialGradient>
<radialGradient id="paint86_radial_174_12157" cx="0" cy="0" r="1" gradientUnits="userSpaceOnUse" gradientTransform="translate(771 -413) rotate(90) scale(1107.5 825.182)">
<stop stop-color="#43AA8B"/>
<stop offset="0.969249" stop-color="#43AA8B" stop-opacity="0"/>
</radialGradient>
<radialGradient id="paint87_radial_174_12157" cx="0" cy="0" r="1" gradientUnits="userSpaceOnUse" gradientTransform="translate(771 -413) rotate(90) scale(1107.5 825.182)">
<stop stop-color="#43AA8B"/>
<stop offset="0.969249" stop-color="#43AA8B" stop-opacity="0"/>
</radialGradient>
<radialGradient id="paint88_radial_174_12157" cx="0" cy="0" r="1" gradientUnits="userSpaceOnUse" gradientTransform="translate(771 -413) rotate(90) scale(1107.5 825.182)">
<stop stop-color="#43AA8B"/>
<stop offset="0.969249" stop-color="#43AA8B" stop-opacity="0"/>
</radialGradient>
<radialGradient id="paint89_radial_174_12157" cx="0" cy="0" r="1" gradientUnits="userSpaceOnUse" gradientTransform="translate(771 -413) rotate(90) scale(1107.5 825.182)">
<stop stop-color="#43AA8B"/>
<stop offset="0.969249" stop-color="#43AA8B" stop-opacity="0"/>
</radialGradient>
<radialGradient id="paint90_radial_174_12157" cx="0" cy="0" r="1" gradientUnits="userSpaceOnUse" gradientTransform="translate(771 -413) rotate(90) scale(1107.5 825.182)">
<stop stop-color="#43AA8B"/>
<stop offset="0.969249" stop-color="#43AA8B" stop-opacity="0"/>
</radialGradient>
<radialGradient id="paint91_radial_174_12157" cx="0" cy="0" r="1" gradientUnits="userSpaceOnUse" gradientTransform="translate(771 -413) rotate(90) scale(1107.5 825.182)">
<stop stop-color="#43AA8B"/>
<stop offset="0.969249" stop-color="#43AA8B" stop-opacity="0"/>
</radialGradient>
<radialGradient id="paint92_radial_174_12157" cx="0" cy="0" r="1" gradientUnits="userSpaceOnUse" gradientTransform="translate(771 -413) rotate(90) scale(1107.5 825.182)">
<stop stop-color="#43AA8B"/>
<stop offset="0.969249" stop-color="#43AA8B" stop-opacity="0"/>
</radialGradient>
<radialGradient id="paint93_radial_174_12157" cx="0" cy="0" r="1" gradientUnits="userSpaceOnUse" gradientTransform="translate(771 -413) rotate(90) scale(1107.5 825.182)">
<stop stop-color="#43AA8B"/>
<stop offset="0.969249" stop-color="#43AA8B" stop-opacity="0"/>
</radialGradient>
<radialGradient id="paint94_radial_174_12157" cx="0" cy="0" r="1" gradientUnits="userSpaceOnUse" gradientTransform="translate(771 -413) rotate(90) scale(1107.5 825.182)">
<stop stop-color="#43AA8B"/>
<stop offset="0.969249" stop-color="#43AA8B" stop-opacity="0"/>
</radialGradient>
<radialGradient id="paint95_radial_174_12157" cx="0" cy="0" r="1" gradientUnits="userSpaceOnUse" gradientTransform="translate(771 -413) rotate(90) scale(1107.5 825.182)">
<stop stop-color="#43AA8B"/>
<stop offset="0.969249" stop-color="#43AA8B" stop-opacity="0"/>
</radialGradient>
<radialGradient id="paint96_radial_174_12157" cx="0" cy="0" r="1" gradientUnits="userSpaceOnUse" gradientTransform="translate(771 -413) rotate(90) scale(1107.5 825.182)">
<stop stop-color="#43AA8B"/>
<stop offset="0.969249" stop-color="#43AA8B" stop-opacity="0"/>
</radialGradient>
<radialGradient id="paint97_radial_174_12157" cx="0" cy="0" r="1" gradientUnits="userSpaceOnUse" gradientTransform="translate(771 -413) rotate(90) scale(1107.5 825.182)">
<stop stop-color="#43AA8B"/>
<stop offset="0.969249" stop-color="#43AA8B" stop-opacity="0"/>
</radialGradient>
<radialGradient id="paint98_radial_174_12157" cx="0" cy="0" r="1" gradientUnits="userSpaceOnUse" gradientTransform="translate(771 -413) rotate(90) scale(1107.5 825.182)">
<stop stop-color="#43AA8B"/>
<stop offset="0.969249" stop-color="#43AA8B" stop-opacity="0"/>
</radialGradient>
<radialGradient id="paint99_radial_174_12157" cx="0" cy="0" r="1" gradientUnits="userSpaceOnUse" gradientTransform="translate(771 -413) rotate(90) scale(1107.5 825.182)">
<stop stop-color="#43AA8B"/>
<stop offset="0.969249" stop-color="#43AA8B" stop-opacity="0"/>
</radialGradient>
<radialGradient id="paint100_radial_174_12157" cx="0" cy="0" r="1" gradientUnits="userSpaceOnUse" gradientTransform="translate(771 -413) rotate(90) scale(1107.5 825.182)">
<stop stop-color="#43AA8B"/>
<stop offset="0.969249" stop-color="#43AA8B" stop-opacity="0"/>
</radialGradient>
<radialGradient id="paint101_radial_174_12157" cx="0" cy="0" r="1" gradientUnits="userSpaceOnUse" gradientTransform="translate(771 -413) rotate(90) scale(1107.5 825.182)">
<stop stop-color="#43AA8B"/>
<stop offset="0.969249" stop-color="#43AA8B" stop-opacity="0"/>
</radialGradient>
<radialGradient id="paint102_radial_174_12157" cx="0" cy="0" r="1" gradientUnits="userSpaceOnUse" gradientTransform="translate(771 -413) rotate(90) scale(1107.5 825.182)">
<stop stop-color="#43AA8B"/>
<stop offset="0.969249" stop-color="#43AA8B" stop-opacity="0"/>
</radialGradient>
<radialGradient id="paint103_radial_174_12157" cx="0" cy="0" r="1" gradientUnits="userSpaceOnUse" gradientTransform="translate(771 -413) rotate(90) scale(1107.5 825.182)">
<stop stop-color="#43AA8B"/>
<stop offset="0.969249" stop-color="#43AA8B" stop-opacity="0"/>
</radialGradient>
<radialGradient id="paint104_radial_174_12157" cx="0" cy="0" r="1" gradientUnits="userSpaceOnUse" gradientTransform="translate(771 -413) rotate(90) scale(1107.5 825.182)">
<stop stop-color="#43AA8B"/>
<stop offset="0.969249" stop-color="#43AA8B" stop-opacity="0"/>
</radialGradient>
<radialGradient id="paint105_radial_174_12157" cx="0" cy="0" r="1" gradientUnits="userSpaceOnUse" gradientTransform="translate(771 -413) rotate(90) scale(1107.5 825.182)">
<stop stop-color="#43AA8B"/>
<stop offset="0.969249" stop-color="#43AA8B" stop-opacity="0"/>
</radialGradient>
<radialGradient id="paint106_radial_174_12157" cx="0" cy="0" r="1" gradientUnits="userSpaceOnUse" gradientTransform="translate(771 -413) rotate(90) scale(1107.5 825.182)">
<stop stop-color="#43AA8B"/>
<stop offset="0.969249" stop-color="#43AA8B" stop-opacity="0"/>
</radialGradient>
<radialGradient id="paint107_radial_174_12157" cx="0" cy="0" r="1" gradientUnits="userSpaceOnUse" gradientTransform="translate(771 -413) rotate(90) scale(1107.5 825.182)">
<stop stop-color="#43AA8B"/>
<stop offset="0.969249" stop-color="#43AA8B" stop-opacity="0"/>
</radialGradient>
<radialGradient id="paint108_radial_174_12157" cx="0" cy="0" r="1" gradientUnits="userSpaceOnUse" gradientTransform="translate(771 -413) rotate(90) scale(1107.5 825.182)">
<stop stop-color="#43AA8B"/>
<stop offset="0.969249" stop-color="#43AA8B" stop-opacity="0"/>
</radialGradient>
<radialGradient id="paint109_radial_174_12157" cx="0" cy="0" r="1" gradientUnits="userSpaceOnUse" gradientTransform="translate(771 -413) rotate(90) scale(1107.5 825.182)">
<stop stop-color="#43AA8B"/>
<stop offset="0.969249" stop-color="#43AA8B" stop-opacity="0"/>
</radialGradient>
<radialGradient id="paint110_radial_174_12157" cx="0" cy="0" r="1" gradientUnits="userSpaceOnUse" gradientTransform="translate(771 -413) rotate(90) scale(1107.5 825.182)">
<stop stop-color="#43AA8B"/>
<stop offset="0.969249" stop-color="#43AA8B" stop-opacity="0"/>
</radialGradient>
<radialGradient id="paint111_radial_174_12157" cx="0" cy="0" r="1" gradientUnits="userSpaceOnUse" gradientTransform="translate(771 -413) rotate(90) scale(1107.5 825.182)">
<stop stop-color="#43AA8B"/>
<stop offset="0.969249" stop-color="#43AA8B" stop-opacity="0"/>
</radialGradient>
<radialGradient id="paint112_radial_174_12157" cx="0" cy="0" r="1" gradientUnits="userSpaceOnUse" gradientTransform="translate(771 -413) rotate(90) scale(1107.5 825.182)">
<stop stop-color="#43AA8B"/>
<stop offset="0.969249" stop-color="#43AA8B" stop-opacity="0"/>
</radialGradient>
<radialGradient id="paint113_radial_174_12157" cx="0" cy="0" r="1" gradientUnits="userSpaceOnUse" gradientTransform="translate(771 -413) rotate(90) scale(1107.5 825.182)">
<stop stop-color="#43AA8B"/>
<stop offset="0.969249" stop-color="#43AA8B" stop-opacity="0"/>
</radialGradient>
<radialGradient id="paint114_radial_174_12157" cx="0" cy="0" r="1" gradientUnits="userSpaceOnUse" gradientTransform="translate(771 -413) rotate(90) scale(1107.5 825.182)">
<stop stop-color="#43AA8B"/>
<stop offset="0.969249" stop-color="#43AA8B" stop-opacity="0"/>
</radialGradient>
<radialGradient id="paint115_radial_174_12157" cx="0" cy="0" r="1" gradientUnits="userSpaceOnUse" gradientTransform="translate(771 -413) rotate(90) scale(1107.5 825.182)">
<stop stop-color="#43AA8B"/>
<stop offset="0.969249" stop-color="#43AA8B" stop-opacity="0"/>
</radialGradient>
<radialGradient id="paint116_radial_174_12157" cx="0" cy="0" r="1" gradientUnits="userSpaceOnUse" gradientTransform="translate(771 -413) rotate(90) scale(1107.5 825.182)">
<stop stop-color="#43AA8B"/>
<stop offset="0.969249" stop-color="#43AA8B" stop-opacity="0"/>
</radialGradient>
<radialGradient id="paint117_radial_174_12157" cx="0" cy="0" r="1" gradientUnits="userSpaceOnUse" gradientTransform="translate(771 -413) rotate(90) scale(1107.5 825.182)">
<stop stop-color="#43AA8B"/>
<stop offset="0.969249" stop-color="#43AA8B" stop-opacity="0"/>
</radialGradient>
<radialGradient id="paint118_radial_174_12157" cx="0" cy="0" r="1" gradientUnits="userSpaceOnUse" gradientTransform="translate(771 -413) rotate(90) scale(1107.5 825.182)">
<stop stop-color="#43AA8B"/>
<stop offset="0.969249" stop-color="#43AA8B" stop-opacity="0"/>
</radialGradient>
<radialGradient id="paint119_radial_174_12157" cx="0" cy="0" r="1" gradientUnits="userSpaceOnUse" gradientTransform="translate(771 -413) rotate(90) scale(1107.5 825.182)">
<stop stop-color="#43AA8B"/>
<stop offset="0.969249" stop-color="#43AA8B" stop-opacity="0"/>
</radialGradient>
<radialGradient id="paint120_radial_174_12157" cx="0" cy="0" r="1" gradientUnits="userSpaceOnUse" gradientTransform="translate(771 -413) rotate(90) scale(1107.5 825.182)">
<stop stop-color="#43AA8B"/>
<stop offset="0.969249" stop-color="#43AA8B" stop-opacity="0"/>
</radialGradient>
<radialGradient id="paint121_radial_174_12157" cx="0" cy="0" r="1" gradientUnits="userSpaceOnUse" gradientTransform="translate(771 -413) rotate(90) scale(1107.5 825.182)">
<stop stop-color="#43AA8B"/>
<stop offset="0.969249" stop-color="#43AA8B" stop-opacity="0"/>
</radialGradient>
<radialGradient id="paint122_radial_174_12157" cx="0" cy="0" r="1" gradientUnits="userSpaceOnUse" gradientTransform="translate(771 -413) rotate(90) scale(1107.5 825.182)">
<stop stop-color="#43AA8B"/>
<stop offset="0.969249" stop-color="#43AA8B" stop-opacity="0"/>
</radialGradient>
<radialGradient id="paint123_radial_174_12157" cx="0" cy="0" r="1" gradientUnits="userSpaceOnUse" gradientTransform="translate(771 -413) rotate(90) scale(1107.5 825.182)">
<stop stop-color="#43AA8B"/>
<stop offset="0.969249" stop-color="#43AA8B" stop-opacity="0"/>
</radialGradient>
<radialGradient id="paint124_radial_174_12157" cx="0" cy="0" r="1" gradientUnits="userSpaceOnUse" gradientTransform="translate(771 -413) rotate(90) scale(1107.5 825.182)">
<stop stop-color="#43AA8B"/>
<stop offset="0.969249" stop-color="#43AA8B" stop-opacity="0"/>
</radialGradient>
<radialGradient id="paint125_radial_174_12157" cx="0" cy="0" r="1" gradientUnits="userSpaceOnUse" gradientTransform="translate(771 -413) rotate(90) scale(1107.5 825.182)">
<stop stop-color="#43AA8B"/>
<stop offset="0.969249" stop-color="#43AA8B" stop-opacity="0"/>
</radialGradient>
<radialGradient id="paint126_radial_174_12157" cx="0" cy="0" r="1" gradientUnits="userSpaceOnUse" gradientTransform="translate(771 -413) rotate(90) scale(1107.5 825.182)">
<stop stop-color="#43AA8B"/>
<stop offset="0.969249" stop-color="#43AA8B" stop-opacity="0"/>
</radialGradient>
<radialGradient id="paint127_radial_174_12157" cx="0" cy="0" r="1" gradientUnits="userSpaceOnUse" gradientTransform="translate(771 -413) rotate(90) scale(1107.5 825.182)">
<stop stop-color="#43AA8B"/>
<stop offset="0.969249" stop-color="#43AA8B" stop-opacity="0"/>
</radialGradient>
<linearGradient id="paint128_linear_174_12157" x1="376.5" y1="160" x2="273.5" y2="277" gradientUnits="userSpaceOnUse">
<stop stop-color="#43AA8B" stop-opacity="0"/>
<stop offset="1" stop-color="#43AA8B" stop-opacity="0.06"/>
</linearGradient>
<linearGradient id="paint129_linear_174_12157" x1="271" y1="278" x2="339.5" y2="216.5" gradientUnits="userSpaceOnUse">
<stop stop-color="#43AA8B"/>
<stop offset="1" stop-color="#43AA8B" stop-opacity="0"/>
</linearGradient>
<linearGradient id="paint130_linear_174_12157" x1="97" y1="111" x2="2.50001" y2="220" gradientUnits="userSpaceOnUse">
<stop stop-color="#43AA8B" stop-opacity="0"/>
<stop offset="1" stop-color="#43AA8B" stop-opacity="0.06"/>
</linearGradient>
<linearGradient id="paint131_linear_174_12157" x1="105.5" y1="103" x2="2.50002" y2="220" gradientUnits="userSpaceOnUse">
<stop stop-color="#43AA8B" stop-opacity="0"/>
<stop offset="1" stop-color="#43AA8B" stop-opacity="0.06"/>
</linearGradient>
<linearGradient id="paint132_linear_174_12157" x1="376.5" y1="602" x2="273.5" y2="719" gradientUnits="userSpaceOnUse">
<stop stop-color="#43AA8B" stop-opacity="0"/>
<stop offset="1" stop-color="#43AA8B" stop-opacity="0.06"/>
</linearGradient>
<linearGradient id="paint133_linear_174_12157" x1="271" y1="278" x2="202.5" y2="339.5" gradientUnits="userSpaceOnUse">
<stop stop-color="#43AA8B"/>
<stop offset="1" stop-color="#43AA8B" stop-opacity="0"/>
</linearGradient>
<linearGradient id="paint134_linear_174_12157" x1="1250.5" y1="353" x2="1147.5" y2="470" gradientUnits="userSpaceOnUse">
<stop stop-color="#43AA8B" stop-opacity="0"/>
<stop offset="1" stop-color="#43AA8B" stop-opacity="0.06"/>
</linearGradient>
<linearGradient id="paint135_linear_174_12157" x1="1145" y1="471" x2="1213.5" y2="409.5" gradientUnits="userSpaceOnUse">
<stop stop-color="#43AA8B"/>
<stop offset="1" stop-color="#43AA8B" stop-opacity="0"/>
</linearGradient>
<linearGradient id="paint136_linear_174_12157" x1="105.5" y1="103" x2="2.50002" y2="220" gradientUnits="userSpaceOnUse">
<stop stop-color="#43AA8B" stop-opacity="0"/>
<stop offset="1" stop-color="#43AA8B" stop-opacity="0.06"/>
</linearGradient>
<linearGradient id="paint137_linear_174_12157" x1="105.5" y1="103" x2="2.50002" y2="220" gradientUnits="userSpaceOnUse">
<stop stop-color="#43AA8B" stop-opacity="0"/>
<stop offset="1" stop-color="#43AA8B" stop-opacity="0.06"/>
</linearGradient>
<linearGradient id="paint138_linear_174_12157" x1="1250.5" y1="795" x2="1147.5" y2="912" gradientUnits="userSpaceOnUse">
<stop stop-color="#43AA8B" stop-opacity="0"/>
<stop offset="1" stop-color="#43AA8B" stop-opacity="0.06"/>
</linearGradient>
<linearGradient id="paint139_linear_174_12157" x1="1145" y1="471" x2="1076.5" y2="532.5" gradientUnits="userSpaceOnUse">
<stop stop-color="#43AA8B"/>
<stop offset="1" stop-color="#43AA8B" stop-opacity="0"/>
</linearGradient>
</defs>
</svg>
