<svg width="1512" height="697" viewBox="0 0 1512 697" fill="none" xmlns="http://www.w3.org/2000/svg">
<mask id="path-1-outside-1_725_516" maskUnits="userSpaceOnUse" x="-20" y="-106" width="1553" height="777" fill="black">
<rect fill="white" x="-20" y="-106" width="1553" height="777"/>
<path d="M-19 -93C-19 -99.6274 -13.6274 -105 -7 -105H65C71.6274 -105 77 -99.6274 77 -93V-21C77 -14.3726 71.6274 -9 65 -9H-7C-13.6274 -9 -19 -14.3726 -19 -21V-93Z"/>
<path d="M78 -93C78 -99.6274 83.3726 -105 90 -105H162C168.627 -105 174 -99.6274 174 -93V-21C174 -14.3726 168.627 -9 162 -9H90C83.3726 -9 78 -14.3726 78 -21V-93Z"/>
<path d="M175 -93C175 -99.6274 180.373 -105 187 -105H259C265.627 -105 271 -99.6274 271 -93V-21C271 -14.3726 265.627 -9 259 -9H187C180.373 -9 175 -14.3726 175 -21V-93Z"/>
<path d="M272 -93C272 -99.6274 277.373 -105 284 -105H356C362.627 -105 368 -99.6274 368 -93V-21C368 -14.3726 362.627 -9 356 -9H284C277.373 -9 272 -14.3726 272 -21V-93Z"/>
<path d="M369 -93C369 -99.6274 374.373 -105 381 -105H453C459.627 -105 465 -99.6274 465 -93V-21C465 -14.3726 459.627 -9 453 -9H381C374.373 -9 369 -14.3726 369 -21V-93Z"/>
<path d="M466 -93C466 -99.6274 471.373 -105 478 -105H550C556.627 -105 562 -99.6274 562 -93V-21C562 -14.3726 556.627 -9 550 -9H478C471.373 -9 466 -14.3726 466 -21V-93Z"/>
<path d="M563 -93C563 -99.6274 568.373 -105 575 -105H647C653.627 -105 659 -99.6274 659 -93V-21C659 -14.3726 653.627 -9 647 -9H575C568.373 -9 563 -14.3726 563 -21V-93Z"/>
<path d="M660 -93C660 -99.6274 665.373 -105 672 -105H744C750.627 -105 756 -99.6274 756 -93V-21C756 -14.3726 750.627 -9 744 -9H672C665.373 -9 660 -14.3726 660 -21V-93Z"/>
<path d="M757 -93C757 -99.6274 762.373 -105 769 -105H841C847.627 -105 853 -99.6274 853 -93V-21C853 -14.3726 847.627 -9 841 -9H769C762.373 -9 757 -14.3726 757 -21V-93Z"/>
<path d="M854 -93C854 -99.6274 859.373 -105 866 -105H938C944.627 -105 950 -99.6274 950 -93V-21C950 -14.3726 944.627 -9 938 -9H866C859.373 -9 854 -14.3726 854 -21V-93Z"/>
<path d="M951 -93C951 -99.6274 956.373 -105 963 -105H1035C1041.63 -105 1047 -99.6274 1047 -93V-21C1047 -14.3726 1041.63 -9 1035 -9H963C956.373 -9 951 -14.3726 951 -21V-93Z"/>
<path d="M1048 -93C1048 -99.6274 1053.37 -105 1060 -105H1132C1138.63 -105 1144 -99.6274 1144 -93V-21C1144 -14.3726 1138.63 -9 1132 -9H1060C1053.37 -9 1048 -14.3726 1048 -21V-93Z"/>
<path d="M1145 -93C1145 -99.6274 1150.37 -105 1157 -105H1229C1235.63 -105 1241 -99.6274 1241 -93V-21C1241 -14.3726 1235.63 -9 1229 -9H1157C1150.37 -9 1145 -14.3726 1145 -21V-93Z"/>
<path d="M1242 -93C1242 -99.6274 1247.37 -105 1254 -105H1326C1332.63 -105 1338 -99.6274 1338 -93V-21C1338 -14.3726 1332.63 -9 1326 -9H1254C1247.37 -9 1242 -14.3726 1242 -21V-93Z"/>
<path d="M1339 -93C1339 -99.6274 1344.37 -105 1351 -105H1423C1429.63 -105 1435 -99.6274 1435 -93V-21C1435 -14.3726 1429.63 -9 1423 -9H1351C1344.37 -9 1339 -14.3726 1339 -21V-93Z"/>
<path d="M1436 -93C1436 -99.6274 1441.37 -105 1448 -105H1520C1526.63 -105 1532 -99.6274 1532 -93V-21C1532 -14.3726 1526.63 -9 1520 -9H1448C1441.37 -9 1436 -14.3726 1436 -21V-93Z"/>
<path d="M-19 4C-19 -2.62742 -13.6274 -8 -7 -8H65C71.6274 -8 77 -2.62742 77 4V76C77 82.6274 71.6274 88 65 88H-7C-13.6274 88 -19 82.6274 -19 76V4Z"/>
<path d="M78 4C78 -2.62742 83.3726 -8 90 -8H162C168.627 -8 174 -2.62742 174 4V76C174 82.6274 168.627 88 162 88H90C83.3726 88 78 82.6274 78 76V4Z"/>
<path d="M175 4C175 -2.62742 180.373 -8 187 -8H259C265.627 -8 271 -2.62742 271 4V76C271 82.6274 265.627 88 259 88H187C180.373 88 175 82.6274 175 76V4Z"/>
<path d="M272 4C272 -2.62742 277.373 -8 284 -8H356C362.627 -8 368 -2.62742 368 4V76C368 82.6274 362.627 88 356 88H284C277.373 88 272 82.6274 272 76V4Z"/>
<path d="M369 4C369 -2.62742 374.373 -8 381 -8H453C459.627 -8 465 -2.62742 465 4V76C465 82.6274 459.627 88 453 88H381C374.373 88 369 82.6274 369 76V4Z"/>
<path d="M466 4C466 -2.62742 471.373 -8 478 -8H550C556.627 -8 562 -2.62742 562 4V76C562 82.6274 556.627 88 550 88H478C471.373 88 466 82.6274 466 76V4Z"/>
<path d="M563 4C563 -2.62742 568.373 -8 575 -8H647C653.627 -8 659 -2.62742 659 4V76C659 82.6274 653.627 88 647 88H575C568.373 88 563 82.6274 563 76V4Z"/>
<path d="M660 4C660 -2.62742 665.373 -8 672 -8H744C750.627 -8 756 -2.62742 756 4V76C756 82.6274 750.627 88 744 88H672C665.373 88 660 82.6274 660 76V4Z"/>
<path d="M757 4C757 -2.62742 762.373 -8 769 -8H841C847.627 -8 853 -2.62742 853 4V76C853 82.6274 847.627 88 841 88H769C762.373 88 757 82.6274 757 76V4Z"/>
<path d="M854 4C854 -2.62742 859.373 -8 866 -8H938C944.627 -8 950 -2.62742 950 4V76C950 82.6274 944.627 88 938 88H866C859.373 88 854 82.6274 854 76V4Z"/>
<path d="M951 4C951 -2.62742 956.373 -8 963 -8H1035C1041.63 -8 1047 -2.62742 1047 4V76C1047 82.6274 1041.63 88 1035 88H963C956.373 88 951 82.6274 951 76V4Z"/>
<path d="M1048 4C1048 -2.62742 1053.37 -8 1060 -8H1132C1138.63 -8 1144 -2.62742 1144 4V76C1144 82.6274 1138.63 88 1132 88H1060C1053.37 88 1048 82.6274 1048 76V4Z"/>
<path d="M1145 4C1145 -2.62742 1150.37 -8 1157 -8H1229C1235.63 -8 1241 -2.62742 1241 4V76C1241 82.6274 1235.63 88 1229 88H1157C1150.37 88 1145 82.6274 1145 76V4Z"/>
<path d="M1242 4C1242 -2.62742 1247.37 -8 1254 -8H1326C1332.63 -8 1338 -2.62742 1338 4V76C1338 82.6274 1332.63 88 1326 88H1254C1247.37 88 1242 82.6274 1242 76V4Z"/>
<path d="M1339 4C1339 -2.62742 1344.37 -8 1351 -8H1423C1429.63 -8 1435 -2.62742 1435 4V76C1435 82.6274 1429.63 88 1423 88H1351C1344.37 88 1339 82.6274 1339 76V4Z"/>
<path d="M1436 4C1436 -2.62742 1441.37 -8 1448 -8H1520C1526.63 -8 1532 -2.62742 1532 4V76C1532 82.6274 1526.63 88 1520 88H1448C1441.37 88 1436 82.6274 1436 76V4Z"/>
<path d="M-19 101C-19 94.3726 -13.6274 89 -7 89H65C71.6274 89 77 94.3726 77 101V173C77 179.627 71.6274 185 65 185H-7C-13.6274 185 -19 179.627 -19 173V101Z"/>
<path d="M78 101C78 94.3726 83.3726 89 90 89H162C168.627 89 174 94.3726 174 101V173C174 179.627 168.627 185 162 185H90C83.3726 185 78 179.627 78 173V101Z"/>
<path d="M175 101C175 94.3726 180.373 89 187 89H259C265.627 89 271 94.3726 271 101V173C271 179.627 265.627 185 259 185H187C180.373 185 175 179.627 175 173V101Z"/>
<path d="M272 101C272 94.3726 277.373 89 284 89H356C362.627 89 368 94.3726 368 101V173C368 179.627 362.627 185 356 185H284C277.373 185 272 179.627 272 173V101Z"/>
<path d="M369 101C369 94.3726 374.373 89 381 89H453C459.627 89 465 94.3726 465 101V173C465 179.627 459.627 185 453 185H381C374.373 185 369 179.627 369 173V101Z"/>
<path d="M466 101C466 94.3726 471.373 89 478 89H550C556.627 89 562 94.3726 562 101V173C562 179.627 556.627 185 550 185H478C471.373 185 466 179.627 466 173V101Z"/>
<path d="M563 101C563 94.3726 568.373 89 575 89H647C653.627 89 659 94.3726 659 101V173C659 179.627 653.627 185 647 185H575C568.373 185 563 179.627 563 173V101Z"/>
<path d="M660 101C660 94.3726 665.373 89 672 89H744C750.627 89 756 94.3726 756 101V173C756 179.627 750.627 185 744 185H672C665.373 185 660 179.627 660 173V101Z"/>
<path d="M757 101C757 94.3726 762.373 89 769 89H841C847.627 89 853 94.3726 853 101V173C853 179.627 847.627 185 841 185H769C762.373 185 757 179.627 757 173V101Z"/>
<path d="M854 101C854 94.3726 859.373 89 866 89H938C944.627 89 950 94.3726 950 101V173C950 179.627 944.627 185 938 185H866C859.373 185 854 179.627 854 173V101Z"/>
<path d="M951 101C951 94.3726 956.373 89 963 89H1035C1041.63 89 1047 94.3726 1047 101V173C1047 179.627 1041.63 185 1035 185H963C956.373 185 951 179.627 951 173V101Z"/>
<path d="M1048 101C1048 94.3726 1053.37 89 1060 89H1132C1138.63 89 1144 94.3726 1144 101V173C1144 179.627 1138.63 185 1132 185H1060C1053.37 185 1048 179.627 1048 173V101Z"/>
<path d="M1145 101C1145 94.3726 1150.37 89 1157 89H1229C1235.63 89 1241 94.3726 1241 101V173C1241 179.627 1235.63 185 1229 185H1157C1150.37 185 1145 179.627 1145 173V101Z"/>
<path d="M1242 101C1242 94.3726 1247.37 89 1254 89H1326C1332.63 89 1338 94.3726 1338 101V173C1338 179.627 1332.63 185 1326 185H1254C1247.37 185 1242 179.627 1242 173V101Z"/>
<path d="M1339 101C1339 94.3726 1344.37 89 1351 89H1423C1429.63 89 1435 94.3726 1435 101V173C1435 179.627 1429.63 185 1423 185H1351C1344.37 185 1339 179.627 1339 173V101Z"/>
<path d="M1436 101C1436 94.3726 1441.37 89 1448 89H1520C1526.63 89 1532 94.3726 1532 101V173C1532 179.627 1526.63 185 1520 185H1448C1441.37 185 1436 179.627 1436 173V101Z"/>
<path d="M-19 198C-19 191.373 -13.6274 186 -7 186H65C71.6274 186 77 191.373 77 198V270C77 276.627 71.6274 282 65 282H-7C-13.6274 282 -19 276.627 -19 270V198Z"/>
<path d="M78 198C78 191.373 83.3726 186 90 186H162C168.627 186 174 191.373 174 198V270C174 276.627 168.627 282 162 282H90C83.3726 282 78 276.627 78 270V198Z"/>
<path d="M175 198C175 191.373 180.373 186 187 186H259C265.627 186 271 191.373 271 198V270C271 276.627 265.627 282 259 282H187C180.373 282 175 276.627 175 270V198Z"/>
<path d="M272 198C272 191.373 277.373 186 284 186H356C362.627 186 368 191.373 368 198V270C368 276.627 362.627 282 356 282H284C277.373 282 272 276.627 272 270V198Z"/>
<path d="M369 198C369 191.373 374.373 186 381 186H453C459.627 186 465 191.373 465 198V270C465 276.627 459.627 282 453 282H381C374.373 282 369 276.627 369 270V198Z"/>
<path d="M466 198C466 191.373 471.373 186 478 186H550C556.627 186 562 191.373 562 198V270C562 276.627 556.627 282 550 282H478C471.373 282 466 276.627 466 270V198Z"/>
<path d="M563 198C563 191.373 568.373 186 575 186H647C653.627 186 659 191.373 659 198V270C659 276.627 653.627 282 647 282H575C568.373 282 563 276.627 563 270V198Z"/>
<path d="M660 198C660 191.373 665.373 186 672 186H744C750.627 186 756 191.373 756 198V270C756 276.627 750.627 282 744 282H672C665.373 282 660 276.627 660 270V198Z"/>
<path d="M757 198C757 191.373 762.373 186 769 186H841C847.627 186 853 191.373 853 198V270C853 276.627 847.627 282 841 282H769C762.373 282 757 276.627 757 270V198Z"/>
<path d="M854 198C854 191.373 859.373 186 866 186H938C944.627 186 950 191.373 950 198V270C950 276.627 944.627 282 938 282H866C859.373 282 854 276.627 854 270V198Z"/>
<path d="M951 198C951 191.373 956.373 186 963 186H1035C1041.63 186 1047 191.373 1047 198V270C1047 276.627 1041.63 282 1035 282H963C956.373 282 951 276.627 951 270V198Z"/>
<path d="M1048 198C1048 191.373 1053.37 186 1060 186H1132C1138.63 186 1144 191.373 1144 198V270C1144 276.627 1138.63 282 1132 282H1060C1053.37 282 1048 276.627 1048 270V198Z"/>
<path d="M1145 198C1145 191.373 1150.37 186 1157 186H1229C1235.63 186 1241 191.373 1241 198V270C1241 276.627 1235.63 282 1229 282H1157C1150.37 282 1145 276.627 1145 270V198Z"/>
<path d="M1242 198C1242 191.373 1247.37 186 1254 186H1326C1332.63 186 1338 191.373 1338 198V270C1338 276.627 1332.63 282 1326 282H1254C1247.37 282 1242 276.627 1242 270V198Z"/>
<path d="M1339 198C1339 191.373 1344.37 186 1351 186H1423C1429.63 186 1435 191.373 1435 198V270C1435 276.627 1429.63 282 1423 282H1351C1344.37 282 1339 276.627 1339 270V198Z"/>
<path d="M1436 198C1436 191.373 1441.37 186 1448 186H1520C1526.63 186 1532 191.373 1532 198V270C1532 276.627 1526.63 282 1520 282H1448C1441.37 282 1436 276.627 1436 270V198Z"/>
<path d="M-19 295C-19 288.373 -13.6274 283 -7 283H65C71.6274 283 77 288.373 77 295V367C77 373.627 71.6274 379 65 379H-7C-13.6274 379 -19 373.627 -19 367V295Z"/>
<path d="M78 295C78 288.373 83.3726 283 90 283H162C168.627 283 174 288.373 174 295V367C174 373.627 168.627 379 162 379H90C83.3726 379 78 373.627 78 367V295Z"/>
<path d="M175 295C175 288.373 180.373 283 187 283H259C265.627 283 271 288.373 271 295V367C271 373.627 265.627 379 259 379H187C180.373 379 175 373.627 175 367V295Z"/>
<path d="M272 295C272 288.373 277.373 283 284 283H356C362.627 283 368 288.373 368 295V367C368 373.627 362.627 379 356 379H284C277.373 379 272 373.627 272 367V295Z"/>
<path d="M369 295C369 288.373 374.373 283 381 283H453C459.627 283 465 288.373 465 295V367C465 373.627 459.627 379 453 379H381C374.373 379 369 373.627 369 367V295Z"/>
<path d="M466 295C466 288.373 471.373 283 478 283H550C556.627 283 562 288.373 562 295V367C562 373.627 556.627 379 550 379H478C471.373 379 466 373.627 466 367V295Z"/>
<path d="M563 295C563 288.373 568.373 283 575 283H647C653.627 283 659 288.373 659 295V367C659 373.627 653.627 379 647 379H575C568.373 379 563 373.627 563 367V295Z"/>
<path d="M660 295C660 288.373 665.373 283 672 283H744C750.627 283 756 288.373 756 295V367C756 373.627 750.627 379 744 379H672C665.373 379 660 373.627 660 367V295Z"/>
<path d="M757 295C757 288.373 762.373 283 769 283H841C847.627 283 853 288.373 853 295V367C853 373.627 847.627 379 841 379H769C762.373 379 757 373.627 757 367V295Z"/>
<path d="M854 295C854 288.373 859.373 283 866 283H938C944.627 283 950 288.373 950 295V367C950 373.627 944.627 379 938 379H866C859.373 379 854 373.627 854 367V295Z"/>
<path d="M951 295C951 288.373 956.373 283 963 283H1035C1041.63 283 1047 288.373 1047 295V367C1047 373.627 1041.63 379 1035 379H963C956.373 379 951 373.627 951 367V295Z"/>
<path d="M1048 295C1048 288.373 1053.37 283 1060 283H1132C1138.63 283 1144 288.373 1144 295V367C1144 373.627 1138.63 379 1132 379H1060C1053.37 379 1048 373.627 1048 367V295Z"/>
<path d="M1145 295C1145 288.373 1150.37 283 1157 283H1229C1235.63 283 1241 288.373 1241 295V367C1241 373.627 1235.63 379 1229 379H1157C1150.37 379 1145 373.627 1145 367V295Z"/>
<path d="M1242 295C1242 288.373 1247.37 283 1254 283H1326C1332.63 283 1338 288.373 1338 295V367C1338 373.627 1332.63 379 1326 379H1254C1247.37 379 1242 373.627 1242 367V295Z"/>
<path d="M1339 295C1339 288.373 1344.37 283 1351 283H1423C1429.63 283 1435 288.373 1435 295V367C1435 373.627 1429.63 379 1423 379H1351C1344.37 379 1339 373.627 1339 367V295Z"/>
<path d="M1436 295C1436 288.373 1441.37 283 1448 283H1520C1526.63 283 1532 288.373 1532 295V367C1532 373.627 1526.63 379 1520 379H1448C1441.37 379 1436 373.627 1436 367V295Z"/>
<path d="M-19 392C-19 385.373 -13.6274 380 -7 380H65C71.6274 380 77 385.373 77 392V464C77 470.627 71.6274 476 65 476H-7C-13.6274 476 -19 470.627 -19 464V392Z"/>
<path d="M78 392C78 385.373 83.3726 380 90 380H162C168.627 380 174 385.373 174 392V464C174 470.627 168.627 476 162 476H90C83.3726 476 78 470.627 78 464V392Z"/>
<path d="M175 392C175 385.373 180.373 380 187 380H259C265.627 380 271 385.373 271 392V464C271 470.627 265.627 476 259 476H187C180.373 476 175 470.627 175 464V392Z"/>
<path d="M272 392C272 385.373 277.373 380 284 380H356C362.627 380 368 385.373 368 392V464C368 470.627 362.627 476 356 476H284C277.373 476 272 470.627 272 464V392Z"/>
<path d="M369 392C369 385.373 374.373 380 381 380H453C459.627 380 465 385.373 465 392V464C465 470.627 459.627 476 453 476H381C374.373 476 369 470.627 369 464V392Z"/>
<path d="M466 392C466 385.373 471.373 380 478 380H550C556.627 380 562 385.373 562 392V464C562 470.627 556.627 476 550 476H478C471.373 476 466 470.627 466 464V392Z"/>
<path d="M563 392C563 385.373 568.373 380 575 380H647C653.627 380 659 385.373 659 392V464C659 470.627 653.627 476 647 476H575C568.373 476 563 470.627 563 464V392Z"/>
<path d="M660 392C660 385.373 665.373 380 672 380H744C750.627 380 756 385.373 756 392V464C756 470.627 750.627 476 744 476H672C665.373 476 660 470.627 660 464V392Z"/>
<path d="M757 392C757 385.373 762.373 380 769 380H841C847.627 380 853 385.373 853 392V464C853 470.627 847.627 476 841 476H769C762.373 476 757 470.627 757 464V392Z"/>
<path d="M854 392C854 385.373 859.373 380 866 380H938C944.627 380 950 385.373 950 392V464C950 470.627 944.627 476 938 476H866C859.373 476 854 470.627 854 464V392Z"/>
<path d="M951 392C951 385.373 956.373 380 963 380H1035C1041.63 380 1047 385.373 1047 392V464C1047 470.627 1041.63 476 1035 476H963C956.373 476 951 470.627 951 464V392Z"/>
<path d="M1048 392C1048 385.373 1053.37 380 1060 380H1132C1138.63 380 1144 385.373 1144 392V464C1144 470.627 1138.63 476 1132 476H1060C1053.37 476 1048 470.627 1048 464V392Z"/>
<path d="M1145 392C1145 385.373 1150.37 380 1157 380H1229C1235.63 380 1241 385.373 1241 392V464C1241 470.627 1235.63 476 1229 476H1157C1150.37 476 1145 470.627 1145 464V392Z"/>
<path d="M1242 392C1242 385.373 1247.37 380 1254 380H1326C1332.63 380 1338 385.373 1338 392V464C1338 470.627 1332.63 476 1326 476H1254C1247.37 476 1242 470.627 1242 464V392Z"/>
<path d="M1339 392C1339 385.373 1344.37 380 1351 380H1423C1429.63 380 1435 385.373 1435 392V464C1435 470.627 1429.63 476 1423 476H1351C1344.37 476 1339 470.627 1339 464V392Z"/>
<path d="M1436 392C1436 385.373 1441.37 380 1448 380H1520C1526.63 380 1532 385.373 1532 392V464C1532 470.627 1526.63 476 1520 476H1448C1441.37 476 1436 470.627 1436 464V392Z"/>
<path d="M-19 489C-19 482.373 -13.6274 477 -7 477H65C71.6274 477 77 482.373 77 489V561C77 567.627 71.6274 573 65 573H-7C-13.6274 573 -19 567.627 -19 561V489Z"/>
<path d="M78 489C78 482.373 83.3726 477 90 477H162C168.627 477 174 482.373 174 489V561C174 567.627 168.627 573 162 573H90C83.3726 573 78 567.627 78 561V489Z"/>
<path d="M175 489C175 482.373 180.373 477 187 477H259C265.627 477 271 482.373 271 489V561C271 567.627 265.627 573 259 573H187C180.373 573 175 567.627 175 561V489Z"/>
<path d="M272 489C272 482.373 277.373 477 284 477H356C362.627 477 368 482.373 368 489V561C368 567.627 362.627 573 356 573H284C277.373 573 272 567.627 272 561V489Z"/>
<path d="M369 489C369 482.373 374.373 477 381 477H453C459.627 477 465 482.373 465 489V561C465 567.627 459.627 573 453 573H381C374.373 573 369 567.627 369 561V489Z"/>
<path d="M466 489C466 482.373 471.373 477 478 477H550C556.627 477 562 482.373 562 489V561C562 567.627 556.627 573 550 573H478C471.373 573 466 567.627 466 561V489Z"/>
<path d="M563 489C563 482.373 568.373 477 575 477H647C653.627 477 659 482.373 659 489V561C659 567.627 653.627 573 647 573H575C568.373 573 563 567.627 563 561V489Z"/>
<path d="M660 489C660 482.373 665.373 477 672 477H744C750.627 477 756 482.373 756 489V561C756 567.627 750.627 573 744 573H672C665.373 573 660 567.627 660 561V489Z"/>
<path d="M757 489C757 482.373 762.373 477 769 477H841C847.627 477 853 482.373 853 489V561C853 567.627 847.627 573 841 573H769C762.373 573 757 567.627 757 561V489Z"/>
<path d="M854 489C854 482.373 859.373 477 866 477H938C944.627 477 950 482.373 950 489V561C950 567.627 944.627 573 938 573H866C859.373 573 854 567.627 854 561V489Z"/>
<path d="M951 489C951 482.373 956.373 477 963 477H1035C1041.63 477 1047 482.373 1047 489V561C1047 567.627 1041.63 573 1035 573H963C956.373 573 951 567.627 951 561V489Z"/>
<path d="M1048 489C1048 482.373 1053.37 477 1060 477H1132C1138.63 477 1144 482.373 1144 489V561C1144 567.627 1138.63 573 1132 573H1060C1053.37 573 1048 567.627 1048 561V489Z"/>
<path d="M1145 489C1145 482.373 1150.37 477 1157 477H1229C1235.63 477 1241 482.373 1241 489V561C1241 567.627 1235.63 573 1229 573H1157C1150.37 573 1145 567.627 1145 561V489Z"/>
<path d="M1242 489C1242 482.373 1247.37 477 1254 477H1326C1332.63 477 1338 482.373 1338 489V561C1338 567.627 1332.63 573 1326 573H1254C1247.37 573 1242 567.627 1242 561V489Z"/>
<path d="M1339 489C1339 482.373 1344.37 477 1351 477H1423C1429.63 477 1435 482.373 1435 489V561C1435 567.627 1429.63 573 1423 573H1351C1344.37 573 1339 567.627 1339 561V489Z"/>
<path d="M1436 489C1436 482.373 1441.37 477 1448 477H1520C1526.63 477 1532 482.373 1532 489V561C1532 567.627 1526.63 573 1520 573H1448C1441.37 573 1436 567.627 1436 561V489Z"/>
<path d="M-19 586C-19 579.373 -13.6274 574 -7 574H65C71.6274 574 77 579.373 77 586V658C77 664.627 71.6274 670 65 670H-7C-13.6274 670 -19 664.627 -19 658V586Z"/>
<path d="M78 586C78 579.373 83.3726 574 90 574H162C168.627 574 174 579.373 174 586V658C174 664.627 168.627 670 162 670H90C83.3726 670 78 664.627 78 658V586Z"/>
<path d="M175 586C175 579.373 180.373 574 187 574H259C265.627 574 271 579.373 271 586V658C271 664.627 265.627 670 259 670H187C180.373 670 175 664.627 175 658V586Z"/>
<path d="M272 586C272 579.373 277.373 574 284 574H356C362.627 574 368 579.373 368 586V658C368 664.627 362.627 670 356 670H284C277.373 670 272 664.627 272 658V586Z"/>
<path d="M369 586C369 579.373 374.373 574 381 574H453C459.627 574 465 579.373 465 586V658C465 664.627 459.627 670 453 670H381C374.373 670 369 664.627 369 658V586Z"/>
<path d="M466 586C466 579.373 471.373 574 478 574H550C556.627 574 562 579.373 562 586V658C562 664.627 556.627 670 550 670H478C471.373 670 466 664.627 466 658V586Z"/>
<path d="M563 586C563 579.373 568.373 574 575 574H647C653.627 574 659 579.373 659 586V658C659 664.627 653.627 670 647 670H575C568.373 670 563 664.627 563 658V586Z"/>
<path d="M660 586C660 579.373 665.373 574 672 574H744C750.627 574 756 579.373 756 586V658C756 664.627 750.627 670 744 670H672C665.373 670 660 664.627 660 658V586Z"/>
<path d="M757 586C757 579.373 762.373 574 769 574H841C847.627 574 853 579.373 853 586V658C853 664.627 847.627 670 841 670H769C762.373 670 757 664.627 757 658V586Z"/>
<path d="M854 586C854 579.373 859.373 574 866 574H938C944.627 574 950 579.373 950 586V658C950 664.627 944.627 670 938 670H866C859.373 670 854 664.627 854 658V586Z"/>
<path d="M951 586C951 579.373 956.373 574 963 574H1035C1041.63 574 1047 579.373 1047 586V658C1047 664.627 1041.63 670 1035 670H963C956.373 670 951 664.627 951 658V586Z"/>
<path d="M1048 586C1048 579.373 1053.37 574 1060 574H1132C1138.63 574 1144 579.373 1144 586V658C1144 664.627 1138.63 670 1132 670H1060C1053.37 670 1048 664.627 1048 658V586Z"/>
<path d="M1145 586C1145 579.373 1150.37 574 1157 574H1229C1235.63 574 1241 579.373 1241 586V658C1241 664.627 1235.63 670 1229 670H1157C1150.37 670 1145 664.627 1145 658V586Z"/>
<path d="M1242 586C1242 579.373 1247.37 574 1254 574H1326C1332.63 574 1338 579.373 1338 586V658C1338 664.627 1332.63 670 1326 670H1254C1247.37 670 1242 664.627 1242 658V586Z"/>
<path d="M1339 586C1339 579.373 1344.37 574 1351 574H1423C1429.63 574 1435 579.373 1435 586V658C1435 664.627 1429.63 670 1423 670H1351C1344.37 670 1339 664.627 1339 658V586Z"/>
<path d="M1436 586C1436 579.373 1441.37 574 1448 574H1520C1526.63 574 1532 579.373 1532 586V658C1532 664.627 1526.63 670 1520 670H1448C1441.37 670 1436 664.627 1436 658V586Z"/>
</mask>
<path d="M-19 -93C-19 -99.6274 -13.6274 -105 -7 -105H65C71.6274 -105 77 -99.6274 77 -93V-21C77 -14.3726 71.6274 -9 65 -9H-7C-13.6274 -9 -19 -14.3726 -19 -21V-93Z" stroke="url(#paint0_radial_725_516)" stroke-opacity="0.24" stroke-width="2" mask="url(#path-1-outside-1_725_516)"/>
<path d="M78 -93C78 -99.6274 83.3726 -105 90 -105H162C168.627 -105 174 -99.6274 174 -93V-21C174 -14.3726 168.627 -9 162 -9H90C83.3726 -9 78 -14.3726 78 -21V-93Z" stroke="url(#paint1_radial_725_516)" stroke-opacity="0.24" stroke-width="2" mask="url(#path-1-outside-1_725_516)"/>
<path d="M175 -93C175 -99.6274 180.373 -105 187 -105H259C265.627 -105 271 -99.6274 271 -93V-21C271 -14.3726 265.627 -9 259 -9H187C180.373 -9 175 -14.3726 175 -21V-93Z" stroke="url(#paint2_radial_725_516)" stroke-opacity="0.24" stroke-width="2" mask="url(#path-1-outside-1_725_516)"/>
<path d="M272 -93C272 -99.6274 277.373 -105 284 -105H356C362.627 -105 368 -99.6274 368 -93V-21C368 -14.3726 362.627 -9 356 -9H284C277.373 -9 272 -14.3726 272 -21V-93Z" stroke="url(#paint3_radial_725_516)" stroke-opacity="0.24" stroke-width="2" mask="url(#path-1-outside-1_725_516)"/>
<path d="M369 -93C369 -99.6274 374.373 -105 381 -105H453C459.627 -105 465 -99.6274 465 -93V-21C465 -14.3726 459.627 -9 453 -9H381C374.373 -9 369 -14.3726 369 -21V-93Z" stroke="url(#paint4_radial_725_516)" stroke-opacity="0.24" stroke-width="2" mask="url(#path-1-outside-1_725_516)"/>
<path d="M466 -93C466 -99.6274 471.373 -105 478 -105H550C556.627 -105 562 -99.6274 562 -93V-21C562 -14.3726 556.627 -9 550 -9H478C471.373 -9 466 -14.3726 466 -21V-93Z" stroke="url(#paint5_radial_725_516)" stroke-opacity="0.24" stroke-width="2" mask="url(#path-1-outside-1_725_516)"/>
<path d="M563 -93C563 -99.6274 568.373 -105 575 -105H647C653.627 -105 659 -99.6274 659 -93V-21C659 -14.3726 653.627 -9 647 -9H575C568.373 -9 563 -14.3726 563 -21V-93Z" stroke="url(#paint6_radial_725_516)" stroke-opacity="0.24" stroke-width="2" mask="url(#path-1-outside-1_725_516)"/>
<path d="M660 -93C660 -99.6274 665.373 -105 672 -105H744C750.627 -105 756 -99.6274 756 -93V-21C756 -14.3726 750.627 -9 744 -9H672C665.373 -9 660 -14.3726 660 -21V-93Z" stroke="url(#paint7_radial_725_516)" stroke-opacity="0.24" stroke-width="2" mask="url(#path-1-outside-1_725_516)"/>
<path d="M757 -93C757 -99.6274 762.373 -105 769 -105H841C847.627 -105 853 -99.6274 853 -93V-21C853 -14.3726 847.627 -9 841 -9H769C762.373 -9 757 -14.3726 757 -21V-93Z" stroke="url(#paint8_radial_725_516)" stroke-opacity="0.24" stroke-width="2" mask="url(#path-1-outside-1_725_516)"/>
<path d="M854 -93C854 -99.6274 859.373 -105 866 -105H938C944.627 -105 950 -99.6274 950 -93V-21C950 -14.3726 944.627 -9 938 -9H866C859.373 -9 854 -14.3726 854 -21V-93Z" stroke="url(#paint9_radial_725_516)" stroke-opacity="0.24" stroke-width="2" mask="url(#path-1-outside-1_725_516)"/>
<path d="M951 -93C951 -99.6274 956.373 -105 963 -105H1035C1041.63 -105 1047 -99.6274 1047 -93V-21C1047 -14.3726 1041.63 -9 1035 -9H963C956.373 -9 951 -14.3726 951 -21V-93Z" stroke="url(#paint10_radial_725_516)" stroke-opacity="0.24" stroke-width="2" mask="url(#path-1-outside-1_725_516)"/>
<path d="M1048 -93C1048 -99.6274 1053.37 -105 1060 -105H1132C1138.63 -105 1144 -99.6274 1144 -93V-21C1144 -14.3726 1138.63 -9 1132 -9H1060C1053.37 -9 1048 -14.3726 1048 -21V-93Z" stroke="url(#paint11_radial_725_516)" stroke-opacity="0.24" stroke-width="2" mask="url(#path-1-outside-1_725_516)"/>
<path d="M1145 -93C1145 -99.6274 1150.37 -105 1157 -105H1229C1235.63 -105 1241 -99.6274 1241 -93V-21C1241 -14.3726 1235.63 -9 1229 -9H1157C1150.37 -9 1145 -14.3726 1145 -21V-93Z" stroke="url(#paint12_radial_725_516)" stroke-opacity="0.24" stroke-width="2" mask="url(#path-1-outside-1_725_516)"/>
<path d="M1242 -93C1242 -99.6274 1247.37 -105 1254 -105H1326C1332.63 -105 1338 -99.6274 1338 -93V-21C1338 -14.3726 1332.63 -9 1326 -9H1254C1247.37 -9 1242 -14.3726 1242 -21V-93Z" stroke="url(#paint13_radial_725_516)" stroke-opacity="0.24" stroke-width="2" mask="url(#path-1-outside-1_725_516)"/>
<path d="M1339 -93C1339 -99.6274 1344.37 -105 1351 -105H1423C1429.63 -105 1435 -99.6274 1435 -93V-21C1435 -14.3726 1429.63 -9 1423 -9H1351C1344.37 -9 1339 -14.3726 1339 -21V-93Z" stroke="url(#paint14_radial_725_516)" stroke-opacity="0.24" stroke-width="2" mask="url(#path-1-outside-1_725_516)"/>
<path d="M1436 -93C1436 -99.6274 1441.37 -105 1448 -105H1520C1526.63 -105 1532 -99.6274 1532 -93V-21C1532 -14.3726 1526.63 -9 1520 -9H1448C1441.37 -9 1436 -14.3726 1436 -21V-93Z" stroke="url(#paint15_radial_725_516)" stroke-opacity="0.24" stroke-width="2" mask="url(#path-1-outside-1_725_516)"/>
<path d="M-19 4C-19 -2.62742 -13.6274 -8 -7 -8H65C71.6274 -8 77 -2.62742 77 4V76C77 82.6274 71.6274 88 65 88H-7C-13.6274 88 -19 82.6274 -19 76V4Z" stroke="url(#paint16_radial_725_516)" stroke-opacity="0.24" stroke-width="2" mask="url(#path-1-outside-1_725_516)"/>
<path d="M78 4C78 -2.62742 83.3726 -8 90 -8H162C168.627 -8 174 -2.62742 174 4V76C174 82.6274 168.627 88 162 88H90C83.3726 88 78 82.6274 78 76V4Z" stroke="url(#paint17_radial_725_516)" stroke-opacity="0.24" stroke-width="2" mask="url(#path-1-outside-1_725_516)"/>
<path d="M175 4C175 -2.62742 180.373 -8 187 -8H259C265.627 -8 271 -2.62742 271 4V76C271 82.6274 265.627 88 259 88H187C180.373 88 175 82.6274 175 76V4Z" stroke="url(#paint18_radial_725_516)" stroke-opacity="0.24" stroke-width="2" mask="url(#path-1-outside-1_725_516)"/>
<path d="M272 4C272 -2.62742 277.373 -8 284 -8H356C362.627 -8 368 -2.62742 368 4V76C368 82.6274 362.627 88 356 88H284C277.373 88 272 82.6274 272 76V4Z" stroke="url(#paint19_radial_725_516)" stroke-opacity="0.24" stroke-width="2" mask="url(#path-1-outside-1_725_516)"/>
<path d="M369 4C369 -2.62742 374.373 -8 381 -8H453C459.627 -8 465 -2.62742 465 4V76C465 82.6274 459.627 88 453 88H381C374.373 88 369 82.6274 369 76V4Z" stroke="url(#paint20_radial_725_516)" stroke-opacity="0.24" stroke-width="2" mask="url(#path-1-outside-1_725_516)"/>
<path d="M466 4C466 -2.62742 471.373 -8 478 -8H550C556.627 -8 562 -2.62742 562 4V76C562 82.6274 556.627 88 550 88H478C471.373 88 466 82.6274 466 76V4Z" stroke="url(#paint21_radial_725_516)" stroke-opacity="0.24" stroke-width="2" mask="url(#path-1-outside-1_725_516)"/>
<path d="M563 4C563 -2.62742 568.373 -8 575 -8H647C653.627 -8 659 -2.62742 659 4V76C659 82.6274 653.627 88 647 88H575C568.373 88 563 82.6274 563 76V4Z" stroke="url(#paint22_radial_725_516)" stroke-opacity="0.24" stroke-width="2" mask="url(#path-1-outside-1_725_516)"/>
<path d="M660 4C660 -2.62742 665.373 -8 672 -8H744C750.627 -8 756 -2.62742 756 4V76C756 82.6274 750.627 88 744 88H672C665.373 88 660 82.6274 660 76V4Z" stroke="url(#paint23_radial_725_516)" stroke-opacity="0.24" stroke-width="2" mask="url(#path-1-outside-1_725_516)"/>
<path d="M757 4C757 -2.62742 762.373 -8 769 -8H841C847.627 -8 853 -2.62742 853 4V76C853 82.6274 847.627 88 841 88H769C762.373 88 757 82.6274 757 76V4Z" stroke="url(#paint24_radial_725_516)" stroke-opacity="0.24" stroke-width="2" mask="url(#path-1-outside-1_725_516)"/>
<path d="M854 4C854 -2.62742 859.373 -8 866 -8H938C944.627 -8 950 -2.62742 950 4V76C950 82.6274 944.627 88 938 88H866C859.373 88 854 82.6274 854 76V4Z" stroke="url(#paint25_radial_725_516)" stroke-opacity="0.24" stroke-width="2" mask="url(#path-1-outside-1_725_516)"/>
<path d="M951 4C951 -2.62742 956.373 -8 963 -8H1035C1041.63 -8 1047 -2.62742 1047 4V76C1047 82.6274 1041.63 88 1035 88H963C956.373 88 951 82.6274 951 76V4Z" stroke="url(#paint26_radial_725_516)" stroke-opacity="0.24" stroke-width="2" mask="url(#path-1-outside-1_725_516)"/>
<path d="M1048 4C1048 -2.62742 1053.37 -8 1060 -8H1132C1138.63 -8 1144 -2.62742 1144 4V76C1144 82.6274 1138.63 88 1132 88H1060C1053.37 88 1048 82.6274 1048 76V4Z" stroke="url(#paint27_radial_725_516)" stroke-opacity="0.24" stroke-width="2" mask="url(#path-1-outside-1_725_516)"/>
<path d="M1145 4C1145 -2.62742 1150.37 -8 1157 -8H1229C1235.63 -8 1241 -2.62742 1241 4V76C1241 82.6274 1235.63 88 1229 88H1157C1150.37 88 1145 82.6274 1145 76V4Z" stroke="url(#paint28_radial_725_516)" stroke-opacity="0.24" stroke-width="2" mask="url(#path-1-outside-1_725_516)"/>
<path d="M1242 4C1242 -2.62742 1247.37 -8 1254 -8H1326C1332.63 -8 1338 -2.62742 1338 4V76C1338 82.6274 1332.63 88 1326 88H1254C1247.37 88 1242 82.6274 1242 76V4Z" stroke="url(#paint29_radial_725_516)" stroke-opacity="0.24" stroke-width="2" mask="url(#path-1-outside-1_725_516)"/>
<path d="M1339 4C1339 -2.62742 1344.37 -8 1351 -8H1423C1429.63 -8 1435 -2.62742 1435 4V76C1435 82.6274 1429.63 88 1423 88H1351C1344.37 88 1339 82.6274 1339 76V4Z" stroke="url(#paint30_radial_725_516)" stroke-opacity="0.24" stroke-width="2" mask="url(#path-1-outside-1_725_516)"/>
<path d="M1436 4C1436 -2.62742 1441.37 -8 1448 -8H1520C1526.63 -8 1532 -2.62742 1532 4V76C1532 82.6274 1526.63 88 1520 88H1448C1441.37 88 1436 82.6274 1436 76V4Z" stroke="url(#paint31_radial_725_516)" stroke-opacity="0.24" stroke-width="2" mask="url(#path-1-outside-1_725_516)"/>
<path d="M-19 101C-19 94.3726 -13.6274 89 -7 89H65C71.6274 89 77 94.3726 77 101V173C77 179.627 71.6274 185 65 185H-7C-13.6274 185 -19 179.627 -19 173V101Z" stroke="url(#paint32_radial_725_516)" stroke-opacity="0.24" stroke-width="2" mask="url(#path-1-outside-1_725_516)"/>
<path d="M78 101C78 94.3726 83.3726 89 90 89H162C168.627 89 174 94.3726 174 101V173C174 179.627 168.627 185 162 185H90C83.3726 185 78 179.627 78 173V101Z" stroke="url(#paint33_radial_725_516)" stroke-opacity="0.24" stroke-width="2" mask="url(#path-1-outside-1_725_516)"/>
<path d="M175 101C175 94.3726 180.373 89 187 89H259C265.627 89 271 94.3726 271 101V173C271 179.627 265.627 185 259 185H187C180.373 185 175 179.627 175 173V101Z" stroke="url(#paint34_radial_725_516)" stroke-opacity="0.24" stroke-width="2" mask="url(#path-1-outside-1_725_516)"/>
<path d="M272 101C272 94.3726 277.373 89 284 89H356C362.627 89 368 94.3726 368 101V173C368 179.627 362.627 185 356 185H284C277.373 185 272 179.627 272 173V101Z" stroke="url(#paint35_radial_725_516)" stroke-opacity="0.24" stroke-width="2" mask="url(#path-1-outside-1_725_516)"/>
<path d="M369 101C369 94.3726 374.373 89 381 89H453C459.627 89 465 94.3726 465 101V173C465 179.627 459.627 185 453 185H381C374.373 185 369 179.627 369 173V101Z" stroke="url(#paint36_radial_725_516)" stroke-opacity="0.24" stroke-width="2" mask="url(#path-1-outside-1_725_516)"/>
<path d="M466 101C466 94.3726 471.373 89 478 89H550C556.627 89 562 94.3726 562 101V173C562 179.627 556.627 185 550 185H478C471.373 185 466 179.627 466 173V101Z" stroke="url(#paint37_radial_725_516)" stroke-opacity="0.24" stroke-width="2" mask="url(#path-1-outside-1_725_516)"/>
<path d="M563 101C563 94.3726 568.373 89 575 89H647C653.627 89 659 94.3726 659 101V173C659 179.627 653.627 185 647 185H575C568.373 185 563 179.627 563 173V101Z" stroke="url(#paint38_radial_725_516)" stroke-opacity="0.24" stroke-width="2" mask="url(#path-1-outside-1_725_516)"/>
<path d="M660 101C660 94.3726 665.373 89 672 89H744C750.627 89 756 94.3726 756 101V173C756 179.627 750.627 185 744 185H672C665.373 185 660 179.627 660 173V101Z" stroke="url(#paint39_radial_725_516)" stroke-opacity="0.24" stroke-width="2" mask="url(#path-1-outside-1_725_516)"/>
<path d="M757 101C757 94.3726 762.373 89 769 89H841C847.627 89 853 94.3726 853 101V173C853 179.627 847.627 185 841 185H769C762.373 185 757 179.627 757 173V101Z" stroke="url(#paint40_radial_725_516)" stroke-opacity="0.24" stroke-width="2" mask="url(#path-1-outside-1_725_516)"/>
<path d="M854 101C854 94.3726 859.373 89 866 89H938C944.627 89 950 94.3726 950 101V173C950 179.627 944.627 185 938 185H866C859.373 185 854 179.627 854 173V101Z" stroke="url(#paint41_radial_725_516)" stroke-opacity="0.24" stroke-width="2" mask="url(#path-1-outside-1_725_516)"/>
<path d="M951 101C951 94.3726 956.373 89 963 89H1035C1041.63 89 1047 94.3726 1047 101V173C1047 179.627 1041.63 185 1035 185H963C956.373 185 951 179.627 951 173V101Z" stroke="url(#paint42_radial_725_516)" stroke-opacity="0.24" stroke-width="2" mask="url(#path-1-outside-1_725_516)"/>
<path d="M1048 101C1048 94.3726 1053.37 89 1060 89H1132C1138.63 89 1144 94.3726 1144 101V173C1144 179.627 1138.63 185 1132 185H1060C1053.37 185 1048 179.627 1048 173V101Z" stroke="url(#paint43_radial_725_516)" stroke-opacity="0.24" stroke-width="2" mask="url(#path-1-outside-1_725_516)"/>
<path d="M1145 101C1145 94.3726 1150.37 89 1157 89H1229C1235.63 89 1241 94.3726 1241 101V173C1241 179.627 1235.63 185 1229 185H1157C1150.37 185 1145 179.627 1145 173V101Z" stroke="url(#paint44_radial_725_516)" stroke-opacity="0.24" stroke-width="2" mask="url(#path-1-outside-1_725_516)"/>
<path d="M1242 101C1242 94.3726 1247.37 89 1254 89H1326C1332.63 89 1338 94.3726 1338 101V173C1338 179.627 1332.63 185 1326 185H1254C1247.37 185 1242 179.627 1242 173V101Z" stroke="url(#paint45_radial_725_516)" stroke-opacity="0.24" stroke-width="2" mask="url(#path-1-outside-1_725_516)"/>
<path d="M1339 101C1339 94.3726 1344.37 89 1351 89H1423C1429.63 89 1435 94.3726 1435 101V173C1435 179.627 1429.63 185 1423 185H1351C1344.37 185 1339 179.627 1339 173V101Z" stroke="url(#paint46_radial_725_516)" stroke-opacity="0.24" stroke-width="2" mask="url(#path-1-outside-1_725_516)"/>
<path d="M1436 101C1436 94.3726 1441.37 89 1448 89H1520C1526.63 89 1532 94.3726 1532 101V173C1532 179.627 1526.63 185 1520 185H1448C1441.37 185 1436 179.627 1436 173V101Z" stroke="url(#paint47_radial_725_516)" stroke-opacity="0.24" stroke-width="2" mask="url(#path-1-outside-1_725_516)"/>
<path d="M-19 198C-19 191.373 -13.6274 186 -7 186H65C71.6274 186 77 191.373 77 198V270C77 276.627 71.6274 282 65 282H-7C-13.6274 282 -19 276.627 -19 270V198Z" stroke="url(#paint48_radial_725_516)" stroke-opacity="0.24" stroke-width="2" mask="url(#path-1-outside-1_725_516)"/>
<path d="M78 198C78 191.373 83.3726 186 90 186H162C168.627 186 174 191.373 174 198V270C174 276.627 168.627 282 162 282H90C83.3726 282 78 276.627 78 270V198Z" stroke="url(#paint49_radial_725_516)" stroke-opacity="0.24" stroke-width="2" mask="url(#path-1-outside-1_725_516)"/>
<path d="M175 198C175 191.373 180.373 186 187 186H259C265.627 186 271 191.373 271 198V270C271 276.627 265.627 282 259 282H187C180.373 282 175 276.627 175 270V198Z" stroke="url(#paint50_radial_725_516)" stroke-opacity="0.24" stroke-width="2" mask="url(#path-1-outside-1_725_516)"/>
<path d="M272 198C272 191.373 277.373 186 284 186H356C362.627 186 368 191.373 368 198V270C368 276.627 362.627 282 356 282H284C277.373 282 272 276.627 272 270V198Z" stroke="url(#paint51_radial_725_516)" stroke-opacity="0.24" stroke-width="2" mask="url(#path-1-outside-1_725_516)"/>
<path d="M369 198C369 191.373 374.373 186 381 186H453C459.627 186 465 191.373 465 198V270C465 276.627 459.627 282 453 282H381C374.373 282 369 276.627 369 270V198Z" stroke="url(#paint52_radial_725_516)" stroke-opacity="0.24" stroke-width="2" mask="url(#path-1-outside-1_725_516)"/>
<path d="M466 198C466 191.373 471.373 186 478 186H550C556.627 186 562 191.373 562 198V270C562 276.627 556.627 282 550 282H478C471.373 282 466 276.627 466 270V198Z" stroke="url(#paint53_radial_725_516)" stroke-opacity="0.24" stroke-width="2" mask="url(#path-1-outside-1_725_516)"/>
<path d="M563 198C563 191.373 568.373 186 575 186H647C653.627 186 659 191.373 659 198V270C659 276.627 653.627 282 647 282H575C568.373 282 563 276.627 563 270V198Z" stroke="url(#paint54_radial_725_516)" stroke-opacity="0.24" stroke-width="2" mask="url(#path-1-outside-1_725_516)"/>
<path d="M660 198C660 191.373 665.373 186 672 186H744C750.627 186 756 191.373 756 198V270C756 276.627 750.627 282 744 282H672C665.373 282 660 276.627 660 270V198Z" stroke="url(#paint55_radial_725_516)" stroke-opacity="0.24" stroke-width="2" mask="url(#path-1-outside-1_725_516)"/>
<path d="M757 198C757 191.373 762.373 186 769 186H841C847.627 186 853 191.373 853 198V270C853 276.627 847.627 282 841 282H769C762.373 282 757 276.627 757 270V198Z" stroke="url(#paint56_radial_725_516)" stroke-opacity="0.24" stroke-width="2" mask="url(#path-1-outside-1_725_516)"/>
<path d="M854 198C854 191.373 859.373 186 866 186H938C944.627 186 950 191.373 950 198V270C950 276.627 944.627 282 938 282H866C859.373 282 854 276.627 854 270V198Z" stroke="url(#paint57_radial_725_516)" stroke-opacity="0.24" stroke-width="2" mask="url(#path-1-outside-1_725_516)"/>
<path d="M951 198C951 191.373 956.373 186 963 186H1035C1041.63 186 1047 191.373 1047 198V270C1047 276.627 1041.63 282 1035 282H963C956.373 282 951 276.627 951 270V198Z" stroke="url(#paint58_radial_725_516)" stroke-opacity="0.24" stroke-width="2" mask="url(#path-1-outside-1_725_516)"/>
<path d="M1048 198C1048 191.373 1053.37 186 1060 186H1132C1138.63 186 1144 191.373 1144 198V270C1144 276.627 1138.63 282 1132 282H1060C1053.37 282 1048 276.627 1048 270V198Z" stroke="url(#paint59_radial_725_516)" stroke-opacity="0.24" stroke-width="2" mask="url(#path-1-outside-1_725_516)"/>
<path d="M1145 198C1145 191.373 1150.37 186 1157 186H1229C1235.63 186 1241 191.373 1241 198V270C1241 276.627 1235.63 282 1229 282H1157C1150.37 282 1145 276.627 1145 270V198Z" stroke="url(#paint60_radial_725_516)" stroke-opacity="0.24" stroke-width="2" mask="url(#path-1-outside-1_725_516)"/>
<path d="M1242 198C1242 191.373 1247.37 186 1254 186H1326C1332.63 186 1338 191.373 1338 198V270C1338 276.627 1332.63 282 1326 282H1254C1247.37 282 1242 276.627 1242 270V198Z" stroke="url(#paint61_radial_725_516)" stroke-opacity="0.24" stroke-width="2" mask="url(#path-1-outside-1_725_516)"/>
<path d="M1339 198C1339 191.373 1344.37 186 1351 186H1423C1429.63 186 1435 191.373 1435 198V270C1435 276.627 1429.63 282 1423 282H1351C1344.37 282 1339 276.627 1339 270V198Z" stroke="url(#paint62_radial_725_516)" stroke-opacity="0.24" stroke-width="2" mask="url(#path-1-outside-1_725_516)"/>
<path d="M1436 198C1436 191.373 1441.37 186 1448 186H1520C1526.63 186 1532 191.373 1532 198V270C1532 276.627 1526.63 282 1520 282H1448C1441.37 282 1436 276.627 1436 270V198Z" stroke="url(#paint63_radial_725_516)" stroke-opacity="0.24" stroke-width="2" mask="url(#path-1-outside-1_725_516)"/>
<path d="M-19 295C-19 288.373 -13.6274 283 -7 283H65C71.6274 283 77 288.373 77 295V367C77 373.627 71.6274 379 65 379H-7C-13.6274 379 -19 373.627 -19 367V295Z" stroke="url(#paint64_radial_725_516)" stroke-opacity="0.24" stroke-width="2" mask="url(#path-1-outside-1_725_516)"/>
<path d="M78 295C78 288.373 83.3726 283 90 283H162C168.627 283 174 288.373 174 295V367C174 373.627 168.627 379 162 379H90C83.3726 379 78 373.627 78 367V295Z" stroke="url(#paint65_radial_725_516)" stroke-opacity="0.24" stroke-width="2" mask="url(#path-1-outside-1_725_516)"/>
<path d="M175 295C175 288.373 180.373 283 187 283H259C265.627 283 271 288.373 271 295V367C271 373.627 265.627 379 259 379H187C180.373 379 175 373.627 175 367V295Z" stroke="url(#paint66_radial_725_516)" stroke-opacity="0.24" stroke-width="2" mask="url(#path-1-outside-1_725_516)"/>
<path d="M272 295C272 288.373 277.373 283 284 283H356C362.627 283 368 288.373 368 295V367C368 373.627 362.627 379 356 379H284C277.373 379 272 373.627 272 367V295Z" stroke="url(#paint67_radial_725_516)" stroke-opacity="0.24" stroke-width="2" mask="url(#path-1-outside-1_725_516)"/>
<path d="M369 295C369 288.373 374.373 283 381 283H453C459.627 283 465 288.373 465 295V367C465 373.627 459.627 379 453 379H381C374.373 379 369 373.627 369 367V295Z" stroke="url(#paint68_radial_725_516)" stroke-opacity="0.24" stroke-width="2" mask="url(#path-1-outside-1_725_516)"/>
<path d="M466 295C466 288.373 471.373 283 478 283H550C556.627 283 562 288.373 562 295V367C562 373.627 556.627 379 550 379H478C471.373 379 466 373.627 466 367V295Z" stroke="url(#paint69_radial_725_516)" stroke-opacity="0.24" stroke-width="2" mask="url(#path-1-outside-1_725_516)"/>
<path d="M563 295C563 288.373 568.373 283 575 283H647C653.627 283 659 288.373 659 295V367C659 373.627 653.627 379 647 379H575C568.373 379 563 373.627 563 367V295Z" stroke="url(#paint70_radial_725_516)" stroke-opacity="0.24" stroke-width="2" mask="url(#path-1-outside-1_725_516)"/>
<path d="M660 295C660 288.373 665.373 283 672 283H744C750.627 283 756 288.373 756 295V367C756 373.627 750.627 379 744 379H672C665.373 379 660 373.627 660 367V295Z" stroke="url(#paint71_radial_725_516)" stroke-opacity="0.24" stroke-width="2" mask="url(#path-1-outside-1_725_516)"/>
<path d="M757 295C757 288.373 762.373 283 769 283H841C847.627 283 853 288.373 853 295V367C853 373.627 847.627 379 841 379H769C762.373 379 757 373.627 757 367V295Z" stroke="url(#paint72_radial_725_516)" stroke-opacity="0.24" stroke-width="2" mask="url(#path-1-outside-1_725_516)"/>
<path d="M854 295C854 288.373 859.373 283 866 283H938C944.627 283 950 288.373 950 295V367C950 373.627 944.627 379 938 379H866C859.373 379 854 373.627 854 367V295Z" stroke="url(#paint73_radial_725_516)" stroke-opacity="0.24" stroke-width="2" mask="url(#path-1-outside-1_725_516)"/>
<path d="M951 295C951 288.373 956.373 283 963 283H1035C1041.63 283 1047 288.373 1047 295V367C1047 373.627 1041.63 379 1035 379H963C956.373 379 951 373.627 951 367V295Z" stroke="url(#paint74_radial_725_516)" stroke-opacity="0.24" stroke-width="2" mask="url(#path-1-outside-1_725_516)"/>
<path d="M1048 295C1048 288.373 1053.37 283 1060 283H1132C1138.63 283 1144 288.373 1144 295V367C1144 373.627 1138.63 379 1132 379H1060C1053.37 379 1048 373.627 1048 367V295Z" stroke="url(#paint75_radial_725_516)" stroke-opacity="0.24" stroke-width="2" mask="url(#path-1-outside-1_725_516)"/>
<path d="M1145 295C1145 288.373 1150.37 283 1157 283H1229C1235.63 283 1241 288.373 1241 295V367C1241 373.627 1235.63 379 1229 379H1157C1150.37 379 1145 373.627 1145 367V295Z" stroke="url(#paint76_radial_725_516)" stroke-opacity="0.24" stroke-width="2" mask="url(#path-1-outside-1_725_516)"/>
<path d="M1242 295C1242 288.373 1247.37 283 1254 283H1326C1332.63 283 1338 288.373 1338 295V367C1338 373.627 1332.63 379 1326 379H1254C1247.37 379 1242 373.627 1242 367V295Z" stroke="url(#paint77_radial_725_516)" stroke-opacity="0.24" stroke-width="2" mask="url(#path-1-outside-1_725_516)"/>
<path d="M1339 295C1339 288.373 1344.37 283 1351 283H1423C1429.63 283 1435 288.373 1435 295V367C1435 373.627 1429.63 379 1423 379H1351C1344.37 379 1339 373.627 1339 367V295Z" stroke="url(#paint78_radial_725_516)" stroke-opacity="0.24" stroke-width="2" mask="url(#path-1-outside-1_725_516)"/>
<path d="M1436 295C1436 288.373 1441.37 283 1448 283H1520C1526.63 283 1532 288.373 1532 295V367C1532 373.627 1526.63 379 1520 379H1448C1441.37 379 1436 373.627 1436 367V295Z" stroke="url(#paint79_radial_725_516)" stroke-opacity="0.24" stroke-width="2" mask="url(#path-1-outside-1_725_516)"/>
<path d="M-19 392C-19 385.373 -13.6274 380 -7 380H65C71.6274 380 77 385.373 77 392V464C77 470.627 71.6274 476 65 476H-7C-13.6274 476 -19 470.627 -19 464V392Z" stroke="url(#paint80_radial_725_516)" stroke-opacity="0.24" stroke-width="2" mask="url(#path-1-outside-1_725_516)"/>
<path d="M78 392C78 385.373 83.3726 380 90 380H162C168.627 380 174 385.373 174 392V464C174 470.627 168.627 476 162 476H90C83.3726 476 78 470.627 78 464V392Z" stroke="url(#paint81_radial_725_516)" stroke-opacity="0.24" stroke-width="2" mask="url(#path-1-outside-1_725_516)"/>
<path d="M175 392C175 385.373 180.373 380 187 380H259C265.627 380 271 385.373 271 392V464C271 470.627 265.627 476 259 476H187C180.373 476 175 470.627 175 464V392Z" stroke="url(#paint82_radial_725_516)" stroke-opacity="0.24" stroke-width="2" mask="url(#path-1-outside-1_725_516)"/>
<path d="M272 392C272 385.373 277.373 380 284 380H356C362.627 380 368 385.373 368 392V464C368 470.627 362.627 476 356 476H284C277.373 476 272 470.627 272 464V392Z" stroke="url(#paint83_radial_725_516)" stroke-opacity="0.24" stroke-width="2" mask="url(#path-1-outside-1_725_516)"/>
<path d="M369 392C369 385.373 374.373 380 381 380H453C459.627 380 465 385.373 465 392V464C465 470.627 459.627 476 453 476H381C374.373 476 369 470.627 369 464V392Z" stroke="url(#paint84_radial_725_516)" stroke-opacity="0.24" stroke-width="2" mask="url(#path-1-outside-1_725_516)"/>
<path d="M466 392C466 385.373 471.373 380 478 380H550C556.627 380 562 385.373 562 392V464C562 470.627 556.627 476 550 476H478C471.373 476 466 470.627 466 464V392Z" stroke="url(#paint85_radial_725_516)" stroke-opacity="0.24" stroke-width="2" mask="url(#path-1-outside-1_725_516)"/>
<path d="M563 392C563 385.373 568.373 380 575 380H647C653.627 380 659 385.373 659 392V464C659 470.627 653.627 476 647 476H575C568.373 476 563 470.627 563 464V392Z" stroke="url(#paint86_radial_725_516)" stroke-opacity="0.24" stroke-width="2" mask="url(#path-1-outside-1_725_516)"/>
<path d="M660 392C660 385.373 665.373 380 672 380H744C750.627 380 756 385.373 756 392V464C756 470.627 750.627 476 744 476H672C665.373 476 660 470.627 660 464V392Z" stroke="url(#paint87_radial_725_516)" stroke-opacity="0.24" stroke-width="2" mask="url(#path-1-outside-1_725_516)"/>
<path d="M757 392C757 385.373 762.373 380 769 380H841C847.627 380 853 385.373 853 392V464C853 470.627 847.627 476 841 476H769C762.373 476 757 470.627 757 464V392Z" stroke="url(#paint88_radial_725_516)" stroke-opacity="0.24" stroke-width="2" mask="url(#path-1-outside-1_725_516)"/>
<path d="M854 392C854 385.373 859.373 380 866 380H938C944.627 380 950 385.373 950 392V464C950 470.627 944.627 476 938 476H866C859.373 476 854 470.627 854 464V392Z" stroke="url(#paint89_radial_725_516)" stroke-opacity="0.24" stroke-width="2" mask="url(#path-1-outside-1_725_516)"/>
<path d="M951 392C951 385.373 956.373 380 963 380H1035C1041.63 380 1047 385.373 1047 392V464C1047 470.627 1041.63 476 1035 476H963C956.373 476 951 470.627 951 464V392Z" stroke="url(#paint90_radial_725_516)" stroke-opacity="0.24" stroke-width="2" mask="url(#path-1-outside-1_725_516)"/>
<path d="M1048 392C1048 385.373 1053.37 380 1060 380H1132C1138.63 380 1144 385.373 1144 392V464C1144 470.627 1138.63 476 1132 476H1060C1053.37 476 1048 470.627 1048 464V392Z" stroke="url(#paint91_radial_725_516)" stroke-opacity="0.24" stroke-width="2" mask="url(#path-1-outside-1_725_516)"/>
<path d="M1145 392C1145 385.373 1150.37 380 1157 380H1229C1235.63 380 1241 385.373 1241 392V464C1241 470.627 1235.63 476 1229 476H1157C1150.37 476 1145 470.627 1145 464V392Z" stroke="url(#paint92_radial_725_516)" stroke-opacity="0.24" stroke-width="2" mask="url(#path-1-outside-1_725_516)"/>
<path d="M1242 392C1242 385.373 1247.37 380 1254 380H1326C1332.63 380 1338 385.373 1338 392V464C1338 470.627 1332.63 476 1326 476H1254C1247.37 476 1242 470.627 1242 464V392Z" stroke="url(#paint93_radial_725_516)" stroke-opacity="0.24" stroke-width="2" mask="url(#path-1-outside-1_725_516)"/>
<path d="M1339 392C1339 385.373 1344.37 380 1351 380H1423C1429.63 380 1435 385.373 1435 392V464C1435 470.627 1429.63 476 1423 476H1351C1344.37 476 1339 470.627 1339 464V392Z" stroke="url(#paint94_radial_725_516)" stroke-opacity="0.24" stroke-width="2" mask="url(#path-1-outside-1_725_516)"/>
<path d="M1436 392C1436 385.373 1441.37 380 1448 380H1520C1526.63 380 1532 385.373 1532 392V464C1532 470.627 1526.63 476 1520 476H1448C1441.37 476 1436 470.627 1436 464V392Z" stroke="url(#paint95_radial_725_516)" stroke-opacity="0.24" stroke-width="2" mask="url(#path-1-outside-1_725_516)"/>
<path d="M-19 489C-19 482.373 -13.6274 477 -7 477H65C71.6274 477 77 482.373 77 489V561C77 567.627 71.6274 573 65 573H-7C-13.6274 573 -19 567.627 -19 561V489Z" stroke="url(#paint96_radial_725_516)" stroke-opacity="0.24" stroke-width="2" mask="url(#path-1-outside-1_725_516)"/>
<path d="M78 489C78 482.373 83.3726 477 90 477H162C168.627 477 174 482.373 174 489V561C174 567.627 168.627 573 162 573H90C83.3726 573 78 567.627 78 561V489Z" stroke="url(#paint97_radial_725_516)" stroke-opacity="0.24" stroke-width="2" mask="url(#path-1-outside-1_725_516)"/>
<path d="M175 489C175 482.373 180.373 477 187 477H259C265.627 477 271 482.373 271 489V561C271 567.627 265.627 573 259 573H187C180.373 573 175 567.627 175 561V489Z" stroke="url(#paint98_radial_725_516)" stroke-opacity="0.24" stroke-width="2" mask="url(#path-1-outside-1_725_516)"/>
<path d="M272 489C272 482.373 277.373 477 284 477H356C362.627 477 368 482.373 368 489V561C368 567.627 362.627 573 356 573H284C277.373 573 272 567.627 272 561V489Z" stroke="url(#paint99_radial_725_516)" stroke-opacity="0.24" stroke-width="2" mask="url(#path-1-outside-1_725_516)"/>
<path d="M369 489C369 482.373 374.373 477 381 477H453C459.627 477 465 482.373 465 489V561C465 567.627 459.627 573 453 573H381C374.373 573 369 567.627 369 561V489Z" stroke="url(#paint100_radial_725_516)" stroke-opacity="0.24" stroke-width="2" mask="url(#path-1-outside-1_725_516)"/>
<path d="M466 489C466 482.373 471.373 477 478 477H550C556.627 477 562 482.373 562 489V561C562 567.627 556.627 573 550 573H478C471.373 573 466 567.627 466 561V489Z" stroke="url(#paint101_radial_725_516)" stroke-opacity="0.24" stroke-width="2" mask="url(#path-1-outside-1_725_516)"/>
<path d="M563 489C563 482.373 568.373 477 575 477H647C653.627 477 659 482.373 659 489V561C659 567.627 653.627 573 647 573H575C568.373 573 563 567.627 563 561V489Z" stroke="url(#paint102_radial_725_516)" stroke-opacity="0.24" stroke-width="2" mask="url(#path-1-outside-1_725_516)"/>
<path d="M660 489C660 482.373 665.373 477 672 477H744C750.627 477 756 482.373 756 489V561C756 567.627 750.627 573 744 573H672C665.373 573 660 567.627 660 561V489Z" stroke="url(#paint103_radial_725_516)" stroke-opacity="0.24" stroke-width="2" mask="url(#path-1-outside-1_725_516)"/>
<path d="M757 489C757 482.373 762.373 477 769 477H841C847.627 477 853 482.373 853 489V561C853 567.627 847.627 573 841 573H769C762.373 573 757 567.627 757 561V489Z" stroke="url(#paint104_radial_725_516)" stroke-opacity="0.24" stroke-width="2" mask="url(#path-1-outside-1_725_516)"/>
<path d="M854 489C854 482.373 859.373 477 866 477H938C944.627 477 950 482.373 950 489V561C950 567.627 944.627 573 938 573H866C859.373 573 854 567.627 854 561V489Z" stroke="url(#paint105_radial_725_516)" stroke-opacity="0.24" stroke-width="2" mask="url(#path-1-outside-1_725_516)"/>
<path d="M951 489C951 482.373 956.373 477 963 477H1035C1041.63 477 1047 482.373 1047 489V561C1047 567.627 1041.63 573 1035 573H963C956.373 573 951 567.627 951 561V489Z" stroke="url(#paint106_radial_725_516)" stroke-opacity="0.24" stroke-width="2" mask="url(#path-1-outside-1_725_516)"/>
<path d="M1048 489C1048 482.373 1053.37 477 1060 477H1132C1138.63 477 1144 482.373 1144 489V561C1144 567.627 1138.63 573 1132 573H1060C1053.37 573 1048 567.627 1048 561V489Z" stroke="url(#paint107_radial_725_516)" stroke-opacity="0.24" stroke-width="2" mask="url(#path-1-outside-1_725_516)"/>
<path d="M1145 489C1145 482.373 1150.37 477 1157 477H1229C1235.63 477 1241 482.373 1241 489V561C1241 567.627 1235.63 573 1229 573H1157C1150.37 573 1145 567.627 1145 561V489Z" stroke="url(#paint108_radial_725_516)" stroke-opacity="0.24" stroke-width="2" mask="url(#path-1-outside-1_725_516)"/>
<path d="M1242 489C1242 482.373 1247.37 477 1254 477H1326C1332.63 477 1338 482.373 1338 489V561C1338 567.627 1332.63 573 1326 573H1254C1247.37 573 1242 567.627 1242 561V489Z" stroke="url(#paint109_radial_725_516)" stroke-opacity="0.24" stroke-width="2" mask="url(#path-1-outside-1_725_516)"/>
<path d="M1339 489C1339 482.373 1344.37 477 1351 477H1423C1429.63 477 1435 482.373 1435 489V561C1435 567.627 1429.63 573 1423 573H1351C1344.37 573 1339 567.627 1339 561V489Z" stroke="url(#paint110_radial_725_516)" stroke-opacity="0.24" stroke-width="2" mask="url(#path-1-outside-1_725_516)"/>
<path d="M1436 489C1436 482.373 1441.37 477 1448 477H1520C1526.63 477 1532 482.373 1532 489V561C1532 567.627 1526.63 573 1520 573H1448C1441.37 573 1436 567.627 1436 561V489Z" stroke="url(#paint111_radial_725_516)" stroke-opacity="0.24" stroke-width="2" mask="url(#path-1-outside-1_725_516)"/>
<path d="M-19 586C-19 579.373 -13.6274 574 -7 574H65C71.6274 574 77 579.373 77 586V658C77 664.627 71.6274 670 65 670H-7C-13.6274 670 -19 664.627 -19 658V586Z" stroke="url(#paint112_radial_725_516)" stroke-opacity="0.24" stroke-width="2" mask="url(#path-1-outside-1_725_516)"/>
<path d="M78 586C78 579.373 83.3726 574 90 574H162C168.627 574 174 579.373 174 586V658C174 664.627 168.627 670 162 670H90C83.3726 670 78 664.627 78 658V586Z" stroke="url(#paint113_radial_725_516)" stroke-opacity="0.24" stroke-width="2" mask="url(#path-1-outside-1_725_516)"/>
<path d="M175 586C175 579.373 180.373 574 187 574H259C265.627 574 271 579.373 271 586V658C271 664.627 265.627 670 259 670H187C180.373 670 175 664.627 175 658V586Z" stroke="url(#paint114_radial_725_516)" stroke-opacity="0.24" stroke-width="2" mask="url(#path-1-outside-1_725_516)"/>
<path d="M272 586C272 579.373 277.373 574 284 574H356C362.627 574 368 579.373 368 586V658C368 664.627 362.627 670 356 670H284C277.373 670 272 664.627 272 658V586Z" stroke="url(#paint115_radial_725_516)" stroke-opacity="0.24" stroke-width="2" mask="url(#path-1-outside-1_725_516)"/>
<path d="M369 586C369 579.373 374.373 574 381 574H453C459.627 574 465 579.373 465 586V658C465 664.627 459.627 670 453 670H381C374.373 670 369 664.627 369 658V586Z" stroke="url(#paint116_radial_725_516)" stroke-opacity="0.24" stroke-width="2" mask="url(#path-1-outside-1_725_516)"/>
<path d="M466 586C466 579.373 471.373 574 478 574H550C556.627 574 562 579.373 562 586V658C562 664.627 556.627 670 550 670H478C471.373 670 466 664.627 466 658V586Z" stroke="url(#paint117_radial_725_516)" stroke-opacity="0.24" stroke-width="2" mask="url(#path-1-outside-1_725_516)"/>
<path d="M563 586C563 579.373 568.373 574 575 574H647C653.627 574 659 579.373 659 586V658C659 664.627 653.627 670 647 670H575C568.373 670 563 664.627 563 658V586Z" stroke="url(#paint118_radial_725_516)" stroke-opacity="0.24" stroke-width="2" mask="url(#path-1-outside-1_725_516)"/>
<path d="M660 586C660 579.373 665.373 574 672 574H744C750.627 574 756 579.373 756 586V658C756 664.627 750.627 670 744 670H672C665.373 670 660 664.627 660 658V586Z" stroke="url(#paint119_radial_725_516)" stroke-opacity="0.24" stroke-width="2" mask="url(#path-1-outside-1_725_516)"/>
<path d="M757 586C757 579.373 762.373 574 769 574H841C847.627 574 853 579.373 853 586V658C853 664.627 847.627 670 841 670H769C762.373 670 757 664.627 757 658V586Z" stroke="url(#paint120_radial_725_516)" stroke-opacity="0.24" stroke-width="2" mask="url(#path-1-outside-1_725_516)"/>
<path d="M854 586C854 579.373 859.373 574 866 574H938C944.627 574 950 579.373 950 586V658C950 664.627 944.627 670 938 670H866C859.373 670 854 664.627 854 658V586Z" stroke="url(#paint121_radial_725_516)" stroke-opacity="0.24" stroke-width="2" mask="url(#path-1-outside-1_725_516)"/>
<path d="M951 586C951 579.373 956.373 574 963 574H1035C1041.63 574 1047 579.373 1047 586V658C1047 664.627 1041.63 670 1035 670H963C956.373 670 951 664.627 951 658V586Z" stroke="url(#paint122_radial_725_516)" stroke-opacity="0.24" stroke-width="2" mask="url(#path-1-outside-1_725_516)"/>
<path d="M1048 586C1048 579.373 1053.37 574 1060 574H1132C1138.63 574 1144 579.373 1144 586V658C1144 664.627 1138.63 670 1132 670H1060C1053.37 670 1048 664.627 1048 658V586Z" stroke="url(#paint123_radial_725_516)" stroke-opacity="0.24" stroke-width="2" mask="url(#path-1-outside-1_725_516)"/>
<path d="M1145 586C1145 579.373 1150.37 574 1157 574H1229C1235.63 574 1241 579.373 1241 586V658C1241 664.627 1235.63 670 1229 670H1157C1150.37 670 1145 664.627 1145 658V586Z" stroke="url(#paint124_radial_725_516)" stroke-opacity="0.24" stroke-width="2" mask="url(#path-1-outside-1_725_516)"/>
<path d="M1242 586C1242 579.373 1247.37 574 1254 574H1326C1332.63 574 1338 579.373 1338 586V658C1338 664.627 1332.63 670 1326 670H1254C1247.37 670 1242 664.627 1242 658V586Z" stroke="url(#paint125_radial_725_516)" stroke-opacity="0.24" stroke-width="2" mask="url(#path-1-outside-1_725_516)"/>
<path d="M1339 586C1339 579.373 1344.37 574 1351 574H1423C1429.63 574 1435 579.373 1435 586V658C1435 664.627 1429.63 670 1423 670H1351C1344.37 670 1339 664.627 1339 658V586Z" stroke="url(#paint126_radial_725_516)" stroke-opacity="0.24" stroke-width="2" mask="url(#path-1-outside-1_725_516)"/>
<path d="M1436 586C1436 579.373 1441.37 574 1448 574H1520C1526.63 574 1532 579.373 1532 586V658C1532 664.627 1526.63 670 1520 670H1448C1441.37 670 1436 664.627 1436 658V586Z" stroke="url(#paint127_radial_725_516)" stroke-opacity="0.24" stroke-width="2" mask="url(#path-1-outside-1_725_516)"/>
<g opacity="0.3">
<rect x="271" y="62" width="221" height="221" rx="12" fill="url(#paint128_linear_725_516)"/>
<path d="M271 62V271C271 277.627 276.373 283 283 283H492" stroke="url(#paint129_linear_725_516)"/>
<rect width="221" height="221" rx="12" transform="matrix(-1 0 0 1 271 62)" fill="url(#paint130_linear_725_516)"/>
<rect width="221" height="221" rx="12" transform="matrix(1 0 0 -1 271 504)" fill="url(#paint131_linear_725_516)"/>
<rect x="271" y="504" width="221" height="221" rx="12" transform="rotate(180 271 504)" fill="url(#paint132_linear_725_516)"/>
<path d="M271 504V295C271 288.373 265.627 283 259 283H50" stroke="url(#paint133_linear_725_516)"/>
</g>
<g opacity="0.3">
<rect x="1145" y="255" width="221" height="221" rx="12" fill="url(#paint134_linear_725_516)"/>
<path d="M1145 255V464C1145 470.627 1150.37 476 1157 476H1366" stroke="url(#paint135_linear_725_516)"/>
<rect width="221" height="221" rx="12" transform="matrix(-1 0 0 1 1145 255)" fill="url(#paint136_linear_725_516)"/>
<rect width="221" height="221" rx="12" transform="matrix(1 0 0 -1 1145 697)" fill="url(#paint137_linear_725_516)"/>
<rect x="1145" y="697" width="221" height="221" rx="12" transform="rotate(180 1145 697)" fill="url(#paint138_linear_725_516)"/>
<path d="M1145 697V488C1145 481.373 1139.63 476 1133 476H924" stroke="url(#paint139_linear_725_516)"/>
</g>
<defs>
<radialGradient id="paint0_radial_725_516" cx="0" cy="0" r="1" gradientUnits="userSpaceOnUse" gradientTransform="translate(756.501 -5.00002) rotate(89.0811) scale(904.116 673.644)">
<stop stop-color="#FF4C33"/>
<stop offset="0.969249" stop-color="#FF4C33" stop-opacity="0"/>
</radialGradient>
<radialGradient id="paint1_radial_725_516" cx="0" cy="0" r="1" gradientUnits="userSpaceOnUse" gradientTransform="translate(756.501 -5.00002) rotate(89.0811) scale(904.116 673.644)">
<stop stop-color="#FF4C33"/>
<stop offset="0.969249" stop-color="#FF4C33" stop-opacity="0"/>
</radialGradient>
<radialGradient id="paint2_radial_725_516" cx="0" cy="0" r="1" gradientUnits="userSpaceOnUse" gradientTransform="translate(756.501 -5.00002) rotate(89.0811) scale(904.116 673.644)">
<stop stop-color="#FF4C33"/>
<stop offset="0.969249" stop-color="#FF4C33" stop-opacity="0"/>
</radialGradient>
<radialGradient id="paint3_radial_725_516" cx="0" cy="0" r="1" gradientUnits="userSpaceOnUse" gradientTransform="translate(756.501 -5.00002) rotate(89.0811) scale(904.116 673.644)">
<stop stop-color="#FF4C33"/>
<stop offset="0.969249" stop-color="#FF4C33" stop-opacity="0"/>
</radialGradient>
<radialGradient id="paint4_radial_725_516" cx="0" cy="0" r="1" gradientUnits="userSpaceOnUse" gradientTransform="translate(756.501 -5.00002) rotate(89.0811) scale(904.116 673.644)">
<stop stop-color="#FF4C33"/>
<stop offset="0.969249" stop-color="#FF4C33" stop-opacity="0"/>
</radialGradient>
<radialGradient id="paint5_radial_725_516" cx="0" cy="0" r="1" gradientUnits="userSpaceOnUse" gradientTransform="translate(756.501 -5.00002) rotate(89.0811) scale(904.116 673.644)">
<stop stop-color="#FF4C33"/>
<stop offset="0.969249" stop-color="#FF4C33" stop-opacity="0"/>
</radialGradient>
<radialGradient id="paint6_radial_725_516" cx="0" cy="0" r="1" gradientUnits="userSpaceOnUse" gradientTransform="translate(756.501 -5.00002) rotate(89.0811) scale(904.116 673.644)">
<stop stop-color="#FF4C33"/>
<stop offset="0.969249" stop-color="#FF4C33" stop-opacity="0"/>
</radialGradient>
<radialGradient id="paint7_radial_725_516" cx="0" cy="0" r="1" gradientUnits="userSpaceOnUse" gradientTransform="translate(756.501 -5.00002) rotate(89.0811) scale(904.116 673.644)">
<stop stop-color="#FF4C33"/>
<stop offset="0.969249" stop-color="#FF4C33" stop-opacity="0"/>
</radialGradient>
<radialGradient id="paint8_radial_725_516" cx="0" cy="0" r="1" gradientUnits="userSpaceOnUse" gradientTransform="translate(756.501 -5.00002) rotate(89.0811) scale(904.116 673.644)">
<stop stop-color="#FF4C33"/>
<stop offset="0.969249" stop-color="#FF4C33" stop-opacity="0"/>
</radialGradient>
<radialGradient id="paint9_radial_725_516" cx="0" cy="0" r="1" gradientUnits="userSpaceOnUse" gradientTransform="translate(756.501 -5.00002) rotate(89.0811) scale(904.116 673.644)">
<stop stop-color="#FF4C33"/>
<stop offset="0.969249" stop-color="#FF4C33" stop-opacity="0"/>
</radialGradient>
<radialGradient id="paint10_radial_725_516" cx="0" cy="0" r="1" gradientUnits="userSpaceOnUse" gradientTransform="translate(756.501 -5.00002) rotate(89.0811) scale(904.116 673.644)">
<stop stop-color="#FF4C33"/>
<stop offset="0.969249" stop-color="#FF4C33" stop-opacity="0"/>
</radialGradient>
<radialGradient id="paint11_radial_725_516" cx="0" cy="0" r="1" gradientUnits="userSpaceOnUse" gradientTransform="translate(756.501 -5.00002) rotate(89.0811) scale(904.116 673.644)">
<stop stop-color="#FF4C33"/>
<stop offset="0.969249" stop-color="#FF4C33" stop-opacity="0"/>
</radialGradient>
<radialGradient id="paint12_radial_725_516" cx="0" cy="0" r="1" gradientUnits="userSpaceOnUse" gradientTransform="translate(756.501 -5.00002) rotate(89.0811) scale(904.116 673.644)">
<stop stop-color="#FF4C33"/>
<stop offset="0.969249" stop-color="#FF4C33" stop-opacity="0"/>
</radialGradient>
<radialGradient id="paint13_radial_725_516" cx="0" cy="0" r="1" gradientUnits="userSpaceOnUse" gradientTransform="translate(756.501 -5.00002) rotate(89.0811) scale(904.116 673.644)">
<stop stop-color="#FF4C33"/>
<stop offset="0.969249" stop-color="#FF4C33" stop-opacity="0"/>
</radialGradient>
<radialGradient id="paint14_radial_725_516" cx="0" cy="0" r="1" gradientUnits="userSpaceOnUse" gradientTransform="translate(756.501 -5.00002) rotate(89.0811) scale(904.116 673.644)">
<stop stop-color="#FF4C33"/>
<stop offset="0.969249" stop-color="#FF4C33" stop-opacity="0"/>
</radialGradient>
<radialGradient id="paint15_radial_725_516" cx="0" cy="0" r="1" gradientUnits="userSpaceOnUse" gradientTransform="translate(756.501 -5.00002) rotate(89.0811) scale(904.116 673.644)">
<stop stop-color="#FF4C33"/>
<stop offset="0.969249" stop-color="#FF4C33" stop-opacity="0"/>
</radialGradient>
<radialGradient id="paint16_radial_725_516" cx="0" cy="0" r="1" gradientUnits="userSpaceOnUse" gradientTransform="translate(756.501 -5.00002) rotate(89.0811) scale(904.116 673.644)">
<stop stop-color="#FF4C33"/>
<stop offset="0.969249" stop-color="#FF4C33" stop-opacity="0"/>
</radialGradient>
<radialGradient id="paint17_radial_725_516" cx="0" cy="0" r="1" gradientUnits="userSpaceOnUse" gradientTransform="translate(756.501 -5.00002) rotate(89.0811) scale(904.116 673.644)">
<stop stop-color="#FF4C33"/>
<stop offset="0.969249" stop-color="#FF4C33" stop-opacity="0"/>
</radialGradient>
<radialGradient id="paint18_radial_725_516" cx="0" cy="0" r="1" gradientUnits="userSpaceOnUse" gradientTransform="translate(756.501 -5.00002) rotate(89.0811) scale(904.116 673.644)">
<stop stop-color="#FF4C33"/>
<stop offset="0.969249" stop-color="#FF4C33" stop-opacity="0"/>
</radialGradient>
<radialGradient id="paint19_radial_725_516" cx="0" cy="0" r="1" gradientUnits="userSpaceOnUse" gradientTransform="translate(756.501 -5.00002) rotate(89.0811) scale(904.116 673.644)">
<stop stop-color="#FF4C33"/>
<stop offset="0.969249" stop-color="#FF4C33" stop-opacity="0"/>
</radialGradient>
<radialGradient id="paint20_radial_725_516" cx="0" cy="0" r="1" gradientUnits="userSpaceOnUse" gradientTransform="translate(756.501 -5.00002) rotate(89.0811) scale(904.116 673.644)">
<stop stop-color="#FF4C33"/>
<stop offset="0.969249" stop-color="#FF4C33" stop-opacity="0"/>
</radialGradient>
<radialGradient id="paint21_radial_725_516" cx="0" cy="0" r="1" gradientUnits="userSpaceOnUse" gradientTransform="translate(756.501 -5.00002) rotate(89.0811) scale(904.116 673.644)">
<stop stop-color="#FF4C33"/>
<stop offset="0.969249" stop-color="#FF4C33" stop-opacity="0"/>
</radialGradient>
<radialGradient id="paint22_radial_725_516" cx="0" cy="0" r="1" gradientUnits="userSpaceOnUse" gradientTransform="translate(756.501 -5.00002) rotate(89.0811) scale(904.116 673.644)">
<stop stop-color="#FF4C33"/>
<stop offset="0.969249" stop-color="#FF4C33" stop-opacity="0"/>
</radialGradient>
<radialGradient id="paint23_radial_725_516" cx="0" cy="0" r="1" gradientUnits="userSpaceOnUse" gradientTransform="translate(756.501 -5.00002) rotate(89.0811) scale(904.116 673.644)">
<stop stop-color="#FF4C33"/>
<stop offset="0.969249" stop-color="#FF4C33" stop-opacity="0"/>
</radialGradient>
<radialGradient id="paint24_radial_725_516" cx="0" cy="0" r="1" gradientUnits="userSpaceOnUse" gradientTransform="translate(756.501 -5.00002) rotate(89.0811) scale(904.116 673.644)">
<stop stop-color="#FF4C33"/>
<stop offset="0.969249" stop-color="#FF4C33" stop-opacity="0"/>
</radialGradient>
<radialGradient id="paint25_radial_725_516" cx="0" cy="0" r="1" gradientUnits="userSpaceOnUse" gradientTransform="translate(756.501 -5.00002) rotate(89.0811) scale(904.116 673.644)">
<stop stop-color="#FF4C33"/>
<stop offset="0.969249" stop-color="#FF4C33" stop-opacity="0"/>
</radialGradient>
<radialGradient id="paint26_radial_725_516" cx="0" cy="0" r="1" gradientUnits="userSpaceOnUse" gradientTransform="translate(756.501 -5.00002) rotate(89.0811) scale(904.116 673.644)">
<stop stop-color="#FF4C33"/>
<stop offset="0.969249" stop-color="#FF4C33" stop-opacity="0"/>
</radialGradient>
<radialGradient id="paint27_radial_725_516" cx="0" cy="0" r="1" gradientUnits="userSpaceOnUse" gradientTransform="translate(756.501 -5.00002) rotate(89.0811) scale(904.116 673.644)">
<stop stop-color="#FF4C33"/>
<stop offset="0.969249" stop-color="#FF4C33" stop-opacity="0"/>
</radialGradient>
<radialGradient id="paint28_radial_725_516" cx="0" cy="0" r="1" gradientUnits="userSpaceOnUse" gradientTransform="translate(756.501 -5.00002) rotate(89.0811) scale(904.116 673.644)">
<stop stop-color="#FF4C33"/>
<stop offset="0.969249" stop-color="#FF4C33" stop-opacity="0"/>
</radialGradient>
<radialGradient id="paint29_radial_725_516" cx="0" cy="0" r="1" gradientUnits="userSpaceOnUse" gradientTransform="translate(756.501 -5.00002) rotate(89.0811) scale(904.116 673.644)">
<stop stop-color="#FF4C33"/>
<stop offset="0.969249" stop-color="#FF4C33" stop-opacity="0"/>
</radialGradient>
<radialGradient id="paint30_radial_725_516" cx="0" cy="0" r="1" gradientUnits="userSpaceOnUse" gradientTransform="translate(756.501 -5.00002) rotate(89.0811) scale(904.116 673.644)">
<stop stop-color="#FF4C33"/>
<stop offset="0.969249" stop-color="#FF4C33" stop-opacity="0"/>
</radialGradient>
<radialGradient id="paint31_radial_725_516" cx="0" cy="0" r="1" gradientUnits="userSpaceOnUse" gradientTransform="translate(756.501 -5.00002) rotate(89.0811) scale(904.116 673.644)">
<stop stop-color="#FF4C33"/>
<stop offset="0.969249" stop-color="#FF4C33" stop-opacity="0"/>
</radialGradient>
<radialGradient id="paint32_radial_725_516" cx="0" cy="0" r="1" gradientUnits="userSpaceOnUse" gradientTransform="translate(756.501 -5.00002) rotate(89.0811) scale(904.116 673.644)">
<stop stop-color="#FF4C33"/>
<stop offset="0.969249" stop-color="#FF4C33" stop-opacity="0"/>
</radialGradient>
<radialGradient id="paint33_radial_725_516" cx="0" cy="0" r="1" gradientUnits="userSpaceOnUse" gradientTransform="translate(756.501 -5.00002) rotate(89.0811) scale(904.116 673.644)">
<stop stop-color="#FF4C33"/>
<stop offset="0.969249" stop-color="#FF4C33" stop-opacity="0"/>
</radialGradient>
<radialGradient id="paint34_radial_725_516" cx="0" cy="0" r="1" gradientUnits="userSpaceOnUse" gradientTransform="translate(756.501 -5.00002) rotate(89.0811) scale(904.116 673.644)">
<stop stop-color="#FF4C33"/>
<stop offset="0.969249" stop-color="#FF4C33" stop-opacity="0"/>
</radialGradient>
<radialGradient id="paint35_radial_725_516" cx="0" cy="0" r="1" gradientUnits="userSpaceOnUse" gradientTransform="translate(756.501 -5.00002) rotate(89.0811) scale(904.116 673.644)">
<stop stop-color="#FF4C33"/>
<stop offset="0.969249" stop-color="#FF4C33" stop-opacity="0"/>
</radialGradient>
<radialGradient id="paint36_radial_725_516" cx="0" cy="0" r="1" gradientUnits="userSpaceOnUse" gradientTransform="translate(756.501 -5.00002) rotate(89.0811) scale(904.116 673.644)">
<stop stop-color="#FF4C33"/>
<stop offset="0.969249" stop-color="#FF4C33" stop-opacity="0"/>
</radialGradient>
<radialGradient id="paint37_radial_725_516" cx="0" cy="0" r="1" gradientUnits="userSpaceOnUse" gradientTransform="translate(756.501 -5.00002) rotate(89.0811) scale(904.116 673.644)">
<stop stop-color="#FF4C33"/>
<stop offset="0.969249" stop-color="#FF4C33" stop-opacity="0"/>
</radialGradient>
<radialGradient id="paint38_radial_725_516" cx="0" cy="0" r="1" gradientUnits="userSpaceOnUse" gradientTransform="translate(756.501 -5.00002) rotate(89.0811) scale(904.116 673.644)">
<stop stop-color="#FF4C33"/>
<stop offset="0.969249" stop-color="#FF4C33" stop-opacity="0"/>
</radialGradient>
<radialGradient id="paint39_radial_725_516" cx="0" cy="0" r="1" gradientUnits="userSpaceOnUse" gradientTransform="translate(756.501 -5.00002) rotate(89.0811) scale(904.116 673.644)">
<stop stop-color="#FF4C33"/>
<stop offset="0.969249" stop-color="#FF4C33" stop-opacity="0"/>
</radialGradient>
<radialGradient id="paint40_radial_725_516" cx="0" cy="0" r="1" gradientUnits="userSpaceOnUse" gradientTransform="translate(756.501 -5.00002) rotate(89.0811) scale(904.116 673.644)">
<stop stop-color="#FF4C33"/>
<stop offset="0.969249" stop-color="#FF4C33" stop-opacity="0"/>
</radialGradient>
<radialGradient id="paint41_radial_725_516" cx="0" cy="0" r="1" gradientUnits="userSpaceOnUse" gradientTransform="translate(756.501 -5.00002) rotate(89.0811) scale(904.116 673.644)">
<stop stop-color="#FF4C33"/>
<stop offset="0.969249" stop-color="#FF4C33" stop-opacity="0"/>
</radialGradient>
<radialGradient id="paint42_radial_725_516" cx="0" cy="0" r="1" gradientUnits="userSpaceOnUse" gradientTransform="translate(756.501 -5.00002) rotate(89.0811) scale(904.116 673.644)">
<stop stop-color="#FF4C33"/>
<stop offset="0.969249" stop-color="#FF4C33" stop-opacity="0"/>
</radialGradient>
<radialGradient id="paint43_radial_725_516" cx="0" cy="0" r="1" gradientUnits="userSpaceOnUse" gradientTransform="translate(756.501 -5.00002) rotate(89.0811) scale(904.116 673.644)">
<stop stop-color="#FF4C33"/>
<stop offset="0.969249" stop-color="#FF4C33" stop-opacity="0"/>
</radialGradient>
<radialGradient id="paint44_radial_725_516" cx="0" cy="0" r="1" gradientUnits="userSpaceOnUse" gradientTransform="translate(756.501 -5.00002) rotate(89.0811) scale(904.116 673.644)">
<stop stop-color="#FF4C33"/>
<stop offset="0.969249" stop-color="#FF4C33" stop-opacity="0"/>
</radialGradient>
<radialGradient id="paint45_radial_725_516" cx="0" cy="0" r="1" gradientUnits="userSpaceOnUse" gradientTransform="translate(756.501 -5.00002) rotate(89.0811) scale(904.116 673.644)">
<stop stop-color="#FF4C33"/>
<stop offset="0.969249" stop-color="#FF4C33" stop-opacity="0"/>
</radialGradient>
<radialGradient id="paint46_radial_725_516" cx="0" cy="0" r="1" gradientUnits="userSpaceOnUse" gradientTransform="translate(756.501 -5.00002) rotate(89.0811) scale(904.116 673.644)">
<stop stop-color="#FF4C33"/>
<stop offset="0.969249" stop-color="#FF4C33" stop-opacity="0"/>
</radialGradient>
<radialGradient id="paint47_radial_725_516" cx="0" cy="0" r="1" gradientUnits="userSpaceOnUse" gradientTransform="translate(756.501 -5.00002) rotate(89.0811) scale(904.116 673.644)">
<stop stop-color="#FF4C33"/>
<stop offset="0.969249" stop-color="#FF4C33" stop-opacity="0"/>
</radialGradient>
<radialGradient id="paint48_radial_725_516" cx="0" cy="0" r="1" gradientUnits="userSpaceOnUse" gradientTransform="translate(756.501 -5.00002) rotate(89.0811) scale(904.116 673.644)">
<stop stop-color="#FF4C33"/>
<stop offset="0.969249" stop-color="#FF4C33" stop-opacity="0"/>
</radialGradient>
<radialGradient id="paint49_radial_725_516" cx="0" cy="0" r="1" gradientUnits="userSpaceOnUse" gradientTransform="translate(756.501 -5.00002) rotate(89.0811) scale(904.116 673.644)">
<stop stop-color="#FF4C33"/>
<stop offset="0.969249" stop-color="#FF4C33" stop-opacity="0"/>
</radialGradient>
<radialGradient id="paint50_radial_725_516" cx="0" cy="0" r="1" gradientUnits="userSpaceOnUse" gradientTransform="translate(756.501 -5.00002) rotate(89.0811) scale(904.116 673.644)">
<stop stop-color="#FF4C33"/>
<stop offset="0.969249" stop-color="#FF4C33" stop-opacity="0"/>
</radialGradient>
<radialGradient id="paint51_radial_725_516" cx="0" cy="0" r="1" gradientUnits="userSpaceOnUse" gradientTransform="translate(756.501 -5.00002) rotate(89.0811) scale(904.116 673.644)">
<stop stop-color="#FF4C33"/>
<stop offset="0.969249" stop-color="#FF4C33" stop-opacity="0"/>
</radialGradient>
<radialGradient id="paint52_radial_725_516" cx="0" cy="0" r="1" gradientUnits="userSpaceOnUse" gradientTransform="translate(756.501 -5.00002) rotate(89.0811) scale(904.116 673.644)">
<stop stop-color="#FF4C33"/>
<stop offset="0.969249" stop-color="#FF4C33" stop-opacity="0"/>
</radialGradient>
<radialGradient id="paint53_radial_725_516" cx="0" cy="0" r="1" gradientUnits="userSpaceOnUse" gradientTransform="translate(756.501 -5.00002) rotate(89.0811) scale(904.116 673.644)">
<stop stop-color="#FF4C33"/>
<stop offset="0.969249" stop-color="#FF4C33" stop-opacity="0"/>
</radialGradient>
<radialGradient id="paint54_radial_725_516" cx="0" cy="0" r="1" gradientUnits="userSpaceOnUse" gradientTransform="translate(756.501 -5.00002) rotate(89.0811) scale(904.116 673.644)">
<stop stop-color="#FF4C33"/>
<stop offset="0.969249" stop-color="#FF4C33" stop-opacity="0"/>
</radialGradient>
<radialGradient id="paint55_radial_725_516" cx="0" cy="0" r="1" gradientUnits="userSpaceOnUse" gradientTransform="translate(756.501 -5.00002) rotate(89.0811) scale(904.116 673.644)">
<stop stop-color="#FF4C33"/>
<stop offset="0.969249" stop-color="#FF4C33" stop-opacity="0"/>
</radialGradient>
<radialGradient id="paint56_radial_725_516" cx="0" cy="0" r="1" gradientUnits="userSpaceOnUse" gradientTransform="translate(756.501 -5.00002) rotate(89.0811) scale(904.116 673.644)">
<stop stop-color="#FF4C33"/>
<stop offset="0.969249" stop-color="#FF4C33" stop-opacity="0"/>
</radialGradient>
<radialGradient id="paint57_radial_725_516" cx="0" cy="0" r="1" gradientUnits="userSpaceOnUse" gradientTransform="translate(756.501 -5.00002) rotate(89.0811) scale(904.116 673.644)">
<stop stop-color="#FF4C33"/>
<stop offset="0.969249" stop-color="#FF4C33" stop-opacity="0"/>
</radialGradient>
<radialGradient id="paint58_radial_725_516" cx="0" cy="0" r="1" gradientUnits="userSpaceOnUse" gradientTransform="translate(756.501 -5.00002) rotate(89.0811) scale(904.116 673.644)">
<stop stop-color="#FF4C33"/>
<stop offset="0.969249" stop-color="#FF4C33" stop-opacity="0"/>
</radialGradient>
<radialGradient id="paint59_radial_725_516" cx="0" cy="0" r="1" gradientUnits="userSpaceOnUse" gradientTransform="translate(756.501 -5.00002) rotate(89.0811) scale(904.116 673.644)">
<stop stop-color="#FF4C33"/>
<stop offset="0.969249" stop-color="#FF4C33" stop-opacity="0"/>
</radialGradient>
<radialGradient id="paint60_radial_725_516" cx="0" cy="0" r="1" gradientUnits="userSpaceOnUse" gradientTransform="translate(756.501 -5.00002) rotate(89.0811) scale(904.116 673.644)">
<stop stop-color="#FF4C33"/>
<stop offset="0.969249" stop-color="#FF4C33" stop-opacity="0"/>
</radialGradient>
<radialGradient id="paint61_radial_725_516" cx="0" cy="0" r="1" gradientUnits="userSpaceOnUse" gradientTransform="translate(756.501 -5.00002) rotate(89.0811) scale(904.116 673.644)">
<stop stop-color="#FF4C33"/>
<stop offset="0.969249" stop-color="#FF4C33" stop-opacity="0"/>
</radialGradient>
<radialGradient id="paint62_radial_725_516" cx="0" cy="0" r="1" gradientUnits="userSpaceOnUse" gradientTransform="translate(756.501 -5.00002) rotate(89.0811) scale(904.116 673.644)">
<stop stop-color="#FF4C33"/>
<stop offset="0.969249" stop-color="#FF4C33" stop-opacity="0"/>
</radialGradient>
<radialGradient id="paint63_radial_725_516" cx="0" cy="0" r="1" gradientUnits="userSpaceOnUse" gradientTransform="translate(756.501 -5.00002) rotate(89.0811) scale(904.116 673.644)">
<stop stop-color="#FF4C33"/>
<stop offset="0.969249" stop-color="#FF4C33" stop-opacity="0"/>
</radialGradient>
<radialGradient id="paint64_radial_725_516" cx="0" cy="0" r="1" gradientUnits="userSpaceOnUse" gradientTransform="translate(756.501 -5.00002) rotate(89.0811) scale(904.116 673.644)">
<stop stop-color="#FF4C33"/>
<stop offset="0.969249" stop-color="#FF4C33" stop-opacity="0"/>
</radialGradient>
<radialGradient id="paint65_radial_725_516" cx="0" cy="0" r="1" gradientUnits="userSpaceOnUse" gradientTransform="translate(756.501 -5.00002) rotate(89.0811) scale(904.116 673.644)">
<stop stop-color="#FF4C33"/>
<stop offset="0.969249" stop-color="#FF4C33" stop-opacity="0"/>
</radialGradient>
<radialGradient id="paint66_radial_725_516" cx="0" cy="0" r="1" gradientUnits="userSpaceOnUse" gradientTransform="translate(756.501 -5.00002) rotate(89.0811) scale(904.116 673.644)">
<stop stop-color="#FF4C33"/>
<stop offset="0.969249" stop-color="#FF4C33" stop-opacity="0"/>
</radialGradient>
<radialGradient id="paint67_radial_725_516" cx="0" cy="0" r="1" gradientUnits="userSpaceOnUse" gradientTransform="translate(756.501 -5.00002) rotate(89.0811) scale(904.116 673.644)">
<stop stop-color="#FF4C33"/>
<stop offset="0.969249" stop-color="#FF4C33" stop-opacity="0"/>
</radialGradient>
<radialGradient id="paint68_radial_725_516" cx="0" cy="0" r="1" gradientUnits="userSpaceOnUse" gradientTransform="translate(756.501 -5.00002) rotate(89.0811) scale(904.116 673.644)">
<stop stop-color="#FF4C33"/>
<stop offset="0.969249" stop-color="#FF4C33" stop-opacity="0"/>
</radialGradient>
<radialGradient id="paint69_radial_725_516" cx="0" cy="0" r="1" gradientUnits="userSpaceOnUse" gradientTransform="translate(756.501 -5.00002) rotate(89.0811) scale(904.116 673.644)">
<stop stop-color="#FF4C33"/>
<stop offset="0.969249" stop-color="#FF4C33" stop-opacity="0"/>
</radialGradient>
<radialGradient id="paint70_radial_725_516" cx="0" cy="0" r="1" gradientUnits="userSpaceOnUse" gradientTransform="translate(756.501 -5.00002) rotate(89.0811) scale(904.116 673.644)">
<stop stop-color="#FF4C33"/>
<stop offset="0.969249" stop-color="#FF4C33" stop-opacity="0"/>
</radialGradient>
<radialGradient id="paint71_radial_725_516" cx="0" cy="0" r="1" gradientUnits="userSpaceOnUse" gradientTransform="translate(756.501 -5.00002) rotate(89.0811) scale(904.116 673.644)">
<stop stop-color="#FF4C33"/>
<stop offset="0.969249" stop-color="#FF4C33" stop-opacity="0"/>
</radialGradient>
<radialGradient id="paint72_radial_725_516" cx="0" cy="0" r="1" gradientUnits="userSpaceOnUse" gradientTransform="translate(756.501 -5.00002) rotate(89.0811) scale(904.116 673.644)">
<stop stop-color="#FF4C33"/>
<stop offset="0.969249" stop-color="#FF4C33" stop-opacity="0"/>
</radialGradient>
<radialGradient id="paint73_radial_725_516" cx="0" cy="0" r="1" gradientUnits="userSpaceOnUse" gradientTransform="translate(756.501 -5.00002) rotate(89.0811) scale(904.116 673.644)">
<stop stop-color="#FF4C33"/>
<stop offset="0.969249" stop-color="#FF4C33" stop-opacity="0"/>
</radialGradient>
<radialGradient id="paint74_radial_725_516" cx="0" cy="0" r="1" gradientUnits="userSpaceOnUse" gradientTransform="translate(756.501 -5.00002) rotate(89.0811) scale(904.116 673.644)">
<stop stop-color="#FF4C33"/>
<stop offset="0.969249" stop-color="#FF4C33" stop-opacity="0"/>
</radialGradient>
<radialGradient id="paint75_radial_725_516" cx="0" cy="0" r="1" gradientUnits="userSpaceOnUse" gradientTransform="translate(756.501 -5.00002) rotate(89.0811) scale(904.116 673.644)">
<stop stop-color="#FF4C33"/>
<stop offset="0.969249" stop-color="#FF4C33" stop-opacity="0"/>
</radialGradient>
<radialGradient id="paint76_radial_725_516" cx="0" cy="0" r="1" gradientUnits="userSpaceOnUse" gradientTransform="translate(756.501 -5.00002) rotate(89.0811) scale(904.116 673.644)">
<stop stop-color="#FF4C33"/>
<stop offset="0.969249" stop-color="#FF4C33" stop-opacity="0"/>
</radialGradient>
<radialGradient id="paint77_radial_725_516" cx="0" cy="0" r="1" gradientUnits="userSpaceOnUse" gradientTransform="translate(756.501 -5.00002) rotate(89.0811) scale(904.116 673.644)">
<stop stop-color="#FF4C33"/>
<stop offset="0.969249" stop-color="#FF4C33" stop-opacity="0"/>
</radialGradient>
<radialGradient id="paint78_radial_725_516" cx="0" cy="0" r="1" gradientUnits="userSpaceOnUse" gradientTransform="translate(756.501 -5.00002) rotate(89.0811) scale(904.116 673.644)">
<stop stop-color="#FF4C33"/>
<stop offset="0.969249" stop-color="#FF4C33" stop-opacity="0"/>
</radialGradient>
<radialGradient id="paint79_radial_725_516" cx="0" cy="0" r="1" gradientUnits="userSpaceOnUse" gradientTransform="translate(756.501 -5.00002) rotate(89.0811) scale(904.116 673.644)">
<stop stop-color="#FF4C33"/>
<stop offset="0.969249" stop-color="#FF4C33" stop-opacity="0"/>
</radialGradient>
<radialGradient id="paint80_radial_725_516" cx="0" cy="0" r="1" gradientUnits="userSpaceOnUse" gradientTransform="translate(756.501 -5.00002) rotate(89.0811) scale(904.116 673.644)">
<stop stop-color="#FF4C33"/>
<stop offset="0.969249" stop-color="#FF4C33" stop-opacity="0"/>
</radialGradient>
<radialGradient id="paint81_radial_725_516" cx="0" cy="0" r="1" gradientUnits="userSpaceOnUse" gradientTransform="translate(756.501 -5.00002) rotate(89.0811) scale(904.116 673.644)">
<stop stop-color="#FF4C33"/>
<stop offset="0.969249" stop-color="#FF4C33" stop-opacity="0"/>
</radialGradient>
<radialGradient id="paint82_radial_725_516" cx="0" cy="0" r="1" gradientUnits="userSpaceOnUse" gradientTransform="translate(756.501 -5.00002) rotate(89.0811) scale(904.116 673.644)">
<stop stop-color="#FF4C33"/>
<stop offset="0.969249" stop-color="#FF4C33" stop-opacity="0"/>
</radialGradient>
<radialGradient id="paint83_radial_725_516" cx="0" cy="0" r="1" gradientUnits="userSpaceOnUse" gradientTransform="translate(756.501 -5.00002) rotate(89.0811) scale(904.116 673.644)">
<stop stop-color="#FF4C33"/>
<stop offset="0.969249" stop-color="#FF4C33" stop-opacity="0"/>
</radialGradient>
<radialGradient id="paint84_radial_725_516" cx="0" cy="0" r="1" gradientUnits="userSpaceOnUse" gradientTransform="translate(756.501 -5.00002) rotate(89.0811) scale(904.116 673.644)">
<stop stop-color="#FF4C33"/>
<stop offset="0.969249" stop-color="#FF4C33" stop-opacity="0"/>
</radialGradient>
<radialGradient id="paint85_radial_725_516" cx="0" cy="0" r="1" gradientUnits="userSpaceOnUse" gradientTransform="translate(756.501 -5.00002) rotate(89.0811) scale(904.116 673.644)">
<stop stop-color="#FF4C33"/>
<stop offset="0.969249" stop-color="#FF4C33" stop-opacity="0"/>
</radialGradient>
<radialGradient id="paint86_radial_725_516" cx="0" cy="0" r="1" gradientUnits="userSpaceOnUse" gradientTransform="translate(756.501 -5.00002) rotate(89.0811) scale(904.116 673.644)">
<stop stop-color="#FF4C33"/>
<stop offset="0.969249" stop-color="#FF4C33" stop-opacity="0"/>
</radialGradient>
<radialGradient id="paint87_radial_725_516" cx="0" cy="0" r="1" gradientUnits="userSpaceOnUse" gradientTransform="translate(756.501 -5.00002) rotate(89.0811) scale(904.116 673.644)">
<stop stop-color="#FF4C33"/>
<stop offset="0.969249" stop-color="#FF4C33" stop-opacity="0"/>
</radialGradient>
<radialGradient id="paint88_radial_725_516" cx="0" cy="0" r="1" gradientUnits="userSpaceOnUse" gradientTransform="translate(756.501 -5.00002) rotate(89.0811) scale(904.116 673.644)">
<stop stop-color="#FF4C33"/>
<stop offset="0.969249" stop-color="#FF4C33" stop-opacity="0"/>
</radialGradient>
<radialGradient id="paint89_radial_725_516" cx="0" cy="0" r="1" gradientUnits="userSpaceOnUse" gradientTransform="translate(756.501 -5.00002) rotate(89.0811) scale(904.116 673.644)">
<stop stop-color="#FF4C33"/>
<stop offset="0.969249" stop-color="#FF4C33" stop-opacity="0"/>
</radialGradient>
<radialGradient id="paint90_radial_725_516" cx="0" cy="0" r="1" gradientUnits="userSpaceOnUse" gradientTransform="translate(756.501 -5.00002) rotate(89.0811) scale(904.116 673.644)">
<stop stop-color="#FF4C33"/>
<stop offset="0.969249" stop-color="#FF4C33" stop-opacity="0"/>
</radialGradient>
<radialGradient id="paint91_radial_725_516" cx="0" cy="0" r="1" gradientUnits="userSpaceOnUse" gradientTransform="translate(756.501 -5.00002) rotate(89.0811) scale(904.116 673.644)">
<stop stop-color="#FF4C33"/>
<stop offset="0.969249" stop-color="#FF4C33" stop-opacity="0"/>
</radialGradient>
<radialGradient id="paint92_radial_725_516" cx="0" cy="0" r="1" gradientUnits="userSpaceOnUse" gradientTransform="translate(756.501 -5.00002) rotate(89.0811) scale(904.116 673.644)">
<stop stop-color="#FF4C33"/>
<stop offset="0.969249" stop-color="#FF4C33" stop-opacity="0"/>
</radialGradient>
<radialGradient id="paint93_radial_725_516" cx="0" cy="0" r="1" gradientUnits="userSpaceOnUse" gradientTransform="translate(756.501 -5.00002) rotate(89.0811) scale(904.116 673.644)">
<stop stop-color="#FF4C33"/>
<stop offset="0.969249" stop-color="#FF4C33" stop-opacity="0"/>
</radialGradient>
<radialGradient id="paint94_radial_725_516" cx="0" cy="0" r="1" gradientUnits="userSpaceOnUse" gradientTransform="translate(756.501 -5.00002) rotate(89.0811) scale(904.116 673.644)">
<stop stop-color="#FF4C33"/>
<stop offset="0.969249" stop-color="#FF4C33" stop-opacity="0"/>
</radialGradient>
<radialGradient id="paint95_radial_725_516" cx="0" cy="0" r="1" gradientUnits="userSpaceOnUse" gradientTransform="translate(756.501 -5.00002) rotate(89.0811) scale(904.116 673.644)">
<stop stop-color="#FF4C33"/>
<stop offset="0.969249" stop-color="#FF4C33" stop-opacity="0"/>
</radialGradient>
<radialGradient id="paint96_radial_725_516" cx="0" cy="0" r="1" gradientUnits="userSpaceOnUse" gradientTransform="translate(756.501 -5.00002) rotate(89.0811) scale(904.116 673.644)">
<stop stop-color="#FF4C33"/>
<stop offset="0.969249" stop-color="#FF4C33" stop-opacity="0"/>
</radialGradient>
<radialGradient id="paint97_radial_725_516" cx="0" cy="0" r="1" gradientUnits="userSpaceOnUse" gradientTransform="translate(756.501 -5.00002) rotate(89.0811) scale(904.116 673.644)">
<stop stop-color="#FF4C33"/>
<stop offset="0.969249" stop-color="#FF4C33" stop-opacity="0"/>
</radialGradient>
<radialGradient id="paint98_radial_725_516" cx="0" cy="0" r="1" gradientUnits="userSpaceOnUse" gradientTransform="translate(756.501 -5.00002) rotate(89.0811) scale(904.116 673.644)">
<stop stop-color="#FF4C33"/>
<stop offset="0.969249" stop-color="#FF4C33" stop-opacity="0"/>
</radialGradient>
<radialGradient id="paint99_radial_725_516" cx="0" cy="0" r="1" gradientUnits="userSpaceOnUse" gradientTransform="translate(756.501 -5.00002) rotate(89.0811) scale(904.116 673.644)">
<stop stop-color="#FF4C33"/>
<stop offset="0.969249" stop-color="#FF4C33" stop-opacity="0"/>
</radialGradient>
<radialGradient id="paint100_radial_725_516" cx="0" cy="0" r="1" gradientUnits="userSpaceOnUse" gradientTransform="translate(756.501 -5.00002) rotate(89.0811) scale(904.116 673.644)">
<stop stop-color="#FF4C33"/>
<stop offset="0.969249" stop-color="#FF4C33" stop-opacity="0"/>
</radialGradient>
<radialGradient id="paint101_radial_725_516" cx="0" cy="0" r="1" gradientUnits="userSpaceOnUse" gradientTransform="translate(756.501 -5.00002) rotate(89.0811) scale(904.116 673.644)">
<stop stop-color="#FF4C33"/>
<stop offset="0.969249" stop-color="#FF4C33" stop-opacity="0"/>
</radialGradient>
<radialGradient id="paint102_radial_725_516" cx="0" cy="0" r="1" gradientUnits="userSpaceOnUse" gradientTransform="translate(756.501 -5.00002) rotate(89.0811) scale(904.116 673.644)">
<stop stop-color="#FF4C33"/>
<stop offset="0.969249" stop-color="#FF4C33" stop-opacity="0"/>
</radialGradient>
<radialGradient id="paint103_radial_725_516" cx="0" cy="0" r="1" gradientUnits="userSpaceOnUse" gradientTransform="translate(756.501 -5.00002) rotate(89.0811) scale(904.116 673.644)">
<stop stop-color="#FF4C33"/>
<stop offset="0.969249" stop-color="#FF4C33" stop-opacity="0"/>
</radialGradient>
<radialGradient id="paint104_radial_725_516" cx="0" cy="0" r="1" gradientUnits="userSpaceOnUse" gradientTransform="translate(756.501 -5.00002) rotate(89.0811) scale(904.116 673.644)">
<stop stop-color="#FF4C33"/>
<stop offset="0.969249" stop-color="#FF4C33" stop-opacity="0"/>
</radialGradient>
<radialGradient id="paint105_radial_725_516" cx="0" cy="0" r="1" gradientUnits="userSpaceOnUse" gradientTransform="translate(756.501 -5.00002) rotate(89.0811) scale(904.116 673.644)">
<stop stop-color="#FF4C33"/>
<stop offset="0.969249" stop-color="#FF4C33" stop-opacity="0"/>
</radialGradient>
<radialGradient id="paint106_radial_725_516" cx="0" cy="0" r="1" gradientUnits="userSpaceOnUse" gradientTransform="translate(756.501 -5.00002) rotate(89.0811) scale(904.116 673.644)">
<stop stop-color="#FF4C33"/>
<stop offset="0.969249" stop-color="#FF4C33" stop-opacity="0"/>
</radialGradient>
<radialGradient id="paint107_radial_725_516" cx="0" cy="0" r="1" gradientUnits="userSpaceOnUse" gradientTransform="translate(756.501 -5.00002) rotate(89.0811) scale(904.116 673.644)">
<stop stop-color="#FF4C33"/>
<stop offset="0.969249" stop-color="#FF4C33" stop-opacity="0"/>
</radialGradient>
<radialGradient id="paint108_radial_725_516" cx="0" cy="0" r="1" gradientUnits="userSpaceOnUse" gradientTransform="translate(756.501 -5.00002) rotate(89.0811) scale(904.116 673.644)">
<stop stop-color="#FF4C33"/>
<stop offset="0.969249" stop-color="#FF4C33" stop-opacity="0"/>
</radialGradient>
<radialGradient id="paint109_radial_725_516" cx="0" cy="0" r="1" gradientUnits="userSpaceOnUse" gradientTransform="translate(756.501 -5.00002) rotate(89.0811) scale(904.116 673.644)">
<stop stop-color="#FF4C33"/>
<stop offset="0.969249" stop-color="#FF4C33" stop-opacity="0"/>
</radialGradient>
<radialGradient id="paint110_radial_725_516" cx="0" cy="0" r="1" gradientUnits="userSpaceOnUse" gradientTransform="translate(756.501 -5.00002) rotate(89.0811) scale(904.116 673.644)">
<stop stop-color="#FF4C33"/>
<stop offset="0.969249" stop-color="#FF4C33" stop-opacity="0"/>
</radialGradient>
<radialGradient id="paint111_radial_725_516" cx="0" cy="0" r="1" gradientUnits="userSpaceOnUse" gradientTransform="translate(756.501 -5.00002) rotate(89.0811) scale(904.116 673.644)">
<stop stop-color="#FF4C33"/>
<stop offset="0.969249" stop-color="#FF4C33" stop-opacity="0"/>
</radialGradient>
<radialGradient id="paint112_radial_725_516" cx="0" cy="0" r="1" gradientUnits="userSpaceOnUse" gradientTransform="translate(756.501 -5.00002) rotate(89.0811) scale(904.116 673.644)">
<stop stop-color="#FF4C33"/>
<stop offset="0.969249" stop-color="#FF4C33" stop-opacity="0"/>
</radialGradient>
<radialGradient id="paint113_radial_725_516" cx="0" cy="0" r="1" gradientUnits="userSpaceOnUse" gradientTransform="translate(756.501 -5.00002) rotate(89.0811) scale(904.116 673.644)">
<stop stop-color="#FF4C33"/>
<stop offset="0.969249" stop-color="#FF4C33" stop-opacity="0"/>
</radialGradient>
<radialGradient id="paint114_radial_725_516" cx="0" cy="0" r="1" gradientUnits="userSpaceOnUse" gradientTransform="translate(756.501 -5.00002) rotate(89.0811) scale(904.116 673.644)">
<stop stop-color="#FF4C33"/>
<stop offset="0.969249" stop-color="#FF4C33" stop-opacity="0"/>
</radialGradient>
<radialGradient id="paint115_radial_725_516" cx="0" cy="0" r="1" gradientUnits="userSpaceOnUse" gradientTransform="translate(756.501 -5.00002) rotate(89.0811) scale(904.116 673.644)">
<stop stop-color="#FF4C33"/>
<stop offset="0.969249" stop-color="#FF4C33" stop-opacity="0"/>
</radialGradient>
<radialGradient id="paint116_radial_725_516" cx="0" cy="0" r="1" gradientUnits="userSpaceOnUse" gradientTransform="translate(756.501 -5.00002) rotate(89.0811) scale(904.116 673.644)">
<stop stop-color="#FF4C33"/>
<stop offset="0.969249" stop-color="#FF4C33" stop-opacity="0"/>
</radialGradient>
<radialGradient id="paint117_radial_725_516" cx="0" cy="0" r="1" gradientUnits="userSpaceOnUse" gradientTransform="translate(756.501 -5.00002) rotate(89.0811) scale(904.116 673.644)">
<stop stop-color="#FF4C33"/>
<stop offset="0.969249" stop-color="#FF4C33" stop-opacity="0"/>
</radialGradient>
<radialGradient id="paint118_radial_725_516" cx="0" cy="0" r="1" gradientUnits="userSpaceOnUse" gradientTransform="translate(756.501 -5.00002) rotate(89.0811) scale(904.116 673.644)">
<stop stop-color="#FF4C33"/>
<stop offset="0.969249" stop-color="#FF4C33" stop-opacity="0"/>
</radialGradient>
<radialGradient id="paint119_radial_725_516" cx="0" cy="0" r="1" gradientUnits="userSpaceOnUse" gradientTransform="translate(756.501 -5.00002) rotate(89.0811) scale(904.116 673.644)">
<stop stop-color="#FF4C33"/>
<stop offset="0.969249" stop-color="#FF4C33" stop-opacity="0"/>
</radialGradient>
<radialGradient id="paint120_radial_725_516" cx="0" cy="0" r="1" gradientUnits="userSpaceOnUse" gradientTransform="translate(756.501 -5.00002) rotate(89.0811) scale(904.116 673.644)">
<stop stop-color="#FF4C33"/>
<stop offset="0.969249" stop-color="#FF4C33" stop-opacity="0"/>
</radialGradient>
<radialGradient id="paint121_radial_725_516" cx="0" cy="0" r="1" gradientUnits="userSpaceOnUse" gradientTransform="translate(756.501 -5.00002) rotate(89.0811) scale(904.116 673.644)">
<stop stop-color="#FF4C33"/>
<stop offset="0.969249" stop-color="#FF4C33" stop-opacity="0"/>
</radialGradient>
<radialGradient id="paint122_radial_725_516" cx="0" cy="0" r="1" gradientUnits="userSpaceOnUse" gradientTransform="translate(756.501 -5.00002) rotate(89.0811) scale(904.116 673.644)">
<stop stop-color="#FF4C33"/>
<stop offset="0.969249" stop-color="#FF4C33" stop-opacity="0"/>
</radialGradient>
<radialGradient id="paint123_radial_725_516" cx="0" cy="0" r="1" gradientUnits="userSpaceOnUse" gradientTransform="translate(756.501 -5.00002) rotate(89.0811) scale(904.116 673.644)">
<stop stop-color="#FF4C33"/>
<stop offset="0.969249" stop-color="#FF4C33" stop-opacity="0"/>
</radialGradient>
<radialGradient id="paint124_radial_725_516" cx="0" cy="0" r="1" gradientUnits="userSpaceOnUse" gradientTransform="translate(756.501 -5.00002) rotate(89.0811) scale(904.116 673.644)">
<stop stop-color="#FF4C33"/>
<stop offset="0.969249" stop-color="#FF4C33" stop-opacity="0"/>
</radialGradient>
<radialGradient id="paint125_radial_725_516" cx="0" cy="0" r="1" gradientUnits="userSpaceOnUse" gradientTransform="translate(756.501 -5.00002) rotate(89.0811) scale(904.116 673.644)">
<stop stop-color="#FF4C33"/>
<stop offset="0.969249" stop-color="#FF4C33" stop-opacity="0"/>
</radialGradient>
<radialGradient id="paint126_radial_725_516" cx="0" cy="0" r="1" gradientUnits="userSpaceOnUse" gradientTransform="translate(756.501 -5.00002) rotate(89.0811) scale(904.116 673.644)">
<stop stop-color="#FF4C33"/>
<stop offset="0.969249" stop-color="#FF4C33" stop-opacity="0"/>
</radialGradient>
<radialGradient id="paint127_radial_725_516" cx="0" cy="0" r="1" gradientUnits="userSpaceOnUse" gradientTransform="translate(756.501 -5.00002) rotate(89.0811) scale(904.116 673.644)">
<stop stop-color="#FF4C33"/>
<stop offset="0.969249" stop-color="#FF4C33" stop-opacity="0"/>
</radialGradient>
<linearGradient id="paint128_linear_725_516" x1="376.5" y1="165" x2="273.5" y2="282" gradientUnits="userSpaceOnUse">
<stop stop-color="#43AA8B" stop-opacity="0"/>
<stop offset="1" stop-color="#43AA8B" stop-opacity="0.06"/>
</linearGradient>
<linearGradient id="paint129_linear_725_516" x1="271" y1="283" x2="339.5" y2="221.5" gradientUnits="userSpaceOnUse">
<stop stop-color="#FF4C33"/>
<stop offset="1" stop-color="#FF4C33" stop-opacity="0"/>
</linearGradient>
<linearGradient id="paint130_linear_725_516" x1="97" y1="111" x2="2.50001" y2="220" gradientUnits="userSpaceOnUse">
<stop stop-color="#43AA8B" stop-opacity="0"/>
<stop offset="1" stop-color="#43AA8B" stop-opacity="0.06"/>
</linearGradient>
<linearGradient id="paint131_linear_725_516" x1="105.5" y1="103" x2="2.50002" y2="220" gradientUnits="userSpaceOnUse">
<stop stop-color="#43AA8B" stop-opacity="0"/>
<stop offset="1" stop-color="#43AA8B" stop-opacity="0.06"/>
</linearGradient>
<linearGradient id="paint132_linear_725_516" x1="376.5" y1="607" x2="273.5" y2="724" gradientUnits="userSpaceOnUse">
<stop stop-color="#43AA8B" stop-opacity="0"/>
<stop offset="1" stop-color="#43AA8B" stop-opacity="0.06"/>
</linearGradient>
<linearGradient id="paint133_linear_725_516" x1="271" y1="283" x2="202.5" y2="344.5" gradientUnits="userSpaceOnUse">
<stop stop-color="#FF4C33"/>
<stop offset="1" stop-color="#FF4C33" stop-opacity="0"/>
</linearGradient>
<linearGradient id="paint134_linear_725_516" x1="1250.5" y1="358" x2="1147.5" y2="475" gradientUnits="userSpaceOnUse">
<stop stop-color="#43AA8B" stop-opacity="0"/>
<stop offset="1" stop-color="#43AA8B" stop-opacity="0.06"/>
</linearGradient>
<linearGradient id="paint135_linear_725_516" x1="1145" y1="476" x2="1213.5" y2="414.5" gradientUnits="userSpaceOnUse">
<stop stop-color="#FF4C33"/>
<stop offset="1" stop-color="#FF4C33" stop-opacity="0"/>
</linearGradient>
<linearGradient id="paint136_linear_725_516" x1="105.5" y1="103" x2="2.50002" y2="220" gradientUnits="userSpaceOnUse">
<stop stop-color="#43AA8B" stop-opacity="0"/>
<stop offset="1" stop-color="#43AA8B" stop-opacity="0.06"/>
</linearGradient>
<linearGradient id="paint137_linear_725_516" x1="105.5" y1="103" x2="2.50002" y2="220" gradientUnits="userSpaceOnUse">
<stop stop-color="#43AA8B" stop-opacity="0"/>
<stop offset="1" stop-color="#43AA8B" stop-opacity="0.06"/>
</linearGradient>
<linearGradient id="paint138_linear_725_516" x1="1250.5" y1="800" x2="1147.5" y2="917" gradientUnits="userSpaceOnUse">
<stop stop-color="#43AA8B" stop-opacity="0"/>
<stop offset="1" stop-color="#43AA8B" stop-opacity="0.06"/>
</linearGradient>
<linearGradient id="paint139_linear_725_516" x1="1145" y1="476" x2="1076.5" y2="537.5" gradientUnits="userSpaceOnUse">
<stop stop-color="#FF4C33"/>
<stop offset="1" stop-color="#FF4C33" stop-opacity="0"/>
</linearGradient>
</defs>
</svg>
