<svg width="283" height="108" viewBox="0 0 283 108" fill="none" xmlns="http://www.w3.org/2000/svg">
<mask id="path-1-inside-1_140_1942" fill="white">
<path d="M0 12C0 5.37258 5.37258 0 12 0H270.75C277.377 0 282.75 5.37258 282.75 12V96C282.75 102.627 277.377 108 270.75 108H12C5.37258 108 0 102.627 0 96V12Z"/>
</mask>
<path d="M0 12C0 5.37258 5.37258 0 12 0H270.75C277.377 0 282.75 5.37258 282.75 12V96C282.75 102.627 277.377 108 270.75 108H12C5.37258 108 0 102.627 0 96V12Z" fill="#F7F7F7"/>
<path d="M12 0V1H270.75V0V-1H12V0ZM282.75 12H281.75V96H282.75H283.75V12H282.75ZM270.75 108V107H12V108V109H270.75V108ZM0 96H1V12H0H-1V96H0ZM12 108V107C5.92486 107 1 102.075 1 96H0H-1C-1 103.18 4.82029 109 12 109V108ZM282.75 96H281.75C281.75 102.075 276.825 107 270.75 107V108V109C277.93 109 283.75 103.18 283.75 96H282.75ZM270.75 0V1C276.825 1 281.75 5.92487 281.75 12H282.75H283.75C283.75 4.8203 277.93 -1 270.75 -1V0ZM12 0V-1C4.8203 -1 -1 4.8203 -1 12H0H1C1 5.92487 5.92487 1 12 1V0Z" fill="#DCDAD9" mask="url(#path-1-inside-1_140_1942)"/>
<g clip-path="url(#clip0_140_1942)">
<path d="M160.426 62.6027V39.5879H165.052V62.6027H160.426Z" fill="#160704"/>
<path d="M106.513 69.4391H96.5957V46.4243H106.114C110.74 46.4243 113.436 48.9455 113.436 52.8893C113.436 55.4422 111.705 57.0919 110.507 57.6412C111.937 58.2874 113.768 59.7416 113.768 62.8139C113.768 67.1116 110.74 69.4391 106.513 69.4391ZM105.748 50.4332H101.222V55.7344H105.748C107.711 55.7344 108.81 54.6675 108.81 53.083C108.81 51.5001 107.711 50.4332 105.748 50.4332ZM106.047 59.7751H101.222V65.4319H106.047C108.145 65.4319 109.142 64.1397 109.142 62.5868C109.142 61.0357 108.143 59.7751 106.047 59.7751Z" fill="#160704"/>
<path d="M127.877 60.0004V69.4391H123.283V60.0004L116.161 46.4243H121.186L125.613 55.701L129.972 46.4243H134.997L127.877 60.0004Z" fill="#160704"/>
<path d="M148.112 69.4391H138.194V46.4243H147.713C152.339 46.4243 155.035 48.9455 155.035 52.8893C155.035 55.4422 153.303 57.0919 152.105 57.6412C153.535 58.2874 155.366 59.7416 155.366 62.8139C155.366 67.1116 152.339 69.4391 148.112 69.4391ZM147.347 50.4332H142.82V55.7344H147.347C149.31 55.7344 150.409 54.6675 150.409 53.083C150.409 51.5001 149.31 50.4332 147.347 50.4332ZM147.646 59.7751H142.82V65.4319H147.646C149.743 65.4319 150.74 64.1397 150.74 62.5868C150.74 61.0357 149.743 59.7751 147.646 59.7751Z" fill="#160704"/>
<path d="M179.963 50.4332V69.4408H175.337V50.4332H169.146V46.4243H186.154V50.4332H179.963Z" fill="#160704"/>
</g>
<defs>
<clipPath id="clip0_140_1942">
<rect width="89.5588" height="35" fill="white" transform="translate(96.5957 36.5)"/>
</clipPath>
</defs>
</svg>
