<svg width="283" height="108" viewBox="0 0 283 108" fill="none" xmlns="http://www.w3.org/2000/svg">
<mask id="path-1-inside-1_140_1944" fill="white">
<path d="M0 12C0 5.37258 5.37258 0 12 0H270.75C277.377 0 282.75 5.37258 282.75 12V96C282.75 102.627 277.377 108 270.75 108H12C5.37258 108 0 102.627 0 96V12Z"/>
</mask>
<path d="M0 12C0 5.37258 5.37258 0 12 0H270.75C277.377 0 282.75 5.37258 282.75 12V96C282.75 102.627 277.377 108 270.75 108H12C5.37258 108 0 102.627 0 96V12Z" fill="#F7F7F7"/>
<path d="M12 0V1H270.75V0V-1H12V0ZM282.75 12H281.75V96H282.75H283.75V12H282.75ZM270.75 108V107H12V108V109H270.75V108ZM0 96H1V12H0H-1V96H0ZM12 108V107C5.92486 107 1 102.075 1 96H0H-1C-1 103.18 4.82029 109 12 109V108ZM282.75 96H281.75C281.75 102.075 276.825 107 270.75 107V108V109C277.93 109 283.75 103.18 283.75 96H282.75ZM270.75 0V1C276.825 1 281.75 5.92487 281.75 12H282.75H283.75C283.75 4.8203 277.93 -1 270.75 -1V0ZM12 0V-1C4.8203 -1 -1 4.8203 -1 12H0H1C1 5.92487 5.92487 1 12 1V0Z" fill="#DCDAD9" mask="url(#path-1-inside-1_140_1944)"/>
<path d="M124.837 42H101.904C101.763 42 101.627 42.0561 101.527 42.1562C101.427 42.2562 101.371 42.3918 101.371 42.5334V65.4663C101.371 65.6078 101.427 65.7434 101.527 65.8434C101.627 65.9435 101.763 65.9996 101.904 65.9996H124.837C124.979 65.9996 125.115 65.9435 125.214 65.8434C125.315 65.7434 125.371 65.6078 125.371 65.4663V42.5334C125.371 42.3918 125.315 42.2562 125.214 42.1562C125.115 42.0561 124.979 42 124.837 42ZM117.371 57.4664C117.371 57.6079 117.315 57.7435 117.215 57.8436C117.115 57.9436 116.979 57.9998 116.838 57.9998H109.904C109.763 57.9998 109.627 57.9436 109.527 57.8436C109.427 57.7435 109.371 57.6079 109.371 57.4664V50.5332C109.371 50.3917 109.427 50.2561 109.527 50.1561C109.627 50.056 109.763 49.9999 109.904 49.9999H116.838C116.979 49.9999 117.115 50.056 117.215 50.1561C117.315 50.2561 117.371 50.3917 117.371 50.5332V57.4664Z" fill="#160704"/>
<path d="M172.848 50.001H165.915C165.621 50.001 165.382 50.2397 165.382 50.5342V57.4675C165.382 57.7621 165.621 58.0009 165.915 58.0009H172.848C173.143 58.0009 173.382 57.7621 173.382 57.4675V50.5342C173.382 50.2397 173.143 50.001 172.848 50.001Z" fill="#160704"/>
<path d="M164.845 42.001H157.912C157.618 42.001 157.379 42.2397 157.379 42.5343V49.4675C157.379 49.7621 157.618 50.0009 157.912 50.0009H164.845C165.14 50.0009 165.379 49.7621 165.379 49.4675V42.5343C165.379 42.2397 165.14 42.001 164.845 42.001Z" fill="#160704"/>
<path d="M180.846 42.001H173.912C173.618 42.001 173.379 42.2397 173.379 42.5343V49.4675C173.379 49.7621 173.618 50.0009 173.912 50.0009H180.846C181.14 50.0009 181.379 49.7621 181.379 49.4675V42.5343C181.379 42.2397 181.14 42.001 180.846 42.001Z" fill="#160704"/>
<path d="M164.845 58H157.912C157.618 58 157.379 58.2387 157.379 58.5333V65.4665C157.379 65.7611 157.618 65.9999 157.912 65.9999H164.845C165.14 65.9999 165.379 65.7611 165.379 65.4665V58.5333C165.379 58.2387 165.14 58 164.845 58Z" fill="#160704"/>
<path d="M180.846 58H173.912C173.618 58 173.379 58.2387 173.379 58.5333V65.4665C173.379 65.7611 173.618 65.9999 173.912 65.9999H180.846C181.14 65.9999 181.379 65.7611 181.379 65.4665V58.5333C181.379 58.2387 181.14 58 180.846 58Z" fill="#160704"/>
<path d="M152.837 42.001H145.903C145.609 42.001 145.37 42.2397 145.37 42.5343V49.4675C145.37 49.7621 145.609 50.0009 145.903 50.0009H152.837C153.131 50.0009 153.37 49.7621 153.37 49.4675V42.5343C153.37 42.2397 153.131 42.001 152.837 42.001Z" fill="#160704"/>
<path d="M152.837 58H145.903C145.609 58 145.37 58.2387 145.37 58.5333V65.4665C145.37 65.7611 145.609 65.9999 145.903 65.9999H152.837C153.131 65.9999 153.37 65.7611 153.37 65.4665V58.5333C153.37 58.2387 153.131 58 152.837 58Z" fill="#160704"/>
<path d="M145.369 50.5272C145.369 50.3857 145.313 50.2501 145.213 50.1501C145.113 50.05 144.977 49.9939 144.836 49.9939H137.369V42.5334C137.369 42.3918 137.313 42.2562 137.213 42.1562C137.113 42.0561 136.977 42 136.836 42H129.903C129.761 42 129.625 42.0561 129.525 42.1562C129.425 42.2562 129.369 42.3918 129.369 42.5334V65.4543C129.369 65.5958 129.425 65.7314 129.525 65.8314C129.625 65.9315 129.761 65.9876 129.903 65.9876H136.836C136.977 65.9876 137.113 65.9315 137.213 65.8314C137.313 65.7314 137.369 65.5958 137.369 65.4543V57.9938H144.836C144.977 57.9938 145.113 57.9376 145.213 57.8376C145.313 57.7375 145.369 57.6019 145.369 57.4604V50.5272Z" fill="#160704"/>
</svg>
