<svg width="283" height="108" viewBox="0 0 283 108" fill="none" xmlns="http://www.w3.org/2000/svg">
<mask id="path-1-inside-1_140_1953" fill="white">
<path d="M0 12C0 5.37258 5.37258 0 12 0H270.75C277.377 0 282.75 5.37258 282.75 12V96C282.75 102.627 277.377 108 270.75 108H12C5.37258 108 0 102.627 0 96V12Z"/>
</mask>
<path d="M0 12C0 5.37258 5.37258 0 12 0H270.75C277.377 0 282.75 5.37258 282.75 12V96C282.75 102.627 277.377 108 270.75 108H12C5.37258 108 0 102.627 0 96V12Z" fill="#F7F7F7"/>
<path d="M12 0V1H270.75V0V-1H12V0ZM282.75 12H281.75V96H282.75H283.75V12H282.75ZM270.75 108V107H12V108V109H270.75V108ZM0 96H1V12H0H-1V96H0ZM12 108V107C5.92486 107 1 102.075 1 96H0H-1C-1 103.18 4.82029 109 12 109V108ZM282.75 96H281.75C281.75 102.075 276.825 107 270.75 107V108V109C277.93 109 283.75 103.18 283.75 96H282.75ZM270.75 0V1C276.825 1 281.75 5.92487 281.75 12H282.75H283.75C283.75 4.8203 277.93 -1 270.75 -1V0ZM12 0V-1C4.8203 -1 -1 4.8203 -1 12H0H1C1 5.92487 5.92487 1 12 1V0Z" fill="#DCDAD9" mask="url(#path-1-inside-1_140_1953)"/>
<path d="M129.554 53.5121C130.377 53.0447 131.036 52.4627 131.516 51.7765C132.063 50.9951 132.341 50.1027 132.341 49.1254C132.341 47.2957 131.657 45.8677 130.309 44.8801C128.977 43.904 127.145 43.4097 124.861 43.4097H116.603V64.6027H125.191C127.596 64.6027 129.522 64.0435 130.915 62.9397C132.318 61.8267 133.031 60.268 133.031 58.306C133.031 57.1118 132.696 56.0841 132.036 55.2524C131.443 54.5088 130.609 53.9239 129.554 53.5121ZM121.072 47.2293H124.502C125.578 47.2293 126.39 47.4378 126.917 47.848C127.439 48.2529 127.692 48.7851 127.692 49.4742C127.692 50.1633 127.439 50.7224 126.917 51.1291C126.39 51.5393 125.578 51.7478 124.502 51.7478H121.072V47.2293ZM127.529 60.0647C126.935 60.5413 126.027 60.7825 124.831 60.7825H121.072V55.596H124.831C126.026 55.596 126.935 55.8292 127.532 56.2869C128.124 56.7435 128.411 57.3461 128.411 58.1314C128.411 58.9574 128.123 59.5893 127.529 60.0647Z" fill="#160704"/>
<path d="M139.068 48.7544H134.569V64.6012H139.068V48.7544Z" fill="#160704"/>
<path d="M183.505 51.1384C182.793 50.2906 181.9 49.6261 180.852 49.1627C179.805 48.6999 178.627 48.4639 177.353 48.4639C175.792 48.4639 174.383 48.8184 173.165 49.5173C171.944 50.2184 170.976 51.1923 170.285 52.4136C169.594 53.6337 169.244 55.0497 169.244 56.6209C169.244 58.1922 169.584 59.7016 170.253 60.9406C170.925 62.1837 171.89 63.1586 173.122 63.8409C174.351 64.5192 175.795 64.8634 177.413 64.8634C179.4 64.8634 181.086 64.3639 182.427 63.3781C183.718 62.4295 184.606 61.0914 185.089 59.4164H180.56C180.321 59.9863 179.986 60.4715 179.505 60.8135C178.937 61.2168 178.203 61.4213 177.323 61.4213C176.56 61.4213 175.907 61.2357 175.38 60.8702C174.851 60.5048 174.448 59.9645 174.182 59.2629C174.023 58.8458 173.91 58.3663 173.844 57.8331H185.168L185.191 57.6921C185.393 56.4141 185.342 55.2032 185.037 54.0931C184.732 52.9801 184.216 51.9862 183.505 51.1384ZM173.916 54.899C173.985 54.5765 174.078 54.2409 174.197 53.9349C174.473 53.2241 174.872 52.677 175.383 52.3116C175.891 51.9461 176.524 51.7616 177.264 51.7616C178.192 51.7616 178.953 52.0624 179.527 52.6542C180.071 53.2172 180.38 53.9865 180.446 54.899H173.916Z" fill="#160704"/>
<path d="M139.162 43.4092H134.476V47.2288H139.162V43.4092Z" fill="#160704"/>
<path d="M163.8 50.553C163.268 49.9136 162.644 49.4182 161.941 49.0756C161.101 48.6695 160.118 48.4639 159.02 48.4639C157.676 48.4639 156.471 48.7955 155.44 49.4486C154.41 50.101 153.593 51.0233 153.012 52.1878C152.434 53.3495 152.141 54.7134 152.141 56.2434C152.141 57.7735 152.449 59.0572 153.059 60.2269C153.67 61.4007 154.516 62.3355 155.575 63.0068C156.636 63.68 157.845 64.0214 159.171 64.0214C160.172 64.0214 161.086 63.8048 161.887 63.3769C162.521 63.0384 163.052 62.5904 163.471 62.0433V63.7687C163.471 64.8381 163.189 65.6591 162.637 66.2061C162.082 66.7532 161.239 67.0293 160.13 67.0293C159.174 67.0293 158.423 66.8128 157.897 66.3848C157.467 66.0348 157.091 65.5755 157.003 64.6028H152.666C152.706 65.9638 153.106 66.8809 153.67 67.6846C154.303 68.5851 155.193 69.2891 156.318 69.7754C157.432 70.256 158.725 70.5 160.16 70.5C162.569 70.5 164.487 69.8946 165.859 68.7019C167.239 67.5024 167.939 65.8229 167.939 63.7109V48.7548H163.8V50.553ZM163.008 58.3486C162.723 58.9375 162.32 59.3992 161.809 59.7188C161.3 60.0384 160.684 60.2012 159.98 60.2012C158.961 60.2012 158.17 59.8546 157.558 59.1408C156.948 58.4311 156.64 57.4561 156.64 56.2429C156.64 55.0296 156.948 54.0546 157.558 53.3438C158.162 52.6398 158.977 52.2835 159.98 52.2835C160.983 52.2835 161.869 52.6449 162.492 53.3598C163.121 54.0804 163.44 55.0606 163.44 56.2709C163.44 57.0552 163.295 57.7539 163.008 58.3486Z" fill="#160704"/>
<path d="M196.083 52.5452V48.7554H192.836V43.4092H188.366V48.7554H185.593V52.5452H188.366V58.7489C188.366 62.198 189.046 64.7327 193.28 64.6542L195.939 64.6022V61.0489H194.62C192.738 61.0489 192.842 59.9513 192.842 57.9133L192.835 52.5452H196.083Z" fill="#160704"/>
<path d="M151.048 52.5447V48.7549H147.8V43.4087H143.331V48.7549H140.558V52.5447H143.331V58.7485C143.331 62.1975 144.011 64.7323 148.245 64.6538L150.904 64.6016V61.0484H149.585C147.702 61.0484 147.807 59.9509 147.807 57.9127L147.8 52.5447H151.048Z" fill="#160704"/>
<path d="M97.885 47.2286H104.634L111.537 54.0882C111.986 54.5344 111.989 55.2603 111.542 55.7088L102.688 64.6071H95.7363L97.8381 62.5638L105.555 54.8959L97.936 47.228" fill="#160704"/>
<path d="M100.659 54.8791H93.91L87.0062 48.0194C86.5571 47.5732 86.5548 46.8474 87.0016 46.3989L95.8553 37.5H102.807L100.705 39.5433L92.9889 47.2112L100.608 54.8791" fill="#160704"/>
</svg>
