<svg width="283" height="108" viewBox="0 0 283 108" fill="none" xmlns="http://www.w3.org/2000/svg">
<mask id="path-1-inside-1_140_1955" fill="white">
<path d="M0 12C0 5.37258 5.37258 0 12 0H270.75C277.377 0 282.75 5.37258 282.75 12V96C282.75 102.627 277.377 108 270.75 108H12C5.37258 108 0 102.627 0 96V12Z"/>
</mask>
<path d="M0 12C0 5.37258 5.37258 0 12 0H270.75C277.377 0 282.75 5.37258 282.75 12V96C282.75 102.627 277.377 108 270.75 108H12C5.37258 108 0 102.627 0 96V12Z" fill="#F7F7F7"/>
<path d="M12 0V1H270.75V0V-1H12V0ZM282.75 12H281.75V96H282.75H283.75V12H282.75ZM270.75 108V107H12V108V109H270.75V108ZM0 96H1V12H0H-1V96H0ZM12 108V107C5.92486 107 1 102.075 1 96H0H-1C-1 103.18 4.82029 109 12 109V108ZM282.75 96H281.75C281.75 102.075 276.825 107 270.75 107V108V109C277.93 109 283.75 103.18 283.75 96H282.75ZM270.75 0V1C276.825 1 281.75 5.92487 281.75 12H282.75H283.75C283.75 4.8203 277.93 -1 270.75 -1V0ZM12 0V-1C4.8203 -1 -1 4.8203 -1 12H0H1C1 5.92487 5.92487 1 12 1V0Z" fill="#DCDAD9" mask="url(#path-1-inside-1_140_1955)"/>
<path fill-rule="evenodd" clip-rule="evenodd" d="M102.884 37.8784H86.6506V48.2398H102.884V37.8784ZM86.6506 57.398V48.2398H76.1982V57.398C76.1982 64.4218 81.8654 70.1145 88.857 70.1145H102.884V59.6148H88.857C88.5665 59.6142 88.2789 59.5564 88.0108 59.4446C87.7427 59.3329 87.4991 59.1694 87.2942 58.9636C87.0892 58.7577 86.9268 58.5135 86.8162 58.2449C86.7056 57.9763 86.6499 57.6885 86.6506 57.398Z" fill="#160704"/>
<path d="M126.311 63.8838C120.177 63.8838 116.336 59.8225 116.336 53.3567C116.336 46.9733 120.398 42.7736 126.504 42.7736C131.616 42.7736 135.291 45.7029 135.927 50.2891H131.202C130.594 48.2447 128.853 47.0841 126.394 47.0841C123.078 47.0841 121.06 49.4336 121.06 53.3292C121.06 57.1698 123.106 59.5733 126.394 59.5733C128.908 59.5733 130.76 58.3304 131.312 56.3134H135.954C135.236 60.8721 131.423 63.8838 126.311 63.8838ZM137.62 56.6175C137.62 52.2511 140.824 49.3228 145.246 49.3228C149.639 49.3228 152.844 52.2511 152.844 56.6175C152.844 60.983 149.639 63.8838 145.246 63.8838C140.824 63.8838 137.62 60.983 137.62 56.6175ZM141.902 56.5891C141.902 58.6894 143.256 60.0707 145.246 60.0707C147.207 60.0707 148.562 58.6894 148.562 56.5891C148.562 54.5172 147.207 53.135 145.246 53.135C143.256 53.135 141.902 54.5172 141.902 56.5891ZM157.353 47.5815C157.033 47.5835 156.716 47.522 156.42 47.4005C156.124 47.279 155.856 47.0999 155.629 46.8737C155.403 46.6474 155.224 46.3785 155.103 46.0826C154.982 45.7866 154.92 45.4695 154.922 45.1496C154.922 43.7958 156 42.7461 157.354 42.7461C157.67 42.744 157.984 42.8047 158.276 42.9247C158.569 43.0448 158.835 43.2217 159.058 43.4453C159.282 43.6689 159.459 43.9348 159.579 44.2273C159.699 44.5199 159.76 44.8334 159.758 45.1496C159.76 45.4673 159.7 45.7824 159.581 46.0768C159.461 46.3712 159.285 46.639 159.061 46.865C158.838 47.091 158.572 47.2706 158.279 47.3936C157.986 47.5165 157.671 47.5804 157.353 47.5815ZM155.255 63.5523V49.7368H159.51V63.5523H155.255ZM166.9 63.5523H162.645V49.7368H166.652L166.927 51.1739C167.785 49.985 169.359 49.2944 171.155 49.2944C174.444 49.2944 176.35 51.3947 176.35 55.0146V63.5523H172.095V56.0368C172.095 54.2955 171.128 53.1634 169.663 53.1634C167.977 53.1634 166.9 54.268 166.9 55.9818V63.5523ZM182.914 63.5523L176.779 43.1052H181.449L184.129 51.9745C184.572 53.4321 184.913 54.9186 185.152 56.4233C185.483 54.4064 185.815 53.2458 186.174 51.9745L188.688 43.1052H193.69L196.094 51.9745C196.426 53.2184 196.757 54.4613 197.116 56.4233C197.53 54.3514 197.834 53.2184 198.193 52.0304L200.929 43.1052H205.488L199.244 63.5523H194.878L191.148 50.1233L187.307 63.5523H182.914Z" fill="#160704"/>
</svg>
