<svg width="283" height="108" viewBox="0 0 283 108" fill="none" xmlns="http://www.w3.org/2000/svg">
<mask id="path-1-inside-1_140_1967" fill="white">
<path d="M0 12C0 5.37258 5.37258 0 12 0H270.75C277.377 0 282.75 5.37258 282.75 12V96C282.75 102.627 277.377 108 270.75 108H12C5.37258 108 0 102.627 0 96V12Z"/>
</mask>
<path d="M0 12C0 5.37258 5.37258 0 12 0H270.75C277.377 0 282.75 5.37258 282.75 12V96C282.75 102.627 277.377 108 270.75 108H12C5.37258 108 0 102.627 0 96V12Z" fill="#F7F7F7"/>
<path d="M12 0V1H270.75V0V-1H12V0ZM282.75 12H281.75V96H282.75H283.75V12H282.75ZM270.75 108V107H12V108V109H270.75V108ZM0 96H1V12H0H-1V96H0ZM12 108V107C5.92486 107 1 102.075 1 96H0H-1C-1 103.18 4.82029 109 12 109V108ZM282.75 96H281.75C281.75 102.075 276.825 107 270.75 107V108V109C277.93 109 283.75 103.18 283.75 96H282.75ZM270.75 0V1C276.825 1 281.75 5.92487 281.75 12H282.75H283.75C283.75 4.8203 277.93 -1 270.75 -1V0ZM12 0V-1C4.8203 -1 -1 4.8203 -1 12H0H1C1 5.92487 5.92487 1 12 1V0Z" fill="#DCDAD9" mask="url(#path-1-inside-1_140_1967)"/>
<g clip-path="url(#clip0_140_1967)">
<path d="M178.524 54.0003C178.524 53.2191 178.524 52.4959 178.495 51.8305C178.466 51.1652 178.408 50.5287 178.321 49.9791C178.234 49.4005 178.061 48.8797 177.801 48.359C177.569 47.8383 177.193 47.3754 176.759 46.9125C176.123 46.2761 175.428 45.8132 174.647 45.466C173.866 45.1478 172.969 44.9453 171.957 44.9453C170.944 44.9453 170.047 45.1189 169.266 45.466C168.485 45.7843 167.762 46.2761 167.126 46.9125C166.663 47.3754 166.344 47.8383 166.113 48.359C165.882 48.8797 165.679 49.4005 165.592 49.9791C165.505 50.5577 165.448 51.1652 165.419 51.8305C165.39 52.4959 165.39 53.2191 165.39 54.0003C165.39 54.7814 165.39 55.4756 165.419 56.17C165.448 56.8354 165.505 57.4719 165.592 58.0215C165.679 58.6001 165.853 59.1208 166.113 59.6415C166.344 60.1623 166.72 60.6251 167.126 61.088C167.762 61.7245 168.456 62.1874 169.266 62.5345C170.047 62.8528 170.944 63.0553 171.957 63.0553C172.969 63.0553 173.837 62.8816 174.647 62.5345C175.428 62.2163 176.152 61.7245 176.759 61.088C177.222 60.6251 177.54 60.1623 177.801 59.6415C178.032 59.1208 178.234 58.6001 178.321 58.0215C178.408 57.4429 178.495 56.8354 178.495 56.17C178.524 55.4468 178.524 54.7814 178.524 54.0003ZM175.081 54.0003C175.081 54.8393 175.081 55.5625 175.052 56.141C175.023 56.7196 174.994 57.1536 174.908 57.5296C174.85 57.8769 174.763 58.195 174.647 58.3976C174.531 58.629 174.416 58.8605 174.213 59.034C173.982 59.3234 173.635 59.5548 173.288 59.7284C172.911 59.9019 172.477 59.9598 171.986 59.9888C171.494 59.9888 171.089 59.9019 170.684 59.7284C170.308 59.5548 169.99 59.3523 169.729 59.034C169.556 58.8605 169.44 58.6579 169.295 58.3976C169.18 58.1661 169.093 57.8769 169.035 57.5296C168.977 57.1825 168.919 56.7196 168.919 56.141C168.89 55.5625 168.89 54.8681 168.89 54.0003C168.89 53.1613 168.89 52.4381 168.919 51.8595C168.948 51.2809 168.977 50.8469 169.035 50.4709C169.093 50.0948 169.18 49.8055 169.295 49.603C169.411 49.3715 169.527 49.1401 169.729 48.9665C169.961 48.6772 170.308 48.4458 170.684 48.2722C171.06 48.0986 171.494 48.0408 171.986 48.0118C172.477 48.0118 172.883 48.0986 173.288 48.2722C173.635 48.4458 173.982 48.6483 174.213 48.9665C174.387 49.1401 174.503 49.3426 174.647 49.603C174.763 49.8344 174.85 50.1237 174.908 50.4709C174.965 50.818 175.023 51.2809 175.052 51.8595C175.052 52.4381 175.081 53.1613 175.081 54.0003Z" fill="#160704"/>
<path d="M206.153 45.408C206.153 45.2344 206.01 45.1187 205.865 45.1187H203.03C202.856 45.1187 202.74 45.2633 202.74 45.408V55.9962L195.768 45.2054C195.71 45.1476 195.681 45.1187 195.594 45.1187H192.933C192.788 45.1187 192.644 45.2633 192.644 45.408C192.644 51.136 192.644 56.864 192.644 62.5343C192.644 62.7078 192.788 62.8235 192.933 62.8235H195.768C195.942 62.8235 196.057 62.6789 196.057 62.5343V51.9172L203.03 62.7368C203.087 62.7947 203.116 62.8235 203.203 62.8235H205.865C206.038 62.8235 206.153 62.6789 206.153 62.5343V45.408Z" fill="#160704"/>
<path d="M186.972 45.408C186.972 45.2344 186.828 45.1187 186.683 45.1187H183.848C183.674 45.1187 183.559 45.2633 183.559 45.408V62.5343C183.559 62.7079 183.703 62.8235 183.848 62.8235H186.683C186.857 62.8235 186.972 62.6789 186.972 62.5343V45.408Z" fill="#160704"/>
<path d="M152.777 54.0003C152.777 53.1613 152.777 52.4381 152.806 51.8595C152.835 51.2809 152.864 50.8469 152.921 50.4709C153.182 48.9376 154.368 48.0408 155.872 48.0408C156.856 48.0408 157.724 48.3879 158.302 49.2269C158.534 49.574 158.736 50.008 158.852 50.4998C158.852 50.5577 158.881 50.5866 158.939 50.5866H162.295C162.352 50.5866 162.352 50.5577 162.352 50.4998C162.005 48.4458 160.877 46.5364 158.91 45.6107C158.013 45.1767 156.972 44.9453 155.814 44.9453C153.934 44.9453 152.314 45.6107 151.012 46.8836C150.26 47.6358 149.797 48.5326 149.566 49.5451C149.363 50.5287 149.276 52.0041 149.276 53.9424C149.276 55.8808 149.363 57.3561 149.566 58.3398C149.768 59.3523 150.289 60.249 151.012 61.0013C152.314 62.3031 153.905 62.9395 155.814 62.9395C156.943 62.9395 157.984 62.737 158.91 62.2741C160.848 61.3484 162.005 59.4969 162.352 57.385C162.352 57.3271 162.352 57.2983 162.295 57.2983H158.939C158.881 57.2983 158.852 57.3271 158.852 57.385C158.736 57.8769 158.563 58.2819 158.302 58.6579C157.724 59.468 156.856 59.8151 155.872 59.844C154.368 59.844 153.211 58.9473 152.921 57.414C152.864 57.0668 152.806 56.6039 152.806 56.0254C152.777 55.5625 152.777 54.8393 152.777 54.0003Z" fill="#160704"/>
<path d="M117.253 45.408C117.253 45.2344 117.108 45.1187 116.963 45.1187H114.128C113.955 45.1187 113.839 45.2633 113.839 45.408V62.5343C113.839 62.7079 113.983 62.8235 114.128 62.8235H116.963C117.137 62.8235 117.253 62.6789 117.253 62.5343V57.5005L119.567 54.7523L124.282 62.7658C124.311 62.8235 124.369 62.8525 124.456 62.8525H127.928C128.072 62.8525 128.101 62.7658 128.043 62.621L121.881 52.1775L127.551 45.379C127.667 45.2344 127.609 45.1187 127.436 45.1187H123.617C123.559 45.1187 123.53 45.1187 123.501 45.1765L117.253 52.6114V45.408Z" fill="#160704"/>
<path d="M138.081 59.9304C136.461 59.9304 135.014 58.4262 135.014 56.6614V45.4367C135.014 45.2632 134.87 45.1475 134.725 45.1475H131.89C131.716 45.1475 131.601 45.2921 131.601 45.4367V56.6324C131.601 60.5669 134.551 63.0548 138.139 63.0548C141.726 63.0548 144.677 60.5669 144.677 56.6324V45.4367C144.677 45.2632 144.532 45.1475 144.387 45.1475H141.552C141.379 45.1475 141.263 45.2921 141.263 45.4367V56.6614C141.118 58.4262 139.672 59.9304 138.081 59.9304Z" fill="#160704"/>
<path d="M85.0249 54L93.9064 62.8814L99.5186 57.269C100.502 56.2855 102.122 56.2855 103.106 57.269C104.09 58.2526 104.09 59.8727 103.106 60.8564L95.7 68.2622C94.7164 69.2459 93.0963 69.2459 92.1126 68.2622L81.4666 57.5872V63.9517C81.4666 65.3404 80.3383 66.4976 78.9208 66.4976C77.5033 66.4976 76.375 65.3694 76.375 63.9517V44.1061C76.375 42.6885 77.5033 41.5603 78.9208 41.5603C80.3383 41.5603 81.4666 42.6885 81.4666 44.1061V50.4127L92.1416 39.7377C93.1252 38.7541 94.7453 38.7541 95.7289 39.7377L103.135 47.1437C104.118 48.1273 104.118 49.7473 103.135 50.7309C102.151 51.7145 100.531 51.7145 99.5476 50.7309L93.9352 45.1186L85.0249 54ZM93.9352 51.4542C92.5177 51.4542 91.3895 52.5825 91.3895 54C91.3895 55.4175 92.5177 56.5457 93.9352 56.5457C95.3527 56.5457 96.481 55.4175 96.481 54C96.4521 52.5825 95.3239 51.4542 93.9352 51.4542Z" fill="#160704"/>
</g>
<defs>
<clipPath id="clip0_140_1967">
<rect width="130" height="30" fill="white" transform="translate(76.375 39)"/>
</clipPath>
</defs>
</svg>
