<svg width="283" height="108" viewBox="0 0 283 108" fill="none" xmlns="http://www.w3.org/2000/svg">
<mask id="path-1-inside-1_140_1965" fill="white">
<path d="M0 12C0 5.37258 5.37258 0 12 0H270.75C277.377 0 282.75 5.37258 282.75 12V96C282.75 102.627 277.377 108 270.75 108H12C5.37258 108 0 102.627 0 96V12Z"/>
</mask>
<path d="M0 12C0 5.37258 5.37258 0 12 0H270.75C277.377 0 282.75 5.37258 282.75 12V96C282.75 102.627 277.377 108 270.75 108H12C5.37258 108 0 102.627 0 96V12Z" fill="#F7F7F7"/>
<path d="M12 0V1H270.75V0V-1H12V0ZM282.75 12H281.75V96H282.75H283.75V12H282.75ZM270.75 108V107H12V108V109H270.75V108ZM0 96H1V12H0H-1V96H0ZM12 108V107C5.92486 107 1 102.075 1 96H0H-1C-1 103.18 4.82029 109 12 109V108ZM282.75 96H281.75C281.75 102.075 276.825 107 270.75 107V108V109C277.93 109 283.75 103.18 283.75 96H282.75ZM270.75 0V1C276.825 1 281.75 5.92487 281.75 12H282.75H283.75C283.75 4.8203 277.93 -1 270.75 -1V0ZM12 0V-1C4.8203 -1 -1 4.8203 -1 12H0H1C1 5.92487 5.92487 1 12 1V0Z" fill="#DCDAD9" mask="url(#path-1-inside-1_140_1965)"/>
<g clip-path="url(#clip0_140_1965)">
<path fill-rule="evenodd" clip-rule="evenodd" d="M116.859 43.44C118.495 43.44 119.829 42.1063 119.829 40.47C119.829 38.8338 118.495 37.5 116.859 37.5C115.222 37.5 113.889 38.8338 113.889 40.47C113.889 42.1063 115.222 43.44 116.859 43.44ZM110.245 47.9142C110.306 49.484 109.757 51.0163 108.713 52.1905V52.2043C109.533 52.7584 111.565 54.2764 111.565 57.1941C111.565 60.5326 108.833 63.2524 105.479 63.2524H89.125V42.1337H104.027C107.301 42.1337 110.087 44.6665 110.245 47.9142ZM104.951 48.3364C104.951 46.8582 103.725 46.1982 102.325 46.1982H94.405V50.4085H102.325C103.697 50.4085 104.938 49.8021 104.951 48.3364ZM94.3775 54.4744L94.405 59.1865V59.1728H103.645C105.005 59.1728 106.257 58.2886 106.285 56.8242C106.285 55.3461 105.045 54.4744 103.645 54.4744H94.3775ZM114.219 44.76H119.499V63.24H114.219V44.76ZM142.585 53.4321C142.585 48.6004 139.285 45.5259 135.325 44.8796C134.818 44.8044 134.306 44.7644 133.793 44.76C132.091 44.76 130.071 45.0762 128.065 46.08V44.76H122.785V63.24H128.065V53.9725C128.065 50.2641 130.229 48.9304 132.685 48.9304C135.325 48.9304 137.305 50.6739 137.305 53.9739V63.24H142.585V53.4321ZM180.641 48.8121C176.523 44.3104 171.268 43.44 168.339 43.44V48.918C170.503 48.918 174.411 49.5918 177.275 53.3263C174.411 57.0621 170.503 57.7359 168.337 57.7359V63.2125C171.269 63.2125 176.523 62.3407 180.641 57.839C184.903 62.3669 189.761 63.2125 192.797 63.2125V57.7345C190.725 57.7345 187.161 57.2065 183.967 53.3249C187.161 49.4446 190.739 48.9166 192.797 48.9166V43.44C189.761 43.44 184.905 44.2843 180.641 48.8121ZM160.405 46.1199V44.7586H165.671V60.9836C165.671 63.9399 164.153 70.4986 154.835 70.4986C150.161 70.4986 146.307 68.5736 144.551 65.8924L148.511 63.2386C149.303 64.3221 151.389 65.8786 154.451 65.8786C159.283 65.8786 160.391 62.5539 160.391 60.9836C158.939 62.0121 156.907 62.5786 154.293 62.5786C149.237 62.5786 144.565 58.4481 144.565 53.1681C144.565 47.8881 149.277 44.76 154.307 44.76C157.355 44.76 159.639 45.75 160.405 46.1199ZM149.845 53.4459C149.845 55.9401 152.207 57.96 155.125 57.96C158.041 57.96 160.405 55.9401 160.405 53.4459C160.405 50.9502 158.041 48.9304 155.125 48.9304C152.207 48.9304 149.845 50.9516 149.845 53.4459Z" fill="#160704"/>
</g>
<defs>
<clipPath id="clip0_140_1965">
<rect width="104.5" height="33" fill="white" transform="translate(89.125 37.5)"/>
</clipPath>
</defs>
</svg>
