<svg width="283" height="108" viewBox="0 0 283 108" fill="none" xmlns="http://www.w3.org/2000/svg">
<mask id="path-1-inside-1_140_1976" fill="white">
<path d="M0 12C0 5.37258 5.37258 0 12 0H270.75C277.377 0 282.75 5.37258 282.75 12V96C282.75 102.627 277.377 108 270.75 108H12C5.37258 108 0 102.627 0 96V12Z"/>
</mask>
<path d="M0 12C0 5.37258 5.37258 0 12 0H270.75C277.377 0 282.75 5.37258 282.75 12V96C282.75 102.627 277.377 108 270.75 108H12C5.37258 108 0 102.627 0 96V12Z" fill="#F7F7F7"/>
<path d="M12 0V1H270.75V0V-1H12V0ZM282.75 12H281.75V96H282.75H283.75V12H282.75ZM270.75 108V107H12V108V109H270.75V108ZM0 96H1V12H0H-1V96H0ZM12 108V107C5.92486 107 1 102.075 1 96H0H-1C-1 103.18 4.82029 109 12 109V108ZM282.75 96H281.75C281.75 102.075 276.825 107 270.75 107V108V109C277.93 109 283.75 103.18 283.75 96H282.75ZM270.75 0V1C276.825 1 281.75 5.92487 281.75 12H282.75H283.75C283.75 4.8203 277.93 -1 270.75 -1V0ZM12 0V-1C4.8203 -1 -1 4.8203 -1 12H0H1C1 5.92487 5.92487 1 12 1V0Z" fill="#DCDAD9" mask="url(#path-1-inside-1_140_1976)"/>
<g clip-path="url(#clip0_140_1976)">
<mask id="mask0_140_1976" style="mask-type:luminance" maskUnits="userSpaceOnUse" x="94" y="34" width="94" height="37">
<path d="M187.927 34.5H94.8232V70.5H187.927V34.5Z" fill="white"/>
</mask>
<g mask="url(#mask0_140_1976)">
<path d="M110.266 45.6076C110.373 40.3211 107.38 35.7145 105.82 34.6074C105.813 34.6002 105.674 34.5255 105.685 34.732C105.685 34.7355 105.682 34.7355 105.682 34.7391C105.521 44.7248 100.388 47.4161 97.6014 51.0757C91.4078 59.2136 96.5762 68.4981 103.272 70.2566C103.386 70.2851 103.695 70.3777 104.283 70.4986C104.589 70.5628 104.678 70.3029 104.453 69.9148C103.653 68.5229 102.229 66.1733 101.948 63.1545C101.307 56.1449 110.142 51.7591 110.266 45.6076Z" fill="#160704"/>
<path d="M113.641 48.9935C113.588 48.9543 113.513 48.9578 113.506 49.0254C113.364 50.2964 112.05 52.9308 110.32 55.3942C104.497 63.6995 107.43 67.4659 109.708 70.079C110.128 70.5631 110.338 70.4564 110.559 70.1111C110.765 69.7835 111.079 69.367 112.424 68.7298C112.634 68.6301 117.717 65.9317 118.269 59.7872C118.799 53.8421 114.987 50.0827 113.641 48.9935Z" fill="#160704"/>
<path d="M143.88 47.48V69.3345H139.192V60.506H130.182V69.3345H125.377V47.48H130.182V56.3087H139.192V47.48H143.88Z" fill="#160704"/>
<path d="M165.553 47.48V51.8018H163.321H158.822V69.3309H153.999V51.8018H149.62H147.389V47.48H165.553Z" fill="#160704"/>
<path fill-rule="evenodd" clip-rule="evenodd" d="M182.625 69.3559L177.115 61.7518L171.647 69.3238L166.301 69.3309L174.406 58.1741L166.756 47.48H172.099L187.946 69.3559H182.625Z" fill="#160704"/>
<path d="M178.613 52.372L181.258 56.0459L187.523 47.4771H182.208L178.613 52.372Z" fill="#160704"/>
</g>
</g>
<defs>
<clipPath id="clip0_140_1976">
<rect width="93.1034" height="39" fill="white" transform="translate(94.8232 34.5)"/>
</clipPath>
</defs>
</svg>
