<svg width="283" height="108" viewBox="0 0 283 108" fill="none" xmlns="http://www.w3.org/2000/svg">
<mask id="path-1-inside-1_140_1985" fill="white">
<path d="M0 12C0 5.37258 5.37258 0 12 0H270.75C277.377 0 282.75 5.37258 282.75 12V96C282.75 102.627 277.377 108 270.75 108H12C5.37258 108 0 102.627 0 96V12Z"/>
</mask>
<path d="M0 12C0 5.37258 5.37258 0 12 0H270.75C277.377 0 282.75 5.37258 282.75 12V96C282.75 102.627 277.377 108 270.75 108H12C5.37258 108 0 102.627 0 96V12Z" fill="#F7F7F7"/>
<path d="M12 0V1H270.75V0V-1H12V0ZM282.75 12H281.75V96H282.75H283.75V12H282.75ZM270.75 108V107H12V108V109H270.75V108ZM0 96H1V12H0H-1V96H0ZM12 108V107C5.92486 107 1 102.075 1 96H0H-1C-1 103.18 4.82029 109 12 109V108ZM282.75 96H281.75C281.75 102.075 276.825 107 270.75 107V108V109C277.93 109 283.75 103.18 283.75 96H282.75ZM270.75 0V1C276.825 1 281.75 5.92487 281.75 12H282.75H283.75C283.75 4.8203 277.93 -1 270.75 -1V0ZM12 0V-1C4.8203 -1 -1 4.8203 -1 12H0H1C1 5.92487 5.92487 1 12 1V0Z" fill="#DCDAD9" mask="url(#path-1-inside-1_140_1985)"/>
<g clip-path="url(#clip0_140_1985)">
<path fill-rule="evenodd" clip-rule="evenodd" d="M79.3705 63.0846H96.7764C97.8109 63.0846 98.5981 61.8549 98.0024 60.9616L89.3105 45.8389C88.6755 44.7446 87.4713 44.0005 86.0921 44.0005C84.647 44.0005 83.3771 44.8321 82.7641 46.0577L76.1521 57.5256C74.8056 59.9291 76.6414 63.0846 79.3705 63.0846Z" fill="#160704"/>
<path fill-rule="evenodd" clip-rule="evenodd" d="M93.0758 49.5817C92.0467 47.809 92.6598 45.5329 94.4332 44.5043C96.2066 43.4757 98.4836 44.0884 99.5126 45.8612L106.234 57.5042C107.263 59.2769 106.65 61.553 104.877 62.5816C103.103 63.6102 100.826 62.9974 99.7972 61.2247L93.0758 49.5817Z" fill="#160704"/>
<path d="M196.296 48.8467C197.311 47.9 199.092 47.4492 201.685 47.4492H207.751V44.0005H200.581C198.866 44.0005 197.424 44.1808 196.296 44.5415C195.191 44.9021 194.222 45.4656 193.387 46.2545C192.508 47.1111 191.809 48.1705 191.313 49.4328C190.817 50.7176 190.568 52.1151 190.568 53.5802C190.568 54.9777 190.817 56.3302 191.313 57.5699C191.809 58.8096 192.508 59.8915 193.387 60.7481C194.199 61.5371 195.168 62.1006 196.251 62.4613C197.356 62.8218 198.822 63.0022 200.581 63.0022H207.751V59.5986H201.685C200.31 59.5986 199.363 59.5535 198.822 59.4408C198.258 59.3281 197.74 59.1477 197.311 58.8773C196.454 58.3363 195.8 57.6375 195.372 56.7584C194.966 55.9019 194.763 54.8199 194.763 53.5577C194.763 51.3938 195.282 49.7934 196.296 48.8467Z" fill="#160704"/>
<path d="M143.506 63.0477H160.418V59.7117H147.632V54.9556H158.794V51.7999H147.632V47.382H160.418V44.0234H143.506V63.0477Z" fill="#160704"/>
<path d="M164.637 44.0234L172.552 53.5355L164.637 63.0477H169.755L176.002 55.5191V51.5745L169.755 44.0234H164.637Z" fill="#160704"/>
<path d="M183.849 44.0234L177.604 51.5745V55.5191L183.849 63.0477H188.968L181.03 53.5355L188.968 44.0234H183.849Z" fill="#160704"/>
<path d="M126.933 53.4003L119.334 44.0234H115.41V63.0477H119.537V50.3573L126.121 58.2466H127.722L134.307 50.2897V63.0477H138.433V44.0234H134.555L126.933 53.4003Z" fill="#160704"/>
</g>
<defs>
<clipPath id="clip0_140_1985">
<rect width="133.333" height="20" fill="white" transform="translate(74.708 44)"/>
</clipPath>
</defs>
</svg>
