<svg width="283" height="108" viewBox="0 0 283 108" fill="none" xmlns="http://www.w3.org/2000/svg">
<mask id="path-1-inside-1_140_864" fill="white">
<path d="M0 12C0 5.37258 5.37258 0 12 0H270.75C277.377 0 282.75 5.37258 282.75 12V96C282.75 102.627 277.377 108 270.75 108H12C5.37258 108 0 102.627 0 96V12Z"/>
</mask>
<path d="M0 12C0 5.37258 5.37258 0 12 0H270.75C277.377 0 282.75 5.37258 282.75 12V96C282.75 102.627 277.377 108 270.75 108H12C5.37258 108 0 102.627 0 96V12Z" fill="#F7F7F7"/>
<path d="M12 0V1H270.75V0V-1H12V0ZM282.75 12H281.75V96H282.75H283.75V12H282.75ZM270.75 108V107H12V108V109H270.75V108ZM0 96H1V12H0H-1V96H0ZM12 108V107C5.92486 107 1 102.075 1 96H0H-1C-1 103.18 4.82029 109 12 109V108ZM282.75 96H281.75C281.75 102.075 276.825 107 270.75 107V108V109C277.93 109 283.75 103.18 283.75 96H282.75ZM270.75 0V1C276.825 1 281.75 5.92487 281.75 12H282.75H283.75C283.75 4.8203 277.93 -1 270.75 -1V0ZM12 0V-1C4.8203 -1 -1 4.8203 -1 12H0H1C1 5.92487 5.92487 1 12 1V0Z" fill="#160704" fill-opacity="0.09" mask="url(#path-1-inside-1_140_864)"/>
<path d="M96.3732 46.677L92.3445 50.6626L85.0325 43.174L77.8218 50.4385L73.6553 46.1836L84.802 35.0002L96.3732 46.677Z" fill="#160704"/>
<path d="M73.627 61.455L77.6039 57.4177L84.7909 64.9516C87.695 62.4676 89.9313 59.7897 92.4454 57.4974L96.4009 61.5908C92.6803 65.3178 88.8175 69.2194 85.0602 73.0003L73.627 61.455Z" fill="#160704"/>
<path d="M123.143 45.9213L124.289 46.7227C124.847 47.0933 125.295 47.6082 125.586 48.2157C125.877 48.8211 126.002 49.4954 125.946 50.1676C125.89 50.8398 125.655 51.4818 125.265 52.0311C124.877 52.5783 124.349 53.0114 123.737 53.2828C123.005 53.6469 122.208 53.8645 121.393 53.9227C118.791 54.0024 116.178 53.9528 113.461 53.9528V38.8657C116.456 38.8463 119.474 38.4736 122.412 39.2923C125.185 40.0592 125.974 43.1723 124.063 45.3439C123.869 45.5615 123.543 45.6649 123.143 45.9213ZM116.458 51.2017C118.213 51.0832 119.875 51.4559 121.533 50.9561C121.889 50.8807 122.206 50.6803 122.425 50.3895C122.645 50.0986 122.755 49.7367 122.733 49.3726C122.744 49.1766 122.714 48.9805 122.649 48.7953C122.583 48.61 122.481 48.4419 122.35 48.2954C122.218 48.1511 122.059 48.0348 121.882 47.9529C121.706 47.871 121.514 47.8258 121.32 47.8193C119.713 47.7116 118.089 47.7892 116.456 47.7892V51.2017H116.458ZM116.419 44.9518C117.839 45.0316 119.25 45.163 120.641 44.8829C121.006 44.8333 121.337 44.6524 121.576 44.3702C121.816 44.0901 121.943 43.7303 121.934 43.3598C121.958 43.0172 121.854 42.679 121.648 42.4097C121.441 42.1382 121.141 41.9551 120.807 41.8905C119.366 41.5436 117.864 41.5285 116.419 41.8495V44.9518Z" fill="#160704"/>
<path d="M171.687 38.8862H174.401L181.222 47.8484L181.607 47.7213V38.9185H184.628V53.829H181.976L175.075 44.7828L174.666 44.8948C174.502 46.3339 174.612 47.7924 174.595 49.2445C174.576 50.6944 174.595 52.2304 174.595 53.8398H171.693L171.687 38.8862Z" fill="#160704"/>
<path d="M140.539 44.7799V53.8196H137.484V38.9092H140.307C142.666 41.8176 144.77 44.9694 147.207 47.852L147.515 47.7033V38.9372H150.447V53.8261H147.881L140.929 44.6786L140.539 44.7799Z" fill="#160704"/>
<path d="M204.609 53.8157V38.9053H215.76V41.79H207.964V44.9677H214.841V47.6908H207.964V51.1077H215.747V53.8049L204.609 53.8157Z" fill="#160704"/>
<path d="M168.897 53.9004H165.678L164.232 50.5805H157.789L156.371 53.8702H153.245C155.402 48.7816 157.481 43.8244 159.575 38.8521H162.546L168.897 53.9004ZM158.993 47.6225C160.482 47.8186 161.688 47.9327 163.028 47.5363L161.199 43.1005H160.833L158.993 47.6225Z" fill="#160704"/>
<path d="M201.497 40.9522C201.406 41.1526 201.296 41.3421 201.171 41.521C200.698 42.0617 200.204 42.5831 199.681 43.1518C198.278 42.219 196.893 41.2603 195.141 41.5985C194.071 41.7924 193.112 42.3763 192.442 43.238C191.731 44.1859 191.358 45.3493 191.384 46.5385C191.41 47.7277 191.834 48.8717 192.586 49.7895C194.28 51.7564 196.466 51.7219 199.831 49.658C200.14 49.9446 200.493 50.2397 200.818 50.5564C201.141 50.8731 201.376 51.1467 201.639 51.4333C199.694 54.5205 194.146 55.1883 190.945 52.5514C187.515 49.7313 187.159 44.4746 190.076 41.0858C192.832 37.8865 199.37 38.0481 201.497 40.9522Z" fill="#160704"/>
<path d="M113.438 64.409V63.1228H171.395C171.429 63.5106 171.461 63.8962 171.509 64.409H113.438Z" fill="#160704"/>
<path d="M198.202 58.6346C200.05 58.6346 201.771 58.6196 203.506 58.6346C204.665 58.6346 205.604 59.0763 206.091 60.2181C206.578 61.3621 206.24 62.3143 205.389 63.1437C205.274 63.273 205.171 63.413 205.081 63.5595C205.221 63.7039 205.371 63.8331 205.531 63.9516C206.582 64.5506 207.071 65.4791 206.858 66.6532C206.645 67.8274 205.817 68.7063 204.581 68.827C202.508 69.0467 200.421 69.1372 198.197 69.2859L198.202 58.6346ZM199.923 67.5861C201.319 67.5236 202.631 67.5236 203.928 67.3836C204.26 67.3405 204.566 67.1789 204.787 66.9247C205.009 66.6705 205.132 66.3451 205.132 66.0069C205.132 65.6687 205.012 65.3412 204.787 65.0891C204.566 64.8349 204.26 64.6712 203.928 64.6303C202.588 64.5118 201.233 64.5958 199.908 64.5958L199.923 67.5861ZM199.923 62.98C200.994 63.0274 202.067 63.0188 203.135 62.9498C203.863 62.8658 204.488 62.4156 204.525 61.556C204.561 60.6964 204.036 60.1922 203.232 60.1405C202.148 60.0694 201.052 60.1212 199.921 60.1212V62.98H199.923Z" fill="#160704"/>
<path d="M132.666 38.9243V53.8649H129.785V38.9243H132.666Z" fill="#160704"/>
<path d="M195.985 69.1141H194.22L193.07 66.4922H188.018L186.785 69.1271H185.12C186.66 65.5335 188.179 62.0413 189.722 58.4629L191.335 58.3767C192.869 61.9228 194.393 65.4388 195.985 69.1141ZM192.393 64.8398L190.506 60.4902C189.817 62.149 189.274 63.4417 188.692 64.8398H192.393Z" fill="#160704"/>
<path d="M208.839 67.5782L209.623 66.5161C210.547 66.9146 211.375 67.4209 212.288 67.6385C213.199 67.8561 214.136 67.8647 214.94 66.8802L214.996 65.6371C214.722 65.3915 214.417 65.1825 214.091 65.0166C213.167 64.7064 212.243 64.4823 211.319 64.1678C209.75 63.627 209.08 62.6683 209.164 61.1948C209.205 60.5183 209.477 59.8763 209.933 59.3786C210.388 58.8809 211 58.5556 211.665 58.4587C213.322 58.1937 214.912 58.4328 216.375 59.6522L215.597 60.807C214.08 60.2382 212.615 59.0792 210.998 60.6023V62.1125C211.775 62.4227 212.562 62.733 213.361 63.0217C213.79 63.1768 214.253 63.2242 214.679 63.3814C216.22 63.9524 216.946 65.0532 216.767 66.5592C216.67 67.2292 216.353 67.8453 215.869 68.3128C215.384 68.7803 214.759 69.0712 214.093 69.1401C212.208 69.3577 210.422 69.0819 208.839 67.5782Z" fill="#160704"/>
<path d="M70.1118 50.1406L74.0694 54.1004L69.961 58.0364L65.9561 53.9711L70.1118 50.1406Z" fill="#160704"/>
<path d="M85.2364 49.958L89.0281 53.7756L84.8766 57.8323L81.1797 54.0664L85.2364 49.958Z" fill="#160704"/>
<path d="M99.8826 57.9261L96.0693 54.0827L100.1 50.0454L103.84 53.9384L99.8826 57.9261Z" fill="#160704"/>
<path d="M176.001 58.7271H177.651V67.5514H183.121V69.0702H175.999V58.7271H176.001Z" fill="#160704"/>
</svg>
