<svg width="48" height="48" viewBox="0 0 48 48" fill="none" xmlns="http://www.w3.org/2000/svg">
<rect width="48" height="48" rx="12" fill="#F7F7F7"/>
<rect x="0.5" y="0.5" width="47" height="47" rx="11.5" stroke="#254441" stroke-opacity="0.12"/>
<path d="M27.5 29.75L28.7934 31.5205C28.9148 31.7127 29.1481 31.7985 29.3611 31.7224C30.1649 31.4353 32.1572 30.6572 33.7976 29.4725C33.9255 29.3801 33.9994 29.2261 33.9984 29.0673C33.9984 20.25 31.5 17.75 31.5 17.75C31.5 17.75 29.5 16.6021 27.3539 16.256C27.1428 16.222 26.936 16.3351 26.8421 16.5289L26.3971 17.4468C26.3971 17.4468 25.2845 17.214 23.9992 17.214C22.7139 17.214 21.6013 17.4468 21.6013 17.4468L21.1563 16.5289C21.0624 16.3351 20.8557 16.222 20.6445 16.256C18.5 16.6019 16.5 17.75 16.5 17.75C16.5 17.75 14 20.25 14 29.0673C13.999 29.2261 14.0729 29.3801 14.2008 29.4725C15.8412 30.6572 17.8335 31.4353 18.6373 31.7224C18.8503 31.7985 19.0836 31.7127 19.205 31.5205L20.5 29.75" stroke="#254441" stroke-width="2" stroke-linecap="round" stroke-linejoin="round"/>
<path d="M29.5 28.75C29.5 28.75 27.2049 30.25 24 30.25C20.7951 30.25 18.5 28.75 18.5 28.75" stroke="#254441" stroke-width="2" stroke-linecap="round" stroke-linejoin="round"/>
<path d="M29.25 24.25C29.25 25.3546 28.4665 26.25 27.5 26.25C26.5335 26.25 25.75 25.3546 25.75 24.25C25.75 23.1454 26.5335 22.25 27.5 22.25C28.4665 22.25 29.25 23.1454 29.25 24.25Z" fill="#254441"/>
<path d="M22.25 24.25C22.25 25.3546 21.4665 26.25 20.5 26.25C19.5335 26.25 18.75 25.3546 18.75 24.25C18.75 23.1454 19.5335 22.25 20.5 22.25C21.4665 22.25 22.25 23.1454 22.25 24.25Z" fill="#254441"/>
</svg>
