<svg width="32" height="32" viewBox="0 0 32 32" fill="none" xmlns="http://www.w3.org/2000/svg">
<g filter="url(#filter0_dii_2001_99)">
<rect x="0.599609" y="0.300049" width="30" height="30" rx="6" fill="#C287E8"/>
<path d="M16.4238 6.30786C16.5894 6.30797 16.7235 6.44214 16.7236 6.60767V12.5833L20.9492 8.35767C21.0664 8.24055 21.2559 8.24052 21.373 8.35767L22.54 9.52466C22.6569 9.64182 22.6571 9.83142 22.54 9.94849L18.3057 14.1829H24.2988C24.4644 14.183 24.5985 14.3171 24.5986 14.4827V16.1331C24.5985 16.2986 24.4644 16.4328 24.2988 16.4329H18.3184L22.543 20.6575C22.6601 20.7746 22.6601 20.9651 22.543 21.0823L21.376 22.2483C21.2588 22.3654 21.0693 22.3654 20.9521 22.2483L16.7236 18.0198V24.0081C16.7235 24.1736 16.5894 24.3078 16.4238 24.3079H14.7734C14.6079 24.3078 14.4737 24.1736 14.4736 24.0081V18.0149L10.2363 22.2522C10.1193 22.3693 9.92968 22.3691 9.8125 22.2522L8.64551 21.0852C8.52835 20.9681 8.52836 20.7785 8.64551 20.6614L12.874 16.4329H6.89844C6.73291 16.4328 6.59874 16.2986 6.59863 16.1331V14.4827C6.59874 14.3171 6.73291 14.183 6.89844 14.1829H12.8867L8.64844 9.94458C8.53141 9.82741 8.53132 9.63787 8.64844 9.52075L9.81543 8.35376C9.93257 8.237 10.1222 8.23685 10.2393 8.35376L14.4736 12.5881V6.60767C14.4737 6.44214 14.6079 6.30797 14.7734 6.30786H16.4238ZM15.8105 13.6604C15.6934 13.5433 15.5039 13.5433 15.3867 13.6604L13.9551 15.092C13.8379 15.2092 13.8379 15.3997 13.9551 15.5168L15.3867 16.9485C15.5038 17.0654 15.6934 17.0654 15.8105 16.9485L17.2422 15.5168C17.3593 15.3997 17.3593 15.2092 17.2422 15.092L15.8105 13.6604Z" fill="#F7F7F7"/>
</g>
<defs>
<filter id="filter0_dii_2001_99" x="-0.000390589" y="4.8846e-05" width="31.2" height="31.2" filterUnits="userSpaceOnUse" color-interpolation-filters="sRGB">
<feFlood flood-opacity="0" result="BackgroundImageFix"/>
<feColorMatrix in="SourceAlpha" type="matrix" values="0 0 0 0 0 0 0 0 0 0 0 0 0 0 0 0 0 0 127 0" result="hardAlpha"/>
<feOffset dy="0.3"/>
<feGaussianBlur stdDeviation="0.3"/>
<feComposite in2="hardAlpha" operator="out"/>
<feColorMatrix type="matrix" values="0 0 0 0 0 0 0 0 0 0 0 0 0 0 0 0 0 0 0.12 0"/>
<feBlend mode="normal" in2="BackgroundImageFix" result="effect1_dropShadow_2001_99"/>
<feBlend mode="normal" in="SourceGraphic" in2="effect1_dropShadow_2001_99" result="shape"/>
<feColorMatrix in="SourceAlpha" type="matrix" values="0 0 0 0 0 0 0 0 0 0 0 0 0 0 0 0 0 0 127 0" result="hardAlpha"/>
<feOffset dy="-0.3"/>
<feGaussianBlur stdDeviation="0.225"/>
<feComposite in2="hardAlpha" operator="arithmetic" k2="-1" k3="1"/>
<feColorMatrix type="matrix" values="0 0 0 0 0 0 0 0 0 0 0 0 0 0 0 0 0 0 0.12 0"/>
<feBlend mode="normal" in2="shape" result="effect2_innerShadow_2001_99"/>
<feColorMatrix in="SourceAlpha" type="matrix" values="0 0 0 0 0 0 0 0 0 0 0 0 0 0 0 0 0 0 127 0" result="hardAlpha"/>
<feOffset dy="-0.05"/>
<feGaussianBlur stdDeviation="0.1"/>
<feComposite in2="hardAlpha" operator="arithmetic" k2="-1" k3="1"/>
<feColorMatrix type="matrix" values="0 0 0 0 1 0 0 0 0 1 0 0 0 0 1 0 0 0 1 0"/>
<feBlend mode="normal" in2="effect2_innerShadow_2001_99" result="effect3_innerShadow_2001_99"/>
</filter>
</defs>
</svg>
