<svg width="69" height="69" viewBox="0 0 69 69" fill="none" xmlns="http://www.w3.org/2000/svg">
<path fill-rule="evenodd" clip-rule="evenodd" d="M37.6625 0C38.2976 8.33546e-07 38.8125 0.514873 38.8125 1.15V24.0527L55.0098 7.85684C55.4589 7.40791 56.187 7.40779 56.636 7.85684L61.1087 12.3296C61.5575 12.7786 61.5576 13.5067 61.1087 13.9557L44.877 30.1875H67.85C68.4851 30.1875 69 30.7024 69 31.3375V37.6625C69 38.2976 68.4851 38.8125 67.85 38.8125H44.9234L61.1192 55.0083C61.5682 55.4574 61.5683 56.1854 61.1192 56.6345L56.648 61.1057C56.1989 61.5548 55.4694 61.5548 55.0203 61.1057L38.8125 44.8979V67.85C38.8125 68.4851 38.2976 69 37.6625 69H31.3375C30.7024 69 30.1875 68.4851 30.1875 67.85V44.8755L13.9437 61.1192C13.4946 61.5683 12.7667 61.5683 12.3176 61.1192L7.84486 56.648C7.39576 56.1989 7.39579 55.4694 7.84486 55.0203L24.0527 38.8125H1.15C0.514874 38.8125 2.39861e-06 38.2976 0 37.6625V31.3375C-2.77623e-08 30.7024 0.514873 30.1875 1.15 30.1875H24.1021L7.85684 13.9423C7.40788 13.4932 7.40782 12.7651 7.85684 12.3161L12.3296 7.84336C12.7786 7.39453 13.5067 7.39446 13.9557 7.84336L30.1875 24.0751V1.15C30.1875 0.514874 30.7024 2.42639e-06 31.3375 0H37.6625ZM35.3131 28.1855C34.864 27.7364 34.136 27.7364 33.6869 28.1855L28.1975 33.6734C27.7485 34.1223 27.7489 34.8505 28.1975 35.2996L33.6869 40.7891C34.136 41.2382 34.864 41.2382 35.3131 40.7891L40.8025 35.2996C41.2511 34.8505 41.2515 34.1223 40.8025 33.6734L35.3131 28.1855Z" fill="#43AA8B"/>
</svg>
