<svg width="18" height="18" viewBox="0 0 18 18" fill="none" xmlns="http://www.w3.org/2000/svg">
<path d="M8.98905 11.5562L11.4201 14.3202C12.3208 15.3442 12.7712 15.8562 13.2425 15.7315C13.7139 15.6069 13.8756 14.9331 14.1989 13.5853L15.9922 6.10942C16.4901 4.03374 16.739 2.9959 16.1856 2.484C15.6323 1.9721 14.673 2.35294 12.7546 3.11461L3.85407 6.64837C2.3197 7.25755 1.55251 7.56217 1.5038 8.0856C1.49882 8.13915 1.49873 8.19307 1.50356 8.24662C1.55066 8.77027 2.31691 9.07747 3.84941 9.69172C4.54379 9.97005 4.89098 10.1092 5.1399 10.3758C5.16789 10.4057 5.1948 10.4368 5.22059 10.4688C5.44994 10.7538 5.54782 11.1278 5.74356 11.8758L6.1099 13.2757C6.30038 14.0036 6.39562 14.3676 6.64506 14.4172C6.8945 14.4668 7.11169 14.165 7.54605 13.5614L8.98905 11.5562ZM8.98905 11.5562L8.7507 11.3078C8.47943 11.0251 8.34383 10.8838 8.34383 10.7081C8.34383 10.5325 8.47943 10.3911 8.7507 10.1083L11.4305 7.31557" stroke="white" stroke-linecap="round" stroke-linejoin="round"/>
</svg>
