<svg width="283" height="108" viewBox="0 0 283 108" fill="none" xmlns="http://www.w3.org/2000/svg">
<mask id="path-1-inside-1_140_862" fill="white">
<path d="M0 12C0 5.37258 5.37258 0 12 0H270.75C277.377 0 282.75 5.37258 282.75 12V96C282.75 102.627 277.377 108 270.75 108H12C5.37258 108 0 102.627 0 96V12Z"/>
</mask>
<path d="M0 12C0 5.37258 5.37258 0 12 0H270.75C277.377 0 282.75 5.37258 282.75 12V96C282.75 102.627 277.377 108 270.75 108H12C5.37258 108 0 102.627 0 96V12Z" fill="#F7F7F7"/>
<path d="M12 0V1H270.75V0V-1H12V0ZM282.75 12H281.75V96H282.75H283.75V12H282.75ZM270.75 108V107H12V108V109H270.75V108ZM0 96H1V12H0H-1V96H0ZM12 108V107C5.92486 107 1 102.075 1 96H0H-1C-1 103.18 4.82029 109 12 109V108ZM282.75 96H281.75C281.75 102.075 276.825 107 270.75 107V108V109C277.93 109 283.75 103.18 283.75 96H282.75ZM270.75 0V1C276.825 1 281.75 5.92487 281.75 12H282.75H283.75C283.75 4.8203 277.93 -1 270.75 -1V0ZM12 0V-1C4.8203 -1 -1 4.8203 -1 12H0H1C1 5.92487 5.92487 1 12 1V0Z" fill="#160704" fill-opacity="0.09" mask="url(#path-1-inside-1_140_862)"/>
<path d="M172.03 39.0808C172.696 39.0753 173.636 39.2115 174.189 39.3929C174.728 39.5688 175.462 39.9642 175.821 40.2726C176.181 40.5791 176.61 41.1106 176.777 41.4516C176.944 41.7926 177.129 42.2969 177.291 43.0696L175.976 43.0732C174.722 43.0768 174.642 43.0514 174.252 42.529C174.027 42.2279 173.559 41.8579 173.209 41.7092C172.861 41.5604 172.35 41.437 172.076 41.4389C171.802 41.4389 171.27 41.5205 170.897 41.6203C170.492 41.7273 170.135 41.9649 170.015 42.208C169.904 42.4329 169.857 42.8193 169.912 43.0696C169.966 43.3181 170.22 43.6247 170.476 43.7498C170.733 43.875 171.758 44.0999 172.756 44.2487C173.754 44.3974 174.876 44.6477 175.25 44.8019C175.624 44.9579 176.162 45.3043 176.445 45.5728C176.728 45.8431 177.089 46.3075 177.245 46.6068C177.405 46.9097 177.53 47.5917 177.53 48.1486C177.53 48.8107 177.398 49.4057 177.138 49.9172C176.886 50.4142 176.442 50.8804 175.885 51.2323C175.411 51.5316 174.635 51.8581 174.162 51.9578C173.688 52.0576 172.83 52.141 172.257 52.1428C171.684 52.1446 170.684 51.985 170.035 51.7855C169.387 51.5878 168.571 51.1924 168.221 50.9076C167.873 50.6228 167.403 50.0296 167.18 49.587C166.959 49.1444 166.773 48.6003 166.772 48.3753C166.77 47.989 166.842 47.9673 169.4 47.9564L169.855 48.6419C170.218 49.1897 170.49 49.3729 171.216 49.5579C171.713 49.6849 172.489 49.7466 172.937 49.694C173.387 49.6414 173.978 49.4365 174.252 49.237C174.641 48.9558 174.74 48.7471 174.706 48.3027C174.677 47.9345 174.499 47.6153 174.207 47.4067C173.939 47.2145 172.863 46.9314 171.577 46.7138C169.932 46.4362 169.204 46.2241 168.6 45.8413C168.13 45.5457 167.646 45.0377 167.425 44.6115C167.178 44.1362 167.049 43.5412 167.049 42.8882C167.047 42.1355 167.158 41.7164 167.499 41.1813C167.746 40.7913 168.194 40.3033 168.493 40.0947C168.792 39.8861 169.445 39.576 169.944 39.4037C170.443 39.2314 171.383 39.0862 172.03 39.0808Z" fill="#160704"/>
<path d="M144.647 61.1405L144.649 65.6299C144.653 69.9126 144.671 70.1558 145.057 70.9249C145.353 71.5143 145.66 71.819 146.189 72.0548C146.588 72.2326 147.241 72.3795 147.64 72.3795C148.039 72.3795 148.692 72.2326 149.091 72.0548C149.621 71.819 149.926 71.5144 150.222 70.9249C150.61 70.1558 150.628 69.9126 150.633 61.1405H152.447L152.451 70.6636L151.95 71.6432C151.647 72.2363 151.163 72.8257 150.724 73.1377C150.325 73.4225 149.59 73.7472 149.091 73.8615C148.593 73.9758 147.695 74.0302 147.096 73.983C146.358 73.925 145.696 73.7273 145.043 73.3682C144.511 73.0779 143.88 72.5555 143.639 72.2054C143.399 71.8553 143.118 71.2857 143.017 70.9357C142.913 70.5801 142.833 68.291 142.833 65.7206V61.1405H144.647Z" fill="#160704"/>
<path fill-rule="evenodd" clip-rule="evenodd" d="M183.177 39.3909C183.848 39.1551 184.481 39.0862 185.544 39.1351C186.538 39.1805 187.253 39.3238 187.811 39.5886C188.261 39.8008 188.983 40.2834 189.417 40.6607C189.861 41.047 190.413 41.7817 190.681 42.3441C191.026 43.0696 191.18 43.7499 191.349 46.3365H186.587C182.896 46.3346 181.827 46.3855 181.829 46.5614C181.831 46.6866 181.985 47.1147 182.168 47.5137C182.353 47.9128 182.698 48.417 182.936 48.6347C183.173 48.8524 183.612 49.1245 183.911 49.237C184.211 49.3512 184.864 49.4437 185.363 49.4437C185.861 49.4437 186.475 49.3676 186.723 49.275C186.973 49.1807 187.441 48.807 187.766 48.446C188.35 47.7912 188.367 47.7858 189.807 47.7858C190.605 47.7858 191.258 47.8275 191.258 47.8765C191.258 47.9255 191.075 48.3554 190.852 48.8288C190.628 49.3023 190.119 50.0134 189.718 50.407C189.319 50.8006 188.582 51.3121 188.084 51.5407C187.576 51.7747 186.618 52.0105 185.907 52.0758C184.896 52.1683 184.378 52.1157 183.367 51.8145C182.669 51.6059 181.731 51.1598 181.281 50.8206C180.833 50.4832 180.209 49.8047 179.896 49.3131C179.584 48.8216 179.219 48.0942 179.087 47.6951C178.956 47.2961 178.853 46.3165 178.86 45.5184C178.869 44.5389 178.983 43.7916 179.215 43.2202C179.404 42.7558 179.823 41.9994 180.148 41.5423C180.472 41.0852 181.08 40.4866 181.499 40.2127C181.92 39.9388 182.674 39.5687 183.177 39.3909ZM185.181 41.6169C184.782 41.6187 184.111 41.7836 183.688 41.985C183.266 42.1863 182.769 42.5727 182.582 42.8466C182.395 43.1187 182.19 43.5251 182.125 43.75L182.007 44.1582C186.927 44.1582 188.353 44.0965 188.352 44.0221C188.352 43.9477 188.167 43.5596 187.944 43.1605C187.675 42.678 187.264 42.2971 186.723 42.025C186.273 41.8001 185.58 41.6169 185.181 41.6169Z" fill="#160704"/>
<path fill-rule="evenodd" clip-rule="evenodd" d="M142.282 34L142.276 37.2197C142.275 38.9901 142.334 40.4994 142.412 40.5719C142.491 40.6444 142.799 40.4757 143.098 40.1982C143.398 39.9206 144.092 39.5451 144.64 39.3619C145.389 39.1116 145.932 39.0553 146.817 39.1351C147.517 39.1986 148.364 39.4237 148.903 39.6903C149.402 39.937 150.173 40.5319 150.617 41.0144C151.061 41.4969 151.566 42.2171 151.74 42.6161C151.912 43.0152 152.137 43.8315 152.237 44.4301C152.36 45.1647 152.36 45.9012 152.235 46.6975C152.133 47.345 151.832 48.3155 151.564 48.8506C151.297 49.3875 150.733 50.1421 150.309 50.5285C149.884 50.9167 149.149 51.3991 148.676 51.6059C148.203 51.8108 147.365 52.0268 146.817 52.0849C146.095 52.161 145.522 52.0956 144.747 51.8471C144.159 51.6585 143.363 51.2395 142.282 50.3253V51.9578L139.47 51.8672L139.376 34H142.282ZM145.774 41.8073C145.3 41.8109 144.667 41.9434 144.368 42.1012C144.069 42.259 143.63 42.5619 143.392 42.7741C143.154 42.9864 142.81 43.487 142.625 43.8861C142.427 44.3123 142.291 45.0216 142.291 45.6093C142.291 46.1952 142.427 46.9063 142.625 47.3325C142.81 47.7316 143.154 48.2376 143.392 48.4552C143.63 48.6747 144.13 48.9813 144.504 49.1355C144.878 49.2915 145.471 49.4185 145.819 49.4185C146.169 49.4185 146.761 49.2914 147.134 49.1355C147.508 48.9813 148.008 48.6747 148.246 48.4552C148.484 48.2375 148.83 47.7315 149.013 47.3325C149.211 46.9063 149.349 46.1952 149.349 45.6093C149.349 45.0198 149.211 44.3142 149.013 43.8861C148.828 43.487 148.442 42.9409 148.155 42.6725C147.869 42.404 147.408 42.0993 147.134 41.9922C146.86 41.887 146.247 41.8037 145.774 41.8073Z" fill="#160704"/>
<path d="M181.797 61.1187C182.065 61.0371 183.019 60.9935 183.917 61.0207C185.145 61.0606 185.729 61.1676 186.275 61.4524C186.674 61.661 187.18 62.0221 187.398 62.2561C187.617 62.4901 187.924 62.9889 188.078 63.3625C188.234 63.7362 188.361 64.1661 188.361 64.3148C188.361 64.5198 188.14 64.5869 187.454 64.5869C186.587 64.5869 186.533 64.5578 186.23 63.9175C186.056 63.5511 185.709 63.1032 185.459 62.9218C185.21 62.7422 184.639 62.5445 184.189 62.4828C183.741 62.423 183.026 62.4629 182.602 62.5735C182.177 62.6824 181.628 62.9762 181.377 63.2265C181.027 63.5766 180.924 63.8668 180.924 64.4962C180.924 65.1819 181.011 65.3851 181.468 65.766C181.767 66.0145 182.074 66.2195 182.148 66.2177C182.223 66.2177 183.182 66.3809 184.28 66.5822C185.55 66.8144 186.556 67.1119 187.046 67.3985C187.565 67.7033 187.935 68.1041 188.178 68.6229C188.376 69.0474 188.537 69.7602 188.537 70.2101C188.537 70.6599 188.383 71.3529 188.192 71.7519C187.978 72.2054 187.519 72.7006 186.972 73.0688C186.485 73.3971 185.647 73.7508 185.096 73.8615C184.548 73.9721 183.569 74.0176 182.919 73.9632C182.133 73.8955 181.411 73.6917 180.752 73.3519C180.039 72.9836 179.623 72.6117 179.266 72.024C178.994 71.5742 178.746 70.9629 178.715 70.6636C178.658 70.1393 178.686 70.1176 179.473 70.0595C180.284 69.9978 180.293 70.0033 180.743 70.8758C181.045 71.4599 181.408 71.8577 181.831 72.0694C182.246 72.2761 182.888 72.3868 183.69 72.3868C184.416 72.3868 185.136 72.2761 185.459 72.1147C185.758 71.966 186.126 71.6594 186.277 71.4345C186.427 71.2096 186.549 70.6799 186.549 70.2554C186.547 69.6224 186.451 69.4047 186.003 69.031C185.704 68.7807 185.397 68.5775 185.323 68.5793C185.248 68.5793 184.331 68.4288 183.282 68.2438C182.147 68.0443 181.06 67.7323 180.592 67.4729C180.159 67.2317 179.652 66.7908 179.466 66.4915C179.277 66.1922 179.07 65.581 179.003 65.1311C178.927 64.6178 178.972 64.0464 179.125 63.5893C179.257 63.1902 179.574 62.6279 179.828 62.3413C180.082 62.0529 180.518 61.6937 180.799 61.5413C181.078 61.3908 181.526 61.2003 181.797 61.1187Z" fill="#160704"/>
<path fill-rule="evenodd" clip-rule="evenodd" d="M157.61 39.2368C157.909 39.1588 158.849 39.117 159.696 39.1424C161.007 39.1805 161.386 39.2676 162.23 39.7229C162.788 40.024 163.407 40.5356 163.643 40.8929C163.875 41.243 164.142 41.8126 164.238 42.1627C164.332 42.5128 164.41 44.2469 164.412 49.237H165.863L165.772 51.8672H164.562C163.621 51.8672 163.24 51.7837 162.839 51.4881C162.558 51.2795 162.217 50.8713 161.841 50.0532L161.268 50.7172C160.953 51.0836 160.387 51.5117 160.013 51.6695C159.639 51.8291 158.905 52.0086 158.381 52.0721C157.738 52.1483 157.087 52.0884 156.385 51.8907C155.812 51.7275 155.083 51.3701 154.767 51.0962C154.452 50.8223 154.045 50.2709 153.864 49.8718C153.684 49.4728 153.536 48.8198 153.536 48.4207C153.536 48.0216 153.688 47.3686 153.871 46.9696C154.056 46.5705 154.401 46.0643 154.638 45.8467C154.876 45.6272 155.438 45.2845 155.886 45.085C156.336 44.8836 157.479 44.6005 158.426 44.4554C159.375 44.3103 160.374 44.1017 160.648 43.9929C160.922 43.884 161.228 43.6319 161.328 43.4324C161.428 43.2329 161.47 42.8864 161.423 42.6615C161.374 42.4366 161.109 42.0956 160.833 41.9051C160.488 41.6657 160.015 41.555 159.333 41.5513C158.736 41.5477 158.098 41.6692 157.746 41.8543C157.421 42.023 157.055 42.4075 156.929 42.7068C156.704 43.2456 156.688 43.251 155.297 43.251C153.936 43.251 153.893 43.2383 153.971 42.8429C154.016 42.6179 154.138 42.2098 154.243 41.9359C154.35 41.662 154.709 41.1305 155.043 40.7569C155.377 40.3832 155.968 39.9207 156.358 39.7284C156.746 39.5361 157.31 39.3148 157.61 39.2368ZM160.958 46.0518C160.713 46.1915 159.96 46.3947 159.287 46.5017C158.615 46.6087 157.838 46.7848 157.564 46.8918C157.29 46.9988 156.92 47.2237 156.742 47.3906C156.557 47.5648 156.421 47.9475 156.425 48.2848C156.429 48.7111 156.568 48.9795 156.929 49.2534C157.345 49.5708 157.626 49.6235 158.607 49.5691C159.454 49.5219 159.953 49.3895 160.376 49.0993C160.701 48.8762 161.089 48.4481 161.237 48.1488C161.401 47.8241 161.49 47.2399 161.457 46.7012L161.406 45.7979L160.958 46.0518Z" fill="#160704"/>
<path fill-rule="evenodd" clip-rule="evenodd" d="M109.359 39.4019C110.032 39.157 110.642 39.0862 111.717 39.1334C112.849 39.1805 113.424 39.3112 114.326 39.7266C115.059 40.0622 115.775 40.5755 116.276 41.1197C116.713 41.5931 117.252 42.3694 117.475 42.8429C117.812 43.5557 117.883 44.0165 117.883 45.522C117.885 47.1926 117.839 47.4321 117.311 48.5149C116.983 49.1879 116.403 49.9953 115.951 50.4052C115.517 50.7988 114.756 51.3084 114.257 51.537C113.758 51.7655 112.82 52.0051 112.171 52.0686C111.344 52.1484 110.64 52.0938 109.813 51.8852C109.165 51.7202 108.253 51.3231 107.788 51.002C107.322 50.6791 106.685 50.0895 106.374 49.6904C106.06 49.2914 105.639 48.515 105.436 47.9672C105.187 47.2979 105.066 46.5233 105.062 45.6091C105.06 44.6768 105.176 43.9349 105.432 43.251C105.637 42.7032 106.154 41.8544 106.584 41.3664C107.014 40.8785 107.609 40.3107 107.908 40.1057C108.207 39.9007 108.86 39.5833 109.359 39.4019ZM111.4 41.8073C110.975 41.8109 110.346 41.9162 109.999 42.0413C109.651 42.1647 109.187 42.5093 108.966 42.805C108.744 43.1006 108.436 43.6484 108.28 44.0221C108.126 44.3958 108 45.1304 108.002 45.6546C108.006 46.1897 108.153 46.9244 108.342 47.3325C108.527 47.7316 108.871 48.2376 109.109 48.4552C109.347 48.6747 109.847 48.9813 110.221 49.1355C110.594 49.2915 111.188 49.4185 111.536 49.4185C111.886 49.4185 112.477 49.2914 112.851 49.1355C113.225 48.9813 113.725 48.6747 113.963 48.4552C114.201 48.2375 114.547 47.7315 114.73 47.3325C114.928 46.9063 115.066 46.1952 115.066 45.6093C115.066 45.0216 114.928 44.3123 114.73 43.8861C114.547 43.487 114.201 42.9809 113.963 42.7614C113.725 42.5437 113.225 42.2372 112.851 42.0812C112.477 41.927 111.824 41.8037 111.4 41.8073Z" fill="#160704"/>
<path d="M95.9362 39.3148C96.3679 39.1769 97.2477 39.108 98.1129 39.1461C99.0906 39.1897 99.8452 39.3366 100.426 39.5978C100.899 39.8119 101.665 40.3324 102.125 40.7569C102.586 41.1813 103.145 41.8942 103.37 42.3441C103.593 42.7939 103.827 43.3853 104.008 44.158L101.015 44.1615L100.652 43.4923C100.453 43.1241 99.9232 42.5925 99.4733 42.3095C98.8711 41.9286 98.4321 41.7963 97.7954 41.7981C97.3021 41.7981 96.6237 41.9541 96.2083 42.1627C95.8092 42.3622 95.2904 42.7903 95.0545 43.115C94.8187 43.4397 94.5322 43.9893 94.4161 44.3394C94.3019 44.6895 94.2075 45.259 94.2075 45.6091C94.2075 45.9592 94.3019 46.5288 94.4161 46.8789C94.5322 47.2289 94.8387 47.795 95.0999 48.1378C95.3611 48.4806 95.8999 48.9086 96.299 49.0864C96.698 49.2642 97.351 49.4111 97.7501 49.4111C98.1492 49.4111 98.8221 49.2497 99.2466 49.052C99.7654 48.8108 100.181 48.4261 101.015 47.0711L104.008 47.0603L103.81 47.7405C103.703 48.1141 103.428 48.7472 103.199 49.1463C102.971 49.5453 102.468 50.1511 102.082 50.494C101.695 50.835 100.93 51.3248 100.38 51.5788C99.5441 51.9688 99.1196 52.0431 97.7501 52.0431C96.3842 52.0431 95.9543 51.9669 95.1199 51.5823C94.5721 51.3284 93.7686 50.7988 93.335 50.4052C92.8852 49.9971 92.3011 49.1861 91.9746 48.5149C91.454 47.4484 91.4014 47.1817 91.4014 45.6127C91.4014 44.1888 91.4758 43.7262 91.8223 42.9789C92.0526 42.4801 92.5424 41.7127 92.9106 41.2738C93.277 40.8366 93.9463 40.269 94.3943 40.0132C94.8442 39.7575 95.5371 39.4436 95.9362 39.3148Z" fill="#160704"/>
<path d="M126.778 70.8359L126.86 61.1405H128.683V73.8379L127.731 73.8434C127.041 73.8489 126.699 73.76 126.49 73.526C126.33 73.3482 124.943 71.1443 123.406 68.6284C121.868 66.1107 120.549 64.09 120.475 64.1389C120.401 64.1865 120.339 66.3889 120.339 73.8379L118.616 73.7472L118.52 61.1405L120.792 61.135L126.778 70.8359Z" fill="#160704"/>
<path d="M176.752 61.1422V62.7748H170.04V66.4026H176.208V68.0352H170.04V72.0258L176.661 72.1165V73.749L168.227 73.8397V61.1422H176.752Z" fill="#160704"/>
<path d="M123.417 39.2604V51.9578L120.606 51.8672L120.515 41.9813H118.882V39.2604H123.417Z" fill="#160704"/>
<path d="M132.487 39.0971C133.036 39.0898 133.802 39.1859 134.19 39.3093C134.58 39.4308 135.224 39.8173 135.621 40.1673C136.02 40.5174 136.492 41.087 136.668 41.4371C136.846 41.7872 137.081 42.6034 137.194 43.251C137.315 43.9476 137.377 45.9501 137.294 51.8672L134.482 51.9578L134.437 47.8312C134.399 44.3049 134.346 43.6192 134.074 43.115C133.9 42.7903 133.492 42.3622 133.167 42.1627C132.804 41.9414 132.262 41.8016 131.761 41.8034C131.253 41.8052 130.678 41.9594 130.236 42.2115C129.817 42.451 129.37 42.9136 129.147 43.3417C128.801 44.0038 128.765 44.4156 128.678 51.9578L125.866 51.8672V39.3511L128.678 39.2604L128.672 39.8499C128.67 40.1745 128.714 40.4811 128.77 40.5301C128.826 40.5791 129.135 40.3923 129.456 40.113C129.775 39.8336 130.364 39.4926 130.764 39.3566C131.163 39.2187 131.939 39.1025 132.487 39.0971Z" fill="#160704"/>
<path d="M115.804 61.1405V62.773H109.093V66.4008H115.26V68.0334H109.093V72.024H115.804V73.8379H107.279V61.1405H115.804Z" fill="#160704"/>
<path fill-rule="evenodd" clip-rule="evenodd" d="M159.311 61.1731C162.168 61.2275 162.794 61.291 163.331 61.5739C163.679 61.7571 164.156 62.0819 164.39 62.296C164.624 62.5082 164.945 62.9272 165.103 63.2265C165.268 63.5421 165.391 64.2278 165.393 64.859C165.397 65.6789 165.288 66.1451 164.954 66.7546C164.644 67.3169 164.263 67.6852 163.693 67.9772C163.244 68.2058 162.32 68.4542 160.401 68.6683L163.115 71.1171C164.606 72.4648 165.796 73.6275 165.758 73.7019C165.72 73.7762 165.179 73.8362 163.421 73.8289L160.701 71.3039C159.204 69.9163 157.918 68.8169 157.844 68.8605C157.769 68.904 157.708 70.0414 157.708 73.8379H155.894L155.928 61.1059L159.311 61.1731ZM157.796 67.0359C159.906 67.1248 160.965 67.0938 161.515 67.0249C162.28 66.9288 162.629 66.7783 163.012 66.3775C163.42 65.9512 163.51 65.6918 163.51 64.9499C163.51 64.2044 163.416 63.9377 162.981 63.4534L162.453 62.8639L157.731 62.7369L157.796 67.0359Z" fill="#160704"/>
<path d="M97.821 65.9872C98.7533 68.6591 99.5858 70.9683 99.6675 71.1171C99.7926 71.3438 99.8399 71.3293 99.9596 71.0264C100.038 70.8267 100.848 68.541 103.422 61.2312L104.353 61.1858C104.864 61.1604 105.282 61.2021 105.28 61.2765C105.28 61.3509 104.278 64.1879 100.839 73.7472L99.8416 73.8071C99.1414 73.8488 98.8113 73.7944 98.7315 73.6257C98.6698 73.4933 97.6286 70.6908 96.4205 67.3985C95.2124 64.1062 94.222 61.3509 94.2202 61.2765C94.2202 61.2021 94.6465 61.1387 96.1231 61.1297L97.821 65.9872Z" fill="#160704"/>
<path d="M140.838 62.773H136.847L136.757 73.7472H134.943L134.852 62.773H130.68L130.649 62.0783C130.633 61.6956 130.687 61.3273 130.771 61.262C130.854 61.1949 133.152 61.1405 140.838 61.1405V62.773Z" fill="#160704"/>
<path d="M121.959 34.1814C122.361 34.1814 122.9 34.3247 123.156 34.4988C123.41 34.673 123.696 35.0811 123.791 35.4058C123.916 35.8411 123.891 36.1622 123.689 36.6302C123.535 36.9893 123.181 37.383 122.873 37.5372C122.574 37.6859 122.185 37.8092 122.011 37.8092C121.837 37.8074 121.449 37.6606 121.15 37.481C120.85 37.2996 120.495 36.9132 120.361 36.6194C120.227 36.3255 120.165 35.8611 120.225 35.5872C120.285 35.3133 120.535 34.8834 120.78 34.6349C121.108 34.2993 121.415 34.1814 121.959 34.1814Z" fill="#160704"/>
</svg>
