<svg width="283" height="108" viewBox="0 0 283 108" fill="none" xmlns="http://www.w3.org/2000/svg">
<mask id="path-1-inside-1_140_883" fill="white">
<path d="M0 12C0 5.37258 5.37258 0 12 0H270.75C277.377 0 282.75 5.37258 282.75 12V96C282.75 102.627 277.377 108 270.75 108H12C5.37258 108 0 102.627 0 96V12Z"/>
</mask>
<path d="M0 12C0 5.37258 5.37258 0 12 0H270.75C277.377 0 282.75 5.37258 282.75 12V96C282.75 102.627 277.377 108 270.75 108H12C5.37258 108 0 102.627 0 96V12Z" fill="#F7F7F7"/>
<path d="M12 0V1H270.75V0V-1H12V0ZM282.75 12H281.75V96H282.75H283.75V12H282.75ZM270.75 108V107H12V108V109H270.75V108ZM0 96H1V12H0H-1V96H0ZM12 108V107C5.92486 107 1 102.075 1 96H0H-1C-1 103.18 4.82029 109 12 109V108ZM282.75 96H281.75C281.75 102.075 276.825 107 270.75 107V108V109C277.93 109 283.75 103.18 283.75 96H282.75ZM270.75 0V1C276.825 1 281.75 5.92487 281.75 12H282.75H283.75C283.75 4.8203 277.93 -1 270.75 -1V0ZM12 0V-1C4.8203 -1 -1 4.8203 -1 12H0H1C1 5.92487 5.92487 1 12 1V0Z" fill="#160704" fill-opacity="0.09" mask="url(#path-1-inside-1_140_883)"/>
<g clip-path="url(#clip0_140_883)">
<mask id="mask0_140_883" style="mask-type:luminance" maskUnits="userSpaceOnUse" x="65" y="42" width="153" height="24">
<path d="M65.1465 42.5H217.604V65.5H65.1465V42.5Z" fill="white"/>
</mask>
<g mask="url(#mask0_140_883)">
<path d="M77.6327 46.7714L75.2013 48.2171C74.8727 47.6257 74.4127 47.1 73.887 46.7057C72.7042 46.0486 71.2584 46.18 70.1413 47.0343C69.6156 47.4286 69.287 48.0857 69.3527 48.8086C69.3527 49.7943 70.0756 50.5171 71.5213 51.1086L73.4927 51.8971C74.8727 52.3571 76.0556 53.2114 77.0413 54.2629C77.8299 55.2486 78.2242 56.4314 78.1584 57.68C78.2242 59.3886 77.567 61.0314 76.3842 62.1486C75.2013 63.3314 73.4927 63.9886 71.8499 63.9229C70.2727 63.9886 68.7613 63.4629 67.5784 62.4114C66.3956 61.2286 65.6727 59.7171 65.4756 58.14L68.4984 57.4829C68.5642 58.3371 68.7613 59.1914 69.2213 59.9143C70.4042 61.36 72.5727 61.6229 74.0184 60.44L74.2156 60.2429C74.807 59.5857 75.2013 58.7314 75.1356 57.8771C75.1356 57.5486 75.0699 57.1543 75.0042 56.8257C74.8727 56.4971 74.7413 56.1686 74.4784 55.9714C74.2156 55.7086 73.9527 55.4457 73.6242 55.1829C73.2299 54.92 72.7699 54.7229 72.3099 54.5257L70.4699 53.7371C67.7756 52.62 66.3956 50.9114 66.3956 48.6771C66.3956 47.2314 66.987 45.8514 68.1042 44.9314C69.287 43.88 70.7984 43.3543 72.3756 43.42C74.5442 43.4857 76.3184 44.6029 77.6327 46.7714ZM91.3013 55.6429V63.66H88.2784V43.88H91.6299C92.8784 43.8143 94.127 43.9457 95.3756 44.2086C96.2299 44.4714 97.0184 44.8657 97.6099 45.5229C98.727 46.64 99.3842 48.1514 99.3184 49.7286C99.3842 51.3714 98.727 52.9486 97.4784 54.0657C96.0984 55.1829 94.3242 55.7743 92.5499 55.7086H91.3013V55.6429ZM91.3013 52.8829H92.4184C95.1784 52.8829 96.5584 51.8314 96.5584 49.7286C96.5584 47.6914 95.1127 46.64 92.287 46.64H91.3013V52.8829ZM140.39 55.2486L146.501 63.66H142.821L137.17 55.5771H136.644V63.66H133.621V43.88H137.104C139.733 43.88 141.638 44.34 142.756 45.3257C144.004 46.3771 144.727 48.02 144.661 49.6629C144.661 50.9771 144.267 52.2257 143.478 53.2771C142.756 54.2629 141.638 54.9857 140.39 55.2486ZM136.644 52.9486H137.564C140.39 52.9486 141.836 51.8971 141.836 49.7286C141.836 47.6914 140.456 46.7057 137.696 46.7057H136.644V52.9486ZM161.287 46.64V63.66H158.264V46.64H153.73L151.627 43.8143H167.924L165.821 46.64H161.287ZM200.058 63.66V42.5L214.516 57.6143V43.88H217.473V64.9086L203.016 49.7943V63.66H200.058ZM187.704 63.66H190.99L181.527 42.6314L171.736 63.66H174.956L181.527 49.3343L186.39 60.6371L187.704 63.66ZM121.136 63.66H124.356L114.958 42.6314L105.101 63.66H108.321L114.893 49.3343L119.756 60.6371L121.136 63.66Z" fill="#160704"/>
</g>
</g>
<defs>
<clipPath id="clip0_140_883">
<rect width="152.457" height="23" fill="white" transform="translate(65.1465 42.5)"/>
</clipPath>
</defs>
</svg>
