<svg width="185" height="87" viewBox="0 0 185 87" fill="none" xmlns="http://www.w3.org/2000/svg">
<g filter="url(#filter0_d_702_206)">
<rect x="19.1992" y="9.6001" width="48" height="48" rx="7.2" fill="#FF4C33" shape-rendering="crispEdges"/>
<path fill-rule="evenodd" clip-rule="evenodd" d="M44.5188 19.2002C44.7839 19.2002 44.9988 19.4151 44.9988 19.6802V29.2396L51.7595 22.4796C51.9469 22.2922 52.2508 22.2921 52.4382 22.4796L54.3051 24.3464C54.4924 24.5339 54.4924 24.8378 54.3051 25.0252L47.5301 31.8002H57.1188C57.3839 31.8002 57.5988 32.0151 57.5988 32.2802V34.9202C57.5988 35.1853 57.3839 35.4002 57.1188 35.4002H47.5495L54.3095 42.1602C54.4969 42.3476 54.4969 42.6515 54.3095 42.8389L52.4432 44.7052C52.2558 44.8926 51.9513 44.8926 51.7638 44.7052L44.9988 37.9402V47.5202C44.9988 47.7853 44.7839 48.0002 44.5188 48.0002H41.8788C41.6137 48.0002 41.3988 47.7853 41.3988 47.5202V37.9308L34.6188 44.7108C34.4314 44.8983 34.1275 44.8983 33.9401 44.7108L32.0732 42.8446C31.8858 42.6571 31.8858 42.3526 32.0732 42.1652L38.8382 35.4002H29.2788C29.0137 35.4002 28.7988 35.1853 28.7988 34.9202V32.2802C28.7988 32.0151 29.0137 31.8002 29.2788 31.8002H38.8588L32.0782 25.0196C31.8908 24.8321 31.8908 24.5283 32.0782 24.3408L33.9451 22.4739C34.1325 22.2866 34.4364 22.2866 34.6238 22.4739L41.3988 29.2489V19.6802C41.3988 19.4151 41.6137 19.2002 41.8788 19.2002H44.5188ZM43.5382 30.9646C43.3508 30.7771 43.0469 30.7771 42.8595 30.9646L40.5682 33.2552C40.3808 33.4426 40.381 33.7465 40.5682 33.9339L42.8595 36.2252C43.0469 36.4126 43.3508 36.4126 43.5382 36.2252L45.8295 33.9339C46.0167 33.7465 46.0168 33.4426 45.8295 33.2552L43.5382 30.9646Z" fill="#F7F7F7"/>
</g>
<rect x="67.1992" y="31.6001" width="88" height="4" fill="url(#paint0_linear_702_206)"/>
<g filter="url(#filter1_d_702_206)">
<rect x="151.199" y="21.6001" width="24" height="24" rx="3.6" fill="#FF4C33" shape-rendering="crispEdges"/>
<rect x="163.199" y="30.6001" width="4" height="4" rx="0.5" transform="rotate(45 163.199 30.6001)" fill="#F7F7F7"/>
</g>
<defs>
<filter id="filter0_d_702_206" x="-0.000782013" y="9.72748e-05" width="86.4" height="86.4" filterUnits="userSpaceOnUse" color-interpolation-filters="sRGB">
<feFlood flood-opacity="0" result="BackgroundImageFix"/>
<feColorMatrix in="SourceAlpha" type="matrix" values="0 0 0 0 0 0 0 0 0 0 0 0 0 0 0 0 0 0 127 0" result="hardAlpha"/>
<feOffset dy="9.6"/>
<feGaussianBlur stdDeviation="9.6"/>
<feComposite in2="hardAlpha" operator="out"/>
<feColorMatrix type="matrix" values="0 0 0 0 1 0 0 0 0 0.298039 0 0 0 0 0.2 0 0 0 0.12 0"/>
<feBlend mode="normal" in2="BackgroundImageFix" result="effect1_dropShadow_702_206"/>
<feBlend mode="normal" in="SourceGraphic" in2="effect1_dropShadow_702_206" result="shape"/>
</filter>
<filter id="filter1_d_702_206" x="141.599" y="16.8001" width="43.2" height="43.2" filterUnits="userSpaceOnUse" color-interpolation-filters="sRGB">
<feFlood flood-opacity="0" result="BackgroundImageFix"/>
<feColorMatrix in="SourceAlpha" type="matrix" values="0 0 0 0 0 0 0 0 0 0 0 0 0 0 0 0 0 0 127 0" result="hardAlpha"/>
<feOffset dy="4.8"/>
<feGaussianBlur stdDeviation="4.8"/>
<feComposite in2="hardAlpha" operator="out"/>
<feColorMatrix type="matrix" values="0 0 0 0 1 0 0 0 0 0.298039 0 0 0 0 0.2 0 0 0 0.12 0"/>
<feBlend mode="normal" in2="BackgroundImageFix" result="effect1_dropShadow_702_206"/>
<feBlend mode="normal" in="SourceGraphic" in2="effect1_dropShadow_702_206" result="shape"/>
</filter>
<linearGradient id="paint0_linear_702_206" x1="67.1992" y1="33.6001" x2="155.199" y2="33.6001" gradientUnits="userSpaceOnUse">
<stop stop-color="#FF4C33"/>
<stop offset="1" stop-color="#FF4C33"/>
</linearGradient>
</defs>
</svg>
