<svg width="283" height="108" viewBox="0 0 283 108" fill="none" xmlns="http://www.w3.org/2000/svg">
<mask id="path-1-inside-1_140_902" fill="white">
<path d="M0 12C0 5.37258 5.37258 0 12 0H270.75C277.377 0 282.75 5.37258 282.75 12V96C282.75 102.627 277.377 108 270.75 108H12C5.37258 108 0 102.627 0 96V12Z"/>
</mask>
<path d="M0 12C0 5.37258 5.37258 0 12 0H270.75C277.377 0 282.75 5.37258 282.75 12V96C282.75 102.627 277.377 108 270.75 108H12C5.37258 108 0 102.627 0 96V12Z" fill="#F7F7F7"/>
<path d="M12 0V1H270.75V0V-1H12V0ZM282.75 12H281.75V96H282.75H283.75V12H282.75ZM270.75 108V107H12V108V109H270.75V108ZM0 96H1V12H0H-1V96H0ZM12 108V107C5.92486 107 1 102.075 1 96H0H-1C-1 103.18 4.82029 109 12 109V108ZM282.75 96H281.75C281.75 102.075 276.825 107 270.75 107V108V109C277.93 109 283.75 103.18 283.75 96H282.75ZM270.75 0V1C276.825 1 281.75 5.92487 281.75 12H282.75H283.75C283.75 4.8203 277.93 -1 270.75 -1V0ZM12 0V-1C4.8203 -1 -1 4.8203 -1 12H0H1C1 5.92487 5.92487 1 12 1V0Z" fill="#160704" fill-opacity="0.09" mask="url(#path-1-inside-1_140_902)"/>
<path fill-rule="evenodd" clip-rule="evenodd" d="M162.666 63.707C162.832 63.6964 162.931 63.9696 162.931 65.1722L163.513 64.8143C163.833 64.6153 164.667 64.4163 165.366 64.3697C166.437 64.2977 166.749 64.3612 167.358 64.7804C167.754 65.0535 168.279 65.5468 168.523 65.875C168.877 66.3535 168.965 66.7835 168.965 68.0116C168.965 69.3793 168.896 69.6483 168.33 70.4465C167.981 70.9377 167.314 71.5242 166.848 71.7486C166.382 71.9709 165.643 72.1551 165.207 72.1572C164.771 72.1572 164.081 72.0154 162.931 71.5242L163.037 75.6531L163.727 75.8648C164.106 75.9813 164.418 76.1718 164.415 76.2883C164.413 76.4174 163.458 76.5 161.978 76.5C160.494 76.5 159.546 76.4174 159.548 76.2883C159.55 76.1718 159.861 75.9325 160.92 75.4413L160.975 72.7946C161.007 71.3379 160.958 69.1465 160.869 67.9248C160.723 65.9006 160.665 65.6825 160.231 65.4898C159.969 65.3734 159.753 65.1595 159.755 65.0134C159.755 64.8673 159.874 64.7465 160.02 64.7465C160.166 64.7443 160.761 64.5136 161.343 64.2341C161.925 63.9525 162.52 63.7156 162.666 63.707ZM164.572 65.5407C164.193 65.5555 163.67 65.6042 163.407 65.6465C162.948 65.7206 162.931 65.8013 162.931 68.0519C162.931 70.0993 162.982 70.4318 163.354 70.8045C163.653 71.103 164.06 71.2279 164.731 71.2279C165.413 71.2279 165.84 71.0924 166.238 70.7515C166.672 70.3789 166.819 70.021 166.907 69.1106C166.982 68.3505 166.918 67.6962 166.723 67.224C166.558 66.8281 166.162 66.2797 165.842 66.0065C165.465 65.6847 165.019 65.5216 164.572 65.5407Z" fill="#160704"/>
<path d="M109.566 32.8023C109.561 32.7472 109.777 32.7852 110.042 32.8868C110.309 32.9863 111.169 33.4375 111.954 33.8864C112.74 34.3352 113.966 35.1333 114.679 35.6563C115.393 36.1814 116.707 37.3714 117.601 38.303C118.495 39.2346 119.71 40.7125 120.301 41.5849C120.889 42.4593 121.755 43.9351 122.223 44.8668C122.689 45.7984 123.33 47.2763 123.646 48.1487C123.961 49.0231 124.4 50.5476 124.622 51.5364C124.842 52.5273 125.082 54.3842 125.154 55.6652C125.247 57.304 125.188 58.6211 124.957 60.1117C124.775 61.2762 124.421 62.8494 124.171 63.6053C123.919 64.3612 123.428 65.5532 123.077 66.252C122.727 66.9507 122.037 68.0941 121.546 68.7928C121.052 69.4915 120.119 70.5396 119.469 71.1219C118.819 71.7041 117.779 72.4897 117.159 72.8687C116.54 73.2498 115.175 73.866 114.126 74.2408C112.329 74.8823 112.051 74.9226 109.257 74.9269C106.777 74.9311 106.015 74.8528 104.598 74.442C103.667 74.1731 102.142 73.5949 101.211 73.1608C100.279 72.7247 98.945 71.9795 98.2463 71.5031C97.5476 71.0289 96.4275 70.1522 95.7584 69.5572C95.0896 68.9624 94.6133 68.4798 94.6998 68.4816C94.7866 68.4858 95.3816 68.8077 96.0231 69.1952C96.6625 69.5826 97.8546 70.2347 98.6698 70.6434C99.5612 71.0901 101.164 71.6154 102.693 71.9626C104.639 72.4051 105.78 72.5385 107.563 72.5364C108.844 72.5343 110.512 72.422 111.268 72.2843C112.024 72.1467 113.358 71.7762 114.232 71.4608C115.105 71.1432 116.528 70.4148 117.389 69.8388C118.253 69.2629 119.424 68.3164 119.994 67.7341C120.563 67.1518 121.427 66.0551 121.914 65.2992C122.401 64.5433 122.854 63.8763 122.922 63.817C122.988 63.7577 123.407 62.6144 124.656 58.8413L124.552 55.5594C124.468 52.9022 124.341 51.8752 123.883 50.1601C123.572 48.9956 122.812 46.9947 122.194 45.7137C121.575 44.4327 120.523 42.6224 119.856 41.6908C119.189 40.7591 117.959 39.2981 117.125 38.4449C116.29 37.5937 114.893 36.3508 114.021 35.6838C113.146 35.019 111.789 34.1212 111.003 33.6893C110.218 33.2575 109.57 32.8595 109.566 32.8023Z" fill="#160704"/>
<path d="M138.317 60.0122C138.753 59.9 140.015 59.8513 141.123 59.9043C142.23 59.9551 143.35 60.0715 143.617 60.1605C143.941 60.2706 144.201 60.6347 144.413 61.2762C144.584 61.7991 144.726 62.3962 144.724 62.5995C144.722 62.8282 144.559 62.9701 144.299 62.9701C144.066 62.97 143.604 62.6609 143.274 62.2819C142.941 61.9029 142.3 61.4139 141.845 61.1937C141.389 60.9735 140.589 60.7936 140.064 60.7936C139.482 60.7915 138.874 60.9481 138.501 61.1937C138.165 61.4139 137.642 62.0215 137.337 62.5466C136.858 63.3724 136.776 63.7938 136.708 65.7226C136.638 67.7172 136.681 68.0518 137.129 68.9855C137.405 69.5593 137.868 70.2073 138.158 70.4275C138.45 70.6477 139.069 70.9271 139.535 71.0478C140.151 71.2087 140.612 71.1982 141.228 71.0119C141.737 70.8594 142.488 70.3449 143.111 69.7224C143.68 69.1529 144.324 68.6869 144.54 68.6869C144.834 68.6869 144.911 68.8077 144.843 69.1633C144.792 69.4259 144.673 70.0018 144.578 70.4422C144.426 71.143 144.284 71.2913 143.452 71.6067C142.774 71.865 141.887 71.9667 140.382 71.9583C138.726 71.9498 138.057 71.8544 137.311 71.5199C136.786 71.2827 135.995 70.7641 135.548 70.3661C135.103 69.9659 134.533 69.2099 134.284 68.6869C133.947 67.9798 133.831 67.3254 133.828 66.1461C133.826 65.2716 133.958 64.177 134.123 63.7112C134.286 63.2453 134.858 62.4006 135.389 61.8353C135.923 61.27 136.621 60.673 136.941 60.512C137.261 60.3511 137.881 60.1244 138.317 60.0122Z" fill="#160704"/>
<path fill-rule="evenodd" clip-rule="evenodd" d="M193.474 64.2448C194.463 64.2406 194.799 64.3358 195.274 64.7529C195.845 65.2547 195.856 65.3162 195.909 67.9289C195.953 70.1307 196.017 70.5924 196.279 70.5925C196.455 70.5925 196.597 70.4972 196.597 70.3808C196.597 70.2644 196.716 70.2031 196.862 70.2433C197.008 70.2856 197.095 70.4995 197.054 70.7197C197.014 70.942 196.824 71.2913 196.631 71.4988C196.438 71.7063 196.017 71.8736 195.697 71.8693C195.339 71.8651 194.912 71.6384 194.05 70.6984L193.506 71.2277C193.074 71.647 192.693 71.7741 191.655 71.8418C190.541 71.9138 190.281 71.8609 189.874 71.4713C189.612 71.2215 189.398 70.7767 189.398 70.4867C189.398 70.1945 189.612 69.7181 189.874 69.4239C190.137 69.1317 191.113 68.5621 192.045 68.1619C193.703 67.4463 193.741 67.4144 193.804 66.6289C193.84 66.1885 193.817 65.6146 193.751 65.3521C193.686 65.0896 193.491 64.827 193.315 64.7698C193.139 64.7106 192.688 64.791 192.309 64.9456C191.816 65.1467 191.56 65.4326 191.403 65.9513C191.249 66.4573 190.961 66.7835 190.451 67.0354C190.046 67.2345 189.644 67.4017 189.557 67.406C189.47 67.4122 189.398 67.1772 189.398 66.8872C189.398 66.595 189.661 66.055 189.98 65.6867C190.3 65.3161 190.944 64.842 191.41 64.6323C191.905 64.41 192.763 64.247 193.474 64.2448ZM192.733 68.6786C191.799 69.2757 191.731 69.3795 191.78 70.1163C191.824 70.7874 191.915 70.9208 192.362 70.9779C192.654 71.0139 193.112 70.8721 193.381 70.6603C193.8 70.3301 193.859 70.1162 193.804 69.155L193.738 68.035L192.733 68.6786Z" fill="#160704"/>
<path fill-rule="evenodd" clip-rule="evenodd" d="M152.927 64.2405C153.539 64.2405 154.28 64.3591 154.572 64.5052C154.866 64.6512 155.201 65.0557 155.317 65.405C155.434 65.7544 155.527 67.065 155.525 68.3164C155.521 70.2006 155.576 70.5924 155.838 70.5925C156.012 70.5925 156.192 70.474 156.234 70.3279C156.289 70.1458 156.395 70.1289 156.571 70.2749C156.77 70.4401 156.77 70.6032 156.565 71.016C156.423 71.3061 156.2 71.6153 156.071 71.7C155.944 71.7868 155.576 71.8588 155.256 71.8588C154.913 71.8609 154.455 71.6448 153.615 70.8043L152.98 71.3336C152.472 71.7571 152.112 71.8629 151.18 71.8629C150.541 71.8629 149.848 71.7803 149.645 71.6787C149.442 71.577 149.202 71.2446 149.116 70.9376C149.012 70.5777 149.069 70.1563 149.274 69.7456C149.497 69.2989 149.986 68.9283 150.915 68.4985C151.644 68.1619 152.429 67.8336 152.662 67.7701C152.895 67.7045 153.208 67.5267 153.357 67.3764C153.537 67.1922 153.59 66.7601 153.515 66.0932C153.435 65.3712 153.285 65.0281 152.98 64.8757C152.697 64.7346 152.344 64.7346 151.921 64.8757C151.438 65.0366 151.222 65.2908 151.021 65.9387C150.814 66.6077 150.598 66.8533 150.015 67.082C149.607 67.2407 149.202 67.334 149.116 67.2895C149.029 67.2429 148.957 67.0142 148.957 66.7813C148.957 66.5484 149.179 66.0952 149.452 65.7756C149.723 65.4558 150.367 64.9794 150.882 64.7169C151.498 64.4036 152.192 64.2405 152.927 64.2405ZM153.409 68.1979C153.32 68.1303 152.853 68.3102 152.372 68.5939C151.891 68.8776 151.44 69.3244 151.37 69.587C151.303 69.8495 151.303 70.2773 151.37 70.5398C151.464 70.8849 151.658 71.0182 152.08 71.0224C152.399 71.0266 152.825 70.8594 153.024 70.6519C153.225 70.4444 153.428 69.8347 153.479 69.2969C153.528 68.7591 153.496 68.2657 153.409 68.1979Z" fill="#160704"/>
<path d="M175.684 63.8319C176.019 63.8192 176.057 64.1581 176.165 71.1219L176.747 71.1748C177.1 71.2066 177.329 71.3527 177.329 71.5453C177.329 71.8079 176.929 71.8629 175 71.8629C173.071 71.8629 172.671 71.8079 172.671 71.5453C172.671 71.3485 172.87 71.2277 173.2 71.2277C173.49 71.2277 173.778 71.1324 173.836 71.016C173.893 70.8994 173.956 69.7328 173.973 68.4222C173.99 67.1116 173.942 65.9217 173.867 65.7756C173.791 65.6295 173.49 65.5109 173.2 65.5109C172.87 65.5109 172.671 65.3902 172.671 65.1933C172.671 64.9985 172.936 64.8355 173.359 64.7698C173.738 64.7105 174.333 64.4798 174.682 64.2554C175.032 64.0309 175.483 63.8404 175.684 63.8319Z" fill="#160704"/>
<path d="M183.495 62.5466C183.597 62.5466 183.709 62.7033 183.743 62.8917C183.774 63.0823 183.774 63.5587 183.743 63.9504C183.681 64.6639 183.681 64.664 184.634 64.664C185.445 64.664 185.587 64.7275 185.587 65.0874C185.587 65.4474 185.445 65.5109 183.681 65.5109L183.734 68.1046C183.787 70.6983 183.787 70.6985 184.316 70.7577C184.606 70.7916 184.941 70.7175 185.057 70.5969C185.204 70.4444 185.352 70.4741 185.534 70.6963C185.756 70.9631 185.686 71.0837 185.11 71.4395C184.708 71.6872 184.05 71.8608 183.522 71.8629C182.786 71.8629 182.544 71.757 182.193 71.2807C181.812 70.7683 181.761 70.3871 181.776 65.5109H181.246C180.954 65.5109 180.717 65.3923 180.715 65.2462C180.715 65.1001 181.03 64.8016 181.418 64.5835C181.803 64.3633 182.388 63.8149 182.714 63.366C183.04 62.9152 183.391 62.5467 183.495 62.5466Z" fill="#160704"/>
<path d="M202.314 60.116C202.606 59.9467 202.938 59.8386 203.055 59.8724C203.186 59.9105 203.307 62.0745 203.478 71.1219L204.061 71.1748C204.414 71.2066 204.643 71.3527 204.643 71.5453C204.643 71.8079 204.243 71.8629 202.314 71.8629C200.554 71.8629 200.002 71.7973 200.055 71.5983C200.095 71.4522 200.309 71.3018 200.531 71.2637C200.756 71.2235 201.058 71.0329 201.207 70.8402C201.395 70.5903 201.473 69.5739 201.469 67.4165C201.467 65.7269 201.393 63.6985 201.306 62.9066C201.168 61.6426 201.09 61.4541 200.673 61.3715C200.41 61.3186 200.197 61.1809 200.197 61.0645C200.197 60.948 200.554 60.7554 200.991 60.6369C201.427 60.5183 202.024 60.2833 202.314 60.116Z" fill="#160704"/>
<path d="M95.4936 32.9251C97.0073 32.6223 98.4364 32.4232 98.6696 32.4803C98.9025 32.5396 99.4742 32.6348 99.94 32.6941C100.406 32.7534 101.001 32.8445 101.263 32.8953C101.526 32.9461 101.693 33.0838 101.634 33.2003C101.574 33.3167 101.098 33.412 100.575 33.412C100.052 33.412 99.6224 33.5073 99.6224 33.6238C99.6225 33.7402 99.9316 33.8332 100.311 33.8332C100.69 33.8311 101.284 33.884 101.634 33.9476C101.983 34.0132 102.792 34.494 103.434 35.0191C104.075 35.542 105.388 36.4674 106.353 37.0729C107.319 37.6806 108.104 38.248 108.1 38.3348C108.096 38.4216 107.973 38.4956 107.827 38.4999C107.681 38.504 107.205 38.2648 106.768 37.9705C106.332 37.6763 106.036 37.5536 106.112 37.6996C106.188 37.8458 106.402 38.1316 106.589 38.3348C106.792 38.555 106.864 38.8324 106.768 39.023C106.682 39.1966 106.692 39.3639 106.792 39.3935C106.891 39.4232 107.533 40.1134 108.217 40.9286C108.901 41.7438 110.677 43.8167 112.164 45.5338C113.65 47.251 114.867 48.7035 114.867 48.7628C114.867 48.822 114.749 48.8664 114.603 48.8643C114.456 48.862 113.694 48.3369 112.909 47.6998C112.123 47.0625 111.427 46.5629 111.361 46.5925C111.298 46.6223 111.368 47.2172 111.516 47.9158C111.672 48.6548 112.077 49.6055 112.479 50.192C112.862 50.7446 113.173 51.2443 113.173 51.3036C113.173 51.3629 112.911 51.4115 112.591 51.4136C112.022 51.4178 112.028 51.4348 112.96 52.2076C113.483 52.6417 114.793 53.783 115.871 54.7443C116.949 55.7055 117.832 56.5864 117.832 56.7028C117.832 56.8192 117.736 56.9146 117.62 56.9146C117.503 56.9144 116.86 56.5439 116.191 56.0931C115.522 55.6399 114.116 54.8395 113.068 54.3123C112.019 53.783 110.686 53.1625 110.103 52.9317C109.521 52.7009 108.424 52.3453 107.668 52.1441C106.743 51.8964 105.633 51.7885 104.281 51.8139C103.175 51.8351 101.651 52.0044 100.893 52.1886C99.6945 52.4829 99.3429 52.6925 98.1742 53.821C97.4373 54.5325 96.584 55.5446 96.2791 56.0676C95.9742 56.5906 95.6631 57.067 95.5848 57.1263C95.5064 57.1856 95.3222 58.0897 95.1718 59.1378C95.0236 60.1856 94.8437 61.1129 94.7738 61.1978C94.7039 61.2825 93.8844 61.0773 92.9528 60.7427C92.0212 60.4082 90.844 60.0037 90.3359 59.847C89.8278 59.6903 89.3387 59.466 89.2517 59.3495C89.1628 59.2331 88.5298 58.9133 87.8459 58.6359C87.162 58.3607 86.4335 58.1955 86.2302 58.2654C85.883 58.3882 85.8915 58.4836 86.3361 59.7242C86.6198 60.5139 87.1555 61.4267 87.6594 61.9772C88.1252 62.4874 88.8642 63.1755 89.3003 63.5079C89.9715 64.0203 90.1685 64.0774 90.5707 63.8784C90.8481 63.7408 91.3584 63.7048 91.7882 63.7916C92.1947 63.872 92.9592 64.1198 94.4349 64.7465L94.689 66.2815C94.8309 67.1263 94.8775 67.8801 94.7949 67.9564C94.7144 68.0305 94.2168 68.1343 93.6938 68.1851C92.8702 68.2655 92.4382 68.128 90.5178 67.1752C89.294 66.5675 87.7442 65.9408 87.073 65.7799C86.1584 65.5618 85.8534 65.3966 85.8555 65.1193C85.8576 64.916 85.7644 64.7487 85.6479 64.7487C85.5315 64.7485 85.3516 64.3442 85.2457 63.8489C85.142 63.3535 85.108 62.8051 85.1715 62.6314C85.2372 62.4514 84.7397 61.4922 84.0177 60.4082C83.3211 59.3601 82.6392 58.1935 82.5058 57.8144C82.3152 57.283 82.3216 56.9758 82.5248 56.4698C82.6709 56.1099 83.1241 55.6207 83.5306 55.3857C83.9371 55.1507 84.4855 54.9687 84.748 54.9835C85.0105 54.9983 85.2243 54.9623 85.2244 54.9031C85.2244 54.8438 85.1314 54.6786 85.0171 54.5325C84.9027 54.3864 84.331 53.3383 83.7466 52.2035C83.1623 51.0687 82.6837 49.9974 82.6836 49.8214C82.6836 49.6457 82.5926 49.5038 82.4783 49.5038C82.366 49.504 81.4386 50.3614 80.4139 51.4115C79.0716 52.7877 78.356 53.3616 77.8414 53.4759C77.4476 53.5627 77.0898 53.7047 77.0474 53.7915C77.003 53.8783 77.0854 53.9502 77.2315 53.9503C77.3776 53.9503 77.71 54.522 77.9725 55.2207C78.2351 55.9194 78.4024 56.5864 78.3431 56.7028C78.2857 56.8193 77.784 57.0563 77.2315 57.2299C76.6789 57.4014 76.2067 57.5221 76.1813 57.4946C76.1553 57.4652 75.8584 56.5831 74.9003 53.6327L82.366 45.9403L83.177 46.0801C83.8588 46.1987 84.0917 46.3892 84.6422 47.2806C85.0042 47.8629 85.5444 48.6102 85.8429 48.9427C86.1436 49.2772 87.2023 50.2302 90.0077 52.574L90.0437 51.3036C90.0649 50.6049 90.1707 49.9379 90.2808 49.8214C90.3909 49.705 90.5391 49.2751 90.609 48.8686C90.681 48.4621 91.0028 47.6978 91.3267 47.1748C91.6612 46.6327 92.6396 45.6608 93.5987 44.9176C95.0999 43.7531 95.3454 43.463 95.8641 42.218C96.1838 41.4495 96.4463 40.6322 96.4464 40.3993C96.4464 40.1664 96.1838 39.5925 95.8641 39.1224C95.5444 38.6545 95.1866 38.2713 95.0701 38.2734C94.9538 38.2735 94.9792 38.3962 95.1274 38.5422C95.2735 38.6905 95.3942 39.1204 95.392 39.4994C95.3878 40.0266 95.1888 40.3739 94.543 40.9815C94.0772 41.4177 93.1011 42.0274 92.3728 42.3365C91.3035 42.7875 90.9434 43.0713 90.5178 43.7891C90.016 44.636 89.9503 44.6742 89.2474 44.5366C88.8409 44.454 88.2418 44.1342 87.9199 43.823C87.596 43.5118 87.3336 43.1625 87.3356 43.0459C87.3356 42.9295 87.7125 41.8348 88.172 40.611C88.6314 39.3872 89.2538 37.5303 89.5545 36.4822C89.9864 34.9789 90.0689 34.369 89.7767 32.6095L90.5178 32.673C90.9243 32.7069 91.5934 32.9017 92 33.105C92.7177 33.4628 92.8279 33.4565 95.4936 32.9251Z" fill="#160704"/>
<path d="M174.38 60.1245C174.655 59.9403 175.066 59.8514 175.307 59.9212C175.546 59.9911 175.862 60.205 176.01 60.3976C176.156 60.5903 176.277 60.9142 176.275 61.1174C176.273 61.3207 176.08 61.6785 175.847 61.9114C175.614 62.1443 175.305 62.335 175.159 62.3372C175.013 62.3371 174.68 62.1953 174.418 62.0196C174.121 61.8205 173.931 61.4647 173.914 61.0773C173.893 60.639 174.033 60.3553 174.38 60.1245Z" fill="#160704"/>
<path fill-rule="evenodd" clip-rule="evenodd" d="M203.9 41.9238C204.016 41.8984 204.493 41.9321 204.958 41.9999C205.426 42.0676 206.07 42.288 206.39 42.4891C206.709 42.6902 207.112 43.0692 207.281 43.3317C207.453 43.5943 207.667 44.1322 207.925 45.2501L202.526 44.9726V45.6608C202.523 46.0398 202.706 46.6813 202.926 47.09C203.146 47.4965 203.646 48.0027 204.038 48.2123C204.527 48.4749 204.999 48.5574 205.543 48.477C205.979 48.4135 206.551 48.2144 206.813 48.0366C207.241 47.7486 207.317 47.7486 207.554 48.0366C207.777 48.3076 207.707 48.4452 207.131 48.8751C206.752 49.1566 206.18 49.4912 205.86 49.6161C205.541 49.741 204.825 49.8448 204.272 49.8469C203.616 49.8511 202.934 49.6775 202.314 49.3515C201.638 48.9957 201.221 48.5764 200.881 47.9158C200.576 47.3251 200.4 46.6178 200.404 45.9784C200.406 45.4258 200.535 44.6635 200.692 44.2845C200.849 43.9055 201.325 43.2872 201.751 42.9082C202.176 42.5293 202.788 42.1651 203.108 42.0952C203.428 42.0275 203.785 41.9492 203.9 41.9238ZM204.232 42.432C204.006 42.432 203.582 42.6459 203.288 42.9084C202.993 43.171 202.701 43.6474 202.64 43.9671L202.525 44.5494C204.494 44.5494 205.208 44.5028 205.384 44.4435C205.56 44.3864 205.701 44.1471 205.701 43.9142C205.701 43.6813 205.464 43.2536 205.172 42.9614C204.882 42.6713 204.459 42.4321 204.232 42.432Z" fill="#160704"/>
<path fill-rule="evenodd" clip-rule="evenodd" d="M150.543 41.9238C150.659 41.8984 151.136 41.9321 151.601 41.9999C152.069 42.0676 152.713 42.288 153.033 42.4891C153.352 42.6902 153.755 43.0692 153.924 43.3317C154.096 43.5943 154.309 44.1322 154.568 45.2501L149.168 44.9726V45.6608C149.166 46.0398 149.349 46.6835 149.569 47.09C149.789 47.4965 150.289 47.9983 150.68 48.2016C151.072 48.407 151.582 48.5722 151.815 48.568C152.048 48.5659 152.643 48.3753 153.139 48.1445C153.926 47.7761 154.064 47.7655 154.25 48.0428C154.413 48.2863 154.303 48.4812 153.774 48.8835C153.395 49.1715 152.751 49.5039 152.345 49.6246C151.936 49.7453 151.222 49.8448 150.756 49.8448C150.291 49.8448 149.484 49.6309 148.965 49.3684C148.281 49.0212 147.888 48.6272 147.532 47.9369C147.219 47.3271 147.043 46.622 147.047 45.9784C147.049 45.4258 147.178 44.6635 147.335 44.2845C147.492 43.9055 147.968 43.2872 148.394 42.9082C148.819 42.5293 149.431 42.1651 149.751 42.0952C150.07 42.0275 150.428 41.9492 150.543 41.9238ZM150.845 42.432C150.604 42.432 150.136 42.7115 149.803 43.0503C149.471 43.3912 149.194 43.8676 149.185 44.109C149.17 44.507 149.289 44.5494 150.439 44.5494C151.137 44.5494 151.853 44.5028 152.027 44.4435C152.2 44.3864 152.344 44.1471 152.344 43.9142C152.344 43.6813 152.107 43.2536 151.815 42.9614C151.525 42.6713 151.089 42.4321 150.845 42.432Z" fill="#160704"/>
<path d="M195.327 41.9873C195.733 41.9005 196.495 41.875 197.02 41.93C197.546 41.9872 198.21 42.2032 198.503 42.4128C198.888 42.6923 199.032 42.9909 199.032 43.5139C199.032 44.1724 198.975 44.2358 198.344 44.2845C197.755 44.329 197.586 44.2253 197.179 43.5668C196.917 43.1433 196.536 42.7156 196.332 42.614C196.123 42.5103 195.754 42.5145 195.485 42.6204C195.223 42.7263 194.791 43.0354 194.524 43.3085C194.23 43.6113 193.991 44.1829 193.914 44.7609C193.847 45.2839 193.891 46.0482 194.016 46.4548C194.141 46.8613 194.584 47.505 194.996 47.884C195.583 48.4197 195.936 48.5721 196.597 48.5721C197.258 48.5721 197.609 48.4197 198.196 47.884C198.793 47.3378 199 47.2509 199.202 47.4605C199.401 47.6659 199.36 47.8523 199.019 48.3075C198.78 48.6272 198.16 49.1059 197.643 49.3684C197.069 49.6606 196.332 49.8426 195.75 49.8405C195.225 49.8362 194.416 49.6605 193.95 49.4509C193.485 49.2413 192.841 48.7669 192.521 48.3964C192.14 47.956 191.895 47.3779 191.808 46.7195C191.736 46.1668 191.784 45.3559 191.914 44.9197C192.045 44.4835 192.413 43.8272 192.733 43.463C193.053 43.0967 193.601 42.6521 193.95 42.4722C194.3 42.2922 194.92 42.0741 195.327 41.9873Z" fill="#160704"/>
<path fill-rule="evenodd" clip-rule="evenodd" d="M176.853 42.0276C177.742 42.0128 178.081 42.1101 178.547 42.5187C179.112 43.0141 179.131 43.101 179.19 45.5359C179.226 46.9142 179.298 48.1845 179.351 48.3604C179.436 48.6335 179.51 48.6251 179.872 48.3075C180.116 48.0937 180.338 48.026 180.399 48.1487C180.456 48.2651 180.425 48.5743 180.325 48.8368C180.228 49.0993 179.989 49.3852 179.796 49.472C179.603 49.5588 179.209 49.6308 178.917 49.6308C178.627 49.6308 178.174 49.4063 177.435 48.6335L176.694 49.1374C176.133 49.5207 175.671 49.6437 174.788 49.6416C174.149 49.6394 173.444 49.5166 173.226 49.3705C172.989 49.2096 172.817 48.8284 172.802 48.4282C172.785 47.9624 172.953 47.5686 173.342 47.1578C173.653 46.8296 174.691 46.2261 177.382 45.0785L177.232 44.0198C177.151 43.4376 177.043 42.8892 176.995 42.8024C176.946 42.7156 176.569 42.6436 176.156 42.6436C175.697 42.6436 175.294 42.7854 175.114 43.0141C174.954 43.2174 174.742 43.6494 174.647 43.9733C174.519 44.3947 174.231 44.6509 173.624 44.8796C173.158 45.0532 172.747 45.1696 172.711 45.1379C172.675 45.104 172.699 44.7694 172.764 44.3904C172.843 43.9352 173.152 43.4843 173.677 43.0608C174.113 42.7073 174.757 42.3367 175.106 42.2329C175.455 42.1313 176.241 42.0382 176.853 42.0276ZM177.136 45.9701C177.043 45.9066 176.787 45.9552 176.567 46.078C176.344 46.1987 175.9 46.5481 175.578 46.853C175.254 47.1579 174.994 47.5751 174.996 47.7783C174.998 47.9816 175.049 48.2929 175.106 48.4665C175.165 48.6443 175.47 48.786 175.794 48.7903C176.114 48.7945 176.546 48.6272 176.755 48.4197C176.971 48.2038 177.168 47.6237 177.219 47.0648C177.266 46.5271 177.227 46.0339 177.136 45.9701Z" fill="#160704"/>
<path fill-rule="evenodd" clip-rule="evenodd" d="M133.291 38.0172C133.93 37.9008 135.978 37.8247 137.841 37.8458C140.837 37.8797 141.326 37.9369 142.075 38.3328C142.541 38.5784 143.242 39.0546 143.632 39.3892C144.021 39.7237 144.591 40.522 144.9 41.1614C145.355 42.11 145.457 42.6203 145.448 43.914C145.442 45.1864 145.332 45.7117 144.9 46.5607C144.604 47.1429 143.99 47.9327 143.536 48.3139C143.081 48.695 142.234 49.1481 141.652 49.3217C140.873 49.5525 139.492 49.6352 136.411 49.6331C132.372 49.631 132.23 49.616 132.23 49.2073C132.23 48.9089 132.37 48.784 132.706 48.7861C132.969 48.7861 133.396 48.6442 133.659 48.4685C134.129 48.1531 134.135 48.0809 134.135 43.5964C134.135 40.107 134.074 39.0399 133.871 39.023C133.724 39.0103 133.297 39.0103 132.918 39.023C132.389 39.0399 132.217 38.9509 132.179 38.6376C132.135 38.2988 132.325 38.193 133.291 38.0172ZM138.247 38.6229C137.538 38.6229 136.879 38.6843 136.782 38.7627C136.684 38.8398 136.621 40.8403 136.64 43.2091C136.676 47.4966 136.678 47.5158 137.205 48.043C137.497 48.3352 138.092 48.6316 138.529 48.7036C138.971 48.7777 139.697 48.7185 140.17 48.5703C140.635 48.4221 141.266 48.0535 141.571 47.7486C141.874 47.4458 142.281 46.6731 142.473 46.0315C142.664 45.3921 142.818 44.3906 142.816 43.8083C142.816 43.2261 142.71 42.3685 142.585 41.9027C142.461 41.4369 142.103 40.6915 141.794 40.2469C141.483 39.8022 140.847 39.2559 140.381 39.0315C139.837 38.7711 139.075 38.625 138.247 38.6229Z" fill="#160704"/>
<path d="M155.779 38.1696C155.732 37.9304 156.592 37.8859 165.79 37.9409L165.843 39.2347C165.887 40.3442 165.843 40.5262 165.525 40.5262C165.313 40.5261 164.972 40.1831 164.308 38.9382H160.073L159.967 43.067H161.646C162.849 43.067 163.418 42.9781 163.658 42.7494C163.84 42.5737 163.99 42.1925 163.99 41.9025C163.99 41.5151 164.102 41.3732 164.413 41.3732C164.811 41.3732 164.833 41.496 164.784 43.4206C164.748 44.8435 164.651 45.4893 164.466 45.538C164.32 45.576 164.106 45.322 163.99 44.9726C163.871 44.6148 163.547 44.2443 163.249 44.1257C162.957 44.0093 162.099 43.914 159.967 43.914L159.963 46.0843C159.961 47.5579 160.045 48.3414 160.227 48.5235C160.376 48.6696 160.733 48.7861 161.026 48.7777C161.316 48.7713 161.674 48.8876 161.818 49.0401C161.964 49.1904 162.019 49.3852 161.942 49.472C161.864 49.5588 160.437 49.6308 158.766 49.6308C156.211 49.6308 155.732 49.58 155.732 49.3132C155.732 49.1163 156.035 48.932 157.32 48.661V38.9382L156.579 38.699C156.171 38.5677 155.813 38.3305 155.779 38.1696Z" fill="#160704"/>
<path d="M169.866 41.5998C170.012 41.5913 170.185 41.7988 170.251 42.0613C170.319 42.3238 170.342 43.9649 170.236 48.8792L170.854 48.9915C171.193 49.0507 171.502 49.2201 171.542 49.3661C171.595 49.5673 171.022 49.6308 169.177 49.6308C167.333 49.6308 166.759 49.5673 166.812 49.3661C166.853 49.2201 167.162 49.0528 168.119 48.8856V43.3846L167.536 43.3317C167.183 43.2999 166.954 43.1538 166.954 42.9612C166.954 42.7855 167.122 42.6458 167.325 42.6479C167.528 42.65 168.123 42.4192 168.648 42.1355C169.173 41.8497 169.719 41.6104 169.866 41.5998Z" fill="#160704"/>
<path d="M184.052 41.5934C184.215 41.587 184.316 41.8708 184.316 43.067L185.216 42.54C185.811 42.1927 186.438 42.0127 187.069 42.0127C187.653 42.0106 188.289 42.1735 188.71 42.4318C189.089 42.6646 189.413 42.8784 189.43 42.9082C189.447 42.9379 189.519 44.2951 189.589 45.9255C189.711 48.8006 189.731 48.8918 190.192 48.9427C190.455 48.9723 190.668 49.1375 190.668 49.3132C190.668 49.5736 190.292 49.6308 188.551 49.6308C187.281 49.6308 186.434 49.5461 186.434 49.4191C186.434 49.3026 186.722 49.1353 187.715 48.8897L187.709 46.4019C187.704 44.0347 187.679 43.8886 187.175 43.3846C186.764 42.9739 186.514 42.8871 186.063 42.993C185.743 43.0671 185.218 43.3064 184.899 43.5223C184.323 43.9098 184.317 43.9374 184.31 46.296C184.304 48.6357 184.314 48.6822 184.84 48.9427C185.134 49.0887 185.375 49.3026 185.375 49.4191C185.375 49.5461 184.528 49.6308 183.258 49.6308C181.987 49.6308 181.14 49.5461 181.14 49.4191C181.141 49.3026 181.403 49.0867 181.723 48.9406C182.286 48.6823 182.307 48.6145 182.369 46.7703C182.405 45.7244 182.333 44.6042 182.21 44.2845C182.087 43.9648 181.797 43.6535 181.564 43.5964C181.331 43.5371 181.14 43.3486 181.14 43.1729C181.14 42.9781 181.405 42.8151 181.829 42.7494C182.208 42.6901 182.803 42.4065 183.152 42.1206C183.501 41.8348 183.906 41.5977 184.052 41.5934Z" fill="#160704"/>
<path d="M169.12 37.7675C169.51 37.7632 169.976 37.9242 170.19 38.138C170.471 38.4217 170.524 38.6673 170.401 39.1309C170.31 39.4718 170.046 39.8402 169.813 39.9524C169.58 40.0646 169.222 40.0964 169.019 40.0244C168.815 39.9502 168.504 39.6771 168.326 39.4146C168.083 39.0526 168.055 38.7984 168.216 38.3559C168.388 37.8859 168.561 37.7717 169.12 37.7675Z" fill="#160704"/>
<path d="M74.8495 31.5C74.9066 31.5 77.7185 32.1798 81.0956 33.014C84.4725 33.846 87.5214 34.5532 87.8711 34.585C88.2205 34.6189 88.7689 34.7481 89.0886 34.8751C89.4083 35.0022 89.6731 35.1779 89.6752 35.2647C89.6794 35.3516 89.5354 35.7814 89.3576 36.2175C89.1374 36.7637 88.9023 37.0115 88.6122 37.0115C88.3792 37.0115 87.7843 36.8504 87.2889 36.6557C86.7934 36.4588 86.3403 36.2365 86.2831 36.1582C86.2258 36.0798 85.6054 35.8045 84.9068 35.5484C84.208 35.29 81.7307 34.3585 79.4017 33.4734C77.0727 32.5905 75.0718 31.7859 74.9553 31.6842C74.839 31.5827 74.7903 31.5001 74.8495 31.5Z" fill="#160704"/>
</svg>
