<svg width="283" height="108" viewBox="0 0 283 108" fill="none" xmlns="http://www.w3.org/2000/svg">
<mask id="path-1-inside-1_140_904" fill="white">
<path d="M0 12C0 5.37258 5.37258 0 12 0H270.75C277.377 0 282.75 5.37258 282.75 12V96C282.75 102.627 277.377 108 270.75 108H12C5.37258 108 0 102.627 0 96V12Z"/>
</mask>
<path d="M0 12C0 5.37258 5.37258 0 12 0H270.75C277.377 0 282.75 5.37258 282.75 12V96C282.75 102.627 277.377 108 270.75 108H12C5.37258 108 0 102.627 0 96V12Z" fill="#F7F7F7"/>
<path d="M12 0V1H270.75V0V-1H12V0ZM282.75 12H281.75V96H282.75H283.75V12H282.75ZM270.75 108V107H12V108V109H270.75V108ZM0 96H1V12H0H-1V96H0ZM12 108V107C5.92486 107 1 102.075 1 96H0H-1C-1 103.18 4.82029 109 12 109V108ZM282.75 96H281.75C281.75 102.075 276.825 107 270.75 107V108V109C277.93 109 283.75 103.18 283.75 96H282.75ZM270.75 0V1C276.825 1 281.75 5.92487 281.75 12H282.75H283.75C283.75 4.8203 277.93 -1 270.75 -1V0ZM12 0V-1C4.8203 -1 -1 4.8203 -1 12H0H1C1 5.92487 5.92487 1 12 1V0Z" fill="#160704" fill-opacity="0.09" mask="url(#path-1-inside-1_140_904)"/>
<path d="M79.079 59.6245V44.5918H73.9189V63.9961H86.9896V59.6233L79.079 59.6245ZM163.451 44.5918H158.293V63.9961H163.451V44.5918ZM118.732 44.5918H113.797V48.9657H118.732V63.9972H123.89V48.9657H128.826V44.593H118.732M150.332 44.5918H135.304V48.9657H140.238V63.9972H145.398V48.9657H150.332V44.5918ZM208.83 48.9657V44.593H195.734V63.9972H208.83V59.6245H200.893V56.482H207.448V52.1081H200.893V48.9657H208.83Z" fill="#160704"/>
<path d="M92.4336 63.997H110.717L101.576 44.0002L92.4336 63.997Z" fill="#160704"/>
<path d="M180.66 59.6808C177.967 59.6808 175.786 57.1471 175.786 54.0221C175.786 50.897 177.968 48.3634 180.66 48.3634C182.382 48.3634 183.894 49.4012 184.76 50.9666L188.626 48.0862C187.682 46.8295 186.457 45.8102 185.05 45.1094C183.643 44.4085 182.092 44.0453 180.521 44.0486C174.951 44.0486 170.435 48.5153 170.435 54.0244C170.435 59.5335 174.951 64.0002 180.521 64.0002C182.198 64.0041 183.851 63.59 185.329 62.7951C186.806 62.0003 188.063 60.8499 188.984 59.4477L184.91 56.7935C184.075 58.5177 182.485 59.6843 180.66 59.6843V59.6808Z" fill="#160704"/>
</svg>
