<svg width="48" height="48" viewBox="0 0 48 48" fill="none" xmlns="http://www.w3.org/2000/svg">
<rect width="48" height="48" rx="12" fill="#F7F7F7"/>
<rect x="0.5" y="0.5" width="47" height="47" rx="11.5" stroke="#254441" stroke-opacity="0.12"/>
<path d="M23.9854 27.4083L27.2268 31.0936C28.4277 32.4589 29.0282 33.1416 29.6567 32.9754C30.2852 32.8092 30.5008 31.9108 30.9318 30.1138L33.3229 20.1459C33.9868 17.3783 34.3187 15.9945 33.5808 15.312C32.843 14.6295 31.564 15.1372 29.0061 16.1528L17.1388 20.8645C15.0929 21.6767 14.07 22.0829 14.0051 22.7808C13.9984 22.8522 13.9983 22.9241 14.0047 22.9955C14.0675 23.6937 15.0892 24.1033 17.1326 24.9223C18.0584 25.2934 18.5213 25.479 18.8532 25.8344C18.8905 25.8743 18.9264 25.9157 18.9608 25.9584C19.2666 26.3384 19.3971 26.8371 19.6581 27.8344L20.1465 29.701C20.4005 30.6715 20.5275 31.1568 20.8601 31.223C21.1927 31.2891 21.4823 30.8867 22.0614 30.0819L23.9854 27.4083ZM23.9854 27.4083L23.6676 27.0771C23.3059 26.7001 23.1251 26.5117 23.1251 26.2775C23.1251 26.0433 23.3059 25.8548 23.6676 25.4778L27.2406 21.7541" stroke="#254441" stroke-width="2" stroke-linecap="round" stroke-linejoin="round"/>
</svg>
