<svg width="283" height="108" viewBox="0 0 283 108" fill="none" xmlns="http://www.w3.org/2000/svg">
<mask id="path-1-inside-1_140_890" fill="white">
<path d="M0 12C0 5.37258 5.37258 0 12 0H270.75C277.377 0 282.75 5.37258 282.75 12V96C282.75 102.627 277.377 108 270.75 108H12C5.37258 108 0 102.627 0 96V12Z"/>
</mask>
<path d="M0 12C0 5.37258 5.37258 0 12 0H270.75C277.377 0 282.75 5.37258 282.75 12V96C282.75 102.627 277.377 108 270.75 108H12C5.37258 108 0 102.627 0 96V12Z" fill="#F7F7F7"/>
<path d="M12 0V1H270.75V0V-1H12V0ZM282.75 12H281.75V96H282.75H283.75V12H282.75ZM270.75 108V107H12V108V109H270.75V108ZM0 96H1V12H0H-1V96H0ZM12 108V107C5.92486 107 1 102.075 1 96H0H-1C-1 103.18 4.82029 109 12 109V108ZM282.75 96H281.75C281.75 102.075 276.825 107 270.75 107V108V109C277.93 109 283.75 103.18 283.75 96H282.75ZM270.75 0V1C276.825 1 281.75 5.92487 281.75 12H282.75H283.75C283.75 4.8203 277.93 -1 270.75 -1V0ZM12 0V-1C4.8203 -1 -1 4.8203 -1 12H0H1C1 5.92487 5.92487 1 12 1V0Z" fill="#160704" fill-opacity="0.09" mask="url(#path-1-inside-1_140_890)"/>
<g clip-path="url(#clip0_140_890)">
<path d="M186.75 62.6849V45.0457H189.764V47.3063C190.757 45.5938 192.847 44.532 195.21 44.532C199.08 44.532 201.889 46.587 201.889 51.8959V62.6849H198.806V52.3412C198.806 49.0531 197.196 47.4433 194.525 47.4433C191.511 47.4433 189.833 49.4983 189.833 52.4439V62.6849H186.75Z" fill="#160704"/>
<path d="M176.131 63.1986C170.685 63.1986 167.226 59.5338 167.226 53.7797C167.226 48.2653 170.753 44.532 175.857 44.532C180.926 44.532 184.488 47.9571 184.488 52.8549C184.488 54.2592 184.488 54.5675 184.419 54.8757H170.445C170.651 58.335 172.808 60.4586 176.165 60.4586C178.528 60.4586 180.172 59.431 180.994 57.5473H184.18C183.255 61.0751 180.275 63.1986 176.131 63.1986ZM170.445 52.3412H181.234C181.097 49.1901 179.042 47.2378 175.857 47.2378C172.808 47.2378 170.788 49.1216 170.445 52.3412Z" fill="#160704"/>
<path d="M140.07 63.1986C136.508 63.1986 133.905 61.2806 133.905 57.9582C133.905 54.636 136.269 53.1289 139.043 52.6152L143.358 51.7932C144.831 51.5191 145.688 51.1424 145.688 49.8066C145.688 48.2653 144.386 47.2378 141.783 47.2378C139.659 47.2378 137.81 48.0941 137.57 50.0464H134.385C134.59 46.587 137.741 44.532 141.817 44.532C146.749 44.532 148.77 46.998 148.77 49.9094V58.9515C148.77 59.7736 149.147 60.1846 149.832 60.1846C150.414 60.1846 150.757 60.0476 151.065 59.8421V62.3424C150.585 62.7534 149.763 63.0274 148.77 63.0274C147.332 63.0274 146.098 62.1026 145.79 60.5956C144.968 61.7601 143.256 63.1986 140.07 63.1986ZM137.091 57.8556C137.091 59.6366 138.598 60.4929 140.618 60.4929C143.461 60.4929 145.688 58.883 145.688 56.3828V53.5399C145.345 53.9167 144.283 54.225 143.016 54.4647L140.139 55.0127C138.084 55.3895 137.091 56.28 137.091 57.8556Z" fill="#160704"/>
<path d="M124.645 62.6892V45.0501H127.659V47.9957C128.515 45.9064 130.056 44.6733 132.488 44.6733C133.002 44.6733 133.515 44.7761 133.789 44.8446V47.9957C133.515 47.9272 132.933 47.8244 132.351 47.8244C129.337 47.8244 127.727 50.1877 127.727 53.9553V62.6892H124.645Z" fill="#160704"/>
<path d="M119.244 45.0454H123.217L116.093 52.0326L123.594 62.6846H119.998L114.004 54.1561L111.058 56.9647V62.6846H107.976V45.0454H111.058V53.1286L119.244 45.0454Z" fill="#160704"/>
<path d="M163.763 45.0454H167.736L160.612 52.0326L168.112 62.6846H164.516L158.522 54.1561L155.577 56.9647V62.6846H152.494V45.0454H155.577V53.1286L163.763 45.0454Z" fill="#160704"/>
<path d="M92.435 44.532C85.9581 44.532 80.708 49.8509 80.708 56.4121V61.5031C80.708 62.4397 81.4572 63.1982 82.3821 63.1982C83.307 63.1982 84.0617 62.4397 84.0617 61.5031V56.4121C84.0617 55.4728 84.8082 54.7141 85.7358 54.7141C86.6607 54.7141 87.4099 55.4728 87.4099 56.4121V61.5031C87.4099 62.4397 88.1591 63.1982 89.084 63.1982C90.0116 63.1982 90.7608 62.4397 90.7608 61.5031V56.4121C90.7608 55.4728 91.5101 54.7141 92.435 54.7141C93.3626 54.7141 94.1145 55.4728 94.1145 56.4121V61.5031C94.1145 62.4397 94.8637 63.1982 95.7887 63.1982C96.7135 63.1982 97.4628 62.4397 97.4628 61.5031V56.4121C97.4628 55.4728 98.212 54.7141 99.1423 54.7141C100.067 54.7141 100.816 55.4728 100.816 56.4121V61.5031C100.816 62.4397 101.566 63.1982 102.493 63.1982C103.418 63.1982 104.167 62.4397 104.167 61.5031V56.4121C104.167 49.8509 98.9145 44.532 92.435 44.532Z" fill="#160704"/>
</g>
<defs>
<clipPath id="clip0_140_890">
<rect width="121.333" height="20" fill="white" transform="translate(80.708 44)"/>
</clipPath>
</defs>
</svg>
