<svg width="160" height="31" viewBox="0 0 160 31" fill="none" xmlns="http://www.w3.org/2000/svg">
<path d="M16.9209 0C17.2062 3.49909e-05 17.4375 0.231306 17.4375 0.516602V10.8066L24.7148 3.53027C24.9166 3.32853 25.2435 3.32851 25.4453 3.53027L27.4541 5.53906C27.6559 5.74083 27.6558 6.06776 27.4541 6.26953L20.1611 13.5625H30.4834C30.7687 13.5625 31 13.7938 31 14.0791V16.9209C31 17.2062 30.7687 17.4375 30.4834 17.4375H20.1836L27.46 24.7139C27.6614 24.9156 27.6615 25.2427 27.46 25.4443L25.4502 27.4541C25.2485 27.6555 24.9214 27.6555 24.7197 27.4541L17.4375 20.1709V30.4834C17.4375 30.7687 17.2062 31 16.9209 31H14.0791C13.7938 31 13.5625 30.7687 13.5625 30.4834V20.1611L6.26465 27.46C6.06292 27.6614 5.73587 27.6615 5.53418 27.46L3.52441 25.4502C3.32295 25.2485 3.323 24.9214 3.52441 24.7197L10.8066 17.4375H0.516602C0.231306 17.4375 3.56938e-05 17.2062 0 16.9209V14.0791C3.47028e-05 13.7938 0.231306 13.5625 0.516602 13.5625H10.8291L3.53027 6.26367C3.3285 6.0619 3.3285 5.73497 3.53027 5.5332L5.53906 3.52441C5.74083 3.32264 6.06776 3.32264 6.26953 3.52441L13.5625 10.8164V0.516602C13.5625 0.231307 13.7938 3.67368e-05 14.0791 0H16.9209ZM15.8662 12.6621C15.6646 12.4605 15.3375 12.4607 15.1357 12.6621L12.6689 15.1279C12.4672 15.3297 12.4672 15.6576 12.6689 15.8594L15.1357 18.3252C15.3375 18.5267 15.6645 18.5269 15.8662 18.3252L18.332 15.8594C18.5338 15.6576 18.5338 15.3297 18.332 15.1279L15.8662 12.6621Z" fill="#F7F7F7"/>
<path d="M41.078 26.8428V3.57291H51.217C56.702 3.57291 60.1925 7.06339 60.1925 11.3849C60.1925 15.7065 56.702 19.197 51.217 19.197H44.9009V26.8428H41.078ZM44.9009 15.5403H51.217C54.5412 15.5403 56.2034 13.9114 56.2034 11.3849C56.2034 8.8585 54.5412 7.2296 51.217 7.2296H44.9009V15.5403ZM61.0171 19.8618H65.0062C65.1724 20.6596 65.5048 21.3577 65.9702 21.9561C66.768 22.9866 68.1975 24.0171 70.8236 24.0171C74.5136 24.0171 75.9763 22.5212 75.9763 20.5267C75.9763 18.6983 74.0149 17.834 71.555 17.1692C67.4661 16.1054 62.0143 15.0084 62.0143 9.88902C62.0143 6.26557 65.3386 2.90806 70.6574 2.90806C74.713 2.90806 77.04 4.63668 78.27 6.33205C79.0013 7.32933 79.5 8.45958 79.7992 9.7228H75.81C75.6438 9.09119 75.3779 8.55931 74.979 8.06067C74.2809 7.2296 73.0177 6.39854 70.6574 6.39854C67.4994 6.39854 66.0035 7.89446 66.0035 9.7228C66.0035 11.5179 67.9648 12.4487 70.4247 13.1136C74.5136 14.3103 79.9654 15.3076 79.9654 20.3605C79.9654 24.1834 76.6411 27.5076 70.8236 27.5076C66.4356 27.5076 63.9424 25.6128 62.6127 23.6847C61.8149 22.5877 61.283 21.2912 61.0171 19.8618ZM80.2822 7.2296V3.57291H99.3968V7.2296H91.7509V26.8428H87.928V7.2296H80.2822ZM97.558 26.8428L103.542 3.57291H113.016L119.166 26.8428H115.177L113.581 20.8591H102.877L101.381 26.8428H97.558ZM103.874 17.2024H112.65L110.024 7.2296H106.367L103.874 17.2024ZM120.651 26.8428V3.57291H124.474V13.2133H128.297L135.278 3.57291H139.766L131.621 14.7092L140.098 26.8428H135.444L128.463 16.87H124.474V26.8428H120.651ZM141.267 26.8428V3.57291H158.054V7.2296H145.09V13.2133H155.561V16.87H145.09V23.1861H158.054V26.8428H141.267Z" fill="#F7F7F7"/>
</svg>
